<svg xmlns="http://www.w3.org/2000/svg" width="23.633" height="23.633" viewBox="0 0 23.633 23.633">
  <path id="Icon_akar-instagram-fill" data-name="Icon akar-instagram-fill" d="M8.445,1.571C9.7,1.513,10.107,1.5,13.316,1.5s3.612.014,4.871.071a8.7,8.7,0,0,1,2.87.549,6.049,6.049,0,0,1,3.455,3.456,8.69,8.69,0,0,1,.55,2.868c.058,1.262.071,1.664.071,4.873s-.014,3.612-.071,4.872a8.663,8.663,0,0,1-.55,2.868,6.033,6.033,0,0,1-3.455,3.456,8.69,8.69,0,0,1-2.868.55c-1.261.058-1.663.071-4.873.071s-3.612-.014-4.872-.071a8.663,8.663,0,0,1-2.868-.55A5.8,5.8,0,0,1,3.483,23.15,5.792,5.792,0,0,1,2.12,21.057a8.721,8.721,0,0,1-.549-2.868c-.058-1.262-.071-1.664-.071-4.873s.014-3.612.071-4.871a8.7,8.7,0,0,1,.549-2.87A5.8,5.8,0,0,1,3.484,3.483,5.792,5.792,0,0,1,5.576,2.12a8.721,8.721,0,0,1,2.868-.549ZM18.091,3.7c-1.246-.057-1.62-.069-4.775-.069s-3.529.012-4.775.069A6.531,6.531,0,0,0,6.347,4.1,3.9,3.9,0,0,0,4.1,6.347,6.531,6.531,0,0,0,3.7,8.542c-.057,1.246-.069,1.62-.069,4.775s.012,3.529.069,4.775A6.531,6.531,0,0,0,4.1,20.286a3.9,3.9,0,0,0,2.242,2.242,6.531,6.531,0,0,0,2.195.407c1.246.057,1.619.069,4.775.069s3.529-.012,4.775-.069a6.531,6.531,0,0,0,2.195-.407,3.9,3.9,0,0,0,2.242-2.242,6.531,6.531,0,0,0,.407-2.195c.057-1.246.069-1.62.069-4.775s-.012-3.529-.069-4.775a6.531,6.531,0,0,0-.407-2.195A3.9,3.9,0,0,0,20.286,4.1,6.531,6.531,0,0,0,18.091,3.7ZM11.807,16.959a3.942,3.942,0,1,0-2.432-3.642,3.941,3.941,0,0,0,2.432,3.642ZM9.022,9.022a6.074,6.074,0,1,1,0,8.589,6.074,6.074,0,0,1,0-8.589Zm11.715-.874a1.436,1.436,0,1,0-2-.029,1.436,1.436,0,0,0,2,.029Z" transform="translate(-1.5 -1.5)"/>
</svg>
