<svg width="4081" height="2324" viewBox="0 0 4081 2324" fill="none" xmlns="http://www.w3.org/2000/svg">
<path d="M2657.21 0.844727C2764.92 162.976 3162 472 3513.5 565.5C3413 328 3166.41 179.299 2657.21 0.844727Z" fill="#D9D9D9"/>
<path d="M2573.25 42.0578C2680.96 204.189 2931.5 561.5 3283 655C3182.5 417.5 3082.45 220.512 2573.25 42.0578Z" fill="#D9D9D9"/>
<path d="M2087 247.501C2217.5 401.5 2760.04 649.218 3111.54 742.718C3011.04 505.218 2602.5 388.001 2087 247.501Z" fill="#D9D9D9"/>
<path d="M1735.22 402.945C1916.5 542 2546 749.5 2894 806.506C2793.5 569.006 2043.5 458.504 1735.22 402.945Z" fill="#D9D9D9"/>
<path d="M1226.32 590.797C1930 847 2422 809.994 2770 867C2255.5 646.5 1551.5 629 1226.32 590.797Z" fill="#D9D9D9"/>
<path d="M1026 688.282C1729.68 944.486 2219 893.494 2567 950.5C2052.5 730 1351.18 726.486 1026 688.282Z" fill="#D9D9D9"/>
<path d="M885 744.56C1588.68 1000.76 2078 949.771 2426 1006.78C1911.5 786.278 1210.18 782.763 885 744.56Z" fill="#D9D9D9"/>
<path d="M826 953.56C1467 1098 2045.5 1050 2334.5 1050C1773.5 871.5 1164.5 953.56 826 953.56Z" fill="#D9D9D9"/>
<path d="M402 1215.33C1061 1271 1928.5 1164.17 2196.5 1118.5C1392.5 1023 722.5 1182.5 402 1215.33Z" fill="#D9D9D9"/>
<path d="M329 1415.26C930 1435.5 1758.5 1255.67 2026.5 1210C1158 1222.5 644 1352 329 1415.26Z" fill="#D9D9D9"/>
<path d="M145 1602.91C783 1572.5 1532 1376.17 1800 1330.5C958.5 1393 460 1539.65 145 1602.91Z" fill="#D9D9D9"/>
<path d="M0 1978.84C644 1811 1433 1498 1680 1391.5C905 1550 329 1840 0 1978.84Z" fill="#D9D9D9"/>
<path d="M529.5 2323.5C1015 2037.5 1596 1542.5 1693.5 1406.5C1179.5 1730.5 724.5 2147 529.5 2323.5Z" fill="#D9D9D9"/>
<path d="M1693.5 1387.5C1969 1174 3287.5 640.499 3717.5 500.499C3722.5 503.999 3723 506.999 3732.5 516.499C3299.12 656.827 2164 1124 1709 1396C1704.5 1399.5 1692 1391.5 1693.5 1387.5Z" fill="#D9D9D9"/>
<path d="M4080.5 1428C3993 877.5 3625.5 611.999 3541 582.5C3635.5 1022 4023.5 1382 4080.5 1428Z" fill="#D9D9D9"/>
<path d="M3635.5 1579.5C3677.5 1130.5 3468.5 752.5 3288.01 677.891C3311 1115 3578.5 1533.5 3635.5 1579.5Z" fill="#D9D9D9"/>
<path d="M3242 1689.5C3376.5 1292.5 3309.5 911 3129.5 747.5C3129.5 877 3029 1233.5 3242 1689.5Z" fill="#D9D9D9"/>
<path d="M2869.5 1786C3026 1442 3102.5 984 2922.5 820.5C2886.36 917.001 2731.5 1245 2869.5 1786Z" fill="#D9D9D9"/>
<path d="M2521 1963.5C2711.5 1690.5 2856.5 1078 2796.86 876.001C2760.72 972.501 2467 1457 2521 1963.5Z" fill="#D9D9D9"/>
<path d="M2334.92 2043.5C2525.42 1770.5 2670.42 1158 2610.78 956C2574.64 1052.5 2280.92 1537 2334.92 2043.5Z" fill="#D9D9D9"/>
<path d="M2214 2097.5C2354.5 1840 2463 1236 2450.78 1019C2414.64 1115.5 2214 1658 2214 2097.5Z" fill="#D9D9D9"/>
<path d="M2030 2036C2170.5 1778.5 2395 1308 2362.12 1069C2325.99 1165.5 2089.5 1584.5 2030 2036Z" fill="#D9D9D9"/>
<path d="M1771.5 2233.5C1951 2044.5 2264.44 1366 2231.56 1127C2170 1209 1820.5 1654 1771.5 2233.5Z" fill="#D9D9D9"/>
<path d="M1436.5 2219.5C1632 2050.5 2012.5 1491 2030.47 1221.8C1967.96 1303.16 1560 1796.5 1436.5 2219.5Z" fill="#D9D9D9"/>
<path d="M1104 2324C1299.5 2155 1800.53 1611.2 1818.5 1342C1755.99 1423.36 1227.5 1901 1104 2324Z" fill="#D9D9D9"/>
</svg>
