<svg xmlns="http://www.w3.org/2000/svg" width="20.674" height="20.674" viewBox="0 0 20.674 20.674">
  <path id="Icon_akar-linkedin-fill" data-name="Icon akar-linkedin-fill" d="M10.679,10.2h3.839v1.912a4.4,4.4,0,0,1,4.1-2.088c4.084,0,5.054,2.189,5.054,6.206v7.439H19.539V17.149c0-2.288-.553-3.578-1.961-3.578-1.953,0-2.764,1.39-2.764,3.577v6.526H10.679ZM3.589,23.5H7.724V10.028H3.589V23.5ZM8.316,5.636A2.615,2.615,0,0,1,7.538,7.5,2.657,2.657,0,0,1,3,5.636a2.619,2.619,0,0,1,.778-1.864,2.674,2.674,0,0,1,3.76,0A2.624,2.624,0,0,1,8.316,5.636Z" transform="translate(-3 -3)"/>
</svg>
