<svg xmlns="http://www.w3.org/2000/svg" width="21.109" height="21.11" viewBox="0 0 21.109 21.11">
  <path id="pinterest" d="M21.11,18.555A10.556,10.556,0,0,1,7.431,28.637a11.865,11.865,0,0,0,1.311-2.766c.128-.494.655-2.511.655-2.511a2.827,2.827,0,0,0,2.417,1.213c3.183,0,5.477-2.928,5.477-6.567a6.2,6.2,0,0,0-6.507-6.095c-4.554,0-6.976,3.056-6.976,6.388,0,1.549.826,3.477,2.141,4.09.2.094.306.051.353-.14.034-.145.213-.864.294-1.2a.316.316,0,0,0-.072-.3,4.157,4.157,0,0,1-.779-2.409,4.567,4.567,0,0,1,4.767-4.579,4.167,4.167,0,0,1,4.409,4.294c0,2.856-1.443,4.835-3.32,4.835a1.531,1.531,0,0,1-1.562-1.907,21.209,21.209,0,0,0,.872-3.515,1.325,1.325,0,0,0-1.336-1.485c-1.06,0-1.911,1.094-1.911,2.562a3.8,3.8,0,0,0,.315,1.566S6.937,24.53,6.746,25.356a10.217,10.217,0,0,0-.038,3.03,10.556,10.556,0,1,1,14.4-9.831Z" transform="translate(0 -8)"/>
</svg>
