<?xml version="1.0" encoding="UTF-8"?>
<svg xmlns="http://www.w3.org/2000/svg" version="1.1" viewBox="0 0 2600.99 1676.85">
  <!-- Generator: Adobe Illustrator 29.1.0, SVG Export Plug-In . SVG Version: 2.1.0 Build 142)  -->
  <defs>
    <style>
      .st0 {
        fill: #1e3454;
      }

      .st1 {
        fill: #1c75bc;
      }

      .st2 {
        display: none;
      }

      .st3 {
        fill: #f7f5bc;
      }
    </style>
  </defs>
  <g id="Layer_6" class="st2">
    <path class="st3" d="M1982.14-764.04c-.65-1.04-1.33-2.03-2.02-3.05-4.46-6.64-18.84-25.31-24.08-31.15-1.35-1.5-2.68-2.93-4.19-4.29-10.53-9.44-21.46-19.07-33.86-25.92-.72-.4-1.44-.81-2.17-1.2-9.84-5.29-27.65-12.53-38.23-16.18-19.97-6.89-42.56-9.72-63.7-7.61-21.41,2.14-44.21,4.02-64.63,11.83-4.34-4.23-9.18-7.95-14.56-11.14-9.39-9.33-20.46-15.78-33.21-19.35-11.74-6.81-24.4-10.23-37.98-10.27-20-4.48-40.01-3.58-60.01,2.69-34.94,7.58-69.47,16.36-103.63,26.19,0-.18.01-.36.01-.55,0-1.48-.09-2.92-.18-4.39-.82-7.41-1.8-14.79-2.93-22.16-.78-7.41-1.79-14.79-3.04-22.13-4.02-17.33-10.84-34.95-21.34-49.36-8.43-11.58-16.92-24.9-27.71-34.51-7.83-6.98-23.09-19.22-31.96-24.62-1.29-.79-2.62-1.45-3.96-2.14-12.91-6.62-26.72-13.26-41.04-16.78-6.76-1.66-20.46-2.84-22.67-3.13-3.83-.51-15.56-2.81-22.74-2.87-8.83-.08-18.18,1.92-26.59,3.05-8.93,1.2-18.85,1.78-27.78,4.4-2.69.79-5.27,1.82-7.86,2.87-13.96,5.65-28.39,11.02-41.81,17.95-5.5,2.84-10.73,6.21-15.7,9.91-32.66,24.3-62.91,51.12-93.28,78.13-44.44,39.53-88.27,79.76-131.46,120.65-85.73,81.18-168.96,165.01-249.53,251.32-80.87,86.64-159.07,175.77-234.43,267.24C411.23-180.31,331.6-77.37,255.26,27.82c-8.67,11.94-17.29,23.92-25.87,35.93-11,17.27-16.95,35.93-17.86,55.96-4.48,20-3.58,40.01,2.69,60.01,4.66,19.58,13.64,36.65,26.94,51.18,10.61,16.38,24.69,29.31,42.23,38.76,11.98,5.06,23.97,10.11,35.95,15.17,26.67,7.17,53.35,7.17,80.02,0,11.98-5.06,23.97-10.11,35.95-15.17,22.62-13.38,40.61-31.38,53.99-53.99,38.09-53.32,77.09-105.97,116.96-157.97,88.12-113.23,180.43-223.19,276.76-329.52,73.1-80.69,148.49-159.29,226.05-235.69,12.9,19.66,29.56,35.55,50.02,47.65,23.47,13.61,48.79,20.46,75.96,20.55,27.17-.08,52.49-6.93,75.96-20.55,25.29-12.77,50.88-24.91,76.76-36.42,6.18,17.36,16.2,32.47,30.06,45.35,10.15,7.84,20.31,15.69,30.46,23.53,11.96,5.05,23.91,10.09,35.87,15.14-15.98,22.66-32.04,45.26-48.19,67.8-11,17.28-16.95,35.93-17.86,55.96-4.48,20-3.58,40.01,2.69,60.01,4.66,19.58,13.64,36.65,26.94,51.18,10.61,16.38,24.69,29.3,42.23,38.76,11.98,5.06,23.97,10.11,35.95,15.17,26.67,7.17,53.35,7.17,80.02,0,11.98-5.06,23.97-10.11,35.95-15.17,22.61-13.38,40.61-31.38,53.99-53.99,76.79-107.2,151.68-215.75,224.59-325.62,20.72-31.22,41.27-62.54,61.67-93.97,28.34-43.65,27.2-108.16,0-151.92Z"/>
    <path class="st3" d="M2441.89,58.93c-3.24-20.3-11.45-38.61-24.65-54.94-24.81-30.34-59.5-55.6-99.6-60.07-41.73-4.66-81.77,3.96-116.38,28.84-42.56,30.59-85.11,61.18-127.67,91.77-9.1-2.38-18.46-3.04-28.09-1.98-20.89-2.26-41.17.97-60.82,9.66-74.9,35.48-142.8,81.39-206.3,133.9-1.72-1.69-3.49-3.34-5.32-4.93-8.12-10.75-18.32-18.87-30.61-24.38-10.64-8.42-22.66-13.71-36.06-15.88-12.74-5.58-26.03-7.61-39.87-6.08-20.89-2.26-41.17.97-60.82,9.66-34.94,17.33-68,36.77-99.33,58.64-20.79-14.49-43.95-24.4-68.86-29.46-21.1-4.08-41.58-2.68-61.44,4.19-20.3,3.24-38.61,11.45-54.94,24.65-50.57,42.35-101.14,84.7-151.7,127.06-20.6-14.21-43.51-23.94-68.12-28.94-21.1-4.08-41.58-2.68-61.44,4.19-20.3,3.24-38.61,11.45-54.94,24.65-31.04,26.05-62.07,52.1-93.11,78.15-4.72-6.17-10.06-11.87-16.05-17.09-8.12-10.75-18.32-18.87-30.61-24.38-16.34-11.87-34.75-19.05-55.24-21.53-13.79-.29-27.58-.57-41.37-.86-27.66,3.22-52.66,13.12-75,29.69-110.77,70.2-218.3,145.47-322.12,225.56-12.23-11.26-26-20.46-40.31-26.07-37.71-14.77-81.87-19.31-119.88-2.07-11.62,6.53-23.25,13.07-34.87,19.6-21.49,16.24-37.75,36.65-48.77,61.23-24.98,78.56-43.81,157.4-48.65,239.85l-.86,41.37c3.36,13.38,6.73,26.76,10.09,40.13,6.53,11.62,13.07,23.25,19.6,34.87,11.66,16.77,26.44,29.62,44.36,38.54,10.64,8.42,22.66,13.71,36.06,15.88,12.74,5.58,26.03,7.61,39.87,6.08,14,2.11,27.58.57,40.75-4.62,20.3-3.24,38.61-11.45,54.94-24.65,17.18-15.32,34.48-30.49,51.9-45.53,2.82,4.37,5.88,8.57,9.19,12.53,28.02,33.45,63.21,55.69,106.36,63.95,18.45,3.53,38.13,4.22,56.71,1.05,15.57-2.65,32.32-6.98,47.37-12.06,2.89-.98,5.66-2.21,8.43-3.49,13.76-6.37,27.74-14.79,40.66-22.69,3.26-1.99,6.38-4.11,9.38-6.47,34.67-27.36,67.83-56.9,101.66-85.3,55.21-46.34,110.42-92.68,165.63-139.02.72.31,1.43.63,2.15.93,51.4,21.38,103.64,20.65,155.71,2.48,19.15-6.68,37.64-17.03,54.67-28.92,6.56,8.42,14.31,15.95,23.28,22.57,21.61,15.75,45.9,26.44,72.11,31.76,21.1,4.08,41.58,2.68,61.44-4.19,20.3-3.24,38.61-11.45,54.94-24.65,40.84-30.89,77.95-65.63,113.44-102.05,3.99,2.77,8.26,5.18,12.83,7.22,10.64,8.42,22.66,13.71,36.06,15.88,12.74,5.58,26.03,7.61,39.87,6.08,20.89,2.25,41.17-.97,60.82-9.66,81.71-40.96,154.47-92.57,223.23-152.36,50.93-44.28,99.85-90.9,151.67-134.14,5.38,1.61,10.84,2.99,16.4,4.12,38.91,7.9,84.91-6.22,116.38-28.84,96.65-69.47,193.3-138.94,289.95-208.42,31.13-22.37,54.16-62,60.07-99.6,4.08-21.1,2.68-41.58-4.19-61.44Z"/>
  </g>
  <g id="Layer_5" class="st2">
    <path class="st1" d="M1487.69-9.2c8.68-6.06,17.35-12.12,26.02-18.17l3.25-2.27,1.09-.75c1.74-1.18,3.51-2.34,5.28-3.47,1.78-1.13,3.57-2.24,5.38-3.32l1.49-.87,1.57-.89,3.16-1.74c2.12-1.14,4.25-2.25,6.4-3.33l1.75-.85,1.85-.87,3.73-1.69c2.5-1.1,5.02-2.15,7.55-3.15,2.86-1.1,5.75-2.13,8.66-3.1,1.46-.48,2.92-.95,4.38-1.4l2.2-.66,2.4-.67c3.27-.89,6.57-1.7,9.89-2.42,1.66-.36,3.32-.7,4.98-1.02,1.77-.33,3.61-.64,5.43-.91,3.64-.56,7.3-1.02,10.96-1.37,1.78-.18,3.78-.32,5.72-.44,1.95-.11,3.9-.2,5.85-.25,1.95-.06,3.91-.08,5.86-.08l2.92.03,3.01.1c8.06.34,16.07,1.13,24.04,2.56,3.97.7,7.98,1.52,11.83,2.48,3.83.96,7.63,2.03,11.4,3.22,1.87.59,3.79,1.22,5.58,1.86,1.77.63,3.53,1.29,5.28,1.98,3.5,1.37,6.98,2.85,10.38,4.41,3.17,1.49,6.32,3.07,9.41,4.73,1.55.83,3.09,1.68,4.61,2.55l2.14,1.26,2.07,1.25c2.75,1.69,5.46,3.45,8.12,5.27l1.95,1.35,1.78,1.28c1.18.86,2.36,1.74,3.52,2.63s2.32,1.79,3.47,2.7l1.71,1.38,1.6,1.33c2.02,1.7,4,3.45,5.96,5.23l2.9,2.7c.95.9,1.73,1.67,2.59,2.53,1.68,1.68,3.34,3.38,4.97,5.11,1.7,1.8,3.04,3.31,4.46,4.93,1.4,1.61,2.78,3.24,4.14,4.89.71.86,1.27,1.58,1.87,2.33l1.77,2.28c1.17,1.53,2.32,3.07,3.45,4.62,2.07,2.88,3.99,5.71,5.9,8.64,1.71,2.68,3.35,5.36,4.96,8.08,6.05,10.43,10.24,19.54,13.64,27.93,3.38,8.38,5.92,16.03,8.02,23.26,2.06,7.18,3.66,13.93,4.99,20.47,2.61,13.02,4.09,25.11,4.87,37.07.76,11.94.79,23.74.04,35.91-.78,12.19-2.29,24.72-5.1,38.28-1.42,6.8-3.11,13.76-5.36,21.2l-.84,2.76-.92,2.85-.94,2.84-.48,1.42-.53,1.48c-.7,1.97-1.43,3.93-2.17,5.88-.79,2.02-1.61,4.07-2.45,6.1-3.45,8.23-7.6,16.88-12.87,25.99-5.36,9.19-11.86,18.87-20.06,28.75-8.2,9.87-18.12,19.96-30.15,29.43l-.28.22c-.71,1.23,1.5-3.08.94-1.95l.04-.02.08-.03.15-.07.31-.14.61-.29,1.23-.59c6.52-3.18,13.05-6.36,19.58-9.55-4.49,2.51-8.98,5.03-13.47,7.54l-6.66,3.69-.83.45-.1.05c1.05-1.93-1.72,2.82-.69,1.75l3.15-2.54c2.09-1.71,4.15-3.46,6.17-5.23,1.92-1.72,3.82-3.47,5.68-5.25l2.78-2.69c.9-.89,1.73-1.75,2.59-2.64,1.7-1.77,3.38-3.56,5.03-5.37,1.63-1.8,3.09-3.51,4.61-5.3,6.07-7.18,11-14.04,15.53-20.93,1.07-1.66,2.11-3.31,3.13-4.99,1.01-1.66,2.07-3.4,2.96-4.97,1.82-3.19,3.69-6.56,5.22-9.61,6.43-12.59,10.95-24.18,14.46-34.99,3.49-10.82,5.93-20.84,7.77-30.41,3.64-19.13,4.98-36.45,4.98-53.67-.02-8.61-.42-17.18-1.23-25.94-.82-8.76-2.04-17.71-3.88-27.16-1.84-9.44-4.28-19.43-7.92-30.55l-1.4-4.18-1.59-4.4c-1.03-2.84-2.33-6.06-3.59-9.1l-1.02-2.39-1.08-2.45-1.11-2.44-.56-1.22-.62-1.3c-.84-1.74-1.69-3.47-2.57-5.19l-.66-1.29-.74-1.39-1.5-2.77-1.53-2.75c-.49-.88-1.08-1.88-1.67-2.88-1.17-1.98-2.37-3.94-3.59-5.88l-.98-1.53-1.04-1.59-2.12-3.15-2.18-3.13-2.49-3.38-2.55-3.34-1.3-1.65-1.44-1.78c-1.98-2.4-4-4.77-6.08-7.09-4.6-5.05-9.26-9.82-15.27-15.14-1.44-1.28-2.9-2.54-4.38-3.78-1.62-1.35-3.31-2.69-5-4-3.43-2.65-6.66-5.05-10.75-7.76-1.96-1.31-3.95-2.58-5.95-3.82l-3.02-1.83c-.99-.59-2.19-1.27-3.28-1.88-2.24-1.25-4.51-2.46-6.79-3.63l-3.45-1.72c-1.16-.56-2.28-1.1-3.57-1.68-5.01-2.26-10.12-4.32-15.3-6.16-5.44-1.89-11-3.54-16.59-4.95-5.66-1.4-11.53-2.53-17.36-3.41-5.83-.87-11.7-1.4-17.59-1.7-1.47-.07-2.94-.13-4.41-.17-1.43-.03-2.85-.04-4.28-.04-2.85,0-5.71.07-8.57.2-1.43.06-2.85.14-4.27.24-1.45.09-2.82.21-4.14.34-2.68.26-5.36.57-8.03.93-2.67.37-5.33.78-7.98,1.26-2.49.46-4.88.96-7.32,1.5-2.42.55-4.83,1.14-7.23,1.77-1.18.31-2.43.65-3.55.97l-3.22.97c-4.27,1.33-8.55,2.81-12.68,4.39-3.71,1.46-7.38,3.02-11.01,4.69l-2.71,1.27c-.95.45-1.62.79-2.44,1.2-1.57.79-3.13,1.6-4.68,2.43-1.55.83-3.09,1.67-4.62,2.54l-2.25,1.29-1.98,1.19c-2.63,1.6-5.23,3.25-7.8,4.95l-2.58,1.73-2.36,1.59-4.71,3.17c-12.56,8.47-25.13,16.94-37.71,25.41l-18.85,12.74-18.6,12.98c-12.4,8.67-24.8,17.34-37.22,26.01-6.24,4.31-12.32,8.75-18.45,13.16l-18.37,13.25-18.37,13.26-9.19,6.64-4.6,3.32-4.54,3.36c-12.1,8.98-24.2,17.96-36.31,26.95l-18.16,13.49c-6.05,4.5-11.99,9.09-17.99,13.63-23.92,18.23-47.99,36.4-71.58,54.92-11.85,9.23-23.7,18.45-35.56,27.69-11.74,9.31-23.48,18.61-35.23,27.92-93.9,74.54-185.96,150.55-277.02,226.52-45.35,37.89-90.72,75.79-136.1,113.71-22.59,18.82-45.18,37.65-67.77,56.47l-68.54,56.75c-3.68,3.07-7.31,6.2-10.86,9.42l-5.22,4.77-4.08,3.8c-5.1,4.78-9.53,9.02-13.81,13.12l-24.07,23.11c-7.7,7.36-15.19,14.45-22.53,21.26-7.32,6.79-14.5,13.34-21.35,19.37-6.84,6.04-13.43,11.62-19.12,16.16-2.83,2.26-5.44,4.27-7.52,5.79-2.05,1.51-3.66,2.55-3.8,2.58h0s1.82,2.78,1.82,2.78l4.46,6.96,2.2,3.5,1.09,1.73,1.05,1.62,4.15,6.52c2.74,4.36,5.42,8.77,8.04,13.22l3.77,6.2c1.24,2.05,2.46,4.12,3.66,6.2s2.39,4.16,3.57,6.26l.88,1.58.44.79.42.72,1.67,2.88c2.2,3.85,4.34,7.75,6.39,11.7l1.53,2.96,1.46,2.69c.96,1.8,1.91,3.61,2.83,5.44.92,1.82,1.82,3.66,2.7,5.51.44.9.88,1.91,1.3,2.73l1.24,2.5c1.63,3.34,3.17,6.74,4.61,10.2.36.91.71,1.63,1.06,2.4l1.01,2.31c.66,1.54,1.29,3.1,1.9,4.68l.89,2.37.43,1.19.42,1.05c.56,1.39,1.08,2.79,1.57,4.21s.95,2.85,1.38,4.3c.11.35.21.75.32,1.06l.32.93c.21.62.41,1.25.6,1.87.38,1.26.72,2.53,1.02,3.82l.43,1.92c.15.54.3,1.08.43,1.63.26,1.09.49,2.2.67,3.32.09.56.17,1.13.24,1.7.08.53.18.93.25,1.41.15.92.25,1.86.31,2.81.03.47.04.96.05,1.43.04.36.07.73.09,1.11.04.74.03,1.5-.04,2.27l-.06.58c-.01.17,0,.28,0,.42,0,.27-.03.55-.06.83-.05.54-.19,1.16-.32,1.65-.04.34-.12.69-.25,1.05-.06.18-.14.36-.22.54-.03.09-.04.15-.07.22-.06.15-.14.31-.26.48,0,0,.05-.07.06-.07,0,0,.01,0,.01,0,.04-.04.15-.18.23-.25.17-.17.34-.31.52-.41.02-.02.04-.02.07-.05l.13-.11.27-.21c.18-.13.36-.25.55-.36.18-.11.37-.21.56-.29l.28-.12c4.56-2.35,1.32-.68,2.36-1.22l.1-.05c.26-.14.51-.26.76-.36.12-.05.25-.09.37-.13l.18-.05.09-.02.16-.06c.42-.17.85-.3,1.27-.41.42-.11.84-.19,1.25-.24.53-.12,1.17-.27,1.75-.35,1.24-.21,2.16-.17,3.85-.36.76-.06,1.51-.08,2.26-.08.37,0,.75.01,1.12.03l.55.03c.19.01.45,0,.67,0,1.85-.02,3.67.09,5.46.31l.67.09.33.05.4.03,1.61.14c1.07.11,2.13.24,3.18.41,1.05.16,2.09.35,3.12.57.47.12,1.16.19,1.74.3l1.81.31c2.41.44,4.78.99,7.11,1.63,2.61.59,5.34,1.24,7.95,2,1.31.38,2.62.77,3.92,1.19.61.21,1.36.42,2.1.63l2.19.64c2.92.88,5.8,1.83,8.65,2.86l2.13.79,2.38.8c1.58.54,3.15,1.1,4.72,1.68,3.13,1.15,6.22,2.37,9.29,3.66,3.4,1.28,6.77,2.63,10.11,4.04,1.67.7,3.33,1.42,4.98,2.16,1.67.73,3.23,1.48,5.1,2.25,3.6,1.54,7.18,3.13,10.72,4.77l5.29,2.51,2.63,1.29,2.86,1.32c3.8,1.78,7.58,3.6,11.33,5.47l5.6,2.85,2.78,1.45,3,1.49c4,2,7.98,4.05,11.92,6.14l.61.32h0s0,0,0,0h0s-.02.04.02,0c.1-.14.19-.28.27-.43l1.25-1.97c1.09-1.69,2.6-3.96,4.38-6.52,1.83-2.6,3.92-5.49,6.17-8.52,2.28-3.06,4.76-6.27,7.33-9.57,2.63-3.33,5.32-6.72,8.17-10.2,5.67-6.95,11.72-14.14,18.04-21.45,12.62-14.62,26.19-29.63,40.33-44.91l21.9-23.47,12.04-12.9,3.4-3.69,4.65-5.15c3.22-3.6,6.37-7.25,9.42-10.99,15.2-18.35,30.39-36.7,45.57-55.04l11.13-13.44c3.71-4.49,7.42-8.96,11.18-13.38,7.49-8.88,14.97-17.75,22.46-26.62,7.48-8.87,14.97-17.74,22.45-26.6l11.22-13.3c3.74-4.43,7.54-8.79,11.31-13.18,15.1-17.54,30.19-35.08,45.28-52.6,7.51-8.8,15.18-17.41,22.78-26.08,7.62-8.66,15.23-17.32,22.84-25.98,7.61-8.66,15.22-17.31,22.83-25.96,7.69-8.55,15.38-17.1,23.06-25.64,7.69-8.54,15.37-17.08,23.05-25.62,7.69-8.52,15.32-17.12,23.12-25.5,15.53-16.85,31.04-33.69,46.55-50.51,62.4-66.85,125.6-132.32,189.82-196.06,64.4-63.55,129.76-125.48,196.02-185.78,16.69-14.94,33.36-29.86,50.01-44.76l12.49-11.16,12.64-10.99c8.42-7.32,16.84-14.64,25.26-21.96,8.41-7.31,16.82-14.62,25.23-21.92,8.44-7.26,17-14.4,25.48-21.59,8.5-7.18,16.99-14.35,25.48-21.51l12.73-10.74,6.36-5.37,6.43-5.3c17.17-14.09,34.31-28.15,51.43-42.2l12.99-10.66c4.72-4.02,9.34-8.18,13.85-12.46l3.35-3.23c.54-.52,1.13-1.12,1.71-1.72l1.72-1.8c2.29-2.4,4.55-4.84,6.77-7.32,2.22-2.47,4.4-4.98,6.54-7.51.53-.62,1.08-1.3,1.63-1.99l1.63-2.06,3.22-4.17c2.12-2.8,4.2-5.64,6.23-8.5l3-4.32c1-1.52,1.99-3.07,2.97-4.62,1.95-3.1,3.85-6.24,5.7-9.4.92-1.58,1.83-3.18,2.72-4.77.89-1.6,1.77-3.18,2.63-4.88,3.43-6.7,6.62-13.56,9.55-20.49,2.86-7.05,5.43-14.3,7.75-21.59,2.28-7.29,4.12-14.78,5.77-22.26.84-3.75,1.51-7.5,2.1-11.26.6-3.76,1.13-7.54,1.6-11.32.23-1.89.45-3.78.64-5.67.18-1.88.31-3.74.44-5.62.25-3.74.44-7.49.56-11.25.29-7.57.05-14.83-.35-22.2-.1-1.84-.23-3.67-.36-5.51-.13-1.84-.29-3.66-.5-5.43-.39-3.57-.84-7.14-1.36-10.71-4.16-28.44-12.81-54.8-24.83-78.76-12.05-23.98-27.49-45.72-46.34-65.1-18.84-19.34-41.26-36.38-67.25-49.71-6.58-3.3-13.3-6.38-20.1-9.22-6.96-2.78-14.09-5.29-21.25-7.55-7.24-2.21-14.71-4.07-22.16-5.7-3.71-.84-7.52-1.47-11.32-2.09-3.8-.61-7.62-1.15-11.44-1.61-1.91-.23-3.82-.46-5.73-.64-1.91-.16-3.82-.31-5.74-.43-3.83-.25-7.67-.43-11.51-.55-7.73-.28-15.22,0-22.79.46-3.77.24-7.57.53-11.28.93-3.65.43-7.29.93-10.93,1.49s-7.26,1.18-10.87,1.87l-2.7.53-2.58.57-5.15,1.22c-3.43.84-6.84,1.73-10.23,2.69-3.37.95-6.86,1.95-9.93,3.02-6.32,2.13-12.59,4.45-18.76,6.95-1.59.63-2.99,1.25-4.41,1.88l-4.26,1.93c-2.83,1.31-5.64,2.65-8.44,4.03l-4.18,2.1-3.12,1.62-1.95,1.03c-10.42,5.47-20.82,10.94-31.22,16.41-83.19,43.74-164.94,89.37-244.97,136.75-80.03,47.37-158.33,96.48-234.74,146.97-9.11,5.56-19.35,11.81-30.45,18.59-2.77,1.7-5.6,3.43-8.47,5.19-2.85,1.79-5.75,3.61-8.69,5.46-5.89,3.7-11.95,7.52-18.16,11.42-6.21,3.91-12.55,7.9-19.01,11.96-6.45,4.07-13.04,8.16-19.58,12.45-13.14,8.51-26.57,17.2-39.99,25.9-13.49,8.64-26.7,17.59-39.75,26.24-6.52,4.34-12.96,8.64-19.31,12.86-6.34,4.24-12.62,8.36-18.63,12.52-12.09,8.27-23.63,16.17-34.35,23.5-5.36,3.67-10.52,7.2-15.44,10.57-4.93,3.36-9.52,6.65-13.89,9.69-22.6,17.38-45.59,34.82-68.27,52.94-11.39,9.02-22.83,18.08-34.32,27.19-11.35,9.23-22.76,18.5-34.21,27.81-5.72,4.66-11.46,9.34-17.2,14.02l-4.31,3.52-.27.22c34.9,40.9-78.5-91.23,78.18,91.75l2.07,2.39c1.37,1.6,2.72,3.22,4.06,4.85,2.69,3.36,5.24,6.36,7.75,9.59,9.99,12.68,18.6,24.92,25.36,36.36.85,1.45,1.66,2.75,2.44,4.17l1.15,2.11.56,1.07.55.99c1.45,2.61,2.76,5.45,3.95,7.89.3.64.58,1.28.86,1.93l.41.98.4.89c.53,1.19,1.01,2.41,1.46,3.65.45,1.2.88,2.25,1.25,3.43l.54,1.71c.18.52.34,1.04.49,1.57,1.23,4.25,1.83,8,1.93,10.84.12,2.85-.29,4.76-.58,5.55-.29.8-.39.53.54-.37.92-.91,2.81-2.24,5.56-3.41,2.74-1.18,6.29-2.23,10.29-2.94,4.01-.73,8.43-1.12,13.09-1.28,9.28-.28,19.13.64,28.34,2.16,9.24,1.57,17.84,3.66,25.46,5.98,15.34,4.69,26.43,9.72,34.15,13.72,7.74,4.04,12.25,7.1,15.08,9.15l.98.73c155.42,117.96,43.19,32.56,77.93,58.83l.19-.24.38-.47.76-.95,3.03-3.8c2.02-2.53,4.04-5.07,6.07-7.61,64.72-81.25,139.5-162.5,220.22-243.94,40.44-40.72,82.33-81.51,125.3-122.5,43.01-41,86.96-82.18,131.59-123.8,22.43-20.92,44.85-41.85,67.25-62.75,11.29-10.57,22.58-21.13,33.86-31.69,11.32-10.64,22.63-21.28,33.93-31.91,11.33-10.73,22.65-21.45,33.96-32.16,5.67-5.41,11.33-10.81,16.99-16.22,5.66-5.43,11.32-10.85,16.98-16.27,5.66-5.45,11.31-10.89,16.96-16.33,5.65-5.49,11.3-10.98,16.95-16.46l8.46-8.23,8.31-8.16c5.53-5.44,11.06-10.87,16.58-16.3v-.06s-.06.05.07-.08l.38-.36,1.06-.99,6.36-5.79c5.48-4.91,10.96-9.82,16.43-14.73,5.87-5.26,12-10.79,18.32-16.57,6.33-5.79,12.86-11.84,19.7-18.33,6.84-6.49,13.97-13.4,21.72-21.23,3.89-3.94,7.94-8.11,12.28-12.73,4.35-4.63,8.99-9.7,14.18-15.67,2.62-3.02,5.38-6.27,8.36-9.91,2.99-3.65,6.19-7.67,9.8-12.46,3.61-4.8,7.6-10.29,12.26-17.32l1.83-2.8,1.84-2.88,1.97-3.16,2.03-3.34,2.11-3.59,2.25-3.96,2.3-4.19,2.48-4.72,1.24-2.44,1.35-2.73,1.33-2.75,1.35-2.86c.98-2.13,1.94-4.27,2.87-6.42l1.47-3.46,1.54-3.79,1.49-3.81.78-2.07.83-2.25,1.6-4.52.77-2.27.8-2.42c1.15-3.59,2.24-7.2,3.25-10.83l.81-2.99.83-3.25c.54-2.17,1.06-4.35,1.55-6.53l.72-3.28.78-3.86c.51-2.61.98-5.23,1.41-7.86l.62-3.94c.18-1.22.4-2.77.61-4.38.41-3.14.77-6.29,1.07-9.45l.41-4.73c.12-1.52.23-3.15.34-5.14.21-3.75.34-7.51.39-11.27.03-1.88.03-3.76.02-5.64-.01-1.76-.05-3.89-.13-6.17-.15-4.41-.4-8.82-.77-13.22-.18-2.2-.39-4.4-.63-6.59-.23-2.17-.58-4.96-.92-7.4-.71-5.05-1.56-10.09-2.56-15.08-.52-2.59-.98-4.77-1.66-7.71-.65-2.79-1.35-5.57-2.09-8.35-1.49-5.55-3.16-11.05-5-16.47-.91-2.69-2.04-5.8-3.14-8.66-1.11-2.91-2.28-5.81-3.5-8.69-1.22-2.87-2.49-5.73-3.81-8.55-1.31-2.8-2.68-5.62-4.2-8.55-5.96-11.55-12.79-22.73-20.37-33.16-3.8-5.24-7.8-10.35-11.97-15.28-2.13-2.52-4.05-4.68-6.15-6.99-2.07-2.27-4.18-4.5-6.33-6.69s-4.34-4.35-6.56-6.47c-2.19-2.08-4.58-4.28-6.57-6.04-4.17-3.69-8.47-7.26-12.88-10.68-2.2-1.71-4.43-3.39-6.68-5.02-2.39-1.73-4.11-2.93-6.22-4.37-4.04-2.75-8.17-5.39-12.36-7.91-2.1-1.26-4.21-2.49-6.33-3.69-1.87-1.05-3.66-2.03-5.52-3.01-3.69-1.96-7.43-3.83-11.21-5.61-1.89-.89-3.79-1.76-5.69-2.6-1.64-.72-3.22-1.4-4.85-2.07-3.23-1.35-6.5-2.63-9.78-3.85-1.64-.61-3.29-1.2-4.94-1.78-1.78-.62-2.92-1-4.37-1.48-2.76-.9-5.54-1.76-8.34-2.58l-4.2-1.19-4.11-1.09c-2.33-.59-4.67-1.16-7.01-1.69s-4.7-1.03-7.06-1.51l-3.4-.66-2.94-.52c-3.92-.68-7.86-1.27-11.8-1.78-3.34-.42-6.58-.77-9.88-1.07l-2.47-.21-2.36-.18-4.13-.26c-2.73-.15-5.57-.28-8.21-.35-2.32-.06-4.64-.09-6.96-.1h-3.48s-3.04.06-3.04.06c-3.88.08-8.12.26-11.23.46l-5.04.35-4.47.39-4.34.44-3.87.45-3.77.48-3.43.48-3.3.5-3.11.5c-8.16,1.36-14.41,2.7-20.17,4.01-11.37,2.63-19.77,5.06-27.32,7.36l-2.72.85-2.26.74-4.51,1.5-9,3.04-8.97,3.1c-.77.26-1.45.52-2.13.78l-2.05.78-4.1,1.57c-5.46,2.11-10.9,4.24-16.33,6.39-1.4.54-2.6,1.08-3.87,1.61l-3.76,1.62-7.52,3.26-7.5,3.28c-1.23.55-2.54,1.1-3.69,1.65l-3.5,1.65c-4.65,2.21-9.3,4.42-13.95,6.63l-3.48,1.67c-1.16.56-2.33,1.11-3.4,1.67l-6.55,3.34c-4.36,2.24-8.71,4.48-13.06,6.71-2.22,1.12-4.25,2.24-6.32,3.37l-6.18,3.37c-4.11,2.26-8.23,4.51-12.34,6.76-7.92,4.52-15.71,9.04-23.53,13.58-7.51,4.55-15,9.1-22.48,13.64-29.35,18.22-56.54,36.55-82.62,54.91-3.26,2.3-6.52,4.59-9.78,6.88-3.19,2.3-6.37,4.6-9.55,6.89-6.33,4.6-12.78,9.17-18.93,13.78-6.2,4.6-12.39,9.19-18.57,13.78-6.07,4.6-12.13,9.2-18.17,13.78-48.05,36.75-93.04,73.4-136,109.69-32.77,27.67-63.28,55.36-91.7,82.59-28.41,27.23-54.77,53.98-79.06,79.83-48.6,51.69-89.2,99.67-121.88,140.6-32.69,40.93-57.47,74.8-74.16,98.41-16.67,23.62-25.24,36.99-25.24,36.99-26.23,32.23-50.27,66.52-59.31,86.78-9.05,20.27-3.17,26.52,30.56,2.75,30.84-26.94,72.73-64.59,118.75-105.48,46.03-40.88,96.23-84.96,143.49-124.83,47.22-39.89,91.55-75.53,125.08-100.01,33.53-24.48,56.18-37.84,59.85-33.46,1.86,2.2-13.06,16.56-36.08,37.22-23.02,20.67-54.13,47.67-85.01,74.94,7.56,8.6-27.33,62.22-70.65,120.9-43.43,58.64-95.44,122.42-125.25,150.18-13.01,16-43.63,50.44-82.88,94.2-39.27,43.75-87.12,96.84-135.07,149.87-47.95,53.02-96.03,105.93-136.01,149.21-19.98,21.65-37.95,40.89-52.75,56.63-14.76,15.76-26.5,27.97-33.52,35.77-44.12,42.47-38.61,49.07-1.46,32.02,4.64-2.13,9.78-4.63,15.38-7.48,1.4-.72,2.82-1.45,4.28-2.2,1.49-.8,3.02-1.62,4.57-2.46,3.11-1.69,6.34-3.47,9.69-5.34,13.23-7.49,28.16-16.4,44.2-26.57,32.18-20.32,69.34-45.59,109.43-74.05,80.19-56.92,172.19-126.5,259.95-194.23,87.72-67.79,171.23-133.59,233.6-184.55,31.68-25,48.77-36,56.7-38.45,7.93-2.45,6.71,3.71,1.9,13.35-9.64,19.24-33.53,52.61-27.74,58.97,57.38-56.14,104.01-93.84,150.72-130.92,46.75-36.96,93.52-73.52,152.05-125.09.85,1.08,21.48-14.26,54.97-39.06,16.74-12.33,36.7-27.15,58.96-43.05,22.25-15.93,46.82-33.15,72.56-50.19,3.21-2.12,6.45-4.26,9.71-6.41,3.26-2.17,6.5-4.18,9.78-6.3,3.27-2.1,6.56-4.21,9.87-6.33,3.28-2.03,6.57-4.07,9.88-6.12,1.65-1.03,3.31-2.06,4.97-3.09l2.49-1.54,2.47-1.47c3.29-1.97,6.59-3.94,9.91-5.92,3.34-2.04,6.59-3.86,9.86-5.73,3.27-1.87,6.54-3.74,9.83-5.62,3.21-1.75,6.43-3.5,9.66-5.26,1.6-.86,3.25-1.81,4.81-2.61l4.69-2.4,4.69-2.42c1.55-.8,3.16-1.67,4.62-2.34,2.98-1.44,5.97-2.88,8.96-4.33.73-.35,1.52-.77,2.21-1.06l2.1-.92,4.19-1.87,4.17-1.89,3.8-1.51c5.27-2.26,9.6-3.69,13.64-5.15,1.72-.47,3.42-1,5.09-1.59.04-.01.02,0,.04,0h.01s0,0,0,0c-.06-.22.15.48-.14-.48l-5.12-17.45-4.8-16.96-2.27-8.25-2.19-8.18c-1.43-5.25-2.8-10.53-4.11-15.82-1.32-5.11-2.57-10.08-3.76-15.16l-1.74-7.33c-.57-2.4-1.11-4.81-1.64-7.22l-.78-3.62-.77-3.42c-.5-2.28-.99-4.57-1.45-6.87l-.68-3.45-.67-3.26c-.44-2.17-.85-4.34-1.25-6.52l-1.15-6.33c-.37-2.05-.71-4.12-1.04-6.18l-.94-5.92c-.29-1.94-.56-3.89-.81-5.84-.27-1.82-.51-3.64-.73-5.47l-.59-5.35c-.19-1.7-.34-3.42-.47-5.13-.05-.89-.14-1.64-.2-2.44l-.17-2.38-.23-4.63c-.07-1.46-.09-2.96-.09-4.41-.08-5.58.2-10.48.82-14.44.6-3.95,1.56-6.91,2.54-8.59.38-.76.9-1.3,1.08-1.47.18-.17.21-.11-.17.02-.8.34-2.89.57-6.07.05-3.14-.51-7.15-1.72-11.74-3.57-4.59-1.86-9.77-4.36-15.33-7.4-5.66-3.06-11.76-6.68-18.1-10.76-3.34-2.08-6.45-4.21-9.95-6.52l-5.11-3.51c-1.78-1.21-3.54-2.45-5.29-3.7l-5.4-3.86-5.45-4c-1.9-1.38-3.79-2.78-5.66-4.19l-5.72-4.33c-15.45-11.77-31.98-25.13-49.5-39.9l-6.64-5.62-6.69-5.73-6.84-5.89-6.86-5.98c-.32-.28-.08-.08-.16-.14h0s-.02.02-.02.02l-.03.03-.14.14c-1.13,1.15-2.26,2.29-3.38,3.42-1.61,1.6-3.61,3.55-5.78,5.61-4.38,4.17-9.51,8.89-14.94,13.78-5.44,4.9-11.19,9.98-17.15,15.21-6.36,5.56-12.63,11.04-18.78,16.42-3.61,3.2-7.2,6.36-10.74,9.5-1.03.93-2.07,1.86-3.09,2.78-1.18,1.08-2.36,2.15-3.53,3.22-2.72,2.5-5.4,5.03-8.03,7.58-12.38,11.91-24.15,23.24-35.21,33.88,0,0-3.32,3.68-10.98,11.76-3.85,4.04-8.82,9.18-14.99,15.52-3.1,3.16-6.5,6.62-10.21,10.41-3.75,3.77-7.83,7.85-12.23,12.27-17.62,17.62-40.89,40.38-70.98,69.11-30.1,28.74-67.09,63.43-112.14,105.29-30.09,27.97-44.22,43.2-50.28,51.81-6.07,8.63-4.11,10.74-2.16,12.82q-3.91-4.17-7.84-8.35c-26.29,32.51-71.64,75.38-117.32,118.93-45.69,43.45-91.57,87.97-119.13,120.92q-4.15-3.98-8.28-7.94c-27.58,32.9-55.9,65.38-84.39,98.16-28.47,32.8-57.12,65.86-85.33,99.76l-10.58,12.71c-3.52,4.25-6.98,8.59-10.48,12.88-6.96,8.63-13.99,17.15-20.83,25.97l-10.3,13.14-5.14,6.58-1.44,1.86-2.71,3.62c-1.8,2.41-3.57,4.9-5.33,7.36-6.99,9.99-13.61,20.41-19.81,31.61-6.2,11.18-12.02,23.09-17.37,36.21-2.67,6.54-5.23,13.49-7.64,20.82-.6,1.87-1.19,3.66-1.78,5.6l-1.72,5.79-1.65,6.04c-.54,2.02-1.07,4.19-1.58,6.29-2.04,8.57-3.88,17.84-5.3,28.37-1.4,10.55-2.42,22.32-2.37,36.48l.02,2.64.06,2.74c.05,1.91.13,3.83.22,5.74l.15,2.87.21,3.11c.16,2.08.33,4.17.53,6.25l.16,1.57.19,1.71.41,3.41.45,3.41c.16,1.16.31,2.2.52,3.5.4,2.49.83,4.98,1.29,7.47l.74,3.77.89,4.09c.62,2.74,1.25,5.4,1.98,8.18.79,2.99,1.64,5.98,2.54,8.94l.68,2.22.73,2.29c.54,1.63,1.09,3.26,1.66,4.88s1.16,3.24,1.76,4.85c.61,1.63,1.19,3.13,1.94,4.98,1.44,3.54,2.96,7.05,4.55,10.51l1.24,2.65,1.39,2.85c.94,1.89,1.91,3.77,2.9,5.64.99,1.87,2.01,3.72,3.04,5.56,1.13,1.97,2.33,4.01,3.54,5.99,1.21,1.99,2.45,3.96,3.72,5.91l1.92,2.91,2.12,3.08c2.92,4.16,5.98,8.22,9.15,12.18,3.37,4.17,7.03,8.36,10.74,12.35l2.83,2.98c.99,1.02,2.03,2.06,3.06,3.08,2.07,2.04,4.17,4.04,6.32,6.01,2.15,1.97,4.3,3.87,6.55,5.78,2.31,1.94,4.66,3.84,7.05,5.7,9.45,7.38,19.93,14.2,30.7,20.02,5.39,2.89,10.91,5.58,16.51,8.04,5.48,2.38,11.01,4.52,16.63,6.46,1.4.48,2.81.96,4.22,1.41l4.04,1.25c2.7.81,5.42,1.56,8.15,2.27s5.47,1.37,8.22,1.98c2.57.55,5.14,1.06,7.72,1.53,2.58.47,5.17.89,7.77,1.27l3.89.54,3.62.43c4.76.52,9.55.9,14.34,1.13l1.79.08,1.63.05,3.24.07c2.16.03,4.32.04,6.48.01,2.16-.02,4.32-.08,6.48-.16,2.02-.08,3.88-.19,5.82-.32,3.85-.26,7.69-.61,11.52-1.05,3.41-.41,6.78-.89,10.16-1.44,1.69-.27,3.37-.56,5.05-.87l2.29-.44,2.22-.45c2.95-.62,5.9-1.28,8.83-2l2.14-.54,1.93-.51,3.85-1.07,3.83-1.12,3.74-1.16c2.23-.73,4.46-1.48,6.68-2.26l3.32-1.19,1.65-.61,1.46-.56c1.94-.75,3.87-1.53,5.79-2.32,1.89-.78,3.94-1.65,5.53-2.37,14.03-6.26,24.48-12.3,33.17-17.78l1.69-1.07,1.54-1,3.02-2,3-2.03,2.73-1.92c1.77-1.26,3.63-2.59,5.31-3.83l4.83-3.66c1.66-1.27,3.01-2.36,4.5-3.55l2.17-1.76,2.08-1.72,3.95-3.36,1.48-1.28.69-.61c7.36-6.53,14.68-13.11,21.96-19.74q3.7,4.36,7.41,8.74c7.52-6.36,15.03-12.71,22.42-18.96,1.85-1.56,3.69-3.12,5.52-4.66,1.85-1.52,3.69-3.03,5.51-4.54,3.66-3,7.27-5.97,10.82-8.89,14.24-11.63,27.52-22.5,39.12-31.48,23.27-17.87,39.34-29.02,41.13-26.79q3.58,4.47,7.18,8.95c4.04-2.78,8.22-5.87,12.64-9.03,4.41-3.18,8.98-6.55,13.67-10.08,9.37-7.06,19.22-14.73,29.24-22.69,20.05-15.83,41.06-32.41,60.15-47.48,19.25-14.81,36.63-28.07,49.67-36.99,13.13-8.76,21.81-13.31,23.5-10.99q-3.37-4.62-6.75-9.27c15.73-11.41,31.15-22.75,46.61-33.47,7.7-5.41,15.35-10.78,22.94-16.11,3.8-2.66,7.58-5.31,11.35-7.96,3.77-2.64,7.58-5.18,11.35-7.75,15.12-10.24,30.02-20.34,44.71-30.29,14.84-9.72,29.48-19.3,43.93-28.75,3.62-2.35,7.19-4.75,10.83-7.02,3.62-2.29,7.24-4.57,10.84-6.85,7.2-4.55,14.36-9.06,21.48-13.55,7.12-4.48,14.2-8.92,21.23-13.35,7.1-4.32,14.16-8.61,21.17-12.88,7.02-4.26,14-8.5,20.94-12.72,3.47-2.11,6.93-4.21,10.38-6.3,3.46-2.08,6.95-4.09,10.41-6.13,13.87-8.11,27.59-16.14,41.18-24.09,1.7-.99,3.4-1.98,5.09-2.97,1.71-.97,3.42-1.93,5.12-2.9,3.41-1.93,6.82-3.85,10.22-5.76,6.8-3.83,13.56-7.64,20.3-11.44,6.74-3.79,13.45-7.57,20.13-11.33,6.74-3.67,13.45-7.32,20.14-10.96,13.39-7.25,26.67-14.45,39.87-21.61,13.32-6.96,26.56-13.88,39.72-20.76,3.29-1.72,6.58-3.44,9.86-5.15l4.92-2.57,2.46-1.28,1.23-.64c18.21,33.4-157.78-291.08-83.34-153.8l-.09-.15-.18-.31-.36-.63c-.47-.85-.91-1.75-1.31-2.69l-.57-1.39c-.17-.34-.32-.69-.48-1.05-.3-.72-.58-1.47-.82-2.26l-.17-.6c-.06-.21-.1-.28-.15-.43-.1-.27-.18-.54-.27-.83-.17-.57-.31-1.18-.42-1.82-.11-.46-.19-.78-.26-1.22-.03-.21-.06-.43-.08-.66l-.03-.35-.03-.17c-.03-.22-.05-.46-.06-.74v-.38s0-.11,0-.11c0-.09,0-.2.02-.35,0,.04-.01.12-.02.13,0,.01,0,.01,0,.01h0s-.01.07-.01.07l-.02.13c-.03.16-.07.3-.11.4-.01.02-.05.17-.08.29l-.11.34-.12.3-.06.13-.08.23c-.11.29-.23.55-.35.78-.11.17-.28.57-.43.82-.16.29-.3.48-.47.76-.35.6-.69.97-1.05,1.47-.18.22-.35.41-.51.58-.16.19-.32.36-.46.5-.3.27-.51.49-.68.6-.29.23-.25.15.26-.12.5-.25,1.4-.66,2.57-.95.5-.16,1.24-.27,1.76-.38.28-.05.65-.08.95-.1.24-.03.51-.06.81-.06h.46s.3,0,.3,0c.21,0,.45.01.72.05.14,0,.23.01.39.03l.25.04h.07s0,.01,0,.01h0s.04,0,.11.02h.04s-.1-.02-.1-.02l-.17-.05-.29-.12c-.27-.1-.51-.21-.72-.32l-.29-.16-.58-.3c-.39-.21-.74-.43-1.05-.65l-.23-.17-.4-.25c-.27-.17-.52-.34-.77-.52-.49-.35-.94-.72-1.35-1.09-.59-.46-1.27-1-1.83-1.51-.29-.26-.57-.53-.84-.8l-.39-.41c-.14-.14-.22-.26-.44-.44-.75-.69-1.45-1.4-2.1-2.13-.33-.36-.64-.73-.94-1.1l-.44-.56-.21-.28c-229.17-272.78-63.61-75.55-114.79-136.4l-.14.12-9.19,7.46c-89.78,70.41-181.2,147.21-272.68,229.57-91.48,82.35-182.91,170.36-272.8,262.81-2.84,2.86-5.64,5.76-8.42,8.68l-8.37,8.74c-5.58,5.83-11.17,11.67-16.76,17.52-11.17,11.7-22.37,23.43-33.59,35.18-22.15,23.72-44.28,47.62-66.48,71.6-21.87,24.21-43.84,48.5-65.74,72.94-21.62,24.62-43.36,49.28-64.96,74.1-21.36,24.96-42.84,49.96-64.15,75.1-21.1,25.26-42.28,50.54-63.32,75.93-20.81,25.51-41.64,51.05-62.47,76.59-20.08,25.14-40.16,50.29-60.25,75.44v.13s0,.03,0,.03c.01-.01.06-.06.05-.04l-.38.44-2.04,2.31-10.44,11.62c-7.57,8.38-15.63,17.32-23.73,26.41-16.26,18.27-32.87,37.32-49.79,57.72-8.48,10.24-17.03,20.76-25.78,31.98-8.74,11.19-17.68,23.02-27,36.11-4.65,6.54-9.46,13.52-14.4,20.97-4.92,7.43-10.09,15.57-15.52,24.7-5.44,9.19-11.18,19.35-17.47,32.07l-2.39,4.92-1.18,2.47-1.27,2.75-2.5,5.54-1.24,2.83-1.33,3.15-2.6,6.34-.64,1.59-.7,1.81-1.38,3.66c-.91,2.44-1.8,4.89-2.66,7.35-.97,2.84-1.92,5.72-2.83,8.59-1.72,5.29-3.81,12.72-5.5,19.46l-.65,2.65-.71,3.08c-.46,2.06-.9,4.12-1.33,6.19-.42,2.07-.83,4.14-1.22,6.21l-.29,1.55-.3,1.74-.61,3.76c-.78,5.02-1.45,10.07-2,15.12l-.21,2.11-.21,2.31-.36,4.62c-.22,3.08-.39,6.17-.52,9.25l-.16,4.63-.05,2.4-.02,2.82c0,3.76.07,7.52.2,11.28.14,3.76.35,7.51.62,11.26l.11,1.4.15,1.66.34,3.39c.24,2.26.5,4.51.79,6.77,2.1,16.98,6.66,38.22,14.77,59.81,2.16,5.73,4.52,11.4,7.05,16.98,1.27,2.79,2.58,5.56,3.94,8.29l1.02,2.05,1.16,2.26c.99,1.89,2.01,3.77,3.05,5.64,4.17,7.49,8.71,14.81,13.58,21.87,1.22,1.77,2.45,3.51,3.71,5.25l1.89,2.58,2.25,2.95c3.06,3.95,6.24,7.82,9.53,11.61,3.29,3.79,6.69,7.49,10.19,11.08,1.75,1.8,3.52,3.57,5.31,5.31l2.7,2.59c.9.85,1.81,1.7,2.82,2.61,7.88,7.14,16.27,13.88,25.01,20.05,4.35,3.07,8.85,6.07,13.29,8.8,4.37,2.67,8.84,5.24,13.39,7.67,4.55,2.43,9.17,4.74,13.85,6.9,2.34,1.08,4.69,2.13,7.06,3.14l3.55,1.49,3.49,1.4c8.41,3.26,17.06,6.11,25.81,8.51,4.37,1.2,8.77,2.29,13.18,3.26l2.96.63,2.74.54c1.83.35,3.66.68,5.5,1,7.36,1.26,14.79,2.21,22.21,2.86l2.78.23,2.63.19,4.42.23c2.95.13,5.91.22,8.87.26,5.92.08,11.84-.03,17.74-.33,4.65-.27,9.23-.64,13.84-1.13,2.3-.24,4.6-.51,6.89-.81l3.43-.47,3.24-.49c3.57-.58,7.13-1.22,10.67-1.92,3.55-.7,7.08-1.47,10.6-2.3l4.23-1.06,4.15-1.11c2.76-.76,5.51-1.55,8.25-2.38l2.05-.63,1.71-.55,3.28-1.08c2.18-.73,4.35-1.49,6.52-2.27l3.24-1.18,1.58-.59,1.32-.51c3.51-1.37,7-2.8,10.47-4.27,1.87-.79,3.12-1.36,4.59-2.03l4.29-1.97,4.27-2.02,3.66-1.82c2.39-1.21,4.77-2.43,7.14-3.68l6.12-3.35,3.03-1.7,2.7-1.56,5.27-3.12,2.44-1.49,2.32-1.45,4.58-2.9,4.14-2.71c1.36-.9,2.81-1.86,4-2.68,10.23-6.95,18.47-13.1,25.95-18.89,7.44-5.78,14.09-11.2,20.27-16.39,6.17-5.19,11.92-10.19,17.42-15.07,5.51-4.88,10.73-9.63,15.78-14.28,10.11-9.33,19.52-18.32,28.58-27.11,9.02-8.77,17.68-17.35,25.97-25.64,7.82-7.86,15.63-15.72,23.44-23.56,3.16-3.17,6.33-6.34,9.49-9.5l1.59-1.58.07-.07h0s0-.03,0-.03l.02-.04s.03-.05.04-.08l.16-.31c11.81-10.25,23.6-20.49,35.37-30.71,6.07-5.27,12.14-10.53,18.2-15.79,6.02-5.26,12.03-10.51,18.03-15.75,12-10.49,23.97-20.96,35.92-31.4,11.88-10.43,23.73-20.83,35.55-31.21,62.23-53,116.51-114.38,47.22-70.33,61.92-52.76,123.7-105.47,185.15-157.1,30.76-25.81,49.3-42.62,61.73-55.13,12.44-12.39,18.77-20.38,25.11-28.41,6.33-8.02,12.67-16.04,25.14-28.42,6.24-6.14,14.03-13.33,24.11-22.14,5.04-4.41,10.66-9.21,16.95-14.49,3.16-2.63,6.47-5.38,9.95-8.28,3.49-2.89,7.16-5.89,11.04-8.98l45.73-38.22,5.72-4.77,5.74-4.7,11.49-9.39,23-18.77,11.5-9.38,5.76-4.68,5.78-4.6,23.14-18.41,23.15-18.4c3.85-3.09,7.74-6.07,11.62-9.07l11.65-9,23.31-17.99c7.77-5.99,15.53-12.04,23.38-17.83l46.99-35.1,47.36-34.15,5.92-4.26,2.96-2.13,1.48-1.07.74-.53c82.58,119.84-111.48-163.75-92.13-135.29-3.35-5-5.22-9.25-5.92-12-.09-.32-.17-.65-.22-1-.05-.39-.11-.49-.14-.77-.04-.22-.05-.54-.07-.71-.02-.14-.03-.28-.03-.44,0-.2,0-.28,0-.3,0-.05,0-.11.02-.19,0,.02-.01.08-.02.11,0,.02,0,.03-.05.2-.19.85-1.23,3.23-3.96,6.41-2.66,3.11-6.77,6.67-11.85,10.05-5.07,3.4-11.06,6.64-17.34,9.49-6.28,2.86-12.86,5.3-19.2,7.35-6.32,2.06-12.37,3.67-17.84,4.91-5.5,1.24-10.12,2.11-14.07,2.69-.93.15-1.85.28-2.78.39-.81.11-1.55.21-2.33.3l-2.01.22-1.68.15-1.3.1-.85.05-.73.03h.84c.37,0,1.31.01,2.1.06l1.6.07,1.85.12,2.09.18c.8.06,1.6.14,2.4.23,6.69.7,15.88,2.2,25.45,4.76,9.57,2.56,19.41,6.14,27.46,10.4,4,2.06,7.56,4.27,10.48,6.43,2.93,2.17,5.22,4.28,6.76,5.96.22.26.39.43.55.62.17.19.33.38.49.59,90.17,111.49-122.39-151.03-99.93-124.5l1.32-.96c35.88,44.54-308.33-390.62-161.66-207.25l1.98-1.7,3.98-3.41,16.06-13.81,16.32-14.04c5.47-4.73,11.08-9.36,16.68-14.1l34.18-28.78c5.79-4.86,11.59-9.82,17.52-14.65l8.9-7.33c-2.74-7.76-6.94-18.49,56.68,109.71,58.03,116.53,87.84,175.76,72.49,143.28l3.06-1.59c16.28-8.55,32.85-16.61,49.49-24.25l49.8-22.55c16.53-7.43,33-14.81,49.39-21.89,8.19-3.53,16.36-6.99,24.5-10.15,8.14-3.15,16.24-5.95,24.26-8.31,16.03-4.74,31.68-7.79,46.58-9.55,14.91-1.78,29.09-2.26,42.31-1.95,6.59.14,13,.53,18.91.95l2.14.14c.34.02.68.04.97.04.5.05.29-.11-.36-.19-1.85-.29-3.54-.46-5.27-.65-3.44-.35-6.86-.61-10.32-.8-13.81-.76-28.2-.53-43.22.98-15,1.51-30.6,4.31-46.51,8.72-7.95,2.2-15.97,4.81-24.01,7.8-8.04,2.98-16.09,6.34-24.14,9.79-16.09,6.93-32.18,14.17-48.25,21.44l-24.07,10.98c-8.01,3.68-16.03,7.33-23.99,11.1-15.98,7.37-31.82,15.21-47.51,23.38l-23.29,12.65c-7.29,4.1-14.54,8.28-21.74,12.52l-2.62,1.55-1.93,1.17-3.87,2.35-7.73,4.71c-5.2,3.12-10.16,6.34-15.23,9.52-40.28,25.54-77.89,52.43-114.14,80.3-36.17,27.92-70.91,56.84-104.5,86.82l-6.31,5.61-6.24,5.67-12.46,11.37c-8.22,7.67-16.48,15.28-24.58,23.08-8.17,7.72-16.18,15.59-24.22,23.45-4.02,3.92-7.96,7.93-11.95,11.9-3.98,3.97-7.96,7.94-11.87,11.99l-11.79,12.08-11.66,12.23-5.82,6.12-5.76,6.2-11.51,12.42c-15.24,16.69-30.27,33.65-45.04,50.97-3.7,4.32-7.34,8.73-11.01,13.09l-5.49,6.56-5.43,6.65-10.89,13.4c-3.88,4.89-7.76,9.75-11.59,14.76-7.68,9.95-15.27,20.16-22.73,30.73-7.46,10.55-14.82,21.38-22.02,32.63-14.39,22.54-28.24,46.52-41.07,73.12-6.41,13.33-12.57,27.26-18.32,42.29-5.74,15.04-11.12,30.94-15.78,48.68-2.33,8.86-4.48,18.09-6.34,28.07-1.86,9.96-3.45,20.51-4.56,32.09-1.09,11.6-1.74,24.19-1.32,38.73.13,3.71.26,7.27.56,11.31l.46,5.9c.2,2.1.42,4.22.66,6.32.43,4.06,1.14,8.83,1.86,13.3.17,1.09.4,2.37.63,3.58l.7,3.68c.48,2.46.96,4.82,1.61,7.58.62,2.66,1.27,5.32,1.95,7.97.76,2.85,1.61,5.8,2.48,8.67.45,1.48.84,2.78,1.4,4.45l1.62,4.76,1.7,4.73c.54,1.5,1.32,3.42,1.99,5.1.7,1.74,1.42,3.47,2.16,5.19.74,1.72,1.46,3.38,2.4,5.37.89,1.91,1.8,3.81,2.74,5.69.96,1.93,1.84,3.67,2.93,5.72,2.26,4.19,4.64,8.32,7.13,12.37,2.87,4.57,5.89,9.06,9.06,13.43,1.79,2.44,3.68,4.89,5.59,7.28,1.94,2.42,3.82,4.69,5.95,7.13,2.3,2.6,4.66,5.16,7.08,7.67,2.53,2.59,4.64,4.74,7.68,7.55,2.87,2.66,5.82,5.25,8.84,7.76,2.88,2.42,6.2,5.02,9.83,7.66,3.53,2.58,7.14,5.05,10.82,7.41,3.75,2.4,8.1,4.95,12.25,7.2,4.31,2.32,8.28,4.37,13.12,6.53,4.69,2.11,9.46,4.06,14.29,5.82,4.71,1.75,10.02,3.41,15.15,4.83,5.2,1.43,10.37,2.68,15.71,3.68,10.67,2.01,21.62,3.25,32.19,3.5,5.3.14,10.77.1,15.9-.16,5.06-.27,10.13-.73,15.17-1.36,5.18-.64,9.87-1.44,14.41-2.36,4.61-.93,9.2-2.02,13.73-3.25,4.28-1.18,8.23-2.42,12.3-3.82,3.9-1.34,8.35-2.99,11.65-4.39,3.51-1.46,6.99-3.02,10.43-4.66,3.56-1.69,6.78-3.35,9.59-4.9,2.95-1.61,5.87-3.3,8.74-5.04,3.03-1.82,5.39-3.37,7.84-5.02,4.84-3.25,9.94-6.98,13.72-10.03,2.03-1.61,4.03-3.26,6-4.94l2.86-2.47,2.86-2.51,11.45-10.03c122.18-107.05,243.68-212.84,366.57-313.98,122.9-101.14,247.25-197.57,375.26-285.64,63.99-44.05,128.89-86.02,194.88-125.58,65.98-39.56,133.06-76.71,201.32-111.24,68.26-34.54,137.7-66.46,208.32-95.73,70.61-29.27,142.4-55.9,215.24-80-73.61,21.74-141.84,44.42-207.05,68.47-65.2,24.07-127.38,49.51-188.6,77.34-15.24,7.13-30.47,14.26-45.74,21.4-15.16,7.4-30.28,14.97-45.5,22.53-30.27,15.48-60.64,31.47-91.1,48.7-60.99,34.29-122.79,72.47-186.94,116.39-1.57-2.39-3.92-5.98-14.05-3.6-2.53.59-5.55,1.56-9.16,3.01-1.81.73-3.76,1.57-5.88,2.55-2.11,1-4.37,2.16-6.81,3.47-9.76,5.22-22.31,12.88-38.51,23.88-48.8,32.82-97.97,67.63-146.93,103.86-48.9,36.37-97.6,74.17-145.68,112.56-11.99,9.66-23.97,19.31-35.93,28.93-11.9,9.74-23.78,19.47-35.63,29.16-5.91,4.87-11.85,9.66-17.72,14.57-5.88,4.89-11.75,9.78-17.61,14.66-11.71,9.78-23.42,19.4-34.99,29.22-11.59,9.77-23.13,19.49-34.61,29.16-11.46,9.74-22.85,19.44-34.17,29.07-5.66,4.82-11.31,9.62-16.93,14.41-5.62,4.82-11.22,9.62-16.79,14.41-11.16,9.57-22.25,19.08-33.24,28.5-44.05,37.96-86.66,74.68-127.23,109.64-20.41,17.49-40.31,34.54-59.62,51.09-1.21,1.03-2.42,2.06-3.62,3.09l-1.34,1.15c-2.02,1.74-4.08,3.45-6.17,5.12l-3.16,2.47-1.75,1.3-1.84,1.33c-2.47,1.76-4.97,3.47-7.51,5.12-1.19.78-2.76,1.74-4.21,2.61-1.47.88-2.96,1.75-4.45,2.59-3.03,1.7-5.85,3.23-9.52,4.98-3.49,1.68-7.03,3.25-10.61,4.7-.84.35-1.92.76-2.92,1.14l-3.04,1.11c-2.04.73-4.09,1.42-6.15,2.07l-3.1.95c-1.07.31-1.99.59-3.19.91-2.29.61-4.6,1.18-6.92,1.71-2.32.52-4.65,1-6.98,1.44l-3.51.61c-1.26.2-2.53.38-3.79.55-5.07.68-10.18,1.14-15.27,1.37-5.32.21-10.72.16-16.07-.12-5.3-.26-10.82-.9-16.19-1.72-2.7-.42-5.38-.9-8.05-1.44-2.63-.56-5.25-1.18-7.85-1.86-2.61-.68-5.2-1.42-7.76-2.22-1.28-.4-2.56-.81-3.83-1.24-1.21-.42-2.43-.85-3.63-1.3-4.83-1.79-9.59-3.79-14.23-5.99-17.86-8.58-31.97-19.24-42.93-29.63-.75-.7-1.32-1.27-1.95-1.89l-1.84-1.85c-1.22-1.24-2.43-2.5-3.61-3.78-1.19-1.28-2.36-2.57-3.5-3.87-.61-.69-1.03-1.2-1.55-1.81l-1.48-1.78c-1.95-2.38-3.85-4.81-5.69-7.27-.48-.64-.91-1.23-1.28-1.76l-1.17-1.66-2.3-3.36-2.23-3.4-1.09-1.72-.95-1.56c-1.23-2.06-2.43-4.13-3.59-6.23l-1.72-3.15-1.46-2.87c-.95-1.9-1.88-3.81-2.77-5.74l-.67-1.45-.62-1.39-1.12-2.61c-.73-1.75-1.45-3.5-2.14-5.26-.73-1.83-1.27-3.36-1.85-4.97-.57-1.6-1.12-3.21-1.65-4.82l-.78-2.39-.66-2.2-1.27-4.42c-.87-3.07-1.46-5.61-2.11-8.36l-.91-4.06-.74-3.76c-.46-2.47-.95-5.12-1.28-7.36-.35-2.32-.68-4.65-.98-6.97-.25-2.16-.48-4.33-.69-6.49-.23-2.22-.36-4.18-.49-6.22l-.19-3.03-.09-1.52-.06-1.43c-.06-1.9-.11-3.8-.17-5.69l-.03-1.42v-1.35s0-2.68,0-2.68c.01-1.77.01-3.62.06-5.31.06-1.69.12-3.38.18-5.07l.11-2.52.15-2.4c.11-1.6.22-3.2.33-4.8.99-12.58,2.68-23.66,4.68-34.03,2.01-10.35,4.38-19.83,6.93-28.81,2.56-8.96,5.29-17.45,8.18-25.43.71-2.03,1.44-4,2.18-5.94.74-1.94,1.48-3.88,2.22-5.81,1.51-3.77,3.01-7.57,4.57-11.17,6.18-14.57,12.67-27.91,19.31-40.3,6.64-12.4,13.41-23.9,20.2-34.69,6.79-10.8,13.62-20.85,20.4-30.31,6.78-9.47,13.51-18.36,20.16-26.68,6.64-8.37,13.2-16.15,19.61-23.52,3.23-3.63,6.38-7.26,9.53-10.66,1.58-1.71,3.14-3.4,4.68-5.08l1.16-1.25,1.1-1.15c.73-.76,1.46-1.52,2.19-2.27,3.79-4.09,7.6-8.15,11.48-12.22,3.89-4.05,7.88-8.03,11.93-12.09,2.03-2.02,4.08-4.05,6.14-6.11,2.09-2.02,4.2-4.05,6.34-6.11,4.29-4.09,8.62-8.33,13.18-12.56,18.1-17.06,38.5-35.49,62.92-57.37,24.43-21.87,52.97-47.06,87.96-77.13,17.54-15,36.69-31.22,57.93-48.7,21.25-17.49,44.59-36.24,70.66-56.24-34.77,26.72-68.25,54.51-100.64,83.36l-6.08,5.4-6.02,5.46-12.02,10.95c-7.93,7.39-15.9,14.72-23.71,22.23-7.88,7.44-15.61,15.03-23.36,22.6-3.88,3.78-7.68,7.65-11.52,11.47-3.84,3.83-7.67,7.66-11.45,11.55,4.09,4.01,12.26,12.03,12.26,12.03,15.32-15.07,31.06-30.17,47.35-45.1,8.08-7.53,16.4-14.91,24.71-22.41,8.41-7.39,16.82-14.87,25.45-22.2,8.55-7.42,17.33-14.69,26.11-22.05,8.87-7.26,17.76-14.58,26.86-21.76,18.14-14.42,36.69-28.71,55.85-42.65,19.13-13.96,38.76-27.67,58.96-41.01,20.19-13.35,41-26.3,62.54-38.73l2.01-1.17,2.25-1.3,4.88-2.76,9.79-5.48c1.65-.91,3.24-1.81,4.94-2.72l5.14-2.72,10.27-5.45c13.75-7.15,27.69-13.85,41.72-20.28,14.04-6.42,28.16-12.66,42.3-18.82,14.13-6.14,28.25-12.32,42.36-18.03,14.1-5.71,28.17-10.49,41.95-14.29,13.78-3.82,27.25-6.75,40.33-8.98,6.54-1.1,12.98-2.06,19.39-2.77,1.6-.18,3.21-.34,4.83-.46.81-.06,1.62-.11,2.46-.13.21,0,.42,0,.64,0,.2.02.47,0,.63.13,0,.12-.19.18-.32.25-.15.07-.31.12-.47.18-2.69.85-5.68,1.5-8.64,2.21-11.95,2.78-24.61,5.79-37.64,9.52-13.04,3.71-26.5,8.1-40.15,13.42-13.65,5.27-27.45,11.7-41.19,18.27-13.75,6.57-27.48,13.25-41.18,19.92-13.69,6.7-27.39,13.3-40.97,20.07-3.4,1.68-6.78,3.41-10.15,5.13-3.37,1.73-6.74,3.44-10.08,5.2-3.34,1.76-6.68,3.51-10.01,5.27-.86-1.48,1.48,3.54-2-3.27l-16.77-33.24-33.52-66.47c-8.1-16.23-4.31-8.09-5.43-10.01l-.39.3-.79.6-3.14,2.38-6.25,4.73c-8.16,6.26-16.31,12.51-24.44,18.74-8.03,6.13-15.94,12.17-23.68,18.19-3.85,2.97-7.7,5.94-11.54,8.91l-5.71,4.39-1.42,1.09s68.34,86.54,71.66,90.91l-.28.18-.56.36-.56.36-.28.17c66.01,80.76,18.23,22.29,32.93,40.27-.17-.23-.35-.44-.52-.65-1.44-1.71-3.67-3.89-6.66-6.16-2.99-2.28-6.71-4.63-10.96-6.86-4.27-2.27-9.04-4.37-14.01-6.21-2.48-.9-5.03-1.81-7.57-2.55-2.27-.77-6.23-1.78-5.06-1.52.14-.13.44-1.18.66-2.55.22-1.38.36-3.1.38-4.78.02-1.68-.09-3.3-.19-4.42-.06-.54-.11-.94-.11-1.1,0-.02,0-.08.02-.07l2.32-.68,2.42-.78c1.65-.51,3.32-1.05,4.96-1.65,1.64-.6,3.35-1.16,5-1.81,6.67-2.53,13.33-5.51,19.33-8.81,6-3.29,11.31-6.91,15.29-10.42l.75-.7.68-.6c.45-.41.88-.84,1.3-1.29l.31-.34.28-.28.55-.58c.36-.39.72-.85,1.04-1.23.3-.34.59-.7.87-1.08.14-.19.27-.39.4-.59l.34-.46c.22-.31.42-.64.61-.99.18-.31.31-.51.46-.8.3-.65.44-.89.59-1.35.04-.13.06-.16.08-.22l.06-.17c.03-.1.08-.32.07-.29,0-.02.02-.06.02-.11,0-.05,0,0,0,.04v.1s0,.08,0,.08v.04s0,.13,0,.13c0,.16,0,.32.02.46.02.08.03.45.06.67.03.27.08.45.13.75.05.36.13.7.22,1.03.04.16.09.33.15.48.05.15.11.42.17.62.25.9.57,1.54.98,2.66.21.5.43.99.67,1.46l.19.36.2.44.43.86c.29.57.6,1.11.93,1.64.16.24.34.57.52.89l.56.95c.38.62.78,1.23,1.2,1.82l.32.44c-6.07-8.94,54.5,79.66,28.75,42.2l-.4.27-3.16,2.12c-8.41,5.66-16.77,11.28-25.06,16.86,0,0-6.55-9.39-9.82-14.07l-32.85,22.99-32.54,23.52-16.27,11.76-8.14,5.88-8.07,5.99-32.25,24.02c-38.29,16.03-22.52-4.71,28.13-48.83,12.78-10.84,27.75-23.11,44.6-36.61,4.22-3.36,8.52-6.86,13.01-10.31,4.5-3.44,9.11-6.96,13.81-10.55,9.43-7.17,19.3-14.62,29.56-22.32,2.57-1.92,5.16-3.86,7.77-5.82,1.31-.98,2.62-1.96,3.94-2.94l.99-.74c-.89-1.47,2.34,3.03-1.93-3.34l-.41-.56c-.27-.38-.53-.76-.78-1.16-.5-.76-1-1.66-1.43-2.39-.43-.68-.82-1.39-1.19-2.13l-.98-2.01c-.14-.31-.28-.64-.41-.96-.13-.31-.25-.72-.36-.93-.22-.51-.41-1.05-.56-1.62l-.11-.42-.1-.31c-.06-.21-.12-.42-.17-.64l-.22-1.15c-.03-.16-.05-.32-.06-.49l-.02-.26-.02-.14c-.02-.18-.02-.41-.01-.6,0-.06,0-.13.01-.22.01-.09-.07.67-.76,2-.09.18-.18.36-.28.52-.1.16-.2.32-.33.57-.26.45-.54.87-.84,1.26-.34.53-.71,1.02-1.1,1.48l-.3.35-.34.42c-.23.28-.47.55-.71.81-1.96,2.17-4.52,4.41-7.69,6.84-.38.28-.8.57-1.17.82l.03.03s.05.02.08.05c.08.14.18.18.31.41.51.71,1.28,2.14,1.97,3.94,1.43,3.6,2.67,8.48,3.37,13.62.72,5.16.99,10.65.73,15.98-.25,5.31-1.02,10.53-2.26,14.78-.61,2.12-1.31,4.01-2,5.45-.69,1.41-1.34,2.48-1.7,2.92-.04.05-.08.11-.12.18-.03.03-.06.06-.09.1-.02.05-.04.07-.05.08,0,0-.01.02-.01.03v.02c.29-.23-.45.36-.2.22l.73-.37.37-.19c-1.53-2.15,3.94,4.54-3.34-4.86-24.1-30.59-26.52-33.89-23.11-29.84l.41-.23.83-.46,3.31-1.85c4.43-2.5,8.88-5.02,13.35-7.54,9.01-5.11,18.11-10.27,27.27-15.47,4.62-2.63,9.26-5.27,13.92-7.92l.88-.5.44-.25c1.68,3.06,5.76,11.03,8.52,16.31l9.21,17.73c4.26,8.33,3.89,7.24,3.86,6.87l.78-.38,3.12-1.5c2.08-1,4.17-2.01,6.26-3.02,16.72-8.04,33.73-15.93,50.8-23.99,17.07-8.02,34.26-16.22,51.49-24.18,17.23-7.93,34.45-15.18,51.32-22.04,8.31-3.38,16.64-6.77,24.98-10.16,4.08-1.71,8.18-3.36,12.05-5.27.47-.25.95-.5,1.37-.8.1-.08.21-.16.25-.27.02-.15-.23-.14-.35-.14-.29,0-.58.06-.86.11-1.13.22-2.23.51-3.33.81-2.2.61-4.37,1.27-6.54,1.96-17.35,5.55-34.85,11.99-52.54,19.06-8.84,3.55-17.71,7.28-26.57,11.2-8.86,3.92-17.7,7.96-26.52,12-17.63,8.12-35.27,16.07-52.4,24.74l-6.44,3.22c-2.13,1.09-4.24,2.23-6.36,3.34-4.22,2.26-8.48,4.42-12.65,6.74-4.17,2.33-8.32,4.65-12.47,6.97-4.16,2.31-8.13,4.71-12.18,7.06-2.01,1.18-4.02,2.37-6.03,3.55-1.98,1.18-3.76,2.3-5.65,3.44-3.72,2.28-7.44,4.56-11.14,6.83-3.66,2.33-7.31,4.66-10.95,6.97-1.82,1.16-3.63,2.32-5.44,3.48-1.79,1.18-3.58,2.37-5.37,3.55-3.57,2.36-7.13,4.72-10.69,7.07-3.51,2.4-7.01,4.79-10.5,7.18-1.74,1.19-3.48,2.38-5.22,3.57-1.72,1.21-3.43,2.42-5.15,3.63-3.42,2.42-6.84,4.83-10.24,7.23-3.36,2.44-6.72,4.88-10.05,7.3-3.33,2.44-6.68,4.82-9.93,7.3-6.53,4.92-13.07,9.73-19.39,14.68-50.92,39.18-95.5,78.51-132.76,114.19,3.89,4.18,11.7,12.56,15.6,16.76,39.8-37.04,81.21-72.37,124.35-105.49l6.97,9.08c-24.1,18.46-47.38,37.48-69.97,56.88-22.59,19.4-44.48,39.2-65.72,59.34-42.46,40.3-82.33,81.94-119.56,125-4.62,5.41-9.31,10.75-13.83,16.22-4.54,5.45-9.14,10.84-13.57,16.36-8.99,10.97-17.73,21.92-26.09,33.15-16.75,22.42-32.15,45.65-45.52,69.81-13.32,24.14-24.65,49.32-31.85,75.31-1.78,6.49-3.26,13.03-4.37,19.57-1.1,6.53-1.87,13.09-2.02,19.53-.11,3.22-.04,6.41.19,9.52.23,3.11.61,6.17,1.24,9.05.62,2.87,1.47,5.6,2.56,7.88.27.56.54,1.13.84,1.62.28.54.6.96.89,1.41.61.81,1.23,1.53,1.77,1.95.54.42.97.63,1.29.73.33.09.58.15,1.03.07.44-.07,1.07-.28,1.82-.65.75-.4,1.6-1.02,2.47-1.75l15.72-13.83c10.51-9.25,21.03-18.5,31.55-27.77,21.08-18.48,42.2-37,63.37-55.56,10.61-9.26,21.23-18.54,31.87-27.83,10.67-9.27,21.35-18.55,32.06-27.85,21.39-18.63,43.03-37.17,64.73-55.88,10.9-9.3,21.82-18.63,32.78-27.99,5.48-4.68,10.97-9.36,16.48-14.05,5.52-4.67,11.06-9.34,16.6-14.02,11.09-9.35,22.22-18.74,33.4-28.16,11.24-9.35,22.51-18.74,33.84-28.16,45.4-37.58,91.78-75.5,139.9-113.32-8.01,6.34-17.02,13.46-26.77,21.18-9.75,7.72-20.13,16.19-31.07,24.98-21.92,17.53-45.48,37.04-69.16,56.42-23.5,19.59-47.09,39.08-68.46,57.22-10.71,9.05-20.93,17.68-30.43,25.7-9.45,8.06-18.18,15.51-25.93,22.12-1.85-2.17-3.71-4.35-12.86.62-9.18,4.95-25.53,17.17-56.41,43.76,123.4-106.66,264.97-223.89,411.8-334.68l13.74-10.42,13.84-10.28c9.23-6.85,18.46-13.69,27.67-20.53,9.17-6.9,18.53-13.54,27.79-20.29,9.27-6.73,18.53-13.46,27.77-20.17,9.32-6.61,18.62-13.21,27.9-19.79,4.64-3.29,9.27-6.59,13.9-9.87,4.63-3.29,9.24-6.59,13.92-9.79,9.32-6.45,18.61-12.88,27.87-19.29,4.63-3.21,9.25-6.42,13.86-9.62,4.62-3.2,9.3-6.29,13.93-9.43,74.06-50.35,147.4-97.33,217.5-140.1,17.15-11.33,25.05-18.26,23.88-20.4-1.24-2.25-11.57.29-30.91,7.93-4.84,1.91-10.23,4.14-16.2,6.69-2.97,1.29-6.09,2.65-9.36,4.07-1.63.72-3.29,1.46-5,2.22-1.68.79-3.4,1.6-5.16,2.43-14.02,6.64-30.26,14.64-48.69,24.03-9.14,4.82-18.79,10.04-29,15.6-5.1,2.8-10.33,5.67-15.71,8.63-2.68,1.49-5.4,2.99-8.16,4.52-2.75,1.54-5.49,3.16-8.29,4.77-11.16,6.48-22.86,13.33-35.08,20.56-3.05,1.81-6.14,3.64-9.27,5.5-3.09,1.9-6.21,3.83-9.37,5.77-6.3,3.92-12.74,7.92-19.31,12.01-6.48,4.26-12.88,8.47-19.23,12.63-3.19,2.07-6.3,4.2-9.41,6.31-3.11,2.11-6.2,4.21-9.28,6.3-12.31,8.36-24.38,16.57-36.25,24.63-11.75,8.22-23.3,16.31-34.69,24.28-5.68,4-11.38,7.9-16.92,11.91-5.56,4-11.08,7.98-16.56,11.93-10.96,7.92-21.85,15.67-32.53,23.49-10.64,7.87-21.18,15.66-31.65,23.4-5.23,3.88-10.48,7.71-15.65,11.61-5.16,3.91-10.31,7.81-15.45,11.7-10.28,7.79-20.53,15.55-30.77,23.32-40.66,31.42-81.18,63.02-123.02,96.95-21.04,16.84-42.27,34.4-64.35,52.47-11.02,9.05-22.11,18.37-33.48,27.81-5.68,4.73-11.41,9.5-17.2,14.32-5.76,4.85-11.57,9.75-17.45,14.7l-7.37-8.76c62.77-52.8,142.84-117.08,224.62-179.61,81.68-62.65,164.84-123.67,231.57-172.77,16.31-12.81,15.32-14.3,5.63-10.1-2.42,1.05-5.39,2.45-8.76,4.13-1.68.85-3.47,1.75-5.35,2.7-1.85.99-3.79,2.03-5.8,3.1-8.03,4.33-17.14,9.4-26.25,14.47-9.13,5.06-18.26,10.12-26.24,14.55-7.97,4.45-14.89,8.16-19.68,10.39-9.58,4.47-10.65,3.04,5.35-10.24,67.68-48.45,136.64-95.04,204.5-144.38-13.23,8.42-26.74,17.02-40.49,25.77-13.63,8.91-27.4,18.1-41.41,27.37-3.5,2.32-7.01,4.65-10.54,6.99-3.49,2.39-6.99,4.78-10.5,7.18-7.01,4.82-14.07,9.66-21.17,14.54-7.09,4.89-14.26,9.76-21.39,14.75-7.1,5.03-14.23,10.09-21.39,15.17-57.34,40.62-115.61,84.08-172.94,128.44-57.27,44.41-113.63,89.66-167.59,133.53-53.97,43.86-105.57,86.33-153.28,125.27-16.56,12.2-33,24.49-48.55,35.88-7.77,5.69-15.33,11.16-22.53,16.29-7.18,5.15-14.02,9.96-20.4,14.32-12.77,8.72-23.73,15.62-31.97,19.81-8.22,4.2-13.71,5.68-15.59,3.53-38.05,34.15-75.25,67.25-111.57,99.25-4.55,4-9.08,7.98-13.59,11.95-2.26,1.98-4.52,3.96-6.77,5.94l-3.38,2.96-.84.74-.42.37c26.13,29.8-58.79-66.45,58.53,66.86l.37.4c.49.54.97,1.11,1.43,1.7.23.3.45.6.67.91l.61.78c.4.53.77,1.08,1.13,1.67.18.32.34.54.5.78.16.24.31.49.46.74.15.25.29.52.42.78.14.28.26.54.38.73.23.43.45.88.63,1.36.74,1.64,1.02,3.24,1.09,3.9.08.74-.08,1.09.07.54.14-.49.5-1.31,1.47-2.7.11-.15.23-.3.35-.43l.43-.57c.3-.37.62-.71.95-1.02.37-.41.77-.83,1.18-1.19.2-.18.41-.36.62-.53.21-.17.47-.42.7-.62.48-.42.98-.8,1.49-1.16l.39-.27.42-.33c.28-.21.57-.42.86-.62.58-.4,1.16-.75,1.77-1.11.65-.43,1.3-.83,1.97-1.2,5.34-3.02,11.98-5.7,19.21-7.82,7.24-2.14,15.04-3.68,23.17-4.91l6.12-.79c2.07-.26,4.1-.4,6.18-.6,4.2-.45,8.32-.58,12.59-.83,2.12-.1,4.21-.11,6.33-.16,2.14-.07,4.26-.1,6.39-.08l3.17.05h2.88s.02-.02.02-.04c.02-.08.06-.27.06-.42.06-.26.07-.48.12-.78.19-1.25.54-3.2,1.07-5.51.55-2.34,1.3-5.04,2.2-7.94.89-2.89,1.98-6.01,3.22-9.24,1.2-3.22,2.64-6.6,4.13-10.01,3.06-6.86,6.6-13.98,10.55-21.16,7.95-14.39,17.4-28.99,27.79-43.24,5.21-7.13,10.65-14.19,16.26-21.16,1.42-1.74,2.83-3.48,4.24-5.21,1.44-1.73,2.88-3.45,4.32-5.17,1.42-1.72,2.93-3.42,4.38-5.13l2.2-2.55,2.36-2.69c12.65-14.54,25.61-28.55,38.58-42.16,26.12-27.12,52.65-52.43,79.34-75.8,13.29-11.74,26.69-22.9,39.96-33.72,3.34-2.67,6.68-5.33,9.99-7.98,1.66-1.32,3.32-2.64,4.97-3.95,1.67-1.29,3.34-2.58,5-3.87,3.33-2.56,6.64-5.12,9.93-7.66,3.33-2.49,6.64-4.98,9.94-7.45,6.58-4.97,13.22-9.7,19.76-14.43,6.56-4.7,13.14-9.23,19.63-13.73,13.08-8.85,25.97-17.38,38.79-25.31,25.59-15.93,50.61-30.06,74.74-42.07,2.04-.94,4.3-2.05,6.77-3.33,2.44-1.28,5.12-2.69,8.03-4.21,2.88-1.52,5.96-3.19,9.22-5.01,3.24-1.77,6.69-3.65,10.34-5.64,1.81-1,3.66-2.03,5.57-3.08,1.89-1.02,3.83-2.07,5.82-3.13,1.98-1.08,4-2.19,6.06-3.32l.77-.43c.16-.09.18-.09.27-.13l.22-.1.87-.39c.58-.27,1.16-.54,1.75-.82,1.17-.56,2.35-1.16,3.53-1.8.64-.36,1.07-.53,1.58-.77.5-.23,1-.47,1.51-.7,1.01-.48,2.04-.96,3.09-1.45,1.05-.48,2.11-.96,3.2-1.45,8.6-4,18.38-7.82,28.68-12.28,5.16-2.22,10.49-4.51,15.97-6.87,2.75-1.17,5.53-2.35,8.34-3.54,1.41-.58,2.84-1.17,4.29-1.71.36-.13.73-.26,1.1-.37.09-.03.19-.05.28-.07.05,0,.1-.02.14-.02.04,0,.12.01.08.07-.12.16-.29.26-.45.37-.65.43-1.33.82-2.01,1.2-5.47,3.03-11.15,5.86-16.89,8.74-5.74,2.86-11.57,5.72-17.44,8.56-11.75,5.69-23.68,11.37-35.51,16.94-2.97,1.39-5.92,2.77-8.85,4.14l-.55.25-.28.12-.07.03c-.48.92.99-2.02-1.1,2.07l1.97-1.58c2.62-2.12,5.2-4.3,7.71-6.53,2.39-2.16,4.74-4.36,7.04-6.61,8.98-8.86,16.49-17.89,22.72-26.56,6.14-8.59,11.2-16.99,15.4-24.93,1.05-1.99,1.99-3.88,2.96-5.84l1.42-2.92,1.29-2.8c.84-1.86,1.7-3.77,2.47-5.61.75-1.8,1.49-3.6,2.21-5.41.74-1.84,1.37-3.54,2.01-5.29.62-1.72,1.29-3.53,1.84-5.19,1.13-3.35,2.23-6.77,3.15-9.96,1.93-6.55,3.42-12.7,4.72-18.74,2.51-11.96,4.04-23.16,4.91-33.88.86-10.73,1.11-21.07.81-31.34-.31-10.28-1.13-20.47-2.6-31.02-.38-2.66-.77-5.28-1.24-7.99l-.71-4.05-.8-4.12c-.26-1.35-.57-2.77-.88-4.18l-.95-4.22c-.71-2.92-1.39-5.72-2.23-8.75-1.59-5.87-3.57-12.2-5.94-18.77l-1.89-5.04c-.65-1.69-1.4-3.53-2.13-5.27l-1.11-2.64-1.24-2.8-1.27-2.79c-.43-.94-.84-1.82-1.34-2.84-.97-1.98-1.95-3.95-2.96-5.91l-.8-1.52-.85-1.58-1.74-3.14-.88-1.56-.94-1.62-2.02-3.36-2.07-3.32-1.12-1.73-1.19-1.79-2.43-3.55-1.24-1.76-1.38-1.89c-1.9-2.57-3.78-5.01-5.84-7.56-2.22-2.71-4.51-5.38-6.85-7.98l-.94-1.03-1-1.07-2.02-2.12c-1.35-1.4-2.72-2.79-4.11-4.15l-1.04-1.02-1.16-1.1-2.38-2.2c-1.6-1.46-3.22-2.89-4.86-4.29l-1.24-1.05-1.32-1.09-2.8-2.24c-1.88-1.48-3.79-2.93-5.72-4.34l-1.45-1.05-1.52-1.07-3.27-2.21c-2.19-1.45-4.42-2.87-6.66-4.23l-1.69-1.02-1.76-1.03c-1.24-.71-2.49-1.4-3.75-2.08-2.51-1.36-5.06-2.67-7.63-3.92-2.48-1.22-5.36-2.51-8.16-3.69-2.82-1.19-5.66-2.31-8.53-3.37l-2.15-.78-2.27-.77c-1.52-.5-3.05-.99-4.58-1.46-3.06-.93-6.15-1.79-9.25-2.57-6.26-1.55-12.78-2.77-19.23-3.66-6.45-.85-12.96-1.35-19.45-1.53-6.3-.13-12.61.06-18.86.55-5.91.51-11.8,1.29-17.62,2.33-5.45,1.01-10.7,2.23-15.96,3.67l-1.93.54-1.76.53-3.51,1.1c-2.34.76-4.66,1.56-6.96,2.4l-3.41,1.28-3.03,1.23c-2.01.83-4.02,1.7-6,2.6l-2.97,1.37c-.96.45-2.03.96-2.83,1.37-1.71.86-3.42,1.74-5.11,2.64-1.69.9-3.37,1.83-5.03,2.77l-1.24.71-1.16.68-2.15,1.3c-2.85,1.75-5.67,3.57-8.43,5.44-3.52,2.47-7.02,4.91-10.48,7.34-6.75,4.72-13.37,9.35-19.86,13.89Z"/>
  </g>
  <g id="Layer_2">
    <path class="st0" d="M1248.07,731.04v115.22c0,2.75,2.23,4.98,4.98,4.98s4.98-2.23,4.98-4.98v-115.22c0-2.75-2.23-4.98-4.98-4.98s-4.98,2.23-4.98,4.98ZM1330.91,731.04v115.22c0,2.75,2.23,4.98,4.98,4.98s4.98-2.23,4.98-4.98v-115.22c0-2.75-2.23-4.98-4.98-4.98s-4.98,2.23-4.98,4.98ZM1165.23,731.04v115.22c0,2.75,2.23,4.98,4.98,4.98s4.98-2.23,4.98-4.98v-115.22c0-2.75-2.23-4.98-4.98-4.98s-4.98,2.23-4.98,4.98ZM1496.58,731.04v115.22c0,2.75,2.23,4.98,4.98,4.98s4.98-2.23,4.98-4.98v-115.22c0-2.75-2.23-4.98-4.98-4.98s-4.98,2.23-4.98,4.98ZM1413.74,731.04v115.22c0,2.75,2.23,4.98,4.98,4.98s4.98-2.23,4.98-4.98v-115.22c0-2.75-2.23-4.98-4.98-4.98s-4.98,2.23-4.98,4.98ZM1082.4,731.04v115.22c0,2.75,2.23,4.98,4.98,4.98s4.98-2.23,4.98-4.98v-115.22c0-2.75-2.23-4.98-4.98-4.98s-4.98,2.23-4.98,4.98ZM959.26,869.73c0,2.75,2.23,4.98,4.98,4.98h743.29c2.75,0,4.98-2.23,4.98-4.98s-2.23-4.98-4.98-4.98h-743.29c-2.75,0-4.98,2.23-4.98,4.98ZM1579.42,731.04v115.22c0,2.75,2.23,4.98,4.98,4.98s4.98-2.23,4.98-4.98v-115.22c0-2.75-2.23-4.98-4.98-4.98s-4.98,2.23-4.98,4.98ZM584.42,1231.84c0-24.34-19.81-44.14-44.15-44.14-11.93,0-23.1,4.68-31.47,13.18-1.93,1.96-1.91,5.12.06,7.05s5.12,1.9,7.05-.05c6.48-6.58,15.13-10.21,24.36-10.21,18.85,0,34.18,15.33,34.18,34.18v85.22h-68.36v-85.22c0-2.75-2.23-4.98-4.98-4.98s-4.98,2.23-4.98,4.98v95.18h88.29v-95.18ZM945.95,870.74c2.75,0,4.98-2.23,4.98-4.98v-49.35h-327.97v97.93c0,2.75,2.23,4.98,4.98,4.98s4.98-2.23,4.98-4.98v-87.96h308.03v39.38c0,2.75,2.23,4.98,4.98,4.98ZM633.83,773.59h306.26l1.47-1.5c12.97-13.3,19.82-28.72,19.82-44.61,0-25.09-28.15-54.67-44.93-70.07-22.24-20.42-49.88-39.55-77.83-53.86-2.45-1.26-5.45-.29-6.71,2.17-1.26,2.45-.29,5.45,2.16,6.71,27.17,13.91,54.03,32.5,75.63,52.33,26.11,23.97,41.7,47.42,41.7,62.73,0,12.84-5.23,25-15.56,36.15h-297.78c-10.33-11.15-15.56-23.3-15.56-36.15,0-15.31,15.59-38.76,41.7-62.73,21.6-19.83,48.46-38.41,75.63-52.33,2.45-1.25,3.42-4.26,2.16-6.71-1.25-2.45-4.25-3.42-6.71-2.17-27.95,14.31-55.59,33.44-77.83,53.86-16.78,15.4-44.93,44.99-44.93,70.07,0,15.89,6.86,31.31,19.82,44.61l1.47,1.5ZM763.2,599.43c2.75,0,4.98-2.23,4.98-4.98v-54.58c0-10.35,8.42-18.78,18.77-18.78s18.77,8.42,18.77,18.78v49.59h-26.79c-2.75,0-4.98,2.23-4.98,4.98s2.23,4.98,4.98,4.98h36.76v-59.56c0-15.85-12.89-28.74-28.74-28.74s-28.74,12.89-28.74,28.74v54.58c0,2.75,2.23,4.98,4.98,4.98ZM2043.82,919.32c2.75,0,4.98-2.23,4.98-4.98v-97.93h-327.97v49.35c0,2.75,2.23,4.98,4.98,4.98s4.98-2.23,4.98-4.98v-39.38h308.03v87.96c0,2.75,2.23,4.98,4.98,4.98ZM1650.48,851.26c2.75,0,4.98-2.23,4.98-4.98v-176.52h-639.14v176.52c0,2.75,2.23,4.98,4.98,4.98s4.98-2.23,4.98-4.98v-166.55h619.2v166.55c0,2.75,2.23,4.98,4.98,4.98ZM1731.7,773.59h306.26l1.47-1.5c12.97-13.3,19.82-28.72,19.82-44.61,0-25.09-28.15-54.67-44.93-70.07-22.24-20.42-49.88-39.54-77.83-53.86-2.45-1.26-5.45-.29-6.71,2.17-1.26,2.45-.29,5.45,2.16,6.71,27.17,13.91,54.03,32.5,75.63,52.33,26.11,23.97,41.7,47.42,41.7,62.73,0,12.84-5.23,25-15.56,36.15h-297.78c-10.33-11.15-15.56-23.3-15.56-36.15,0-15.31,15.59-38.76,41.7-62.73,21.6-19.83,48.46-38.41,75.63-52.33,2.45-1.25,3.42-4.26,2.16-6.71-1.25-2.45-4.26-3.42-6.71-2.17-27.95,14.31-55.58,33.43-77.83,53.86-16.78,15.4-44.93,44.99-44.93,70.07,0,15.89,6.85,31.31,19.82,44.61l1.47,1.5ZM567.62,938.88h309.72l-48.45,69.63h1014l-48.45-69.63h309.72c2.75,0,4.98-2.23,4.98-4.98s-2.23-4.98-4.98-4.98h-314.11c-.79,0-1.52.2-2.18.52l-13.62-19.57h-758.76c-2.75,0-4.98,2.23-4.98,4.98s2.23,4.98,4.98,4.98h753.56l54.77,78.71h-975.84l54.77-78.71h74.62c2.75,0,4.98-2.23,4.98-4.98s-2.23-4.98-4.98-4.98h-79.83l-13.62,19.57c-.66-.32-1.39-.52-2.18-.52h-314.11c-2.75,0-4.98,2.23-4.98,4.98s2.23,4.98,4.98,4.98ZM1897.83,594.45c0-2.75-2.23-4.98-4.98-4.98h-26.79v-49.59c0-10.35,8.42-18.78,18.77-18.78s18.77,8.42,18.77,18.78v54.58c0,2.75,2.23,4.98,4.98,4.98s4.98-2.23,4.98-4.98v-54.58c0-15.85-12.89-28.74-28.74-28.74s-28.74,12.89-28.74,28.74v59.56h36.76c2.75,0,4.98-2.23,4.98-4.98ZM2063.34,1014.39c0,2.75,2.23,4.98,4.98,4.98h406.87c2.75,0,4.98-2.23,4.98-4.98s-2.23-4.98-4.98-4.98h-406.87c-2.75,0-4.98,2.23-4.98,4.98ZM2055.2,794.33c0-2.75-2.23-4.98-4.98-4.98h-330.77c-2.75,0-4.98,2.23-4.98,4.98s2.23,4.98,4.98,4.98h330.77c2.75,0,4.98-2.23,4.98-4.98ZM978.93,653.47h713.92c2.75,0,4.98-2.23,4.98-4.98s-2.23-4.98-4.98-4.98h-713.92c-2.75,0-4.98,2.23-4.98,4.98s2.23,4.98,4.98,4.98ZM1293.59,193.15c2.75,0,4.98-2.23,4.98-4.98v-97.17c0-20.58,16.74-37.32,37.32-37.32s37.32,16.74,37.32,37.32v92.18h-51.59c-2.75,0-4.98,2.23-4.98,4.98s2.23,4.98,4.98,4.98h61.55v-102.15c0-26.07-21.21-47.28-47.28-47.28s-47.29,21.21-47.29,47.28v97.17c0,2.75,2.23,4.98,4.98,4.98ZM1027.95,537.85h38.89v76.5c0,2.75,2.23,4.98,4.98,4.98s4.98-2.23,4.98-4.98v-76.5h518.18v76.5c0,2.75,2.23,4.98,4.98,4.98s4.98-2.23,4.98-4.98v-76.5h38.89c2.75,0,4.98-2.23,4.98-4.98s-2.23-4.98-4.98-4.98h-615.89c-2.75,0-4.98,2.23-4.98,4.98s2.23,4.98,4.98,4.98ZM2475.2,1126.04h-406.74c-2.75,0-4.98,2.23-4.98,4.98s2.23,4.98,4.98,4.98h406.74c2.75,0,4.98-2.23,4.98-4.98s-2.23-4.98-4.98-4.98ZM1064.9,503.22h541.99l1.47-1.5c22.37-22.93,34.19-49.46,34.19-76.71,0-21.6-12.78-48.35-36.67-77.78-.38-.99-1.06-1.82-1.94-2.39-11.14-13.45-24.54-27.43-40.12-41.73-39.36-36.13-88.27-69.97-137.71-95.29-2.45-1.26-5.45-.29-6.71,2.16-1.26,2.45-.29,5.45,2.16,6.71,48.67,24.92,96.8,58.22,135.52,93.76,12.43,11.41,23.46,22.67,33.02,33.58h-508.4c9.56-10.92,20.59-22.17,33.03-33.58,38.71-35.54,86.84-68.83,135.51-93.76,2.45-1.25,3.42-4.26,2.16-6.71-1.25-2.45-4.25-3.42-6.71-2.16-49.45,25.32-98.35,59.16-137.71,95.29-15.38,14.11-28.72,28.08-39.85,41.58-1.11.62-1.94,1.64-2.32,2.88-23.6,29.31-36.56,56.28-36.56,77.43,0,27.26,11.82,53.78,34.19,76.71l1.47,1.5ZM1073.32,354.01h525.13c22.02,27.28,34.12,51.99,34.12,71,0,24.37-10.06,47.32-29.91,68.25h-533.55c-19.85-20.93-29.91-43.88-29.91-68.25,0-19.01,12.1-43.72,34.11-71ZM957.33,794.33c0-2.75-2.23-4.98-4.98-4.98h-330.77c-2.75,0-4.98,2.23-4.98,4.98s2.23,4.98,4.98,4.98h330.77c2.75,0,4.98-2.23,4.98-4.98ZM1075.38,1074.07v483.77c0,2.75,2.23,4.98,4.98,4.98s4.98-2.23,4.98-4.98v-483.77c0-2.75-2.23-4.98-4.98-4.98s-4.98,2.23-4.98,4.98ZM451.36,1476.35c2.75,0,4.98-2.23,4.98-4.98v-76.39c0-24.34-19.8-44.14-44.15-44.14s-44.15,19.8-44.15,44.14v163.05h88.29v-62.14c0-2.75-2.23-4.98-4.98-4.98s-4.98,2.23-4.98,4.98v52.18h-68.36v-153.09c0-18.85,15.33-34.18,34.18-34.18s34.18,15.33,34.18,34.18v76.39c0,2.75,2.23,4.98,4.98,4.98ZM1185.85,1074.07v483.77c0,2.75,2.23,4.98,4.98,4.98s4.98-2.23,4.98-4.98v-483.77c0-2.75-2.23-4.98-4.98-4.98s-4.98,2.23-4.98,4.98ZM1475.96,1074.07v483.77c0,2.75,2.23,4.98,4.98,4.98s4.98-2.23,4.98-4.98v-483.77c0-2.75-2.23-4.98-4.98-4.98s-4.98,2.23-4.98,4.98ZM1976.19,1284.73h-121.87v194.78h121.87v-194.78ZM1966.22,1469.54h-101.93v-174.85h101.93v174.85ZM1586.44,1074.07v483.77c0,2.75,2.23,4.98,4.98,4.98s4.98-2.23,4.98-4.98v-483.77c0-2.75-2.23-4.98-4.98-4.98s-4.98,2.23-4.98,4.98ZM501.11,1423.52c-2.75,0-4.98,2.23-4.98,4.98v129.53h88.29v-163.05c0-24.34-19.81-44.14-44.15-44.14s-44.15,19.8-44.15,44.14c0,2.75,2.23,4.98,4.98,4.98s4.98-2.23,4.98-4.98c0-18.85,15.33-34.18,34.18-34.18s34.18,15.33,34.18,34.18v153.09h-68.36v-119.56c0-2.75-2.23-4.98-4.98-4.98ZM451.36,1282.08c2.75,0,4.98-2.23,4.98-4.98v-45.25c0-24.34-19.8-44.14-44.15-44.14s-44.15,19.8-44.15,44.14v95.18h83.31c2.75,0,4.98-2.23,4.98-4.98s-2.23-4.98-4.98-4.98h-73.34v-85.22c0-18.85,15.33-34.18,34.18-34.18s34.18,15.33,34.18,34.18v45.25c0,2.75,2.23,4.98,4.98,4.98ZM125.79,1136.01h477.53c2.75,0,4.98-2.23,4.98-4.98s-2.23-4.98-4.98-4.98H125.79c-2.75,0-4.98,2.23-4.98,4.98s2.23,4.98,4.98,4.98ZM1976.19,1113.32c0-33.6-27.34-60.93-60.93-60.93s-60.93,27.33-60.93,60.93v133.84h121.87v-133.84ZM1966.22,1237.2h-101.93v-123.88c0-28.1,22.86-50.97,50.96-50.97s50.97,22.86,50.97,50.97v123.88ZM125.79,1019.38h477.66c2.75,0,4.98-2.23,4.98-4.98s-2.23-4.98-4.98-4.98H125.79c-2.75,0-4.98,2.23-4.98,4.98s2.23,4.98,4.98,4.98ZM2131.51,1197.66c9.23,0,17.89,3.63,24.36,10.21,1.93,1.96,5.09,1.98,7.05.05,1.96-1.93,1.99-5.08.06-7.05-8.37-8.5-19.54-13.18-31.47-13.18-24.34,0-44.15,19.8-44.15,44.14v95.18h88.29v-95.18c0-2.75-2.23-4.98-4.98-4.98s-4.98,2.23-4.98,4.98v85.22h-68.36v-85.22c0-18.85,15.33-34.18,34.18-34.18ZM817.46,1113.32c0-33.6-27.34-60.93-60.93-60.93s-60.93,27.33-60.93,60.93v133.84h121.87v-133.84ZM807.49,1237.2h-101.93v-123.88c0-28.1,22.86-50.97,50.97-50.97s50.97,22.86,50.97,50.97v123.88ZM762.46,1591.62h1146.87c2.75,0,4.98-2.23,4.98-4.98s-2.23-4.98-4.98-4.98H762.46c-2.75,0-4.98,2.23-4.98,4.98s2.23,4.98,4.98,4.98ZM2087.36,1558.03h88.29v-129.53c0-2.75-2.23-4.98-4.98-4.98s-4.98,2.23-4.98,4.98v119.56h-68.36v-153.09c0-18.85,15.33-34.18,34.18-34.18s34.18,15.33,34.18,34.18c0,2.75,2.23,4.98,4.98,4.98s4.98-2.23,4.98-4.98c0-24.34-19.8-44.14-44.15-44.14s-44.15,19.8-44.15,44.14v163.05ZM1791.27,1035.79h-910.77c-2.75,0-4.98,2.23-4.98,4.98s2.23,4.98,4.98,4.98h910.77c2.75,0,4.98-2.23,4.98-4.98s-2.23-4.98-4.98-4.98ZM2220.43,1490.91c-2.75,0-4.98,2.23-4.98,4.98v62.14h88.29v-163.05c0-24.34-19.8-44.14-44.15-44.14s-44.15,19.8-44.15,44.14v76.39c0,2.75,2.23,4.98,4.98,4.98s4.98-2.23,4.98-4.98v-76.39c0-18.85,15.33-34.18,34.18-34.18s34.18,15.33,34.18,34.18v153.09h-68.36v-52.18c0-2.75-2.23-4.98-4.98-4.98ZM695.59,1479.51h121.87v-194.78h-121.87v194.78ZM705.56,1294.7h101.93v174.85h-101.93v-174.85ZM2220.43,1317.06c-2.75,0-4.98,2.23-4.98,4.98s2.23,4.98,4.98,4.98h83.31v-95.18c0-24.34-19.8-44.14-44.15-44.14s-44.15,19.8-44.15,44.14v45.25c0,2.75,2.23,4.98,4.98,4.98s4.98-2.23,4.98-4.98v-45.25c0-18.85,15.33-34.18,34.18-34.18s34.18,15.33,34.18,34.18v85.22h-73.34ZM2475.2,1666.89H125.79c-2.75,0-4.98,2.23-4.98,4.98s2.23,4.98,4.98,4.98h2349.41c2.75,0,4.98-2.23,4.98-4.98s-2.23-4.98-4.98-4.98ZM1684.1,1069.02v488.75c0,2.75,2.23,4.98,4.98,4.98s4.98-2.23,4.98-4.98v-39.12h92.56v39.12c0,2.75,2.23,4.98,4.98,4.98s4.98-2.23,4.98-4.98v-39.12h9.54c2.75,0,4.98-2.23,4.98-4.98s-2.23-4.98-4.98-4.98h-9.54v-354.94h9.54c2.75,0,4.98-2.23,4.98-4.98s-2.23-4.98-4.98-4.98h-9.54v-74.76h-112.5ZM1786.64,1508.69h-92.56v-354.94h92.56v354.94ZM1786.64,1143.78h-92.56v-64.79h92.56v64.79ZM865.63,1508.69c-2.75,0-4.98,2.23-4.98,4.98s2.23,4.98,4.98,4.98h9.54v39.12c0,2.75,2.23,4.98,4.98,4.98s4.98-2.23,4.98-4.98v-39.12h92.56v39.12c0,2.75,2.23,4.98,4.98,4.98s4.98-2.23,4.98-4.98v-488.75h-112.5v74.76h-9.54c-2.75,0-4.98,2.23-4.98,4.98s2.23,4.98,4.98,4.98h9.54v354.94h-9.54ZM885.15,1078.99h92.56v64.79h-92.56v-64.79ZM885.15,1153.74h92.56v354.94h-92.56v-354.94ZM2475.2,1611.98h-426.39v-656.97c0-2.75-2.23-4.98-4.98-4.98s-4.98,2.23-4.98,4.98v656.97H632.94v-656.97c0-2.75-2.23-4.98-4.98-4.98s-4.98,2.23-4.98,4.98v656.97H125.79c-2.75,0-4.98,2.23-4.98,4.98s2.23,4.98,4.98,4.98h2349.41c2.75,0,4.98-2.23,4.98-4.98s-2.23-4.98-4.98-4.98Z"/>
  </g>
</svg>