<?xml version="1.0" encoding="UTF-8"?>
<svg id="Layer_1" data-name="Layer 1" xmlns="http://www.w3.org/2000/svg" viewBox="0 0 200 100">
  <defs>
    <style>
      .cls-1 {
        fill: #0272bb;
      }

      .cls-2 {
        fill: #fdfdfe;
      }

      .cls-3 {
        fill: #f5f9fc;
      }

      .cls-4 {
        fill: #f7fafc;
      }

      .cls-5 {
        fill: #0875bc;
      }

      .cls-6 {
        fill: #f6fafc;
      }

      .cls-7 {
        fill: #0775bc;
      }

      .cls-8 {
        fill: #0071ba;
      }

      .cls-9 {
        fill: #0171ba;
      }

      .cls-10 {
        fill: #fcfdfe;
      }

      .cls-11 {
        fill: #0473bb;
      }

      .cls-12 {
        fill: #0372bb;
      }

      .cls-13 {
        fill: #6cadd7;
      }

      .cls-14 {
        fill: #fefefe;
      }

      .cls-15 {
        fill: #0171bb;
      }

      .cls-16 {
        fill: #fbfcfd;
      }

      .cls-17 {
        fill: #f8fbfd;
      }

      .cls-18 {
        fill: #fafcfd;
      }

      .cls-19 {
        fill: #0271bb;
      }

      .cls-20 {
        fill: #fcfdfd;
      }
    </style>
  </defs>
  <rect class="cls-8" x="0" y="0" width="200" height="100"/>
  <path class="cls-14" d="M123.35,53.54l2.82,6.32v-6.32h3.95s.34.31.34.34v14.66s-.31.34-.34.34h-3.84c-.39,0-1.97-4.91-2.26-5.63-.11-.27-.23-.91-.56-.91v6.54h-4.06v-15.34h3.95Z"/>
  <path class="cls-14" d="M109.36,53.54c2.06.2,3.71,1.03,3.95,3.27.11,1.02.12,2.84-.78,3.5-.5.36-1.22.23-1.47.67.67-.12,2.25,1.17,2.25,1.69v6.2h-4.51v-5.98c0-.81-.89-1.13-1.58-1.02v6.99h-4.96v-15.34c2.29.16,4.85-.22,7.11,0Z"/>
  <path class="cls-14" d="M52.4,68.88l2.61-15.35,7.09.02,2.71,15.34h-4.96c-.14,0-.12-2.59-.22-2.71-.06-.06-1.46-.05-1.68-.01-.36.06-.2,2.72-.69,2.72h-4.85Z"/>
  <path class="cls-14" d="M135.42,68.88l2.61-15.35h7.09s2.71,15.35,2.71,15.35h-4.96c-.24,0-.13-2.61-.22-2.71-.07-.07-1.64-.04-1.9,0-.35.05.17,2.71-.47,2.71h-4.85Z"/>
  <path class="cls-14" d="M84.89,68.88l2.61-15.35h7.09s2.71,15.35,2.71,15.35h-4.96c-.14,0-.13-2.61-.22-2.71-.06-.06-1.45-.05-1.68-.01-.45.08-.22,2.72-.36,2.72h-5.19Z"/>
  <path class="cls-14" d="M98.87,7.75v13.87c0,.26-1.66,4.85-1.92,4.85h-8.91l6.54-18.72h4.29Z"/>
  <path class="cls-14" d="M105.64,7.75l6.54,18.72h-8.91c-.26,0-1.92-4.59-1.92-4.85V7.75h4.29Z"/>
  <path class="cls-14" d="M74.73,62.79v6.09h-4.96v-15.34h6.88c.31,0,1.94.45,2.3.63.39.2,1.09.83,1.25,1.23.3.74.28,4.31.12,5.19-.43,2.41-3.74,1.97-5.59,2.2Z"/>
  <polygon class="cls-14" points="93.23 36.85 90.07 45.87 81.05 45.87 84.21 36.85 93.23 36.85"/>
  <path class="cls-14" d="M116.02,36.85c.4.26,2.5,7.99,3.16,9.02h-9.02l-3.16-9.02c1.22.24,8.56-.31,9.02,0Z"/>
  <path class="cls-14" d="M98.87,28.95v5.41h-13.76c.5-.53,1.52-5.41,1.8-5.41h11.96Z"/>
  <path class="cls-14" d="M113.31,28.95c.24.21,1.34,4.76,1.8,5.41h-13.76v-5.41c1.48.3,11.51-.39,11.96,0Z"/>
  <path class="cls-10" d="M78.12,85.8s-1.31.05-1.35,0c-.06-.07.04-.69,0-.9-6.49,4.92-8.91-7.57-1.52-6.04.46.1,1.46.92,1.52.85.2-.28-.25-2.66.1-3.17.3-.44,1.25-.17,1.25.12,0,1.22.33,8.82,0,9.14Z"/>
  <path class="cls-20" d="M58.94,82.64h-6.09c.09,2.01,2.54,2.85,4.06,1.69.4-.3.28-.74.78-.8,1.9-.25.83,1.26-.17,1.87-2.61,1.59-6.02.1-6.02-3.09,0-5,8.02-4.93,7.44.34Z"/>
  <path class="cls-20" d="M107.44,82.64h-6.09c.08,2,2.53,2.85,4.06,1.69.4-.3.28-.74.78-.8,2.1-.27.6,1.56-.63,2.09-2.63,1.14-5.52-.28-5.52-3.31,0-5.05,8.01-4.88,7.4.34Z"/>
  <path class="cls-2" d="M67.98,84.66c.12.11.81-.07.89,0,.04.04.04,1.09,0,1.13-.05.05-1.18.02-1.42-.05-.38-.11-.82-.85-.95-.85-.05,0-.45.5-.73.62-1.76.78-5.27.29-4.48-2.22.66-2.09,3.55-1.27,4.86-1.91,2.03-.99-1.75-2.62-3.1-1.18-.21.22-.19.74-.31.82s-1.27.07-1.32.03c-.07-.05.5-1.26.67-1.47,1.1-1.39,5.28-1.42,5.64.46.15.77-.15,4.24.24,4.61Z"/>
  <path class="cls-20" d="M157.3,82.64h-6.09c.26,1.15.65,1.8,1.85,2.1,2.22.57,2.23-1.11,3.45-1.21,1.48-.12-.14,1.74-1.03,2.13-2.15.95-5.01.02-5.37-2.48-.86-5.93,7.65-6.16,7.2-.54Z"/>
  <path class="cls-18" d="M90.98,76.66c.12-.39.99-.51,1.25-.12.35.51-.09,2.9.1,3.17.09.12,1.67-1.13,2.8-1.11.76.02,2.39.92,2.39,1.67v5.53c0,.06-1.13.06-1.13,0v-4.62c0-.7-.94-1.47-1.69-1.47s-2.37,1.01-2.37,1.7v4.4c-.32.06-1.35,0-1.35-.34v-8.8Z"/>
  <path class="cls-16" d="M120.75,78.81v5.08c0,.88,1.61,1.13,2.32.97s1.74-1.45,1.74-2.1v-3.95c0-.06,1.13-.06,1.13,0v6.99c0,.06-1.09.04-1.13,0-.07-.07.05-.88,0-1.13-1.88,2.01-5.06,1.95-5.41-1.24-.09-.8-.13-3.34,0-4.06s.74-.56,1.35-.56Z"/>
  <path class="cls-2" d="M135.87,78.81v4.17c0,1.88,1.83,2.51,3.28,1.47.33-.24,1.01-1.39,1.01-1.7v-3.95c0-.06,1.13-.06,1.13,0v6.99c0,.06-1.09.04-1.13,0-.11-.11.18-.96-.11-1.13-1.24,1.88-5.3,1.7-5.3-.79v-5.08c0-.06.94.04,1.13,0Z"/>
  <path class="cls-17" d="M44.28,84.45h5.41c.07,0,.07,1.35,0,1.35h-6.77v-9.47c.44,0,1.15-.15,1.32.37l.03,7.75Z"/>
  <path class="cls-4" d="M114.66,79.94c-.08-.08-1.05.08-1.13,0-.04-.04-.04-1.09,0-1.13.08-.08,1.04.09,1.13,0,.07-.07-.06-1.39.44-1.93.37-.4,2.22-.7,2.47-.29.08.12.07,1.06.03,1.09-.08.08-1.02-.14-1.37.1-.24.17-.29.95-.21,1.03.09.09,1.49-.09,1.58,0,.04.04.04,1.09,0,1.13-.07.07-1.27-.05-1.58,0v5.87c0,.07-1.35.07-1.35,0,0-.8.21-5.66,0-5.87Z"/>
  <path class="cls-18" d="M129.55,79.94c-.08-.08-1.05.08-1.13,0-.04-.04-.04-1.09,0-1.13.08-.08,1.05.08,1.13,0,.12-.12-.2-1.54.13-1.58,2.2-.32.82,1.18,1.22,1.58.09.09,1.49-.09,1.58,0,.04.04.04,1.09,0,1.13-.07.07-1.27-.05-1.58,0v4.62c0,.5,1.52.28,1.58.34.04.04.04,1.09,0,1.13-.42.43-2.93-.18-2.93-1.47,0-.66.17-4.46,0-4.62Z"/>
  <path class="cls-18" d="M87.14,84.56c.17.56,1.5.25,1.58.34.04.04.04,1.09,0,1.13-.24.24-2.07-.04-2.49-.56-.9-1.12-.2-5.3-.44-5.53-.21-.2-1.38.47-1.13-.57.21-.87.97-.43,1.12-.57.12-.11-.09-1.48,0-1.57.05-.05,1.31-.05,1.36,0,.09.09-.09,1.49,0,1.58.38.38,1.85-.87,1.58,1-.04.3-1.58.05-1.58.13,0,.95-.19,4,0,4.62Z"/>
  <path class="cls-10" d="M144.22,78.81s1.09-.04,1.13,0c.08.08-.08.81,0,.9.23.27.91-.65,1.14-.77.47-.25,1.77-.63,1.98.02.49,1.53-.79.69-1.85,1.23-.45.23-1.27,1.46-1.27,1.89v3.72c0,.06-1.13.06-1.13,0,0-.94-.25-6.75,0-6.99Z"/>
  <path class="cls-6" d="M122.73,38.26c4.79-.29,5.57,6.88,1.06,7.6-5.69.9-6.08-7.29-1.06-7.6Z"/>
  <path class="cls-11" d="M107.22,56.25c.22-.21,1.36.03,1.53.61.39,1.34.12,2.91-1.53,2.77.09-.5-.12-3.27,0-3.38Z"/>
  <path class="cls-5" d="M58.72,57.6c.12.73.88,5.65.68,5.87-.05.05-1.22.04-1.45,0-.3-.04.47-5.27.55-5.87.06-.2.14-.19.23,0Z"/>
  <path class="cls-13" d="M58.72,57.6h-.23c.09-.7.11-.65.23,0Z"/>
  <path class="cls-7" d="M142.41,63.47c-.06.05-1.52.06-1.58,0-.3-.3.8-5.24.68-6.09l.9,6.09Z"/>
  <path class="cls-5" d="M91.88,63.47c-.06.06-1.53.06-1.58,0-.33-.33.89-5.21.68-6.09.33.04.38.98.42,1.27.09.61.65,4.65.48,4.82Z"/>
  <path class="cls-1" d="M74.73,60.08v-3.84c2.27-.67,2.32,4.38,0,3.84Z"/>
  <path class="cls-9" d="M73.54,79.98c3.93-.9,4.23,4.19,1.43,4.82-3.43.77-3.92-4.25-1.43-4.82Z"/>
  <path class="cls-11" d="M57.59,81.74h-4.74c.55-2.48,4.35-2.7,4.74,0Z"/>
  <path class="cls-11" d="M106.09,81.74h-4.51c-.07-2.55,4.5-2.59,4.51,0Z"/>
  <path class="cls-12" d="M66.61,82.42c.09.09,0,1.09-.12,1.35-.69,1.55-4.62,1.53-3.8-.39.21-.5,3.77-1.11,3.91-.96Z"/>
  <path class="cls-11" d="M155.95,81.74h-4.51c.04-2.58,4.47-2.58,4.51,0Z"/>
  <path class="cls-15" d="M125.42,44.44c-3.14,3.14-7.95-1.67-4.67-4.78,3.06-2.91,7.61,1.83,4.67,4.78Z"/>
  <path class="cls-3" d="M121.43,39.78c.21-.21,2.96.06,3.27.67.69,1.37-.76,1.74-.77,1.92-.02.2,1.12,1.72.88,1.92-.03.03-.73.04-.86-.04-.25-.15-.41-1.69-1.04-1.78-1.19-.16-.28,1.53-.58,1.82-.03.03-.9.04-.9,0,0-.64-.16-4.35,0-4.51Z"/>
  <path class="cls-19" d="M122.33,41.81s-.05-1.31,0-1.36c.18-.18,1.7,0,1.79.59.12.75-1.6.95-1.79.76Z"/>
</svg>