<?xml version="1.0" encoding="UTF-8"?>
<svg id="Layer_1" data-name="Layer 1" xmlns="http://www.w3.org/2000/svg" viewBox="0 0 200 100">
  <defs>
    <style>
      .cls-1 {
        fill: #045573;
      }

      .cls-2 {
        fill: #fddd7b;
      }

      .cls-3 {
        fill: #0f412d;
      }

      .cls-4 {
        fill: #4d5a23;
      }

      .cls-5 {
        fill: #7a8936;
      }

      .cls-6 {
        fill: #46531a;
      }

      .cls-7 {
        fill: #7f8d3e;
      }

      .cls-8 {
        fill: #045473;
      }

      .cls-9 {
        fill: #4c5920;
      }

      .cls-10 {
        fill: #12586c;
      }

      .cls-11 {
        fill: #093c28;
      }

      .cls-12 {
        fill: #4c5921;
      }

      .cls-13 {
        fill: #455318;
      }

      .cls-14 {
        fill: #0b3e2a;
      }

      .cls-15 {
        fill: #144532;
      }

      .cls-16 {
        fill: #fafafa;
      }

      .cls-17 {
        fill: #085876;
      }

      .cls-18 {
        fill: #0c5a78;
      }

      .cls-19 {
        fill: #025473;
      }

      .cls-20 {
        fill: #7a8a38;
      }

      .cls-21 {
        fill: #96989b;
      }

      .cls-22 {
        fill: #7a8a37;
      }

      .cls-23 {
        fill: #95979a;
      }

      .cls-24 {
        fill: #fbfbfb;
      }

      .cls-25 {
        fill: #fcfcfc;
      }

      .cls-26 {
        fill: #929497;
      }

      .cls-27 {
        fill: #0c3e2b;
      }

      .cls-28 {
        fill: #025372;
      }

      .cls-29 {
        fill: #57632c;
      }

      .cls-30 {
        fill: #818f42;
      }

      .cls-31 {
        fill: #fdfdfd;
      }
    </style>
  </defs>
  <path class="cls-18" d="M88.77,34.7c.85.13.8.48,0,.88l-.67,1.3c-3.25,1.78-6,4.54-7.47,7.96l-1.1.41-.71.72c-4.81-1.25-8.93,1.79-1.02,1.21l.4,1.15c.44.54.81,1.49,0,1.76l-.42.9c-7.1-.09-7.38,7.53.11,7.39l.75.95c.38.12.38.27,0,.44,1.13.66,2.04,1.85,2.71,3.57,1.24,1.12,1.94,2.28,2.13,3.47.38.1.37.25,0,.44-2.86,5.96-10.28,3.78-15.48,2.94-4.76-.77-18.95-3.24-22.67-5.05-2.05-.99-3.35-3.25-3.18-5.53.37-4.92,4.9-22.27,6.69-27.22.89-2.44,2.16-4.42,4.93-4.75,9.68-1.15,21.74,1.66,31.59,1.87,2.28.81,3.33,2.9,3.4,5.18Z"/>
  <path class="cls-7" d="M119.57,34.26c.38.12.37.27,0,.44.27.22.4.5.44.84.04.41-1.28,7.01-1.56,8.04l-1.08,1.24-.22.56c-3.26-.29-7.75,2.39-1.54,1.57,1.09.02,2.03.19,1.76,1.39.67.73.57,1.46-.44,1.76-.04.41-.21.81-.59.91-4.49,1.09-7.02,2.73-2.81,6.72,1.4.24,2.24.78,2.52,1.61l.92.63c.06,1.75-.1,3.44-.48,5.09.94.71.72,1.05-.44.88-8.61,8.62-23.17,8.74-32.56,1.32.06-.12-.05-.31,0-.44l-.49-1.2c.72-2.67,1.26-5.39,1.62-8.15l1.07-.77.96-.2c1.32,2.15,10.36,3.25,6.96-.68h-3.08c-1.76,1.3-3.01-1.75-3.12-3.52-.28-4.6,3.11-5.72,6.85-5.11,2.03-2-5.26-1.57-6.04-.87l-.77-.61-.9-.84c-.38-1.6.97-7.97,2.22-9.28.02-.29,0-.59,0-.88,2.31-.38,4.34-1.74,6.6-2.42,7.64-2.33,17.42-2.72,24.2,1.98Z"/>
  <path class="cls-21" d="M119.57,34.26c1.67-5.71,1.09-7.33,8.02-5.16,6.52,2.04,24.76,14.06,28.32,19.86.38.61,1.09,1.98,1.06,2.65-.07,1.93-6.46,5.78-8.22,6.79-6.01,3.45-23.91,11.95-30.31,11.09-2.65-.35-1.42-1.83-2.4-3.54.18-.18.25-.68.44-.88-.02-1.95,1.88-3.9,3.4-5.01-.03-.47.16-.85.56-1.15.77-1.08.91-2.3.42-3.68l.09-5.73.81-.71c.12-.38.27-.38.44,0,.22,1.65.37,3.37.44,5.14l.44.14.3-3.68,1.02-.28c.9,2.37,1.23,5.01.98,7.92,1.55-.3,2.55,0,2.98.88-.23-.03-.44-.08-.59-.2-.43-.37-.4-7.23-.29-8.19l.88-.62c-1.8-1.11.64-2.48,2.3-2.44,1.56.04,3.69,1.18,2.1,2.44l.88.5v7.9l-.88.62c.38-1.43,3.37-1.18,3.96,0,.42-3.28.42-6.5,0-9.68l-.99-.33c-1.13-4.43-4.52-3.61-7.61-1.58-1.07-1.18-2.31-1.86-3.73-2.05l-.95-.69c-.36-3.21-1.45-6.46-3.87-8.71l-.02-1.17c.04-.14-.04-.31,0-.44Z"/>
  <path class="cls-2" d="M153.8,62.08c7.98-.47,2.9,11.24-4.2,8.37-1.88-.76-2.94-3.52-2.09-5.38.72-1.57,4.66-2.89,6.29-2.99Z"/>
  <path class="cls-25" d="M52.69,44.82c.07.24,1.3.77.88,1.76,2.92-2.46,5.72-2.31,8.35.44.73-3.62,7.93-2.2,7.93.66v11.22h-3.52c-.43-.43.66-7.62-.44-8.8v-.44c-.55-2.87-3.96-.66-3.96.66v8.58c-1.34.42-2.95-.39-3.96-.44-.47-2.7-.23-5.6,0-8.36-.35-3.33-3.96-1.56-3.96-.22v9.02h-3.96c.39-4.07-.51-9.03-.03-12.99.06-.52.45-.98.91-1.09.42-.39,1.29-.32,1.76,0Z"/>
  <path class="cls-25" d="M79.53,45.26c1.18-1.79,5.5,2.4,3.52,3.52.52,3.05.35,6.58,0,9.68.1,1.32-1.84,1.57-2.39.62l-1.13.26c-.2.39-.55.29-.88,0-2.89-.26-6.79-.35-7.07-4.19-.3-4.13,3.34-4.93,6.63-5.05.5-.47.5-1.06,0-1.76-2.2-1.38-4.48.93-5.39-.99-1.47-3.12,4.69-2.72,6.71-2.09Z"/>
  <path class="cls-15" d="M88.77,35.58c-.18,3.21-1.54,6.79-1.32,10.12.11.18.2.36.22.55.05.3-2.74,4.75-3.3,4.73-.4.59-.38,1.63,0,2.2,1.3-.2,2.3,2.72,1.32,3.52-.81,3.47-.81,6.78-2.2,10.12-2.36-1.72-3.94-4.32-4.84-7.04.92-.22,1.22-.36.88-.44.79-.84,2.66-.48,3.52-.88.39-3.1.48-6.67,0-9.68-.32-1.75-1.89-3.01-3.52-3.52,1.41-4.14,5.24-7.92,9.24-9.68Z"/>
  <polygon class="cls-17" points="70.29 48.34 71.13 54.67 70.29 58.9 70.29 48.34"/>
  <path class="cls-19" d="M65.89,50.1c.25,2.82-.18,5.94,0,8.8-.77.1-.41-1-.44-1.53-.1-2.37-.3-5.5.44-7.7.03.14-.01.3,0,.44Z"/>
  <path class="cls-19" d="M57.97,58.46s-.11.54-.43.44c.25-2.82-.57-6.14.43-8.8.28,2.64-.2,5.67,0,8.36Z"/>
  <path class="cls-15" d="M78.21,48.34c.8.5,1.02.71.88,1.76-.29.01-.58,0-.88,0v-1.76Z"/>
  <path class="cls-1" d="M69.85,59.35c-.39,1-2.65.19-3.52.43.39-1,2.65-.19,3.52-.43Z"/>
  <path class="cls-28" d="M50.93,44.82c-.72.25-1.28-.36-.66-.44h2.86c-.03.24-.45.41-.45.44-.54.08-1.28-.12-1.76,0Z"/>
  <rect class="cls-8" x="50.49" y="59.35" width="3.08" height=".43"/>
  <rect class="cls-8" x="58.41" y="59.35" width="3.08" height=".43"/>
  <path class="cls-27" d="M79.53,59.34c.44.02.88-.02,1.32,0v.43s-2.2,0-2.2,0v-.44c.29.03.59-.01.88,0Z"/>
  <path class="cls-25" d="M96.69,39.98l3.96-.44v7.04c1.88-2.97,8.36-1.86,8.36,1.54v10.78c-1.34.42-2.95-.39-3.96-.44-.47-2.7-.23-5.6,0-8.36-.37-3.6-4.4-1.22-4.4.22v8.58l-3.96-.44v-18.48Z"/>
  <path class="cls-25" d="M117.37,44.82c1.26-2.18,6.6,2.49,4.4,3.96.26,1.87-.07,4.4-.02,6.4.05,1.86,1.32,2.95-1.3,3.72l-.55.9c-.26-.87-.99-.81-1.65-.46-.4.46-1.2.24-1.76,0-.11.39-.26.38-.44,0-3.24-.5-5.7-1.78-5.31-5.51.33-3.19,3.59-3.65,6.19-3.73.42-.52.58-1.12.44-1.76-1.67-1.06-3.51-.17-5.28,0-1.74-3.62,2.59-3.86,5.28-3.52Z"/>
  <path class="cls-25" d="M87.45,45.7c1.36-.81,7.16-1.42,7.51-.17,1.11,3.97-2.21,2.05-4.11,2.46-3.22.71-3.51,6.57-.32,7.83,1.01-.08,2.04-.08,3.08,0,.3.08.93-.2,1.23.07.73.67.82,2.44-.57,3-2.54,1.04-7.01.1-8.58-2.2-.22-.32-1.26-3.15-1.32-3.52-.44-.38-.36-1.64,0-2.2.24-1.51,1.69-4.45,3.08-5.28Z"/>
  <path class="cls-9" d="M124.41,45.26c1.42.77,1.33,3.96,0,4.84l-1.32,3.96c-.84-1.37-.91-4.11-.44-5.72l-.44.44h-.44c-.3-2.15-2.32-3.7-4.4-3.96.48-2.95.74-6.02,1.43-8.93.16-.68.74-1.08.77-1.19,3.2,2.47,4.54,6.66,4.84,10.56Z"/>
  <path class="cls-12" d="M120.45,58.9c.94.26-.08,1.27-.34,1.64-1.08,1.56-2.33,3.13-3.62,4.52-.98-1.49-.21-3.91-.44-5.72.14.02.3-.02.44,0,1.01.36,4.19.39,1.76,0,.36-.81,1.64-.28,2.2-.44Z"/>
  <path class="cls-5" d="M105.05,58.46s-.11.54-.43.44c.25-2.82-.57-6.14.43-8.8.27,2.64-.2,5.67,0,8.36Z"/>
  <path class="cls-5" d="M93.61,55.82c-1.13.75-1.96.44-3.08,0,.91-1.12,2.21-.24,3.08,0Z"/>
  <path class="cls-4" d="M117.37,48.34c1.59,1.01,1.4,1.71-.44,1.76l.44-1.76Z"/>
  <path class="cls-20" d="M109.01,59.35c-.39,1-2.65.19-3.52.43.39-1,2.65-.19,3.52-.43Z"/>
  <path class="cls-22" d="M100.65,38.67c-.39,1-2.65.19-3.52.43.39-1,2.65-.19,3.52-.43Z"/>
  <path class="cls-31" d="M124.41,45.26c2.41-1.9,3.53,1.41,3.74,1.32.74-.31,1.48-1.4,2.74-1.66,3.5-.72,5.15,1.13,5.84,4.3.4,3.25.4,6.48,0,9.68-.86.29-2.9-.2-3.96,0v-9.02c0-2.09-4.4-2.09-4.4,0v9.02h-3.96c-.04-2.92.06-5.87,0-8.8-.03-1.59.12-3.28,0-4.84Z"/>
  <path class="cls-24" d="M143.33,45.26v13.64h-3.52v-10.34c0-.53-1.56-.57-1.69-.72-.3-.33.05-1.95-.07-2.58h5.28Z"/>
  <path class="cls-16" d="M140.98,39.19c2.37-.21,3.54,3.86.79,4.31-3.89.64-3.5-4.06-.79-4.31Z"/>
  <rect class="cls-26" x="143.77" y="45.26" width=".44" height="13.64"/>
  <path class="cls-23" d="M136.73,58.9c.12-3.21-.16-6.47,0-9.68.02-.49-.3-1.43.44-1.32-.29,3.12.4,6.89.02,9.92-.06.49.19.86-.46,1.08Z"/>
  <path class="cls-6" d="M123.09,54.06c0,.12-.51,2.26-.88,2.2v-7.48s.43-.44.43-.44c-.45,1.84.45,4.16.44,5.72Z"/>
  <path class="cls-10" d="M79.09,52.74c-.65,1.05-1.13,2.23,0,3.08-.29.87-2.94.58-3.56-.18-1.94-2.38,3.06-4.4,3.56-2.9Z"/>
  <path class="cls-3" d="M83.05,58.46c-.37-2.9.5-6.95,0-9.68l.44-.23c-.27,2.8.35,6.13.02,8.84-.06.52.14.78-.46,1.07Z"/>
  <path class="cls-11" d="M79.09,52.74c.08.23.08,2.84,0,3.08-2.17.49-1.12-1.56-1.32-3.08h1.32Z"/>
  <path class="cls-14" d="M84.37,50.98c-.08.5-.08,1.71,0,2.2l-.44.23v-2.66l.44.23Z"/>
  <path class="cls-30" d="M118.25,52.74c-1.12.8-1.36,1.4-1.02,2.8l-.74.72c-1.64-.14-2.78-1-2.15-2.8.31-.88,3.56-1.73,3.91-.72Z"/>
  <path class="cls-29" d="M118.25,52.74c.26.75-.18,2.58,0,3.52-.58-.03-1.18.05-1.76,0-.45-1.69-.53-4.25,1.76-3.52Z"/>
  <path class="cls-13" d="M118.25,59.34c.44.02.88-.02,1.32,0v.43c-.94-.11-2.41.41-3.08-.44.57.07,1.18-.03,1.76,0Z"/>
</svg>