<?xml version="1.0" encoding="UTF-8"?>
<svg id="Layer_1" data-name="Layer 1" xmlns="http://www.w3.org/2000/svg" viewBox="0 0 200 100">
  <defs>
    <style>
      .cls-1 {
        fill: #fff;
      }

      .cls-2 {
        fill: #cc1d1d;
      }
    </style>
  </defs>
  <rect class="cls-2" x="21.9" y="10.4" width="156" height="64"/>
  <path class="cls-1" d="M73.28,53.32h34.82l-.39-2.17c-6.33-3.54-22.04-6.52-26.91-11.13-6.63-6.29-.09-15.38,7.9-16.22,21.86-2.32,47.35,1.72,69.59.11,10.81-.29,11.51,19.8,3.87,23.64l-6.08,1.91,11.16,12.3h-11.5c-.87,0-10.24-12.11-12.17-12.98-1.35-.61-7.21-.81-7.21.69v12.29h-9.85v-28.45c0-.07-.92-1.05-.99-1.05h-34.82c-.49,0-1.69,1.82-.3,2.43,5.6,3.72,25.96,8.36,29.24,12.99s.62,14.08-3.97,14.08H32.55V23.82h32.52c2.86,0,8.21,3.98,8.21,7.37v22.12ZM58.5,32.25c-3.53-.67-10.45,0-14.45,0-.07,0-.99.98-.99,1.05v18.96c0,.07.92,1.05.99,1.05h13.8c6.77,0,7.09-19.86.66-21.07ZM151.79,32.25c-3.94-.63-10.49,0-14.78,0-.36,0-.36,7.73,0,7.73h15.44c3.82,0,5.59-6.73-.66-7.73Z"/>
  <g>
    <path d="M21.98,77.35h3.42c.93,0,1.59.1,1.97.29s.7.54.96,1.03c.26.49.39,1.05.39,1.68,0,.58-.11,1.09-.33,1.56-.22.46-.51.81-.87,1.03.5.21.9.56,1.19,1.06.29.5.43,1.11.43,1.82,0,.87-.18,1.6-.55,2.2s-.79.97-1.29,1.11c-.35.1-1.15.15-2.41.15h-2.9v-11.93ZM23.69,79.34v2.76h1.14c.68,0,1.1-.01,1.26-.04.29-.05.52-.2.69-.43.17-.23.25-.54.25-.94,0-.35-.07-.64-.2-.86-.13-.22-.3-.36-.49-.41s-.74-.08-1.65-.08h-.99ZM23.69,84.09v3.18h1.6c.7,0,1.15-.04,1.35-.13s.37-.25.5-.49c.13-.25.2-.56.2-.94s-.07-.71-.22-.96c-.15-.25-.34-.43-.58-.52-.24-.1-.73-.14-1.47-.14h-1.39Z"/>
    <path d="M30.56,77.35h1.72v6.46c0,1,.02,1.66.06,1.96.08.53.26.93.54,1.22.29.29.67.43,1.13.43.4,0,.72-.1.97-.3.25-.2.42-.49.52-.85.09-.36.14-1.13.14-2.32v-6.6h1.72v6.27c0,1.6-.07,2.76-.22,3.47-.15.71-.49,1.29-1.01,1.73s-1.21.66-2.07.66-1.58-.18-2.08-.55c-.5-.37-.86-.88-1.09-1.55-.22-.66-.34-1.89-.34-3.68v-6.37Z"/>
    <path d="M39.13,89.29v-11.93h1.72v11.93h-1.72Z"/>
    <path d="M42.54,89.29v-11.84h1.72v9.82h4.29v2.02h-6Z"/>
    <path d="M49.77,77.35h3.14c.79,0,1.39.1,1.8.3.4.2.78.55,1.12,1.03.34.48.61,1.11.8,1.88.19.77.29,1.73.29,2.87,0,1.03-.1,1.93-.3,2.69-.2.76-.46,1.37-.77,1.81-.31.44-.69.78-1.13,1-.44.23-1.01.34-1.71.34h-3.23v-11.93ZM51.48,79.37v7.9h1.29c.55,0,.96-.06,1.2-.18.25-.12.45-.3.61-.54.16-.24.29-.62.39-1.14.1-.52.16-1.21.16-2.06s-.05-1.58-.16-2.09-.27-.91-.5-1.2-.5-.48-.82-.58c-.24-.07-.71-.11-1.4-.11h-.78Z"/>
    <path d="M58.38,89.29v-11.93h6.33v2.02h-4.61v2.65h4.29v2.01h-4.29v3.24h4.77v2.02h-6.49Z"/>
    <path d="M66.33,89.29v-11.93h3.63c.93,0,1.59.11,1.99.32.4.21.72.59.98,1.12.25.53.38,1.16.38,1.9,0,.93-.2,1.68-.58,2.25-.39.57-.95.93-1.66,1.08.37.3.67.64.92,1,.24.36.57,1.01.99,1.94l1.04,2.33h-2.05l-1.25-2.6c-.45-.94-.75-1.53-.91-1.76-.16-.24-.33-.4-.51-.49-.18-.09-.47-.13-.87-.13h-.36v4.98h-1.72ZM68.05,82.4h1.28c.78,0,1.28-.04,1.49-.12.21-.08.38-.24.52-.48.13-.24.2-.56.2-.95s-.07-.69-.2-.92-.31-.39-.54-.48c-.16-.06-.63-.09-1.4-.09h-1.35v3.03Z"/>
    <path d="M74.49,85.4l1.68-.23c.19,1.53.81,2.29,1.86,2.29.52,0,.93-.16,1.23-.47.3-.31.45-.7.45-1.16,0-.27-.05-.5-.16-.69-.1-.19-.26-.35-.48-.47s-.73-.33-1.55-.61c-.73-.25-1.27-.53-1.61-.83-.34-.3-.61-.69-.81-1.18-.2-.49-.3-1.01-.3-1.57,0-.65.13-1.24.39-1.76s.61-.91,1.07-1.18c.45-.27,1.01-.4,1.68-.4,1,0,1.79.31,2.35.94.56.62.86,1.52.89,2.68l-1.72.11c-.08-.64-.24-1.09-.49-1.34-.25-.26-.61-.38-1.07-.38s-.82.11-1.07.33c-.25.22-.38.5-.38.83s.11.6.34.82c.23.22.75.46,1.57.73.87.29,1.49.59,1.88.91.38.32.68.73.88,1.23.2.5.3,1.11.3,1.83,0,1.04-.28,1.91-.83,2.61s-1.42,1.06-2.61,1.06c-2.09,0-3.26-1.37-3.49-4.1Z"/>
    <path d="M93.74,87.83l-.99,1.77c-.48-.33-.95-.79-1.4-1.38-.36.45-.73.77-1.12.97s-.84.3-1.36.3c-1.03,0-1.79-.36-2.28-1.07-.49-.72-.74-1.52-.74-2.41,0-1.54.65-2.75,1.94-3.65-.58-.95-.87-1.83-.87-2.62s.22-1.39.65-1.87c.43-.48,1.01-.72,1.73-.72s1.26.25,1.7.75.66,1.15.66,1.95c0,.52-.11.99-.33,1.42-.22.43-.62.91-1.22,1.43l1.17,2.19c.13-.34.25-.79.36-1.36l1.48.47c-.23,1.16-.47,1.98-.74,2.46.18.23.42.5.71.78.29.29.5.48.64.57ZM88.64,83.82c-.36.26-.64.58-.83.95s-.29.76-.29,1.17c0,.51.12.92.36,1.22.24.3.54.45.92.45.49,0,.99-.3,1.51-.91l-1.67-2.87ZM89.29,81.34l.44-.47c.33-.35.49-.7.49-1.04,0-.31-.08-.57-.25-.77-.17-.2-.37-.3-.62-.3s-.45.09-.6.26c-.15.17-.23.38-.23.63,0,.29.12.63.37,1.03l.41.65Z"/>
    <path d="M98.1,77.35h3.14c.79,0,1.39.1,1.8.3.4.2.78.55,1.12,1.03.34.48.61,1.11.8,1.88.19.77.29,1.73.29,2.87,0,1.03-.1,1.93-.3,2.69-.2.76-.46,1.37-.77,1.81-.31.44-.69.78-1.13,1-.44.23-1.01.34-1.71.34h-3.23v-11.93ZM99.81,79.37v7.9h1.29c.55,0,.96-.06,1.2-.18.25-.12.45-.3.61-.54.16-.24.29-.62.39-1.14.1-.52.16-1.21.16-2.06s-.05-1.58-.16-2.09-.27-.91-.5-1.2-.5-.48-.82-.58c-.24-.07-.71-.11-1.4-.11h-.78Z"/>
    <path d="M106.71,89.29v-11.93h6.33v2.02h-4.61v2.65h4.29v2.01h-4.29v3.24h4.77v2.02h-6.49Z"/>
    <path d="M116.84,89.29l-3.05-11.93h1.87l2.16,8.83,2.09-8.83h1.83l-3.06,11.93h-1.84Z"/>
    <path d="M122.61,89.29v-11.93h6.33v2.02h-4.61v2.65h4.29v2.01h-4.29v3.24h4.77v2.02h-6.49Z"/>
    <path d="M130.6,89.29v-11.84h1.72v9.82h4.29v2.02h-6Z"/>
    <path d="M137.48,83.39c0-1.42.18-2.59.55-3.51.37-.92.85-1.61,1.44-2.06.59-.45,1.31-.68,2.15-.68,1.22,0,2.21.53,2.98,1.6.77,1.07,1.15,2.59,1.15,4.57s-.41,3.56-1.22,4.68c-.71.99-1.68,1.49-2.91,1.49s-2.21-.49-2.92-1.47c-.81-1.12-1.22-2.66-1.22-4.62ZM139.26,83.31c0,1.37.23,2.4.68,3.09.46.69,1.02,1.03,1.69,1.03s1.24-.34,1.68-1.02.67-1.73.67-3.14-.22-2.41-.65-3.07c-.43-.66-1-.99-1.7-.99s-1.27.33-1.71,1c-.44.67-.66,1.7-.66,3.1Z"/>
    <path d="M147.1,89.29v-11.93h2.77c1.03,0,1.71.06,2.02.17.51.19.92.58,1.25,1.18.33.6.49,1.38.49,2.33,0,.86-.14,1.59-.43,2.17-.28.58-.64.99-1.06,1.23s-1.16.35-2.2.35h-1.13v4.5h-1.72ZM148.82,79.37v3.4h.95c.64,0,1.08-.05,1.31-.16.23-.1.42-.29.57-.56.15-.27.22-.6.22-.99s-.08-.73-.23-1c-.15-.27-.34-.45-.56-.55s-.69-.14-1.42-.14h-.84Z"/>
    <path d="M155.06,89.29v-11.93h6.33v2.02h-4.61v2.65h4.29v2.01h-4.29v3.24h4.77v2.02h-6.49Z"/>
    <path d="M163.01,89.29v-11.93h3.63c.93,0,1.59.11,1.99.32.4.21.72.59.98,1.12.25.53.38,1.16.38,1.9,0,.93-.2,1.68-.58,2.25-.39.57-.95.93-1.66,1.08.37.3.67.64.92,1,.24.36.57,1.01.99,1.94l1.04,2.33h-2.05l-1.25-2.6c-.45-.94-.75-1.53-.91-1.76-.16-.24-.33-.4-.51-.49-.18-.09-.47-.13-.87-.13h-.36v4.98h-1.72ZM164.73,82.4h1.28c.78,0,1.28-.04,1.49-.12.21-.08.38-.24.52-.48.13-.24.2-.56.2-.95s-.07-.69-.2-.92-.31-.39-.54-.48c-.16-.06-.63-.09-1.4-.09h-1.35v3.03Z"/>
    <path d="M171.17,85.4l1.68-.23c.19,1.53.81,2.29,1.86,2.29.52,0,.93-.16,1.23-.47.3-.31.45-.7.45-1.16,0-.27-.05-.5-.16-.69-.1-.19-.26-.35-.48-.47s-.73-.33-1.55-.61c-.73-.25-1.27-.53-1.61-.83-.34-.3-.61-.69-.81-1.18-.2-.49-.3-1.01-.3-1.57,0-.65.13-1.24.39-1.76s.61-.91,1.07-1.18c.45-.27,1.01-.4,1.68-.4,1,0,1.79.31,2.35.94.56.62.86,1.52.89,2.68l-1.72.11c-.08-.64-.24-1.09-.49-1.34-.25-.26-.61-.38-1.07-.38s-.82.11-1.07.33c-.25.22-.38.5-.38.83s.11.6.34.82c.23.22.75.46,1.57.73.87.29,1.49.59,1.88.91.38.32.68.73.88,1.23.2.5.3,1.11.3,1.83,0,1.04-.28,1.91-.83,2.61s-1.42,1.06-2.61,1.06c-2.09,0-3.26-1.37-3.49-4.1Z"/>
  </g>
</svg>