<?xml version="1.0" encoding="UTF-8"?>
<svg id="Layer_1" data-name="Layer 1" xmlns="http://www.w3.org/2000/svg" viewBox="0 0 200 100">
  <defs>
    <style>
      .cls-1 {
        fill: #264886;
      }

      .cls-2 {
        fill: #40a845;
      }
    </style>
  </defs>
  <path class="cls-2" d="M41.28,61.95v6.48h-11.13c-.19,0-1.03-.6-1.14-.91.05-1.98-.75-4.33,1.14-5.57h11.13Z"/>
  <path class="cls-1" d="M65.26,30.91H28.09c-.29.27-1.2,1.27-1.2,1.54v22.01h38.36v6.48H28.78c-2.15,0-2.15,8.53,0,8.53h36.48v6.31l-.51.51H26.72c-.71,0-3.08-.89-3.77-1.36-1.23-.85-2.33-2.46-2.54-3.96.85-12.44-1.24-26.62-.03-38.86.33-3.29,2.11-6.26,5.4-7.24.9-.27,3.54-.78,4.36-.78h34.59l.51.51v6.31Z"/>
  <path class="cls-1" d="M90.6,60.93v15.01l-6.51.34V31.76c0-.28.67-2.47.86-2.9,1.65-3.83,5.81-4.55,9.58-4.79,7.04-.45,17.67-.48,24.69,0,4.99.34,9.18,2.15,9.74,7.69.49,4.8.59,17.48-.03,22.14-.28,2.13-1.98,4.64-3.84,5.73-.36.21-2.98,1.29-3.15,1.29h-31.34ZM91.53,30.97c-.92.33-.86.98-.95,1.79-.43,4.3-.48,14.9.01,19.13.24,2.05,1.4,2.4,3.25,2.56,6.52.6,18.43.48,25.03,0,.81-.06,2.49-.15,3.07-.7.47-.55.47-1.19.53-1.86.41-4.62.42-13.84,0-18.46-.08-.89-.15-1.58-.85-2.23l-30.1-.25Z"/>
  <path class="cls-1" d="M141.64,24.08v43.5c0,.37.79,1.59,1.2,1.88h37.16v6.82h-35.79c-.51,0-2.8-.48-3.44-.67-2.82-.81-5.63-4.47-5.63-7.35V24.08h6.51Z"/>
  <rect class="cls-1" x="71.42" y="24.08" width="6.51" height="52.2"/>
</svg>