<?xml version="1.0" encoding="UTF-8"?>
<svg id="Layer_1" data-name="Layer 1" xmlns="http://www.w3.org/2000/svg" viewBox="0 0 200 100">
  <g>
    <path d="M189.95,20.97v43.8H9.95V20.97h180ZM185.75,25.17H14.15v34.8h171.6V25.17Z"/>
    <path d="M66.35,54.57h-3v-18.6l-14.09,16.81c-.69.71-2.04,2.19-3.01,2.19-2.47,0-14.6-16.77-17.7-19v18.6h-3v-22.5c0-.91,2.63-1.34,3.33-.33l17.37,19.81,16.54-19.44c.68-1.05,3.56-1.22,3.56-.04v22.5Z"/>
    <path d="M117.2,30.72c4.97-.68,18.01-1.03,21.47,2.82,2.09,2.33,1.82,11.95,1.5,15.36-.38,4.09-3.62,6.28-7.58,6.82-3.64.5-16.24.45-19.27-1.02-1.95-.94-3.53-3.02-3.79-5.21-.29-2.48-.36-11.47.14-13.69.72-3.18,4.68-4.68,7.53-5.07ZM117.8,33.72c-1.56.23-4.65,1-5.14,2.66-.41,1.36-.38,10.75-.15,12.51.13.98.14,1.37.89,2.11,2.67,2.61,21.06,2.68,23.18-.29.79-1.1.84-11.35.58-13.28-.13-.98-.14-1.37-.89-2.11-2.41-2.35-15-2.11-18.48-1.61Z"/>
    <path d="M171.35,50.97v-19.8h3v22.5c0,.51-2.18,2.17-2.98,1.21l-23.42-19.51v18.9c0,1.19-3.6,1.19-3.6,0v-21.6c0-.16.62-1.4,1.01-1.53l2.58.35c7.79,6.49,15.3,13.49,23.41,19.48Z"/>
    <path d="M94.55,34.17v20.1c0,.79-2.22,1.1-3,.9v-21h-12c-.2-.78.11-3,.9-3h25.2c1.13,0,1.13,3,0,3h-11.1Z"/>
    <rect x="72.95" y="31.77" width="3.6" height="22.8"/>
  </g>
  <g>
    <path d="M178.11,35v-2.68h1.19c.24,0,.42.02.55.07s.22.13.3.26.11.26.11.4c0,.19-.06.35-.18.48s-.31.21-.57.25c.09.05.17.09.21.13.1.1.2.21.29.36l.47.73h-.45l-.36-.56c-.1-.16-.19-.28-.26-.37s-.13-.15-.18-.18-.11-.06-.16-.07c-.04,0-.11-.01-.2-.01h-.41v1.19h-.36ZM178.46,33.5h.76c.16,0,.29-.02.38-.05s.16-.09.21-.16.07-.15.07-.24c0-.13-.05-.23-.14-.31s-.24-.12-.44-.12h-.85v.89Z"/>
    <path d="M179.17,36.34c-1.46,0-2.66-1.19-2.66-2.66s1.19-2.66,2.66-2.66,2.66,1.19,2.66,2.66-1.19,2.66-2.66,2.66ZM179.17,31.34c-1.29,0-2.34,1.05-2.34,2.34s1.05,2.34,2.34,2.34,2.34-1.05,2.34-2.34-1.05-2.34-2.34-2.34Z"/>
  </g>
  <g>
    <path d="M151.75,75.88l1.14.29c-.24.93-.67,1.65-1.29,2.14s-1.38.74-2.27.74-1.68-.19-2.26-.57-1.02-.92-1.32-1.64-.45-1.48-.45-2.3c0-.89.17-1.67.51-2.34s.83-1.17,1.46-1.52,1.33-.52,2.08-.52c.86,0,1.58.22,2.17.66s.99,1.05,1.22,1.85l-1.12.26c-.2-.62-.49-1.08-.87-1.37s-.86-.43-1.43-.43c-.66,0-1.21.16-1.66.47s-.75.74-.93,1.27-.27,1.08-.27,1.65c0,.73.11,1.37.32,1.91s.54.95.99,1.22.94.4,1.46.4c.64,0,1.18-.18,1.62-.55s.74-.91.9-1.63Z"/>
    <path d="M159.92,70.3h1.14v4.96c0,.86-.1,1.55-.29,2.06s-.55.92-1.06,1.24-1.18.48-2.01.48-1.46-.14-1.97-.42-.88-.68-1.1-1.2-.33-1.24-.33-2.15v-4.96h1.14v4.96c0,.75.07,1.3.21,1.65s.38.63.71.82.75.29,1.24.29c.84,0,1.43-.19,1.79-.57s.53-1.11.53-2.19v-4.96Z"/>
    <path d="M169.08,75.88l1.14.29c-.24.93-.67,1.65-1.29,2.14s-1.38.74-2.27.74-1.68-.19-2.26-.57-1.02-.92-1.32-1.64-.45-1.48-.45-2.3c0-.89.17-1.67.51-2.34s.83-1.17,1.46-1.52,1.33-.52,2.08-.52c.86,0,1.58.22,2.17.66s.99,1.05,1.22,1.85l-1.12.26c-.2-.62-.49-1.08-.87-1.37s-.86-.43-1.43-.43c-.66,0-1.21.16-1.66.47s-.75.74-.93,1.27-.27,1.08-.27,1.65c0,.73.11,1.37.32,1.91s.54.95.99,1.22.94.4,1.46.4c.64,0,1.18-.18,1.62-.55s.74-.91.9-1.63Z"/>
    <path d="M171.81,78.89v-8.59h1.14v8.59h-1.14Z"/>
    <path d="M174.94,78.89v-8.59h1.17l4.51,6.74v-6.74h1.09v8.59h-1.17l-4.51-6.75v6.75h-1.09Z"/>
    <path d="M183.64,78.89v-8.59h6.21v1.01h-5.07v2.63h4.75v1.01h-4.75v2.92h5.27v1.01h-6.41Z"/>
  </g>
</svg>