<?xml version="1.0" encoding="UTF-8"?>
<svg id="Layer_1" data-name="Layer 1" xmlns="http://www.w3.org/2000/svg" viewBox="0 0 200 100">
  <defs>
    <style>
      .cls-1 {
        fill: #ed1c24;
      }

      .cls-2 {
        fill: #fff;
      }
    </style>
  </defs>
  <rect class="cls-1" width="200" height="100"/>
  <g>
    <path class="cls-2" d="M99.98,23.94c1,3.04,5,6.54,7.68,8.88,2.68,2.36,1.72,5.58,1.72,5.58,0,0,7,1.12,7,8.58,0,6.5-5.02,8.82-8.22,8.82-1.62-.08-3.14-.62-3.92-1.4-1.7-1.7-1.9-3.48-.64-4.94,1.26-1.46,2.58.2,2.32,1.06s-1.28,1.1-1.28,1.1c.94.94,2.54-.74,2.54-.74,2.24-3.14-.44-4.66-.44-4.66.92-1.06,1.32.92,2.48-.44,1.16-1.36,2.94-2.68,2.94-2.68,0,0-1.2-.86-2.26-2.06-1.06-1.2-3.3-.2-3.3-.2,1.16-1.1,1.16-4.48-1.92-6.56-3.08-2.08-3.4-5.14-3.4-5.14,0,0-1.22,2.08.54,5.3,1.76,3.22,2.28,5.4-.2,10.54s-1.26,8.62.96,10.9c1.04,1.08,3.52,2.24,6.24,2.26,4.58,0,9.82-3.52,9.82-11.04,0-8.16-6.92-10.44-6.92-10.44,0,0,.22-3.06-2.98-6.02-2.68-2.48-7.96-5.96-8.74-11-.8,5.04-6.06,8.52-8.74,11-3.22,2.98-2.98,6.02-2.98,6.02,0,0-6.92,2.28-6.92,10.44,0,7.52,5.24,11.04,9.82,11.04,2.72-.02,5.2-1.18,6.24-2.26,2.22-2.3,3.44-5.78.96-10.9-2.48-5.14-1.94-7.32-.2-10.54,1.76-3.22.54-5.3.54-5.3,0,0-.34,3.04-3.42,5.14-3.08,2.08-3.08,5.46-1.92,6.56,0,0-2.24-1-3.32.2-1.06,1.2-2.24,2.06-2.24,2.06,0,0,1.78,1.32,2.94,2.68,1.16,1.36,1.56-.62,2.48.44,0,0-2.68,1.52-.46,4.66,0,0,1.6,1.7,2.54.74,0,0-1.04-.24-1.3-1.1s1.06-2.52,2.32-1.06c1.26,1.46,1.06,3.24-.62,4.94-.78.78-2.3,1.32-3.92,1.4-3.2,0-8.22-2.32-8.22-8.82,0-7.44,7-8.58,7-8.58,0,0-.96-3.22,1.72-5.58,2.68-2.34,6.7-5.84,7.68-8.88"/>
    <path class="cls-2" d="M142.88,64.86c-.6-.68-2.04-1-3.3-.66-1.46.4-1.44.48-2.32-.14v9.22h1.7v-6.36c.4-.78,1.06-1.2,1.94-1.2.48,0,1.58.28,1.98,1.06v-1.92Z"/>
    <path class="cls-2" d="M133.3,58.08v1.76c0,1.02,1.22.22,1.72,1.4v-3.16h-1.72ZM135,73.28v-7.9c-.08-.52-1.06-.26-1.72-1.32v9.22h1.72Z"/>
    <path class="cls-2" d="M129.26,71.32c-.32.18-.62.32-.88.44-.28.1-.62.16-1,.16-.44,0-.82-.08-1.2-.24-.38-.16-.68-.4-.94-.68-.26-.28-.48-.62-.62-1-.14-.4-.22-.82-.22-1.26s.06-.86.2-1.22c.14-.38.34-.68.6-.94.26-.26.56-.48.9-.62.36-.16.74-.22,1.16-.22.36,0,.68.04,1,.12.3.06.64.24,1,.48v4.98h0ZM130.98,73.48v-10.78h0v-2.96c-.14-.86-1.14-.38-1.72-1.68v6.54c-.28-.16-.6-.28-.94-.36-.32-.08-.7-.1-1.12-.1-.66,0-1.26.12-1.82.34-.56.22-1.04.54-1.44.96-.42.42-.72.9-.96,1.48-.22.56-.34,1.18-.34,1.86s.12,1.26.36,1.84c.72,1.72,2.34,2.82,4.22,2.82.22,0,.44-.02.64-.04.2-.04.4-.08.58-.12,1.48-.34,1.1-.36,2.54.2"/>
    <path class="cls-2" d="M120.86,73.3v-5.38c0-1.26-.32-2.18-.98-2.8s-1.52-.88-2.6-.92c-2.62-.08-2.4.96-4.14-.1v9.22h1.72v-7.08c.24-.16.56-.28.94-.36.38-.08.82-.14,1.32-.14.6,0,1.1.22,1.46.66.38.44.56,1.06.56,1.88v5.06h1.72v-.04Z"/>
    <path class="cls-2" d="M102.44,73.3v-5.46c0-1.1-.26-1.96-.78-2.62-.52-.66-1.34-1-2.44-1-.7,0-1.3.1-1.8.28s-.96.42-1.42.7c-.2-.26-.52-.48-.9-.68-.4-.2-.94-.3-1.66-.3-.54,0-1,.08-1.4.16-1.52.34-1.12.38-2.38-.32v9.24h1.7v-6.98c.28-.18.56-.32.86-.44s.7-.18,1.2-.18c.6,0,1.04.2,1.34.6.28.4.44,1.04.44,1.94v5.06h1.7v-5.56c0-.22-.02-.46-.06-.7-.04-.24-.06-.38-.08-.44.3-.26.64-.48.98-.62.36-.14.78-.22,1.26-.22.34,0,.62.06.84.18s.4.3.54.52.22.5.28.8c.06.32.08.64.08,1v5.04h1.7Z"/>
    <path class="cls-2" d="M80.1,71.54c-.16.1-.32.2-.5.28s-.34.12-.5.12c-.14,0-.28-.02-.42-.06-.14-.04-.26-.12-.38-.22-.12-.1-.2-.24-.28-.4s-.12-.34-.12-.56v-10.92c-.14-.86-1.14-.38-1.72-1.68v12.84c0,.4.08.76.26,1.08.18.3.4.58.66.78.26.22.56.38.88.48.32.1.62.16.9.16.18,0,.36-.02.56-.04.2-.04.36-.1.48-.16l.18-1.7Z"/>
    <path class="cls-2" d="M72.12,71.52c-.08.06-.22.1-.38.14-.16.04-.34.08-.54.1-.18.04-.4.06-.6.08s-.38.02-.56.02c-.36,0-.64-.12-.88-.4-.24-.26-.36-.58-.36-.96,0-.36.1-.66.28-.9s.42-.42.72-.54c.3-.14.66-.22,1.06-.24.4-.04.82-.06,1.24-.04l.02,2.74ZM73.82,73.48v-6.98c0-3.06-5-3.12-6.7-1.46v1.72c.54-1.44,5-2.2,5-.06v.68c-.64-.02-1.24.02-1.86.1-.6.08-1.14.22-1.6.46-.48.22-.86.56-1.14.96-.2.3-.34.68-.4,1.12v.8h-.02c.2,2.46,2.84,2.72,4.84,2.28.8-.18,1.1-.04,1.88.38"/>
    <path class="cls-2" d="M67.14,73.28l-6.96-6.64,6.48-6.86h-2.14l-5.7,5.88v-5.9c-.14-.86-1.14-.38-1.72-1.68v15.18h1.72v-5.7l6.02,5.72h2.3Z"/>
    <path class="cls-2" d="M85.82,71.52c-.08.06-.22.1-.38.14-.16.04-.34.08-.54.1-.18.04-.4.06-.6.08s-.38.02-.56.02c-.36,0-.64-.12-.88-.4-.24-.26-.36-.58-.36-.96,0-.36.1-.66.28-.9s.42-.42.72-.54c.3-.14.66-.22,1.06-.24.4-.04.82-.06,1.24-.04l.02,2.74ZM87.54,73.48v-6.98c0-3.06-5-3.12-6.7-1.46v1.72c.54-1.44,5-2.2,5-.06v.68c-.64-.02-1.24.02-1.86.1-.6.08-1.14.22-1.6.46-.48.22-.86.56-1.14.96-.2.3-.34.68-.4,1.12v.8h-.02c.2,2.46,2.84,2.72,4.84,2.28.8-.18,1.08-.04,1.88.38"/>
    <path class="cls-2" d="M109.24,71.52c-.08.06-.2.1-.38.14-.16.04-.34.08-.54.1-.18.04-.4.06-.6.08s-.38.02-.56.02c-.36,0-.64-.12-.88-.4-.24-.26-.36-.58-.36-.96,0-.36.1-.66.28-.9s.42-.42.72-.54c.3-.14.66-.22,1.06-.24.4-.04.82-.06,1.24-.04l.02,2.74ZM110.96,73.48v-6.98c0-3.06-5-3.12-6.7-1.46v1.72c.54-1.44,5-2.2,5-.06v.68c-.64-.02-1.24.02-1.86.1-.6.08-1.14.22-1.6.46-.48.22-.86.56-1.14.96-.2.3-.34.68-.4,1.12v.8h-.02c.2,2.46,2.84,2.72,4.84,2.28.78-.18,1.08-.04,1.88.38"/>
    <path class="cls-2" d="M103.08,79.24c0-.2-.04-.38-.12-.5-.1-.12-.2-.22-.34-.3s-.28-.14-.44-.18c-.16-.04-.3-.1-.44-.14-.14-.06-.24-.12-.34-.2-.08-.08-.14-.18-.14-.32,0-.08.02-.16.04-.22.04-.08.08-.14.14-.18.06-.06.12-.08.2-.12s.16-.04.24-.04c.26,0,.7.16.9.34l.02-.52c-.32-.18-.62-.28-.96-.28-.14,0-.28.02-.44.08-.14.06-.24.12-.36.22-.1.08-.18.2-.24.32-.06.12-.1.26-.1.4,0,.16.04.28.08.4.06.1.12.2.2.26.08.08.18.14.28.18.1.04.22.08.32.12.12.04.22.08.34.12.1.04.2.08.28.12.08.06.14.12.2.18.06.08.08.16.08.28,0,.2-.06.36-.2.48-.14.1-.3.16-.54.16-.32,0-.84-.28-1.06-.5l.04.58c.18.12.38.22.56.28.16.06.34.1.52.1.16,0,.32-.02.46-.08.14-.04.28-.12.38-.2.12-.1.2-.2.26-.36.14-.14.18-.3.18-.48"/>
    <path class="cls-2" d="M105.84,77.76h-.52l-.78,1.56-.84-1.56h-.48l1.12,2.06s-.02.06-.06.14c-.04.08-.08.16-.12.24-.08.14-.16.24-.22.34-.08.08-.16.16-.24.2-.08.06-.16.1-.26.12-.08.02-.32.08-.42.1l.18.38c.06,0,.3-.06.4-.08s.2-.08.32-.14c.12-.08.24-.18.36-.3.12-.12.24-.3.34-.52l1.22-2.54Z"/>
    <path class="cls-2" d="M109.6,80.3v-1.52c0-.3-.08-.54-.22-.72s-.36-.28-.68-.28c-.2,0-.36.02-.5.08-.14.04-.26.12-.4.2-.06-.06-.14-.14-.24-.2s-.26-.08-.46-.08c-.14,0-.28.02-.38.04-.4.1-.34.12-.66-.08v2.58h.48v-1.98c.08-.04.16-.08.24-.12.08-.04.2-.04.34-.04.16,0,.28.06.38.16.08.12.12.28.12.54v1.4h.48v-1.54c0-.1-.02-.2-.04-.32.08-.08.18-.14.28-.18.1-.04.22-.06.36-.06.1,0,.16.02.24.06.06.04.12.08.14.14s.06.14.08.22.02.18.02.28v1.4h.42v.02Z"/>
    <path class="cls-2" d="M112.06,79c0,.12-.02.26-.06.38-.04.12-.1.2-.18.28s-.16.14-.28.2c-.1.04-.22.06-.36.06-.08,0-.14,0-.22-.02s-.16-.04-.24-.06v-1.4c.12-.1.22-.16.34-.2.1-.04.22-.04.34-.04.1,0,.18.02.28.06.08.04.16.1.22.16.06.06.12.16.14.26,0,.08.02.2.02.32M112.54,78.98c0-.18-.02-.34-.08-.5-.06-.14-.14-.28-.24-.38s-.22-.18-.36-.26c-.14-.06-.3-.08-.46-.08s-.28.02-.4.04c-.1.04-.2.08-.3.14v-1.18c-.04-.18-.34-.06-.48-.28v3.66c.18.08.34.12.48.16.14.02.3.04.46.04.2,0,.4-.04.58-.1.16-.06.3-.16.44-.28.12-.12.22-.26.28-.44.04-.14.08-.32.08-.54"/>
    <path class="cls-2" d="M115.02,79.06c0,.12-.02.24-.06.34-.04.1-.1.2-.16.26-.08.08-.16.14-.26.18-.1.04-.2.06-.3.06-.12,0-.22-.02-.32-.06-.1-.04-.18-.1-.26-.18-.08-.06-.14-.16-.18-.26-.04-.1-.06-.22-.06-.34s.02-.24.06-.34c.04-.1.1-.2.18-.28s.16-.14.26-.18c.1-.04.2-.06.32-.06.1,0,.2.02.3.06.1.04.18.1.26.18.06.08.12.16.16.28.04.1.06.22.06.34M115.5,79.06c0-.18-.04-.36-.1-.52-.06-.16-.16-.3-.26-.42-.12-.12-.26-.2-.42-.26-.16-.06-.32-.1-.5-.1s-.36.02-.52.1c-.16.06-.3.16-.42.26-.12.12-.2.26-.28.42-.06.16-.1.34-.1.52s.04.36.1.52c.08.16.16.28.28.42.12.12.26.2.42.26.16.06.34.1.52.1s.36-.04.5-.1c.16-.06.3-.14.42-.26.12-.12.2-.26.26-.42.08-.16.1-.34.1-.52"/>
    <path class="cls-2" d="M117.12,79.8s-.08.06-.12.08-.1.04-.14.04-.08,0-.12-.02-.08-.04-.1-.06c-.04-.02-.06-.06-.08-.1s-.04-.1-.04-.16v-2.7c-.02-.2-.36-.14-.48-.38v3.14c0,.12.02.22.06.3.04.08.12.16.2.22.18.16.42.2.64.16.06,0,.1-.02.12-.04l.06-.48Z"/>
    <path class="cls-2" d="M124.98,76.72c-.06-.04-.16-.08-.26-.1-.08-.02-.16-.04-.24-.04-.26,0-.46.08-.6.22s-.22.4-.22.72v.34h-.3v.4h.3v2.06h.48v-2.06h.54v-.4h-.54v-.2c0-.2.02-.38.06-.5.12-.28.62-.18.76.02l.02-.46ZM122.46,78.46c0,.2-.04.4-.12.58s-.16.32-.3.46c-.12.12-.28.22-.46.3s-.36.1-.56.1-.4-.04-.56-.1c-.18-.08-.34-.18-.46-.3-.12-.14-.24-.28-.3-.46-.08-.18-.12-.36-.12-.58,0-.2.04-.4.12-.56.06-.18.18-.34.3-.46.14-.12.28-.22.46-.3s.36-.1.56-.1.4.04.56.1c.18.08.32.18.46.3.14.14.22.28.3.46.08.16.12.34.12.56M122.96,78.46c0-.26-.06-.52-.16-.74s-.24-.44-.42-.6c-.18-.18-.38-.3-.62-.4s-.5-.14-.78-.14-.54.04-.78.14c-.24.1-.44.22-.62.4-.18.16-.3.38-.42.6-.1.22-.14.48-.14.74s.04.52.14.74.24.44.42.6c.18.18.38.3.62.4s.5.14.78.14c.26,0,.54-.06.78-.14.24-.1.44-.22.62-.4.18-.16.32-.38.42-.6.12-.24.16-.48.16-.74"/>
    <path class="cls-2" d="M131.4,79.06c0,.12-.02.24-.06.34-.04.1-.1.2-.16.26-.08.08-.16.14-.26.18-.1.04-.2.06-.3.06-.12,0-.22-.02-.32-.06-.1-.04-.18-.1-.26-.18-.08-.06-.12-.16-.18-.26-.04-.1-.06-.22-.06-.34s.02-.24.06-.34c.04-.1.1-.2.18-.28s.16-.14.26-.18c.1-.04.2-.06.32-.06.1,0,.22.02.3.06.1.04.18.1.26.18.06.08.12.16.16.28.04.1.06.22.06.34M131.9,79.06c0-.18-.02-.36-.1-.52-.06-.16-.16-.3-.26-.42-.12-.12-.26-.2-.42-.26-.16-.06-.32-.1-.5-.1s-.36.02-.52.1c-.16.06-.3.16-.42.26-.12.12-.2.26-.28.42-.06.16-.1.34-.1.52s.04.36.1.52c.06.16.16.28.28.42.12.12.26.2.42.26.16.06.34.1.52.1s.36-.04.5-.1c.16-.06.3-.14.42-.26.12-.12.2-.26.26-.42.06-.16.1-.34.1-.52"/>
    <path class="cls-2" d="M134.5,80.4v-2.64h-.48v1.94c-.08.06-.18.1-.26.12-.1.02-.2.04-.36.04-.08,0-.14-.02-.22-.04s-.14-.06-.2-.1-.1-.1-.14-.18-.06-.16-.06-.26v-1.5h-.48v1.52c0,.18.04.36.1.48.08.12.16.24.26.32s.22.14.34.18c.12.04.24.06.36.06.14,0,.28-.02.42-.04.5-.14.44-.18.72.1"/>
    <path class="cls-2" d="M136.56,80.16l-.02-.46c-.14.1-.64.36-.74.1-.02-.04-.02-.08-.02-.14v-1.52h.64v-.4h-.64v-.96c0-.16-.36-.12-.48-.28v1.26h-.44v.4h.44v1.6c0,.1.02.2.06.26.04.08.08.14.14.18.06.04.14.08.2.1.08.02.14.04.22.04s.18-.02.3-.06c.14-.02.24-.06.34-.12"/>
    <path class="cls-2" d="M138.96,80.34v-1.5c0-.18-.02-.32-.08-.46-.06-.12-.12-.24-.2-.32s-.2-.14-.32-.18c-.12-.04-.24-.06-.4-.06-.12,0-.24.02-.36.04-.1.04-.18.06-.28.1v-1.2c-.02-.18-.36-.06-.48-.26v3.84h.48v-1.9c.06-.04.1-.06.14-.08s.08-.04.14-.06c.04-.02.1-.02.14-.04s.1-.02.18-.02c.18,0,.32.06.4.18.1.12.14.28.14.52v1.4h.5Z"/>
    <path class="cls-2" d="M128.9,79.24c0-.2-.04-.38-.12-.5-.1-.12-.2-.22-.34-.3s-.28-.14-.44-.18c-.16-.04-.3-.1-.44-.14-.14-.06-.24-.12-.34-.2-.08-.08-.14-.18-.14-.32,0-.08.02-.16.04-.22.04-.08.08-.14.14-.18.06-.06.12-.08.2-.12s.16-.04.24-.04c.26,0,.7.16.9.34l.02-.52c-.32-.18-.62-.28-.96-.28-.14,0-.28.02-.44.08-.14.06-.24.12-.36.22-.1.08-.18.2-.24.32-.06.12-.1.26-.1.4,0,.16.04.28.08.4.06.1.12.2.2.26.08.08.18.14.28.18.1.04.22.08.32.12.12.04.22.08.34.12.1.04.2.08.28.12.08.06.14.12.2.18.06.08.08.16.08.28,0,.2-.06.36-.2.48-.14.1-.3.16-.54.16-.32,0-.84-.28-1.06-.5l.04.58c.18.12.38.22.56.28.16.06.34.1.52.1.16,0,.32-.02.46-.08.14-.04.28-.12.38-.2.12-.1.2-.2.26-.36.14-.14.18-.3.18-.48"/>
  </g>
</svg>