<?xml version="1.0" encoding="UTF-8"?>
<svg id="Layer_1" data-name="Layer 1" xmlns="http://www.w3.org/2000/svg" viewBox="0 0 200 100">
  <defs>
    <style>
      .cls-1 {
        fill: #f185b5;
      }

      .cls-2 {
        fill: #c9c7c8;
      }

      .cls-3 {
        fill: #fef240;
      }

      .cls-4 {
        fill: #af3794;
      }

      .cls-5 {
        fill: #feca08;
      }

      .cls-6 {
        fill: #ed3896;
      }

      .cls-7 {
        fill: #3dc6f3;
      }

      .cls-8 {
        fill: #f28bb8;
      }

      .cls-9 {
        fill: #3088c9;
      }

      .cls-10 {
        fill: #91499c;
      }

      .cls-11 {
        fill: #ef6396;
      }

      .cls-12 {
        fill: #8ba359;
      }
    </style>
  </defs>
  <path d="M159.71,75.84c.4,2.28-.23,3.29-2.06,4.23-2.17,1.45-3.91,3.04-6.13,4.5,1.64.34,5.95-.1,8.47.07,0,0,0,2.91,0,2.91-4.81.03-9.63.04-14.47.03-.1-1.64-.24-3.28,1.45-3.91,1.59-1.14,3.36-2.47,4.97-3.54.48-.57,1.24-.88,1.88-1.37-1.42-.19-3.11-.02-4.57,0-3.27-.08-3.87.93-3.54-2.91,0,0,13.99,0,13.99,0Z"/>
  <path class="cls-4" d="M100.43,4.33c1.94,2.14,3.22,4.76,3.54,7.65l.06.29c0,.11,0,.23,0,.34.05.53.07,1.08,0,1.6,0,.13,0,.27,0,.4l-.06.29c-.36,3.21-1.95,6.22-4.49,8.22-.14.03-1.02-1.11-1.15-1.29-1.27-1.76-2.42-4.4-2.47-6.59l-.06-.34c0-.6,0-1.17,0-1.77l.06-.34c.02-1.09.37-2.37.76-3.38.75-1.98,2.06-3.73,3.7-5.07h.11Z"/>
  <path d="M40,75.84h14.16s0,2.97,0,2.97l-5.2.06v8.68h-3.77v-8.68c-1.74,0-3.47-.01-5.2-.06v-2.97Z"/>
  <path class="cls-2" d="M101,34.94c.07,1.6.09,3.22.06,4.83-.07,3.86-.29,7.73-.4,11.59l-.11,4.89,1.1-3.21c1.22-3.65,3.38-7.05,5.67-10.1,2.03-2.7,4.6-5,7.53-6.69.01.73.03,1.47.04,2.2l1.81-.18c.05.14.03.29-.05.42-1.54.27-3.03.87-4.31,1.77-.58.41-1.13.87-1.66,1.35-2.71,2.45-5.05,5.31-6.94,8.44-.63,1.04-1.2,2.11-1.72,3.2s-1.09,2.2-1.41,3.33c.08.11.1.26-.06.29-.02.11-.04.23-.06.34.17.19-.01,1.1-.02,1.39-.03,1.19-.06,2.39-.09,3.58-.11,4.32-.13,8.63-.12,12.95,0,2.34-.04,4.69.12,7.03.14,2.1.15,4.21.28,6.32s.3,4.36.5,6.53c.01.15.03.3.04.46-.48.01-.97,0-1.45,0-.06,0-.25.03-.3,0-.12-.1-.08-.62-.09-.78-.04-.54-.09-1.09-.13-1.63-.16-2.18-.29-4.36-.38-6.54-.11-2.57-.19-5.15-.19-7.72,0-.94-.02-1.86-.06-2.74,0-4.34.04-8.68.13-13.03.03-1.29.06-2.59.09-3.88.02-.64.03-1.27.05-1.91.02-.58.12-1.23.01-1.8-.52-3.21-2.12-6.16-4.31-8.54s-4.93-4.26-7.92-5.37c-.29-.11-.6-.11-.89-.23-.34-.13-.64-.43-1.01-.38-.05,0-.11.02-.16,0-.06-.02-.09-.07-.14-.1-.09-.06-.2-.06-.31-.07-.36-.03-.71-.15-1.06-.27.06-.36.02-.51.39-.58.85.13,1.7.2,2.55.22,0-.89.01-1.77.01-2.64l.11-.15c.14.09-.01.39.09.46.15.1.93.31,1.18.41,4.86,1.91,8.81,5.07,11.02,9.89.18.38.4,1.18.59,1.47.02.02.07.08.09.06,0-.13,0-.27,0-.4.2-2.99.2-6.01.28-9.01.03-1.42.07-2.85-.05-4.27-.02-.25-.04-.53.14-.71.12-.12.28-.15.41-.23s.21-.21.35-.26c.09-.04.75-.11.77.04Z"/>
  <path class="cls-10" d="M137.9,32.32c.51-.05,1.03-.06,1.54,0,.15,0,.3,0,.46,0l.29.06c.02-.15.16-.1.23,0,.55.06,1.17.17,1.71.29.1-.12.29-.01.34.11.02,0,.04,0,.06,0,.12-.08.34-.05.34.11.7.2,1.38.43,2.05.69.04.06-.29.93-.34,1.08.07.11.09.28-.06.29-.03.08-.08.2-.11.29,0,.21-.05.3-.17.29-.03.07-.03.16-.06.23,0,.2-.05.3-.17.29-.09.19-.19.38-.29.57.1.11.01.23-.11.29-.21.39-.55.95-.8,1.31-.02.21-.1.31-.23.29-.09.13-.19.28-.29.4-.02.16-.06.3-.24.34-.03.16-.08.22-.16.18-.07.08-.19.18-.29.29.02.1,0,.21-.11.17-.27.3-.73.75-1.03,1.03.03.12-.08.2-.17.11-.07.06-.12.13-.17.17-.04.18-.09.26-.29.23-.29.24-.6.47-.91.69-.07.23-.39.48-.63.46-.06.04-.13.09-.17.11-.05.11-.13.2-.23.11-.49.29-1.02.56-1.54.8-.02.16-.17.21-.29.11-.51.22-1.07.47-1.6.63-.02.13-.21.15-.29.06-.69.19-1.46.37-2.17.46-.08.11-.26.17-.34.06-.13.01-.27,0-.4,0l-.46.06c-.57,0-1.14,0-1.71,0l-.46-.06c-.09,0-.19,0-.29,0l-.29-.06c-.23-.02-.46-.02-.69-.06-.06.11-.17.04-.23-.06-.19-.03-.38-.07-.57-.11-.08.1-.25.07-.29-.06-.15-.04-.31-.07-.46-.11-.05.11-.18.03-.23-.06-.1-.03-.19-.08-.29-.11-.27.09-1.76-.45-1.75-.65.2-.71.44-1.4.72-2.08l.12-.08c2.15-4.99,7.29-8.59,12.68-9.08.11-.04.22-.06.34-.06.15,0,.31,0,.46,0Z"/>
  <path class="cls-7" d="M100.09,27.46c.12-.51.33-1.07.51-1.57,2.02-5.44,6.99-9.43,12.71-10.37.21.77.35,1.55.43,2.34l.06.29c0,.15,0,.31,0,.46.05.49.06,1,0,1.49,0,.15,0,.31,0,.46-.04.11-.06.22-.06.34-.74,7.09-5.97,12.36-12.74,14.05-.24.06-.7.05-.91.11-.01-.15-.03-.31-.06-.46-.05-.02-.07-.08-.06-.17-.04-.05-.08-.11-.11-.17s-.06-.11-.07-.17c-.35-1.99-.34-4.33.1-6.3.01-.06.04-.11.08-.17s.07-.11.12-.16Z"/>
  <path class="cls-6" d="M60.56,32.32l1.09.06c.13,0,.27,0,.4,0l.29.06c.52.05,1.34.13,1.83.29.18-.06.36.01.55.23,1.68,1.64,3.94,2.84,6.3,3.17l.24.14c.25.09.5.24.57.51.12.11.28.28.4.4.16-.01.25.1.29.34.08.08.17.17.23.23.13-.02.21.08.23.29.04.05.09.09.11.11.1-.07.14.07.11.17.49.63,1.05,1.47,1.43,2.17.28.13.38.51.4.8.13.28.29.69.4.97l.17.14c.08.13.63,2.13.61,2.25,0,.05-.02.1-.05.14-.94.35-2.03.68-3.02.61-.06,0-.12,0-.17,0l-.29.06c-.11,0-.23,0-.34,0l-.4.06c-.59,0-1.18,0-1.77,0l-.46-.06c-4.76-.07-9.85-3.36-12.28-7.37-.04-.07-.07-.16-.11-.23-.16-.02-.21-.13-.17-.29-.26-.47-.54-.99-.74-1.49-.12-.05-.14-.17-.11-.29-.26-.66-.47-1.42-.63-2.11-.13-.12-.21-.43-.11-.57.11-.03.22-.09.29-.11,0-.12.22-.16.29-.06.27-.07.59-.17.86-.23.04-.13.2-.16.29-.06.54-.1,1.11-.18,1.66-.23l.34-.06c.13,0,.27,0,.4,0,.26-.04.53-.06.8-.06.04,0,.08,0,.11,0Z"/>
  <path class="cls-11" d="M100.09,27.46c-.54,2.3-.52,4.65-.11,6.97.03.11.01.18-.06.23-.03.1-.1.42-.2.44-5.46-1.13-10.17-5.11-12.08-10.35-.43-1.16-.83-2.68-.86-3.91l-.06-.34c0-.21,0-.42,0-.63-.05-.3-.05-.61,0-.91,0-.19,0-.38,0-.57l.06-.34c.02-1.01.28-2.01.54-2.97,6.23,1.21,11.41,6.18,12.76,12.4Z"/>
  <path class="cls-9" d="M73.07,22.66c.15,0,.31-.01.46,0l.29.06c6.94.81,11.74,7.11,12.28,13.82l.06.34c0,.21,0,.42,0,.63.02.5.01.86,0,1.34s-.01,1.01-.06,1.51c-.99.05-1.94-.05-2.91-.23-.11-.02-.23-.03-.34-.06-.16.08-.43.05-.51-.11-.24-.06-.57-.15-.8-.23-.12.03-.27.02-.29-.11-.21-.08-.48-.2-.69-.29-.12.03-.27.02-.29-.11-.11-.05-.27-.16-.4-.23-.15.04-.26-.01-.29-.17-.44-.25-.9-.51-1.31-.8-.14,0-.34-.15-.4-.29-.12-.09-.28-.24-.4-.34-.17-.02-.27-.09-.29-.23-.12-.11-.27-.27-.4-.4-.23-.05-.41-.23-.46-.46-.14-.15-.34-.32-.46-.46-.09.01-.16-.08-.11-.17-.06-.07-.14-.13-.17-.17-.18-.16-.39-.41-.55-.63l-.02-.12s-.02-.07-.06-.11c-.14-.02-.21-.12-.23-.29-.03-.04-.06-.15-.11-.23-.16-.02-.2-.13-.17-.29-.14-.23-.27-.46-.4-.69-.15-.03-.21-.14-.17-.29-.11-.19-.26-.61-.4-.74-.08-.07-.15-.17-.11-.29-.71-1.62-1.14-3.38-1.31-5.14l-.06-.29c0-.11,0-.23,0-.34l-.06-.4c0-.66,0-1.33,0-2l.06-.4c0-.11-.01-.24,0-.34l.04-.31c.35-.02.7,0,1.05.03Z"/>
  <path class="cls-12" d="M114.82,35.51c.02-.99.32-2.18.61-3.13,1.82-5.89,7.19-10.67,13.49-10.92.02.05,0,.12,0,.17l.06.4c.02.55,0,1.11,0,1.66l-.06.46c0,.09,0,.19,0,.29l-.06.29-.11.97-.11.27c-2.08,2.06-3.38,4.73-3.71,7.56-.02.11-.06.18-.18.17-.19.32-1.08,1.09-1.4,1.37-1.9,1.61-4.19,2.79-6.65,3.26-.48.09-1.03.2-1.51.23-.1,0-.34.03-.4-.05-.06-.09-.03-1.94-.02-2.23,0-.13,0-.27,0-.4l.06-.34Z"/>
  <path d="M139.32,80.69c0-.3,0-.61,0-.91l-.06-.34c-.03-.4-.11-.93-.23-1.31.09-.06.07-.24-.06-.23-.02-.06-.25-.51-.29-.57.08-.12-.04-.3-.17-.23-.01-.02-.04-.04-.06-.06.01-.16-.13-.39-.29-.29-.02-.02-.04-.04-.06-.06-.02-.15-.13-.32-.29-.23-.46-.26-1.19-.44-1.71-.51l-.29-.06c-.09,0-.19,0-.29,0l-.51-.06c-3.71-.02-7.43.02-11.14,0-.04,3.91-.05,7.83-.01,11.74l8.53-.03c.59,0,1.18,0,1.77,0,.1,0,.19,0,.29,0l.69-.06c.13,0,.27,0,.4,0l.29-.06c.3-.03.62-.05.91-.11.11.1.27.04.29-.11.39-.12.62-.2.97-.46.15.1.27-.08.29-.23.48-.49.81-1.44.91-2.11.12-.08.15-.27,0-.34.02-.16.05-.28.06-.46l.06-.46c0-.3,0-.61,0-.91.05-.51.05-1.03,0-1.54ZM135.62,83.7c-.35.85-1.34.77-2.1.82-.11,0-.22.05-.34.06-1.91.08-3.88-.06-5.8,0v-5.74c0-.06.14-.08.2-.09,1.63-.19,3.64.15,5.32,0,1.19.18,2.43-.26,2.8,1.26.19.77.22,2.98-.08,3.7Z"/>
  <path class="cls-2" d="M124.44,41.49c.21.61-.53,1.35-.38,1.94.11.53,2.18.79.54.92-1.17.04-2.34.27-3.48.5-1.88.43-3.74,1.04-5.39,2.07-8.63,5.01-11.78,15.77-12.97,25.1-.13.92-.23,1.84-.31,2.76-.03.37-.04.86-.37,1.06-.51.3-1.14-.03-1.07-.67.18-3.77.44-7.56,1.23-11.26.9-4.21,2.09-8.46,4.39-12.14.5-.75.89-1.59,1.47-2.29.59-.77,1.15-1.52,1.82-2.22,1.39-1.39,2.94-2.66,4.67-3.59,1.12-.6,2.25-1.17,3.49-1.52,1.37-.44,2.74-.82,4.18-.9.6,0,1.84-.39,2.17.22h0Z"/>
  <path class="cls-8" d="M61.3,23.23l.29.06c4.26.54,7.64,3.29,9.31,7.2.17.04.32.41.23.57.19.51.39,1.07.51,1.6.14.02.22.81.18.85-.02.02-.04.04-.07.06.01.09.04.17.06.29l.06.29c0,.11,0,.23,0,.34.04.51.04,1.02,0,1.54-.01.12-.05.17-.06.23-.11.19-.41.14-.57,0-2.17-.21-4.33-1.3-6-2.66-.32-.26-.72-.77-1.08-.89.19.01.1-.03.03-.11-1.72-1.93-3.19-4.67-3.23-7.31l-.06-.34c0-.42-.04-.97,0-1.37l.06-.34c.11,0,.23,0,.34,0Z"/>
  <path class="cls-2" d="M75.87,42.31c.11,0,.23,0,.34,0l.29.06c.12.01.23.04.34.06.04-.15.27-.12.34,0,.26.03.54.07.8.11.07-.13.29-.01.34.11.93.17,1.77.34,2.68.63.21-.1.52.02.63.23.11.04.23.07.34.11.28,0,.66.14.86.34.04.02.08.04.11.06.1-.09.28-.04.29.11.27.12.54.26.8.4,9.45,4.91,12.02,16.91,13.25,26.62,0,.1.02.2.06.29.05.41.07.84.11,1.26,0,.1.02.2.06.29,0,.09,0,.19,0,.29l.06.29c.01.11,0,.23,0,.34l.06.29c0,.11,0,.23,0,.34l.06.4c0,.13,0,.27,0,.4l.06.4c0,.15,0,.3,0,.46l.06.51c0,.21,0,.42,0,.63l.06.69c0,.28,0,.57,0,.86,0,.57.02,1.12.06,1.66,0,.95,0,1.9,0,2.86-.03.61-.05,1.24-.06,1.88,0,.42,0,.84,0,1.26l-.06,1.09c0,.34,0,.69,0,1.03l-.06.91c0,.32,0,.65,0,.97l-.06.97c0,.34,0,.69,0,1.03l-.06,1.14c0,.47,0,.95,0,1.43-.02.19-.04.38-.06.57-.04.01-.43,0-.45,0-.07-.06-.17-.92-.18-1.08-.06-.45-.05-.92,0-1.37,0-.44,0-.88,0-1.31l.06-.91c0-.27,0-.53,0-.8l.06-.69c0-.25,0-.5,0-.74l.06-.63c0-.23,0-.46,0-.69l.06-.69c0-.23,0-.46,0-.69l.06-.74c0-.3,0-.61,0-.91l.06-1.14c0-.65,0-1.3,0-1.94v-2.74c0-.55,0-1.11,0-1.66l-.06-.97c0-.25,0-.5,0-.74l-.06-.69c0-.19,0-.38,0-.57l-.06-.51c0-.15,0-.3,0-.46l-.06-.4c0-.15,0-.3,0-.46l-.06-.34c0-.13,0-.27,0-.4l-.06-.29c0-.11,0-.23,0-.34l-.06-.34c0-.09,0-.19,0-.29,0-.1-.02-.2-.06-.29-.03-.26-.03-.55-.06-.8,0-.1-.02-.2-.06-.29-.98-8.4-4.8-17.68-12.94-21.35-2.11-.95-4.4-1.49-6.7-1.72-.09-.04-.18-.06-.29-.06-.11,0-.23,0-.34,0l-.4-.06c-.19,0-.38,0-.57,0-.77.02-1.53,0-2.28-.06-.01-.01-.01-.09-.06-.11.54-.07,1.12-.19,1.66-.31.43-.1.87-.21,1.29-.37.07-.11-.55-2.17-.66-2.46h.06l.4.06Z"/>
  <path class="cls-3" d="M128.76,25.69c1.72-1.64,4.24-2.83,6.63-2.97,0,.36,0,.72,0,1.09l-.06.34c-.32,4.56-4.03,9.01-8.35,10.35-.54.17-1.31.38-1.87.38l-.31.02c-.01-.33,0-.67.03-1,0-.08.03-.19-.06-.23.16-.27.26-1.44.37-1.89.56-2.26,1.95-4.51,3.63-6.11Z"/>
  <path class="cls-1" d="M115.34,22.66c.03-1.56.75-3.42,1.58-4.74,1.46-2.31,3.9-4.13,6.65-4.46,0,.33.09.64.11.97l.06.29c0,.49.03,1.06,0,1.54l-.06.29c-.46,4.42-3.71,8.47-8.22,9.14-.06-.35-.1-.67-.12-1.03l-.06-.4c0-.42,0-.84,0-1.26l.06-.34Z"/>
  <path class="cls-5" d="M84.95,22.21c.06.34.05.69,0,1.03,0,.11,0,.23,0,.34l-.06.29c-.03.23-.11.45-.11.69-2.96-.78-5.29-3.36-6.09-6.27-.12-.45-.23-.86-.24-1.33l-.06-.29c0-.11,0-.23,0-.34-.05-.3-.05-.61,0-.91,0-.17.03-1.34.2-1.36.64.19,1.26.45,1.84.78,2.56,1.46,4.37,4.43,4.53,7.38Z"/>
  <path d="M101.11,75.84c.45-.01.92,0,1.37,0,1.5,0,3,0,4.5.01l6.07,8.67c.15.05.33.05.37-.03l-.03-2.6c0-.95,0-1.9,0-2.86-.01-.96-.03-1.89-.06-2.8,0-.13,0-.27,0-.4h3.66s0,11.71,0,11.71c-2.08.05-4.16.05-6.23,0l-6.11-8.68c-.1-.04-.32-.07-.37.03l.03,2.77c0,.93,0,1.87,0,2.8.02.98.03,1.93.06,2.86,0,.06.01.19,0,.23-.67.05-1.33.05-2,0-.33.16-.7.17-1.03,0-.22.04-.46.05-.66,0l.03-11.71c.13,0,.27,0,.4,0Z"/>
  <path d="M74.78,78.64c-.1-1.55-.66-2.51-2.28-2.74l-.46-.06h-11.77v11.71h3.54s0-2.91,0-2.91c.4-.01.8-.02,1.2-.03.24,0,.48,0,.72,0h0c1.41-.01,2.83,0,4.25.04,1,.14,1.03.43,1.14,1.37.02.51.04,1.03.06,1.54h3.48c.03-.51.05-1.02.06-1.54,0-.04,0-.08,0-.11-.04-.3-.06-.61-.06-.91-.08-.67-.17-1.36-.86-1.68-.31-.15-.66-.16-.97-.29,1.37-.23,1.86-1.05,1.94-2.37l.06-.91v-.17l-.06-.91ZM70.47,81.6c-.34.05-.94.05-1.31.06-1.78.06-3.57-.05-5.34,0v-2.91c1.72.04,3.45-.06,5.17,0,.14,0,.26.06.4.06.88.04,1.74-.25,1.86.94.07.66.06,1.74-.78,1.85Z"/>
  <path d="M81.29,87.55v-11.71h12.97v2.74l-9.42.06v1.66h8.97v2.57l-8.97.06v1.77c3.17,0,6.33.01,9.48.06.05.89.05,1.89,0,2.8-4.33.03-8.67.03-13.02,0Z"/>
  <path class="cls-2" d="M102.37,87.55s.05.04,0,.06c0,.11,0,.23,0,.34l.06.51c0,.17,0,.34,0,.51l.06.46c0,.15,0,.3,0,.46l.06.4c0,.13,0,.27,0,.4l.06.4c0,.13,0,.27,0,.4l.06.34c0,.11,0,.23,0,.34l.06.34c0,.11,0,.23,0,.34l.06.29c0,.11,0,.23,0,.34l.06.29c0,.09,0,.19,0,.29l.06.29c.03.28.02.57.06.86l.06.29c0,.06,0,.11,0,.17l-.86-.03c-.2-.97-.23-1.96-.34-2.94,0-.1-.02-.2-.06-.29,0-.09,0-.19,0-.29l-.06-.29c0-.09,0-.19,0-.29l-.06-.29c0-.11,0-.23,0-.34l-.06-.29c0-.09,0-.19,0-.29l-.06-.34c0-.11,0-.23,0-.34l-.06-.34c0-.11,0-.23,0-.34l-.06-.34c0-.13,0-.27,0-.4l-.06-.4c0-.08,0-.15,0-.23-.05-.02-.05-.04,0-.06.34,0,.69,0,1.03,0Z"/>
</svg>