<?xml version="1.0" encoding="UTF-8"?>
<svg id="Layer_1" data-name="Layer 1" xmlns="http://www.w3.org/2000/svg" viewBox="0 0 200 100">
  <g>
    <path d="M25.31,35.14v-1.56h3.57v-4.85c0-1.62.06-2.62-1.34-3.74h6.02c2.73,0,3.29,1.51,3.29,4.07v4.52h4.85v1.56h-4.85v16.12c0,3.29,1.28,4.46,2.79,4.46,1.06,0,2.23-.61,3.12-1.51-.61,3.51-3.79,5.19-6.97,5.19-3.51,0-6.92-1.95-6.92-5.58v-18.68h-3.57Z"/>
    <path d="M44.72,53.1c0-6.02,12.38-6.8,16.45-9.76v-2.73c0-2.51-.5-6.8-3.35-6.8-3.62,0-4.69,8.81-4.63,8.81-4.63-.17-7.2-2.96-5.86-5.86,1.12-2.57,5.47-3.62,10.49-3.62s11.32,2.01,11.32,7.25v14.72c0,1.62-.11,2.62,1.28,3.74h-4.46c-3.85,0-4.74-1.45-4.8-3.79v-.06c-1.51,2.4-4.02,4.29-7.75,4.29-6.3,0-8.7-3.51-8.7-6.19ZM56.26,56.55c3.79,0,4.91-4.52,4.91-7.92v-3.79c-2.51,1.9-8.03,3.01-8.03,7.64,0,2.68,1.62,4.07,3.12,4.07Z"/>
    <path d="M79.02,33.58c2.68,0,3.29,1.51,3.29,4.07v1.78c1.28-3.79,3.57-6.3,6.64-6.3,4.91,0,7.03,5.35,3.23,10.65-1.23-2.45-3.23-4.07-5.19-4.07-.17,0-.28.06-.45.06-2.23.28-4.13,2.84-4.24,6.75v8.53c0,1.67-.11,2.68,1.28,3.79h-6.08c-2.68,0-3.23-1.56-3.23-4.07v-17.4c0-1.67.06-2.73-1.34-3.79h6.08Z"/>
    <path d="M102.06,33.58c2.68,0,3.29,1.51,3.29,4.07v11.82c0,6.69,1.56,7.98,3.96,7.98,2.9,0,4.63-3.57,4.96-9.04v-11.04c0-1.67.06-2.73-1.34-3.79h6.08c2.68,0,3.29,1.51,3.29,4.07v17.4c0,1.67-.06,2.68,1.28,3.79h-6.08c-2.23,0-2.96-1.12-3.12-2.9v-.17c-1.45,2.23-3.68,3.51-6.69,3.51-4.96,0-10.37-2.51-10.37-9.65v-12.27c0-1.67.06-2.73-1.34-3.79h6.08Z"/>
    <path d="M132.29,33.58c2.23,0,2.96,1.12,3.18,2.9v.17c1.45-2.23,3.62-3.51,6.64-3.51,5.02,0,10.43,2.45,10.43,9.65v12.33c0,1.62-.06,2.62,1.28,3.74h-6.08c-2.68,0-3.24-1.56-3.24-4.07v-11.82c0-6.69-1.62-7.98-4.01-7.98-2.79,0-4.57,3.29-4.91,8.48v11.6c0,1.67-.11,2.68,1.28,3.79h-6.08c-2.68,0-3.23-1.56-3.23-4.07v-17.4c0-1.67.06-2.73-1.34-3.79h6.08Z"/>
    <path d="M157.78,37.37c0-1.67.06-2.73-1.34-3.79h6.08c2.68,0,3.29,1.51,3.29,4.07v17.4c0,1.67-.11,2.68,1.28,3.79h-6.08c-2.68,0-3.23-1.56-3.23-4.07v-17.4ZM161.79,19.8c2.45,0,4.46,2.01,4.46,4.46s-2.01,4.69-4.46,4.69-4.68-2.12-4.68-4.69,2.12-4.46,4.68-4.46Z"/>
  </g>
  <g>
    <path d="M170.98,57.15v-2.68h1.19c.24,0,.42.02.55.07s.22.13.3.26.11.26.11.4c0,.19-.06.35-.18.48s-.31.21-.57.25c.09.05.17.09.21.13.1.1.2.21.29.36l.47.73h-.45l-.36-.56c-.1-.16-.19-.28-.26-.37s-.13-.15-.18-.18-.11-.06-.16-.07c-.04,0-.11-.01-.2-.01h-.41v1.19h-.36ZM171.33,55.65h.76c.16,0,.29-.02.38-.05s.16-.09.21-.16.07-.15.07-.24c0-.13-.05-.23-.14-.31s-.24-.12-.44-.12h-.85v.89Z"/>
    <path d="M172.04,58.5c-1.46,0-2.66-1.19-2.66-2.66s1.19-2.66,2.66-2.66,2.66,1.19,2.66,2.66-1.19,2.66-2.66,2.66ZM172.04,53.5c-1.29,0-2.34,1.05-2.34,2.34s1.05,2.34,2.34,2.34,2.34-1.05,2.34-2.34-1.05-2.34-2.34-2.34Z"/>
  </g>
  <g>
    <path d="M56.18,68.18c0,.35-.05.68-.14.99-.09.31-.23.6-.4.86s-.38.49-.63.69c-.25.2-.53.36-.84.5.24.05.46.13.67.25s.39.27.53.45c.15.18.26.39.35.64.08.24.12.52.12.81s-.04.6-.12.91-.2.59-.36.87c-.16.28-.36.53-.61.77-.24.24-.52.44-.85.62-.32.18-.69.31-1.09.41s-.87.15-1.4.15h-2.93c-.19,0-.33-.05-.42-.14-.09-.09-.12-.25-.06-.46l1.96-9.86c.04-.22.13-.38.27-.47.14-.09.29-.13.44-.13h2.38c.56,0,1.04.05,1.42.14.38.09.7.23.95.41.25.18.44.41.57.67s.19.58.19.92ZM54.29,73.46c0-.47-.17-.84-.5-1.1-.34-.26-.85-.39-1.55-.39h-1.89l-.77,3.89h2.06c.47,0,.86-.07,1.18-.2.32-.13.59-.31.81-.53.22-.22.38-.47.5-.76.11-.29.17-.6.17-.91ZM54.62,68.45c0-.19-.03-.36-.09-.5-.06-.15-.16-.27-.3-.38s-.32-.19-.53-.25c-.21-.06-.49-.09-.84-.09h-1.55l-.71,3.58h1.67c.45,0,.82-.07,1.11-.22.29-.15.53-.34.71-.57.18-.23.32-.49.41-.76.09-.28.13-.55.13-.8Z"/>
    <path d="M64.62,70.75c0,.39-.09.75-.27,1.06-.18.31-.47.58-.85.8-.39.22-.88.39-1.49.51s-1.33.18-2.17.18h-.91c-.04.19-.07.37-.08.55-.01.18-.02.34-.02.5,0,.57.14,1,.42,1.31s.74.45,1.37.45c.36,0,.69-.03.98-.08.29-.05.54-.11.76-.18.21-.06.39-.12.53-.17s.23-.08.28-.08.09.02.12.06c.03.04.04.09.04.16,0,.06,0,.13-.02.21-.01.08-.03.16-.05.24s-.05.16-.09.23c-.04.07-.08.14-.12.19-.07.07-.19.14-.36.2s-.38.13-.62.18c-.24.05-.5.1-.79.13-.28.03-.57.05-.85.05-.51,0-.95-.06-1.33-.17-.38-.11-.7-.29-.95-.53-.25-.24-.44-.53-.57-.88-.13-.35-.19-.77-.19-1.25,0-.37.04-.77.11-1.19.07-.42.18-.84.34-1.26.15-.42.35-.81.6-1.2.25-.38.54-.72.88-1.01.34-.29.73-.52,1.17-.7.44-.18.95-.26,1.5-.26.48,0,.88.06,1.22.18.33.12.61.27.82.46s.37.4.47.63c.1.23.14.46.14.69ZM63.18,70.88c0-.29-.11-.53-.34-.7-.23-.18-.55-.27-.97-.27-.37,0-.7.06-.98.19-.29.13-.54.3-.76.52-.22.22-.41.47-.56.76-.16.29-.28.59-.38.91h.87c.6,0,1.1-.04,1.5-.11.4-.07.72-.18.97-.3.24-.13.41-.28.51-.45s.15-.35.15-.54Z"/>
    <path d="M72.01,76.87c-.02.1-.08.17-.19.21-.1.04-.27.06-.51.06-.11,0-.21,0-.28-.02-.07-.01-.13-.03-.18-.05-.05-.02-.08-.05-.09-.08-.02-.03-.02-.07,0-.12l.28-1.45c-.07.18-.21.38-.4.6s-.42.42-.69.6-.56.33-.88.45-.65.18-.99.18c-.46,0-.83-.08-1.13-.24-.3-.16-.54-.37-.71-.63-.18-.26-.3-.56-.36-.89-.07-.33-.1-.67-.1-1.02,0-.32.03-.68.09-1.08s.16-.82.29-1.24c.13-.42.31-.83.52-1.23s.47-.76.77-1.07.65-.57,1.05-.76c.4-.19.85-.29,1.36-.29s.94.1,1.3.31.68.49.97.85l.16-.78c.02-.09.09-.16.2-.2.11-.04.28-.06.5-.06.11,0,.21,0,.29.01.08,0,.14.02.18.05.05.02.07.05.09.08.01.03.01.07,0,.11l-1.54,7.69ZM71.74,71.19c-.27-.39-.56-.69-.87-.88-.31-.2-.66-.29-1.05-.29-.31,0-.58.07-.83.22-.25.15-.47.34-.66.58-.19.24-.36.51-.5.82s-.25.62-.34.94c-.09.32-.15.64-.2.96-.04.31-.06.6-.06.85,0,.2.02.4.05.59.03.2.09.38.18.54.09.16.21.29.36.39.15.1.35.15.6.15.31,0,.63-.09.94-.26.32-.17.61-.41.88-.72.27-.31.52-.67.73-1.08.21-.42.37-.87.47-1.38l.29-1.41Z"/>
    <path d="M81,76.87s-.02.09-.05.12c-.03.03-.07.06-.12.08-.05.02-.12.04-.2.05-.08.01-.18.02-.3.02-.11,0-.21,0-.29-.02-.08-.01-.14-.03-.18-.05-.04-.02-.07-.05-.09-.08-.01-.03-.02-.07,0-.12l.28-1.44c-.09.19-.23.4-.43.61-.2.21-.43.41-.69.59-.26.18-.55.33-.87.44-.32.11-.64.17-.96.17-.39,0-.71-.05-.98-.16-.26-.11-.48-.25-.64-.44s-.28-.4-.35-.66-.11-.53-.11-.83c0-.19.01-.38.04-.58s.06-.39.1-.59l.95-4.82s.03-.08.06-.11.07-.06.13-.08c.06-.02.14-.04.23-.05.09,0,.21-.01.35-.01s.25,0,.34.01c.09,0,.16.02.21.05.05.02.08.05.09.08.01.03.02.07.01.11l-.94,4.77c-.03.15-.06.3-.08.46-.02.16-.03.32-.03.49s.02.33.05.47c.03.14.08.26.16.36.08.1.18.18.3.24.12.06.27.09.45.09.3,0,.61-.09.93-.26.32-.17.61-.41.88-.72.27-.31.52-.67.73-1.1.21-.42.37-.89.47-1.39l.67-3.4s.02-.08.06-.11.08-.06.14-.08c.06-.02.14-.04.23-.05.09,0,.21-.01.35-.01s.25,0,.34.01c.09,0,.16.02.21.05.05.02.08.05.09.08.01.03.02.07.01.11l-1.55,7.69Z"/>
    <path d="M90.75,76.87s-.03.08-.06.12c-.03.03-.07.06-.13.08-.06.02-.13.04-.23.05-.09.01-.21.02-.35.02s-.25,0-.34-.02c-.09-.01-.16-.03-.21-.05-.05-.02-.08-.05-.1-.08-.02-.03-.02-.07,0-.12l1.35-6.74h-3.97l-.86,4.29c-.02.12-.04.25-.06.4-.02.15-.03.27-.03.37,0,.29.06.5.18.64.12.13.32.2.59.2.15,0,.29-.01.4-.04.11-.03.21-.05.29-.08.08-.03.16-.06.22-.08.06-.03.12-.04.16-.04s.08.02.11.05c.03.03.04.09.04.17,0,.07,0,.16-.02.24s-.03.17-.06.26-.05.16-.08.23-.07.12-.11.16c-.05.04-.11.08-.21.12-.09.04-.2.08-.32.11-.12.03-.25.06-.38.07s-.27.03-.4.03c-.32,0-.6-.03-.83-.1-.23-.07-.43-.17-.59-.32-.16-.15-.28-.33-.35-.55s-.12-.48-.12-.79c0-.07,0-.14,0-.23s.02-.17.03-.26c.01-.09.03-.18.04-.27.01-.09.03-.18.05-.26l.86-4.32h-1.07c-.06,0-.11-.02-.14-.06s-.05-.11-.05-.22c0-.08,0-.17.03-.28.02-.11.04-.2.08-.29.03-.09.08-.17.13-.23.05-.06.12-.09.19-.09h1.08l.37-1.83s.02-.08.06-.11.08-.06.13-.09c.06-.03.13-.04.23-.06.09-.01.21-.02.35-.02s.25,0,.34.02c.09.01.16.03.21.06.05.03.08.06.09.09s.02.07,0,.11l-.37,1.83h4.95c.17,0,.28.04.33.12.05.08.05.19.02.34l-1.49,7.46ZM92.95,66.59c-.03.16-.07.29-.12.4-.05.11-.11.19-.19.26s-.18.11-.29.14c-.12.03-.26.04-.43.04s-.31-.01-.41-.04c-.11-.03-.18-.08-.23-.14-.05-.07-.08-.15-.08-.26,0-.11,0-.24.03-.4.03-.16.07-.29.12-.4.05-.1.11-.19.2-.26.08-.07.18-.12.29-.15.11-.03.26-.04.43-.04s.31.01.41.04c.11.03.18.07.23.15.05.07.08.16.09.26,0,.11,0,.24-.04.4Z"/>
    <path d="M99.78,65.68s0,.06,0,.11-.01.1-.02.16c0,.06-.02.12-.04.19-.02.07-.04.13-.06.18-.02.06-.05.1-.08.14s-.06.05-.09.05c-.04,0-.09-.01-.15-.03s-.13-.05-.21-.07c-.08-.03-.17-.05-.28-.07-.11-.02-.23-.03-.36-.03-.25,0-.45.04-.63.11s-.32.19-.45.35c-.13.16-.23.35-.32.59-.08.24-.16.52-.22.85l-.15.77h1.72c.06,0,.11.02.15.06.04.04.06.11.06.21,0,.06,0,.13-.02.2-.01.07-.03.14-.04.2-.02.07-.04.13-.06.19-.03.06-.05.11-.09.16s-.07.08-.11.11c-.04.03-.08.04-.12.04h-1.73l-1.46,7.28c-.1.48-.23.89-.39,1.24-.17.35-.37.64-.61.87-.24.23-.52.4-.83.51-.31.11-.67.17-1.06.17-.26,0-.47-.02-.63-.06-.16-.04-.26-.08-.3-.11-.02-.03-.04-.06-.05-.09-.01-.03-.02-.08-.02-.14,0-.02,0-.06.01-.12s.02-.11.03-.17c.01-.06.03-.12.04-.19.02-.07.04-.13.06-.18.02-.06.05-.1.08-.14s.06-.05.1-.05.08,0,.12.01c.04,0,.08.02.12.03.04,0,.09.02.15.03.06,0,.13.01.23.01.24,0,.45-.04.62-.11.17-.07.32-.19.44-.35.12-.16.23-.35.31-.59.08-.24.16-.53.23-.86l1.4-6.99h-1.09c-.06,0-.1-.02-.13-.06s-.05-.11-.05-.21c0-.05,0-.1,0-.17,0-.06.02-.13.03-.2.01-.07.03-.13.05-.2.02-.06.05-.12.09-.17s.07-.09.11-.12.08-.05.14-.05h1.08l.21-1.07c.09-.47.22-.88.39-1.23s.38-.64.62-.87c.24-.23.52-.4.84-.51.32-.11.67-.17,1.05-.17.12,0,.26,0,.39.02s.26.03.38.06c.12.03.22.06.31.09.09.03.15.07.18.1.03.03.06.07.08.12.02.05.03.11.03.16Z"/>
    <path d="M105.08,76.87s-.02.09-.05.12c-.03.03-.07.06-.12.08-.05.02-.12.04-.2.05-.08.01-.18.02-.3.02-.11,0-.21,0-.29-.02-.08-.01-.14-.03-.18-.05-.04-.02-.07-.05-.09-.08-.01-.03-.02-.07,0-.12l.28-1.44c-.09.19-.23.4-.43.61-.2.21-.43.41-.69.59-.26.18-.55.33-.87.44-.32.11-.64.17-.96.17-.39,0-.71-.05-.98-.16-.26-.11-.48-.25-.64-.44s-.28-.4-.35-.66-.11-.53-.11-.83c0-.19.01-.38.04-.58s.06-.39.1-.59l.95-4.82s.03-.08.06-.11.07-.06.13-.08c.06-.02.14-.04.23-.05.09,0,.21-.01.35-.01s.25,0,.34.01c.09,0,.16.02.21.05.05.02.08.05.09.08.01.03.02.07.01.11l-.94,4.77c-.03.15-.06.3-.08.46-.02.16-.03.32-.03.49s.02.33.05.47c.03.14.08.26.16.36.08.1.18.18.3.24.12.06.27.09.45.09.3,0,.61-.09.93-.26.32-.17.61-.41.88-.72.27-.31.52-.67.73-1.1.21-.42.37-.89.47-1.39l.67-3.4s.02-.08.06-.11.08-.06.14-.08c.06-.02.14-.04.23-.05.09,0,.21-.01.35-.01s.25,0,.34.01c.09,0,.16.02.21.05.05.02.08.05.09.08.01.03.02.07.01.11l-1.55,7.69Z"/>
    <path d="M109.1,76.87s-.03.08-.06.12-.07.06-.13.08-.13.04-.23.05c-.09.01-.21.02-.35.02s-.26,0-.35-.02c-.09-.01-.16-.03-.21-.05-.05-.02-.08-.05-.09-.08-.01-.03-.02-.07,0-.12l2.27-11.41s.03-.08.06-.12c.03-.03.07-.06.13-.09.06-.02.14-.04.23-.05.09-.01.21-.02.35-.02s.25,0,.34.02c.09.01.16.03.21.05.05.02.08.05.09.09s.01.07,0,.12l-2.27,11.41Z"/>
    <path d="M120.16,72.79l-.81,4.08s-.03.08-.06.11-.08.06-.14.08c-.06.02-.14.04-.24.05-.1.01-.21.02-.35.02s-.26,0-.35-.02c-.09-.01-.16-.03-.21-.05-.05-.02-.09-.05-.1-.08-.02-.03-.02-.07-.02-.11l.82-4.08-1.88-6.23c-.03-.12-.06-.22-.06-.3,0-.07.01-.13.06-.17.05-.04.12-.07.23-.08s.26-.02.46-.02c.15,0,.28,0,.38.01.1,0,.17.03.23.06.06.03.1.06.12.11.03.04.05.1.07.17l.88,3.03c.1.35.19.69.27,1.02.08.33.16.67.23,1.02h.02c.21-.34.41-.68.62-1.02.21-.34.43-.67.67-1.02l2.09-3.08c.03-.06.07-.11.12-.15.04-.04.1-.07.17-.1.07-.03.15-.04.26-.05.1,0,.24-.01.41-.01.21,0,.36.01.47.03s.18.05.21.1.03.11,0,.18c-.03.07-.09.16-.16.26l-4.37,6.23Z"/>
    <path d="M130.75,71.73c0,.42-.04.85-.12,1.29-.08.44-.2.86-.36,1.27s-.37.79-.62,1.15c-.25.36-.54.67-.88.94-.34.27-.72.48-1.15.64-.43.16-.91.23-1.44.23s-1.02-.07-1.41-.2-.71-.32-.96-.57c-.25-.25-.44-.56-.55-.92-.12-.36-.18-.78-.18-1.24,0-.42.04-.85.12-1.29s.2-.86.36-1.26c.17-.4.37-.79.62-1.15.25-.36.54-.68.88-.94.34-.27.72-.48,1.15-.64.43-.16.91-.23,1.44-.23s1.01.07,1.4.2c.39.13.71.33.97.58.25.25.44.56.56.92.12.36.18.77.18,1.23ZM129.26,71.81c0-.28-.03-.54-.09-.77-.06-.23-.16-.42-.3-.58-.14-.16-.32-.28-.55-.36-.23-.09-.5-.13-.82-.13-.34,0-.65.06-.93.18-.28.12-.53.29-.75.5-.22.21-.41.45-.57.73s-.3.58-.4.89c-.11.32-.18.64-.23.97-.05.33-.08.66-.08.98,0,.28.03.54.09.77.06.23.16.42.3.58.14.16.32.28.54.37s.49.13.81.13c.35,0,.66-.06.93-.18.28-.12.52-.29.74-.5.22-.21.41-.46.57-.73s.3-.58.4-.9.18-.64.24-.97c.05-.33.08-.65.08-.97Z"/>
    <path d="M138.32,76.87s-.02.09-.05.12c-.03.03-.07.06-.12.08-.05.02-.12.04-.2.05-.08.01-.18.02-.3.02-.11,0-.21,0-.29-.02-.08-.01-.14-.03-.18-.05-.04-.02-.07-.05-.09-.08-.01-.03-.02-.07,0-.12l.28-1.44c-.09.19-.23.4-.43.61-.2.21-.43.41-.69.59-.26.18-.55.33-.87.44-.32.11-.64.17-.96.17-.39,0-.71-.05-.98-.16-.26-.11-.48-.25-.64-.44s-.28-.4-.35-.66-.11-.53-.11-.83c0-.19.01-.38.04-.58s.06-.39.1-.59l.95-4.82s.03-.08.06-.11.07-.06.13-.08c.06-.02.14-.04.23-.05.09,0,.21-.01.35-.01s.25,0,.34.01c.09,0,.16.02.21.05.05.02.08.05.09.08.01.03.02.07.01.11l-.94,4.77c-.03.15-.06.3-.08.46-.02.16-.03.32-.03.49s.02.33.05.47c.03.14.08.26.16.36.08.1.18.18.3.24.12.06.27.09.45.09.3,0,.61-.09.93-.26.32-.17.61-.41.88-.72.27-.31.52-.67.73-1.1.21-.42.37-.89.47-1.39l.67-3.4s.02-.08.06-.11.08-.06.14-.08c.06-.02.14-.04.23-.05.09,0,.21-.01.35-.01s.25,0,.34.01c.09,0,.16.02.21.05.05.02.08.05.09.08.01.03.02.07.01.11l-1.55,7.69Z"/>
  </g>
</svg>