<?xml version="1.0" encoding="UTF-8"?>
<svg id="Layer_1" data-name="Layer 1" xmlns="http://www.w3.org/2000/svg" viewBox="0 0 200 100">
  <defs>
    <style>
      .cls-1 {
        fill: #6d6e71;
      }

      .cls-2 {
        fill: #dd192c;
      }
    </style>
  </defs>
  <g>
    <path class="cls-2" d="M42.11,50.78h-5.82v-15.5c0-.49-1.05-1.16-1.55-1.25-.85-.15-4.69-.19-5.27.25-.2.15-.6.82-.6,1v15.5h-5.62v-15.7c0-.29-.79-.97-1.1-1.1h-6.32v16.8h-5.82v-21.8h28.8c1.12,0,3.31,2.19,3.31,3.3v18.5Z"/>
    <path class="cls-2" d="M149.87,28.99v21.8h-18.96c-.95,0-2.1-1.41-2.26-2.35-.32-1.87-.27-8.37-.05-10.35.13-1.14.76-2.27,1.79-2.81.19-.1,1.21-.49,1.32-.49h12.34v-5.8h5.82ZM144.05,46.78v-11.8c-1.09.74-1.58,3.18-2.75,3.75-1.96.96-6.52-1.1-6.88,1.94-.08.71-.08,5.08.11,5.5.1.22.44.4.6.6h8.93Z"/>
    <path class="cls-2" d="M66.99,50.78h-19.77c-.6,0-1.23-.87-1.31-1.5-.15-1.23-.17-5.22.02-6.39s1.24-1.62,2.29-1.72c3.09-.29,6.67.19,9.8.06l.49.2.25,2.95h-7.32c-.84.59-.41,1.71-.5,2.6h10.23v-6.9c0-.23-.87-1.1-1.1-1.1h-13.95c1.05-1.46,1.91-3.97,3.91-4.2,2.73-.31,11.13-.34,13.79.05,1.53.22,3.16,1.63,3.16,3.25v12.7Z"/>
    <path class="cls-2" d="M189.81,50.78h-19.57c-.69,0-1.23-.83-1.31-1.5-.14-1.24-.17-5.21.02-6.39s1.24-1.62,2.29-1.72c3.09-.29,6.67.19,9.8.06l.49.2.25,2.95h-7.32c-.84.59-.41,1.71-.5,2.6h10.23v-6.9c-.13-.31-.81-1.1-1.1-1.1h-13.95l2.83-3.88,1.09-.32c4.32.35,9.4-.48,13.62.02,1.1.13,3.13,1.25,3.13,2.48v13.5Z"/>
    <path class="cls-2" d="M76.43,28.99v9.8l3.06-3.85c.76-.31,6.9-.26,8.08-.16,1.44.12,2.75.66,3.35,2.06.06.15.36,1.17.36,1.24v12.7h-5.82v-10.5c0-.26-.87-1.06-1.1-1.3h-7.93v11.8h-5.82v-21.8h5.82Z"/>
    <path class="cls-2" d="M124.79,50.78h-5.82v-10.7c-.13-.32-.81-1.1-1.1-1.1h-7.32v11.8h-5.82v-16h17.16c.88,0,2.91,1.77,2.91,2.7v13.3Z"/>
    <path class="cls-2" d="M169.14,34.79l-2.83,3.88c-1.54.86-5.36-.28-6.3.73-.08.08-.51.84-.51.89v10.5h-5.82v-14.1c0-.55,1.35-1.9,1.91-1.9h13.55Z"/>
    <path class="cls-2" d="M100.91,50.78h-5.82v-11.3c0-1.4,4.75-3.59,5.82-4.5v15.8Z"/>
    <polygon class="cls-2" points="100.91 28.99 100.91 32.89 95.09 36.79 95.09 28.99 100.91 28.99"/>
  </g>
  <g>
    <path class="cls-1" d="M189.61,59.38h-3.01c.08-1.4,0-2.04-1.51-2.2-1.04-.11-4.34-.25-4.81.8-.12.78-.33,2.22.18,2.82,1.13,1.33,7.43-.09,8.95,2.28.91,1.75.87,5.74-.82,6.99-1.65,1.21-7.49,1.1-9.41.41s-2.25-2.85-2.21-4.69h3.01c-.03.74-.05,1.8.6,2.3.79.6,5.29.58,5.97-.15.6-.64.57-2.7.06-3.41-.88-1.24-6.88.19-8.64-2.04-1.3-1.64-1.25-5.71.65-6.95,1.55-1.01,7.04-1.03,8.77-.45,2,.68,2.31,2.36,2.21,4.29Z"/>
    <path class="cls-1" d="M117.97,59.38h-3.01c.45-2.67-2.68-2.38-4.52-2.21-2.41.22-2.71,2.57-1.14,3.95,2.11.68,6.82-.07,8.28,1.75,1,1.24.88,5.29-.03,6.58-1.4,1.97-7.91,1.78-10,1.02s-2.29-2.79-2.21-4.69h3.01c0,.78-.15,1.63.5,2.2.83.73,4.81.68,5.71.09,1.19-.77,1.05-3.57-.38-4-1.06-.32-3.46-.12-4.72-.29-2.17-.3-3.67-.89-3.91-3.3-.18-1.76-.19-4.07,1.53-5.07,1.47-.85,7.13-.9,8.69-.32,1.83.67,2.32,2.5,2.21,4.29Z"/>
    <polygon class="cls-1" points="103.52 54.78 103.52 57.38 95.49 57.38 95.49 61.38 103.12 61.38 103.12 63.98 95.49 63.98 95.49 68.18 103.52 68.18 103.52 70.78 92.48 70.78 92.48 54.78 103.52 54.78"/>
    <path class="cls-1" d="M132.82,70.78l5.24-15.98,4.3-.03,5.71,16.01h-3.21l-.93-3.01-7.08.03-.82,2.98h-3.21ZM143.25,65.58l-3.01-8.4-2.61,8.4h5.62Z"/>
    <path class="cls-1" d="M123.18,70.78h-2.81v-16c2.62.27,9.87-.78,11.64,1.3,1.38,1.62,1.5,7.18-.21,8.6-.42.34-2,.91-2.5.91h-5.82l-.3.3v4.9ZM123.18,62.98h5.72c1.34,0,1.49-4.22.61-5.01-.17-.17-.84-.59-1.02-.59h-5.02l-.3.3v5.3Z"/>
    <polygon class="cls-1" points="175.16 54.78 175.16 57.38 167.13 57.38 167.13 61.38 174.76 61.38 174.76 63.98 167.13 63.98 167.13 68.18 175.16 68.18 175.16 70.78 164.32 70.78 164.32 54.78 175.16 54.78"/>
    <path class="cls-1" d="M162.12,60.18h-3.01l-.49-2.41c-1.43-.83-5.56-.98-6.41.62-.47.89-.43,6.03-.32,7.29.16,1.85.61,2.5,2.52,2.69,1.15.11,3.89.2,4.52-.89l.39-2.31h2.81v2.9c0,1.02-1.44,2.16-2.36,2.44-1.65.5-5.84.61-7.52.21-2.72-.65-3.21-2.76-3.37-5.24-.15-2.39-.32-7.36,1.22-9.2,1.52-1.81,6.1-1.73,8.32-1.5,3.2.32,3.63,2.63,3.71,5.4Z"/>
    <polygon class="cls-1" points="90.67 54.78 90.67 57.38 83.05 57.38 83.05 61.78 90.27 61.78 90.27 64.18 83.05 64.18 83.05 70.78 80.04 70.78 80.04 54.78 90.67 54.78"/>
    <polygon class="cls-1" points="65.19 54.78 65.19 68.18 72.61 68.18 72.61 70.78 62.18 70.78 62.18 54.78 65.19 54.78"/>
    <rect class="cls-1" x="74.42" y="54.78" width="2.81" height="16"/>
  </g>
</svg>