<?xml version="1.0" encoding="UTF-8"?>
<svg id="Layer_1" data-name="Layer 1" xmlns="http://www.w3.org/2000/svg" viewBox="0 0 200 100">
  <defs>
    <style>
      .cls-1 {
        fill: red;
      }
    </style>
  </defs>
  <g>
    <path d="M54.84,59.2c.01.08.26.64.32.7.17.19,1.36.38.96.77-.21.21-1.85-.27-2.25-.27-.74,0-1.59.42-2.38.27-.19-.67.79-.37,1.04-.73.18-.26.35-1.29.38-1.65.11-1.41.14-4.72-.17-6.02-.19-.77-.4-.97-1.25-1l.13-.46c.11-.07,1.54.21,1.87.21,1.45,0,2.74-.5,4.31-.08,2.7.73,2.55,3.91.12,4.9.82,1.5,1.54,3.19,3.01,4.17,1.18-.2,3.71-8.21,4.67-9.36.38-.03.93-.17,1.1.27,1.09,2.41,1.8,5.22,2.99,7.56.19.37.57,1.07.84,1.35.31.32.83.33.77.77-.03.24-1.97-.2-2.25-.2-.36,0-1.94.45-2.13.26-.42-.42.87-.59.91-.73.08-.32-.53-2.66-.71-2.88-.26-.31-2.77-.03-3.33-.13-.14.66-1.17,2.54-.79,3.1.18.28.9.03.71.64-.18.18-1.44-.3-1.72-.26-.05,0-.3.37-.93.39-1.66.05-2.63-.56-3.51-1.89-.8-1.21-.84-2.75-2.73-2.62.1.88-.14,2.05,0,2.9ZM54.84,55.79c3.9.7,3.73-4.88,0-4.38v4.38ZM66.81,56.31c-.43-1.02-.69-2.15-1.15-3.16-.06-.13-.08-.3-.26-.32l-1.29,3.47h2.7Z"/>
    <path d="M90.1,56.31c-.1-.76.75-.44,1.29-.58,1.59-.41,1.66-3.15.38-3.99-.64-.41-1.33-.33-2.05-.33-.11,2.02-.25,4.23-.13,6.25.03.51.15,1.9.46,2.24.38.42,1.24.1,1.09.77-.79.15-1.63-.26-2.38-.27-.58,0-1.21.24-1.8.27-1.03.06-1.85-.27-2.71-.27-.38,0-2.08.45-2.25.27-.17-.76,1.07-.23,1.03-1.08-.01-.25-.78-2.52-.89-2.59-.51-.04-3.07-.2-3.29.07-.13.16-.86,2.38-.85,2.64.03.81,1.09.23.91.96-.59.14-1.23-.24-1.75-.24-.48,0-1.28.46-1.72.18-.48-.31.38-.41.68-.59,1.46-.86,3.37-7.49,4.36-9.18.24-.33,1.11-.32,1.33.06.98,2.3,1.68,4.77,2.75,7.03.31.66,1.04,2.33,1.86,2.32s1.16-.55,1.25-1.31c.15-1.33.16-5.12-.01-6.42-.03-.25-.2-.74-.37-.92-.39-.4-1.06-.09-.91-.7.72-.11,1.44.15,2.13.14.54,0,1.25-.23,1.8-.27,2.28-.13,5.24.58,4.32,3.55-.27.87-1.64,1.99-2.52,1.99h-1.99ZM81.86,56.31l-1.16-3.47c-.78.96-.97,2.37-1.54,3.47h2.7Z"/>
    <path d="M118.92,58.56c.02.26.23,1.21.38,1.39.32.37,1.21.06,1.04.73-.79.15-1.64-.27-2.38-.27-.29,0-2.39.56-2.38.07,0-.21.89-.35,1.09-.58.24-.27.3-.98.33-1.34.11-1.47.16-4.62-.04-6.02-.09-.66-.32-1.19-1.07-1.23-.81-.66.42-.46.91-.4.37.05.83.23,1.16.23.68,0,1.6-.43,2.38-.23.15.66-.6.22-1.02.72-.14.16-.4,1.09-.4,1.27v2.38h4.89v-2.77c0-.05-.25-.89-.29-.94-.3-.31-1.41-.08-.87-.74.16-.1,1.78.28,2.15.28s.76-.17,1.14-.21c.23-.02,1.15-.14,1.22.06.18.49-.63.27-.96.58s-.43,1.72-.46,2.24c-.07,1.16-.06,2.71,0,3.87.02.41.11,1.67.23,1.96.23.53,1.58.66,1.19,1.06-.2.2-1.86-.26-2.25-.27-.43,0-2.18.46-2.38.27-.43-.43.96-.53,1.13-.99.14-.39.26-3.43.15-3.63-1.61-.24-3.26-.14-4.88-.01.06.81-.08,1.71,0,2.51Z"/>
    <path d="M131.66,56.31s.02-.39,0-.51c3.61.49,3.22-5.09-.3-4.38-.14.03-.19.34-.2.47-.15,1.22-.16,6.53.15,7.55.27.9,1.29.76,1.38.87.03.03-.02.28,0,.38-.79.15-1.63-.26-2.38-.27-.41,0-2.22.43-2.38.27-.4-.42.93-.44,1.13-1.13.33-1.14.26-5.08.17-6.41-.06-.84-.11-1.71-1.11-1.84-.78-.63.29-.44.79-.41,1.34.09,1.97-.09,3.21-.14,2.11-.08,4.76.68,4.13,3.37-.21.91-1.67,2.18-2.58,2.18-.29,0-1.93.07-1.99,0Z"/>
    <path d="M99.74,51.27c-.06.07-.62.01-.87.35-.68.88-.42,5.34-.08,6.49.7,2.37,4.2,2.49,5.09.32.47-1.14.57-4.89.35-6.15-.14-.78-.58-.78-1.19-1-.19-.07-.33.02-.19-.32s1.5.07,1.87.07c.56,0,1.15-.25,1.74-.14-.02.11.03.35,0,.38-.06.08-.96-.04-1.13.74-.23,1.02.05,2.81-.03,3.96-.25,3.56-1.58,5.18-5.34,4.83-4.72-.45-2.86-5.71-3.44-8.65-.19-.94-1.25-.83-1.25-1.06-.02-.49,2.11.02,2.36.02.6,0,1.51-.27,2.14-.34-.02.14.05.42-.01.5Z"/>
    <path d="M145.95,60.68c-.16.16-1.78-.26-2.13-.26-.37,0-1.96.42-2.12.26-.37-.36.56-.53.64-.58.64-.38-.54-2.5-.52-3.14-.5.06-3.19-.14-3.35.07-.16.62-1.24,2.55-.7,3.02.31.27.86.06.72.64-.61.14-1.3-.26-1.86-.24-.31.01-1.55.46-1.75.24-.37-.38.68-.55.81-.64.39-.26,1.06-1.49,1.3-1.95,1.19-2.33,2.02-5.02,3.17-7.39.23-.14,1-.15,1.15.14,1.17,2.38,1.83,5.19,3.01,7.54.21.42.62,1.2.94,1.51.14.14,1,.48.7.78ZM141.44,56.31l-1.16-3.47c-.19.01-.2.2-.26.32-.51.98-.8,2.15-1.28,3.16h2.7Z"/>
    <path d="M114.03,50.77c-.35.51.06,2.43-.25,2.65-.05.04-.49-.07-.5-.09-.04-.05,0-.54-.08-.76-.57-1.83-3.87-1.73-3.68.33.18,1.96,4.88,2.06,5.14,4.65s-2.47,3.5-4.56,3.27c-.61-.07-1.29-.54-1.91-.39-.11.03-.05.37-.28.26-.32-.16-.06-1.42-.06-1.87,0-.37-.33-1.19.07-1.33.62-.21.41.41.57.94.25.82.65,1.43,1.51,1.71,1.23.41,2.87-.09,2.86-1.58-.02-2.19-4.65-1.97-5.01-4.51-.15-1.1.17-2.1,1.1-2.73,1.57-1.05,3.36-.22,5.06-.54Z"/>
    <path d="M75.94,50.9c.2.62-.7.36-1,.67-.51.52-.23,5.5-.29,6.6-.08,1.6-.19,3.07-1.48,4.18-.33.28-1.51,1-1.91.89-.68-.18.16-.47.29-.57.75-.58.97-1.66,1.04-2.56.14-1.9.21-5.89-.02-7.72-.15-1.19-.56-.75-1.19-1.1-.2-.11-.11-.46.18-.46.67,0,1.47.29,2.1.28.7,0,1.51-.37,2.27-.21Z"/>
    <path d="M112.62,65.44c-.74-.31-1.14.77-1.22.77-.36.01,0-.83-.07-.9-.97.15-1.45,3.59-2.12,3.6l-1.13-2.6-.73-1.13c.56.14.98.14,1.54,0-.36.31.39,2.32.52,2.44.19.18.22-.05.29-.16.28-.52.69-1.74.36-2.28.53.25.95-.08,1.37-.09.75-.01,1.63.1,2.43.09.21,0,.58-.11.64-.1.27.05.24.9.12,1.12-.3-.53-.61-.71-1.22-.77v2.9c0,.22.65.05.51.45-.45,0-.9,0-1.35,0-.06,0-.78.19-.51-.13.11-.13.58-.11.58-.45v-2.77Z"/>
    <path d="M123.43,68.79c.69-.43.65-2.35.39-3.03-.15-.39-.44-.2-.39-.57,1.11.25,2.14-.3,3.21.33.92.55,1.09,2.02.33,2.76-.96.94-2.35.46-3.54.51ZM126.22,68.23c.37-.4.4-1.49.2-1.99s-1.25-1.06-1.69-.79c-.24.15-.13,2.96-.02,3.07.13.14,1.25-.02,1.5-.3Z"/>
    <path d="M89.84,66.99c-.07.09.97,1.89,1.42,1.54.23.72-1.01.26-1.33-.02-.36-.31-.54-1.27-.92-1.27-.53,0-.3,1.37.19,1.55h-1.67c.71-.31.65-2.66.37-3.13-.2-.33-.58-.05-.49-.47.77.22,2.87-.38,3.09.71.19.98-.48.87-.64,1.09ZM89.55,66.83c.43-.43-.04-1.56-.74-1.39l-.13,1.54c.24,0,.69.02.87-.16Z"/>
    <path d="M83.54,80.5l-.19.9c2.75-3.05,1.98,2.62-.45,1.8-.05.65-.51,1.38.38,1.35-.38.37-.98.03-1.35.45-.12-.1-.15-.1-.14-.26.04-.61,1.08-3.56.84-3.84-.07-.08-.51.14-.37-.26l1.29-.13ZM84.31,81.02c-.52-.37-1.4,1.82-1.29,1.93,1.16.19,1.1-1.13,1.29-1.93Z"/>
    <path d="M76.72,81.4c.53-.5.79-1.08,1.67-.9l-.38,2.19.51-.19c-1.45,1.97-1.56.01-.9-1.28-.34-.27-.7.39-.87.68-.43.74-.24,1.39-1.32,1.44.11-.56,1.17-3.72.9-3.99-.06-.06-.46.09-.52-.06.24-.25,1.56-.63,1.52-.16-.05.62-.64,1.58-.62,2.28Z"/>
    <path d="M75.56,78.96c-.16.25-.27,1.06-.45,1.16-.27.14-.16-.4-.31-.59-.41-.54-1.93,0-1.23.84.48.58,2.61,1.17,1.21,2.52-.84.82-1.87.24-2.83.32-.04-.25.17-.38.23-.6s0-1.17.3-.5c.12.27.09.71.46.82.4.12,1.24.06,1.33-.43.21-1.17-1.7-.95-1.69-2.31.02-1.52,1.98-1.11,2.97-1.22Z"/>
    <path d="M77.4,68.36c-.74-.75-.68-2.14.15-2.79.97-.75,2.7-.46,3.12.74.71,2.02-1.84,3.47-3.27,2.05ZM78.48,65.47c-1.02.3-1.03,3.4.46,3.17s1.29-3.69-.46-3.17Z"/>
    <path d="M93.44,80.63c.07.4-.41.32-.57.52-.22.26-.15.68-.65,1.03-.35.25-.67.19-.96.45,0,.25,1.45.57,1.41,1.28-.06,1.17-2.88,1.4-2.68.17.08-.52.69-.67.74-.75.02-.03-.14-.27-.12-.43.02-.18.2-.29.22-.41.08-.43-.32-.79.11-1.45.54-.85,1.7-.5,2.5-.39ZM91.52,82.17c.56.01.88-1.32.45-1.41-.49-.11-.67,1.09-.45,1.41ZM90.96,83.48c-1.09.27.44,1.8,1.01.89.28-.45-.7-.96-1.01-.89Z"/>
    <path d="M87.01,66.09c-.37.07-.34-.41-.6-.49-.24-.08-.56,0-.82-.02v1.16c.26-.03.57.05.82,0,.11-.02.07-.49.34-.19v.96c-.37-.28-.67-.46-1.16-.39v1.29c.34-.01.7.05,1.04-.06.52-.17.18-.63.64-.59,0,.16-.1.98-.14,1.02-.18.17-2.41-.08-2.82.01-.13-.42.35-.15.39-.33.06-.23.04-2.42,0-2.7-.07-.4-.47-.17-.39-.57.79.29,1.76-.19,2.49.02.25.07.12.63.21.88Z"/>
    <path d="M96.4,68.79c.02-.2.31-.21.39-.35.17-.28.2-2.45.06-2.75-.12-.26-.55-.13-.45-.51.93.24,1.76-.08,2.7,0v.9c-.4.08-.24-.38-.6-.49-.25-.07-.55,0-.81-.02v1.16c.26-.03.58.05.82,0,.08-.02.13-.51.34-.26.05.06-.04.78,0,.96-.16.1-.28-.24-.48-.29-1.04-.32-.61.51-.68,1.26.33-.03.76.07,1.07-.02.28-.09.42-.61.54-.62.21-.02.11.25.1.35s-.13.68-.16.68h-2.83Z"/>
    <path d="M81.48,65.64c-.05-.17-.51-.09-.39-.45.93.31,1.85-.36,2.71.32,1.06.84-.33,2.09-1.42,1.74-.1-.48.42-.1.71-.38.57-.56,0-1.61-.84-1.42v2.77c0,.37.58.29.64.58h-1.8c-.24-.36.39-.23.39-.26,0-.59.12-2.5,0-2.9Z"/>
    <path d="M70.28,65.64c-.05-.17-.51-.09-.39-.45.66.25,1.21-.05,1.86,0,2.02.16,1.21,2.49-.58,2.06-.1-.49.5-.08.78-.44.48-.61-.13-1.53-.91-1.36v2.77c0,.37.55.28.64.58-.6.05-1.24-.12-1.8.13-.05-.41-.02-.43.38-.39-.14-.73.19-2.28,0-2.9Z"/>
    <path d="M104.25,68.79l.39-.33c-.11-.91.33-1.93-.03-2.81-.11-.27-.47-.11-.36-.47.66.25,1.21-.05,1.86,0,2.13.16,1.2,2.48-.58,2.06-.1-.49.5-.08.78-.44.75-.94-.91-1.77-.91-1.17v2.44c0,.51.49.41.64.71h-1.8Z"/>
    <path d="M98.85,80.5l-.32,1.16c.16-.43,1.33-1.57,1.74-1.16.18.18-.38,1.7-.39,2.06l.51.06c-1.88,1.86-1.15-.42-.96-1.61-.38.21-.64.59-.84.96-.38.7-.25,1.35-1.28,1.35.13-.4.73-2.17.5-2.44-.02-.02-.67.02-.37-.26.08-.07,1.33-.19,1.42-.13Z"/>
    <path d="M102.19,80.5l-.32,1.15c.16-.39,1.35-1.55,1.74-1.16.19.19-.37,1.83-.38,2.19,1.3-.86-.3,1.15-.71.52-.35-.54.42-1.59.26-2.19-.8.34-.9,1.53-1.29,2.06-.03.04-.8.28-.83.25.1-.52.7-1.81.61-2.26-.05-.27-.6-.02-.48-.44l1.41-.13Z"/>
    <path d="M88.68,80.5l-.26.9c.25-.31,1.29-1.28,1.67-.9.19.19-.43,1.8-.39,2.19,1.3-.86-.3,1.15-.71.52-.33-.5.38-1.61.26-2.19-.38.21-.64.59-.84.96-.38.7-.25,1.35-1.28,1.35.08-.45.71-1.91.63-2.24-.07-.29-.62-.03-.5-.46l1.41-.13ZM88.36,81.53v.13c.08-.04.08-.09,0-.13Z"/>
    <path d="M121.24,80.5l-.26,1.03c.35-.24.51-.76.93-.93,1.5-.62.47,1.32.35,2.02.07.17.24-.16.32-.19.55-.23-.3.97-.76.88-.68-.13-.07-1.47.02-1.87.24-1-.83.58-.93.75-.35.6-.13.96-1.11,1.14l.51-2.44-.52-.06,1.41-.32Z"/>
    <path d="M81.86,80.37c-.16.73-.55,1.42-.51,2.19l.38-.26c.13.67-1.18,1.5-1.23.58-.01-.23.35-.78.07-.84-.21.71-1.02,1.54-1.78,1.14-.16-1.98,1.27-2.82,3.07-2.81ZM80.96,80.76c-.47-.07-.63.13-.88.47-.13.19-.83,1.6-.34,1.58.26,0,1.29-1.65,1.22-2.06Z"/>
    <path d="M112.75,80.37c-.16.74-.66,1.38-.51,2.19l.51-.19c-.49,1.12-1.75,1.41-1.22-.19-1.67,2.47-2.76.28-.97-1.23.67-.56,1.38-.39,2.19-.58ZM111.85,80.76c-.43-.08-.74.18-.95.53-.12.18-.71,1.54-.27,1.53.26,0,1.29-1.65,1.22-2.06Z"/>
    <path d="M102.19,65.19c-.08.18.07,1.03-.19,1.03-.09,0-.38-1.22-1.22-.71-1.01.61,1.21,1.36,1.47,1.75.56.85-.3,1.6-1.17,1.66-.16.01-1.16-.08-1.2-.12s-.04-1.11,0-1.16c.23-.29.42.62.51.72.32.36,1.28.41,1.29-.28.02-.83-1.83-.76-1.79-1.9s1.47-1,2.31-.98Z"/>
    <path d="M97.56,79.08c.09.4-.22.16-.39.34-.25.26-.96,3.02-.88,3.31.06.22.46.22.5.47h-2.06c-.08-.41.29-.16.5-.46.27-.37.86-3.01.66-3.31-.1-.15-.37-.15-.4-.35h2.06Z"/>
    <path d="M121.11,65.44c-.05-.05-.84.17-.94.25-.17.13-.06.48-.34.53v-1.16c1.06.21,2.28.21,3.34,0-.09.18.26,1.17-.06,1.16-.15,0-.18-.49-.32-.58-.11-.08-.9-.24-.9,0v2.32c0,.45.25.56.51.84h-1.8s0-.25,0-.26c.02-.02.51-.02.51-.19v-2.9Z"/>
    <path d="M92.16,65.44c-.74-.31-1.14.76-1.22.77-.25.02-.04-1.04,0-1.16.97.22,2.11.18,3.09.03.31.05.16.89.19,1.13-.29-.06-.2-.44-.39-.58-.17-.12-.67-.16-.9-.19v2.9c0,.18.5.17.51.19,0,0,.01.26,0,.26h-1.93c.07-.28.64-.21.64-.58v-2.77Z"/>
    <path d="M118.24,80.53c2.51-.58,1.06,3.17-.77,2.78-1.16-.25-.26-2.54.77-2.78ZM117.77,82.94c.77.23,1.3-2.06.83-2.18-.64-.17-.97,1.72-.83,2.18Z"/>
    <path d="M105.89,82.9c-.17.14-.83.43-1.05.43-1.72,0-.61-3.4,1.39-2.81.82.24.22,1.93-.34,2.38ZM105.8,80.76c-.77-.23-1.3,2.05-.83,2.19.67.2.94-1.74.83-2.19Z"/>
    <path d="M147.75,53.09c-.21.12-.6.12-.78-.06-.22-.23,0-.84-.45-.84-.23.39-.03.48.11.65.37.45-.79.19-1.07.25.51-.28.48-1.09.39-1.61-.07-.4-.58-.23-.26-.51.55-.15,1.93-.16,1.9.63-.01.37-.4.27-.34.51.05.22.29.45.24.73.16.08.15-.55.38-.26.01.02.02.33,0,.39,0,0-.12.12-.13.13ZM146.46,51.93c.59.06.57-.75.19-.77-.2,0-.23.62-.19.77Z"/>
    <path d="M146.17,50.16c3.08-.64,3.22,4.38,0,3.8-1.99-.36-1.94-3.4,0-3.8ZM147.75,53.09s.1-.08.13-.13c1.43-2.1-2-3.5-2.71-1.49-.61,1.74,1.34,2.88,2.58,1.61Z"/>
    <path d="M117.25,68.79c.02-.2.31-.21.39-.35.17-.28.2-2.45.06-2.75-.12-.26-.55-.13-.45-.51.65.13,1.15.13,1.8,0,.14.4-.51.23-.51.45v2.77c.71.01,1.24.13,1.67-.51-.01.11-.08.9-.13.9h-2.83Z"/>
    <path d="M109.64,80.52c.45.73-1.71,2.9-2.56,2.81.1-.7.39-1.4.26-2.13-.05-.26-.61-.4-.39-.57.06-.05,1.11-.09,1.29-.13l-.19,2.19c.23-.28,1.25-1.47.96-1.8-.06-.07-.46.15-.38-.19.28-.28.66-.37,1.01-.18Z"/>
    <path d="M114.8,79.73l-.26.9c.12.12.74-.37.64.06-.13.57-.64.17-.84.45-.05.06-.4,1.56-.25,1.55,1.33-1.04.48.5-.29.62-1.17.18-.32-1.72-.16-2.29l-.51-.06c.09-.49.46-.24.62-.34.11-.07.16-1.05,1.05-.88Z"/>
    <path d="M95.76,68.53c.08.08.53-.21.38.39-.38-.21-.81-.1-1.22-.13-.2-.01-.51.12-.45-.19.06-.13.29,0,.4-.14.17-.24.17-2.18.09-2.53-.11-.49-.51-.32-.49-.74.6.09,1.07.18,1.67,0,.14.34-.39.31-.39.45,0,.41-.1,2.79,0,2.9Z"/>
    <path d="M124.84,81.4c-.05-.52-.07-.75-.64-.64-.19.62.56.93.64,1.35.29,1.48-2.34,1.74-1.67.06.42.34.26,1.27,1.04.69.03-.77-.97-1.05-.73-1.85.27-.91,2.59-.69,1.36.39Z"/>
    <path d="M86.88,80.5c-.04.66-.48,1.2-.52,1.87-.02.43.32-.12.52.13-.33.31-.63,1.01-1.2.83-.67-.22.33-1.88.28-2.25-.03-.25-.62-.03-.49-.44l1.42-.13Z"/>
    <path d="M116.09,82.56l.52-.06c-2.25,2.49-.76-.95-.9-1.54-.04-.17-.51.11-.39-.32.3-.04.62-.04.92-.08.16-.02.48-.36.45.09-.03.55-.47,1.35-.59,1.92Z"/>
    <path d="M115.98,79.36c.21-.33,1.27-.02.63.56-.57.53-.82-.26-.63-.56Z"/>
    <path d="M86.46,79.23c.25-.06.53.17.54.42-.77,1.18-1.27-.24-.54-.42Z"/>
    <path d="M115.16,68.75c-.57.55-.85-.49-.41-.61.32-.09.72.32.41.61Z"/>
    <path d="M73.11,68.79c.02-.21.33-.17.39-.35.16-.54.2-2.15,0-2.68-.15-.39-.44-.2-.39-.57.8.24,1.59-.19,2.39.12s.82,1.55-.07,1.74c.25.37.44.85.76,1.17s.87.28.58.7c-.75-.02-.98-.18-1.47-.68-.04-.04-.22.01-.23-.03,0-.03.09-.19.04-.32-.12-.32-.28-.75-.71-.65.06.34-.09.92,0,1.21.04.16.5.05.52.34h-1.8ZM74.4,66.99c1.17.26,1.26-1.4.19-1.55-.26-.04-.17.02-.19.19-.06.41.04.93,0,1.35Z"/>
  </g>
  <path class="cls-1" d="M118.67,28.9c-.12.13-2.48.21-2.88.27-5.75.86-10.75,3.58-13.82,8.57-.23.38-1.09,2.27-1.2,2.35-.2.13-1.27-.82-1.09-1.15l5.87-9.58c1.31-1.8,4.5-5.21,6.88-5.21h1.87c0-.17-.38-.28-.52-.32-7.17-2.27-10.5,6.66-13.4,11.43-.2.33-1.57,2.5-1.72,2.53-.24.06-.8-.79-.94-1.01-3.39-5.05-6.57-15.21-14.4-12.92-.15.04-.54.11-.54.29h1.87c.25,0,1.56.45,1.87.58,5,2.14,7.83,9.93,10.88,14.1.28.38-.67,1.27-.9,1.25-.56-.83-.97-1.82-1.53-2.69-1.85-2.9-4.66-5.23-7.82-6.59-2.76-1.18-5.76-1.64-8.73-1.88v-13.7s.18-.19.19-.19h39.89s.19.18.19.19v13.7ZM97.22,31.43c.19.18.97.79,1.19.82.53.07,1.53-.8,1.85-1.22,2.91-3.79-1.27-8.92-1.67-12.93l-.55,2.22c-1.1,3.28-3.85,8.15-.82,11.12Z"/>
  <path class="cls-1" d="M78.39,31.66c.03-.11.2-.17.32-.19,1.26-.23,4.17.15,5.5.42,3.47.71,6.91,2.63,9.17,5.37.36.43,2.12,3,2.12,3.42,0,.37-1.07.93-1.45.81-.18-.05-1.51-1.39-1.83-1.65-3.29-2.61-7.11-3.64-11.32-3.35-.56.04-1.82.41-2.2.38-.12,0-.31-.11-.31-.19v-5.02Z"/>
  <path class="cls-1" d="M118.67,31.47v5.4c-4.26-.89-8.69-.39-12.39,1.95-.79.5-2.24,1.62-2.84,2.31-.23.26,0,.59-.89.34-.13-.04-.97-.61-.99-.69s.68-1.32.79-1.51c3.39-5.79,9.79-8.14,16.32-7.81Z"/>
  <path class="cls-1" d="M92.67,42.41c-.22.3-4.32,1.12-4.95,1.16-3.05.21-6.37-.25-9.28-1.16-.09-.13-.11-2.67-.04-2.88.08-.22.72-.3.96-.32,3.67-.4,10.19.32,13.09,2.84.09.08.33.2.21.36Z"/>
  <path class="cls-1" d="M118.65,42.53c-4.05,1.01-8.37,1.57-12.47.47-.29-.08-1.73-.47-1.67-.77s2.55-1.48,2.98-1.66c3.24-1.33,6.83-1.78,10.33-1.35.18.02.71.12.79.23.22.31-.03,2.54.04,3.08Z"/>
  <path class="cls-1" d="M98.72,49.36c-.25-.05-.23-.26-.26-.45-.28-1.75-.4-3.51-.81-5.24-.1-.42-.47-1.05-.49-1.45-.03-.66.97-1.25,1.38-1.72.17-.03,1.44,1.25,1.47,1.48-.73,2.39-1.29,4.88-1.29,7.39Z"/>
  <path class="cls-1" d="M96.4,42.54c.14.48,1.29,3.7,1.16,3.86-.2.24-.28-.18-.32-.25-.43-.74-.93-1.47-1.35-2.16-.5-.83-.55-1.11.51-1.45Z"/>
  <path class="cls-1" d="M99.75,46.4c-.23.03-.12-.28-.09-.42.11-.66.7-2.68,1.02-3.22.28-.47,1,.27.98.46-.04.4-1.83,2.47-1.91,3.17Z"/>
  <path class="cls-1" d="M118.67,71.75v2.19h-40.08c-.29,0-.29-2.19,0-2.19h40.08Z"/>
</svg>