<?xml version="1.0" encoding="UTF-8"?>
<svg id="Layer_1" data-name="Layer 1" xmlns="http://www.w3.org/2000/svg" viewBox="0 0 200 100">
  <defs>
    <style>
      .cls-1 {
        fill: #484948;
      }

      .cls-2 {
        fill: #a38a3c;
      }

      .cls-3 {
        fill: #d8dd23;
      }

      .cls-4 {
        fill: #ebe50c;
      }

      .cls-5 {
        fill: #040204;
      }

      .cls-6 {
        fill: #6c8dc3;
      }

      .cls-7 {
        fill: #d4dd1c;
      }

      .cls-8 {
        fill: #dadd25;
      }

      .cls-9 {
        fill: #fbb514;
      }

      .cls-10 {
        fill: #fefefe;
      }

      .cls-11 {
        fill: #fbd504;
      }

      .cls-12 {
        fill: #dade27;
      }

      .cls-13 {
        fill: #db852c;
      }
    </style>
  </defs>
  <g>
    <path class="cls-5" d="M144.86,46.59h-26.63c-.51,0-.18,2.35-.08,2.81,1.49,7.29,10.14,10.01,15,4.49.32-.37,1.02-1.83,1.21-1.83h9.89c-.99,7.07-8.22,12.19-15.07,12.76-15.2,1.25-22.88-9.91-21.15-24.15,1.56-12.78,11.93-20.14,24.59-16.34,9.75,2.92,12.95,12.94,12.24,22.27Z"/>
    <path class="cls-5" d="M188.35,41.01c-1.1-11.93-10.51-18.82-22.24-17.72-23.97,2.24-23.25,39.83-.1,41.55,15.34,1.14,23.71-8.93,22.34-23.83ZM166.65,56.58c-10.92-1.28-10.21-23.24-.88-24.81,6.9-1.16,11.39,2.07,12.17,8.98.94,8.37-.98,17.05-11.3,15.84Z"/>
    <path class="cls-5" d="M105.59,25.02v10.33h-5.63c-1.19,0-3.93,1.58-4.72,2.58-.87,1.09-2.13,4.45-2.13,5.77v21.12h-10.04V26.38s.42-.46.46-.46h8.52s.46.42.46.46v5.93c.41,0,.59.11.93-.2.63-.58,1.69-2.82,2.57-3.75,2.49-2.66,6.04-3.42,9.59-3.34Z"/>
    <path class="cls-5" d="M77.89,64.82h-10.35V26.38s.42-.46.46-.46h9.44s.46.42.46.46v38.44Z"/>
    <path class="cls-13" d="M53.77,50.31c7.3-1.22,10.12,9.61,4.25,13.35-5.49,3.5-12.25-1.9-10.1-7.95.75-2.1,3.59-5.02,5.85-5.4Z"/>
    <path class="cls-9" d="M59.82,42.23c-.88,1.74-3.9,3.56-5.86,3.73-3.18.27-5.35-2.13-5.3-5.28.08-4.75,6.47-13.8,10.61-7.86,1.86,2.67,2,6.54.54,9.41Z"/>
    <path class="cls-2" d="M37.96,52.74c2.85-.15,5.06,1.83,5.25,4.63.44,6.47-7.28,9.81-12.03,5.63-4.84-4.25,2.32-10.02,6.78-10.26Z"/>
    <path class="cls-11" d="M58.6,23.99c-.2.34-1.43,1.78-1.79,2.03-6.85,4.56-6.63-4.14-4.94-8.59,1.36-3.56,5.1-9.31,7.6-3.04,1.29,3.22.87,6.63-.87,9.61Z"/>
    <path class="cls-5" d="M88.55,76.67c-.09,1.81.07,3.66,0,5.47h-3.05v-10.03h4.72c.7.46,1.26,5.12,1.52,5.17.59.1.74-.02,1-.52.59-1.14.48-3.56,1.44-4.64h4.72v10.03h-3.35v-5.17c-.78-.13-.55.12-.75.61-.32.79-.93,4.38-1.09,4.54-.1.1-2.55.09-2.83.03-.35-.08-1.2-4.46-1.72-5.48-.49,0-.46-.67-.38-.55.13.19.05.53-.23.55Z"/>
    <path class="cls-11" d="M19.69,55.18c8.73-.92,6.94,9.16-.68,9.62-2.76.17-7.67-.42-7.5-4.09.14-3.14,5.46-5.24,8.18-5.53Z"/>
    <path class="cls-7" d="M44.32,37.26c4.45,4.11-5.85,15.61-10.54,11.28-2.16-1.99.2-5.36,1.65-7.13,1.54-1.87,6.53-6.34,8.89-4.16Z"/>
    <rect class="cls-5" x="67.54" y="11.95" width="10.35" height="9.12"/>
    <path class="cls-5" d="M59.02,76.97c2.46-2.27,1.05-4.49-1.98-4.86-2.21-.27-4.89.2-7.16,0v9.87s.43.46.46.46h6.39c.1,0,1.77-.38,1.98-.45,2.66-.91,3.1-4.05.3-5.02ZM53.54,74.24c4.28-.41,4.73,2.45,0,1.83v-1.83ZM53.54,80.32v-2.43c5.01-.71,4.9,3.09,0,2.43Z"/>
    <path class="cls-5" d="M184.43,77.43c2.87-.84,2.3-4.83-.46-5.32-1.9-.34-5.75,0-7.91,0-.03,0-.46.42-.46.46v9.12c0,.7,2.74.41,3.35.46.12-2.33-.88-4.11,2.3-3.66,2.32.32,1.38,3.37,1.66,3.66.13.13,3.08-.1,3.66,0-.58-1.91.06-3.68-2.13-4.71ZM182.88,76.04c-.3.44-2.96.32-3.63.33v-2.13c.92-.33,4.79.07,3.63,1.8Z"/>
    <path class="cls-5" d="M31.32,81.99c-.24.78-2.61.36-3.35.46.08-3.79.72-4.71-3.65-4.26-.29,1.49.86,4.03-1.05,4.27-1.26.16-2.45.31-2.62-1.06-.12-.98-.11-8.63.15-9,.41-.59,2.72-.16,3.52-.29v3.95c4.09.36,3.82-.17,3.65-3.95h3.35v9.88Z"/>
    <path class="cls-4" d="M47.38,20.23c1.95,1.95-.95,7.99-2.27,9.87-1.08,1.53-6.55,6.16-7.34,2.59-.41-1.85,2.14-6.52,3.28-8.14.71-1.01,3.97-4.58,5.05-4.7.35-.04,1.03.12,1.28.37Z"/>
    <path class="cls-5" d="M42.89,72.11c-.09.46.15,1.91-.02,2.11-.33.38-5.86-.05-6.08.16-.46.43-.27,1.13-.29,1.68h5.48v2.13h-5.48v1.82h6.39v2.43h-9.59s-.46-.42-.46-.46v-9.88h10.04Z"/>
    <path class="cls-5" d="M78.81,81.99c-.16.51-1.46.58-1.92.46-.35-.09-.35-.83-.68-.91s-1.45.77-2.13.88c-6.21,1-9.65-5.99-5.11-9.36,2.41-1.79,9.15-1.58,9.54,2.39-.95-.11-2.24.21-3.13-.06-.68-.2-1.1-1.4-2.21-1.46-3.4-.19-3.37,5.88-.88,6.37,1.02.2,2.74.04,3.19-1.06.34-.84-1.35-.29-1.52-.45-.1-.1.07-1.71,0-2.13h4.87c-.26,1.36.36,4.18,0,5.32Z"/>
    <path class="cls-5" d="M103.77,72.11v6.53c0,1.88,3.96,1.98,3.96.61v-7.14h3.65v6.84c0,3.87-8.83,4.77-10.42,1.29-.09-.19-.54-1.8-.54-1.9v-6.23h3.35Z"/>
    <path class="cls-5" d="M174.38,72.11v2.13h-6.7c-.08.43,0,1.82.46,1.82h5.33v1.82h-5.78c-.05.43-.08,2.13.46,2.13h6.24v2.13h-10.04v-10.03h10.04Z"/>
    <path class="cls-5" d="M145.62,72.11c-2.12-.38-5.22.28-7.46,0v10.03h3.35c-.51-4.85,1.03-2.8,4.04-3.41,3.86-.78,3.47-6.01.07-6.62ZM144.48,76.29c-.67.64-2.91.84-2.99-.68-.16-2.87,4.78-1.03,2.99.68Z"/>
    <path class="cls-5" d="M19.76,72.11v2.43s-3.65,0-3.65,0v7.44c0,.68-3.65.68-3.65,0v-7.44h-3.96s0-2.43,0-2.43h11.26Z"/>
    <path class="cls-6" d="M33.98,28.72c1.48-.26,1.41.7,1.27,1.89-.3,2.63-3.9,6.53-6.16,7.84-1.01.58-3.95,2.05-3.86-.17.1-2.44,6.32-9.13,8.75-9.55Z"/>
    <path class="cls-5" d="M131.77,72.11v2.13s-3.96,0-3.96,0v7.9h-3.35v-7.44c0-.74-3.27-.38-3.96-.45v-2.13h11.26Z"/>
    <path class="cls-5" d="M152.77,72.11v7.14c0,.1.4.46.3.76h4.87v2.13h-8.52v-10.03h3.35Z"/>
    <path class="cls-5" d="M116.25,72.11v7.44s.42.46.46.46h4.72v2.13h-8.52v-10.03h3.35Z"/>
    <path class="cls-5" d="M65.72,72.11v9.88c0,.68-3.65.68-3.65,0v-9.88h3.65Z"/>
    <rect class="cls-5" x="132.68" y="72.11" width="3.65" height="10.03"/>
    <rect class="cls-5" x="159.16" y="72.11" width="3.35" height="10.03"/>
    <path class="cls-1" d="M89.16,76.67h-.61c.02-.3-.01-.61,0-.91.57.05.46.63.61.91Z"/>
    <path class="cls-10" d="M134.51,40.21h-16.44c.15-11.58,16.6-11.53,16.44,0Z"/>
    <path class="cls-3" d="M42.64,40.72c.19.11.6-.27.85.25-.03.44-2.32,1.78-2.43,1.67-.29-.31.04-.82.46-1.05.07-.04.36.15.4.1.16-.22.2-1.11.35-1.47.49-.13.21.43.36.51Z"/>
    <path class="cls-8" d="M40.45,41.42c-.06.08-.8-.73-1.21-.3-.27-1.37,1.68-.27,1.21.3Z"/>
    <path class="cls-8" d="M39.54,44.16c-.18.39-.74-1.1-.6-1.52.18-.39.74,1.1.6,1.52Z"/>
    <path class="cls-12" d="M38.02,44.46c-.58-.15-.69-.67-.6-1.21.15-.31.73.82.6,1.21Z"/>
  </g>
  <g>
    <path d="M186.73,25.5v-4.45h1.97c.4,0,.7.04.9.12s.37.22.49.42.19.43.19.67c0,.32-.1.58-.31.8s-.52.35-.95.41c.16.07.27.15.35.22.17.16.33.35.49.59l.77,1.21h-.74l-.59-.93c-.17-.27-.31-.47-.42-.61s-.21-.24-.3-.3-.18-.1-.27-.12c-.07-.01-.18-.02-.33-.02h-.68v1.97h-.59ZM187.32,23.01h1.27c.27,0,.48-.03.63-.08s.27-.14.35-.27.12-.26.12-.4c0-.21-.08-.38-.23-.52s-.39-.2-.72-.2h-1.41v1.47Z"/>
    <path d="M188.48,27.73c-2.43,0-4.4-1.97-4.4-4.4s1.97-4.4,4.4-4.4,4.4,1.97,4.4,4.4-1.97,4.4-4.4,4.4ZM188.48,19.44c-2.14,0-3.88,1.74-3.88,3.88s1.74,3.88,3.88,3.88,3.88-1.74,3.88-3.88-1.74-3.88-3.88-3.88Z"/>
  </g>
</svg>