<?xml version="1.0" encoding="UTF-8"?>
<svg id="Layer_1" data-name="Layer 1" xmlns="http://www.w3.org/2000/svg" viewBox="0 0 200 100">
  <defs>
    <style>
      .cls-1 {
        fill: #2e6ab1;
      }
    </style>
  </defs>
  <polygon class="cls-1" points="40.28 37.94 36.77 45.99 55.43 46.11 59.28 37.94 79.19 37.94 68.41 61.93 48.45 61.98 52.76 52.46 33.87 52.46 29.72 61.97 10 62.1 20.83 37.94 40.28 37.94"/>
  <path class="cls-1" d="M137.37,54.04c-5.01,5.5-13.23,7.29-20.37,8.15-9.06,1.09-21.48,1.26-30.24-1.38-11.7-3.53-10.64-12.28-.89-17.61,12.21-6.66,29.87-7.17,43.37-5.03,3.98.63,9.74,1.91,11.36,6.11.1.27.68,2.04.23,2.04h-18.37c-.06,0-.74-.77-.91-.9-4.26-3.34-14.22-2.4-18.65.4-3.46,2.19-7.53,8.06-1.63,10.12,4.82,1.67,11.5,1.2,15.98-1.2.21-.11.94-.7,1-.7h19.11Z"/>
  <polygon class="cls-1" points="170.49 37.94 162.33 56.2 190 56.2 187.39 62.1 139.53 62.1 150.36 37.94 170.49 37.94"/>
</svg>