<?xml version="1.0" encoding="UTF-8"?>
<svg id="Layer_1" data-name="Layer 1" xmlns="http://www.w3.org/2000/svg" viewBox="0 0 200 100">
  <defs>
    <style>
      .cls-1 {
        fill: #9fa1a4;
      }

      .cls-2 {
        fill: #231f20;
      }

      .cls-3 {
        fill: #ffd200;
      }

      .cls-4 {
        fill: #fff;
      }
    </style>
  </defs>
  <g>
    <path class="cls-3" d="M62.17,84.66c-19.11,0-34.67-15.55-34.67-34.66S43.06,15.34,62.17,15.34s34.67,15.55,34.67,34.66-15.55,34.66-34.67,34.66"/>
    <path class="cls-2" d="M62.17,11.43c-21.3,0-38.57,17.27-38.57,38.57s17.27,38.57,38.57,38.57,38.57-17.27,38.57-38.57S83.47,11.43,62.17,11.43M62.17,84.66c-19.11,0-34.67-15.55-34.67-34.66S43.06,15.34,62.17,15.34s34.67,15.55,34.67,34.66-15.55,34.66-34.67,34.66"/>
    <path class="cls-2" d="M86.64,55.38c1.66-2.53,1.85-7.45,1.47-9.09-.07-.01-4.88-2.64-15.9-6.33,1.16-.53,2.15-1.57,2.18-1.61-.15-.35-3.43-2.54-5.02-2.99,2.42-1.56,6.63-6.09,7.46-7.01-2.57-1.17-5.91-1.5-6.82-1.53,1.94-1.53,5.64-3.99,7.16-4.4-.05-.05-2.18-1.11-5.59-1.19-5.17-.12-7.92,1.02-11.72,2.97-.02,0,1.45-3.82,1.68-4.52-1.3.66-2.78,1.5-3.93,2.4-2.39,1.84-4.61,3.38-6.41,5.73-1.28,1.63-.98,3.58-.75,4.13.33.93.77,1.89.96,2.85.37,1.83.15,1.89.03,1.91-1.37.25-2.52,1.2-3.5,2.4-1.14,1.47-1.77,3.12-2.27,4.9-.4-.15-2.01-.79-4.74-.79-4.96,0-6.79,3.39-7.12,4.29-1.4,3.9.7,9.09.7,9.09,0,0,.21,3.78,1.03,6.03.28.86,1.76,1.02,2.71,1.08,2.46.11,2.26,3.48,1.61,5.28,0,.02,3.32-.57,3.62-3.87,0-.02,1.49.94,1.97,1.79.01,0,1.53-1.69.89-3.91,2.43,2.92,2.92,8.27,2.97,8.26.62-.47,1.64-1.72,1.64-1.72,0,0-.4,2.88-1.07,2.99-.67.11-1.43.24-1.43.24l-2.22,2.8h6.48c.06-1.56,1-4.95,1.42-5.99.52.64,1.71,1.55,1.74,1.59.06-.08-.07-1.85,1.7-5.94.79,1.24,1.37,2.02,1.4,2.01,4.77-.98,15.42-7.65,15.53-7.75.25.33,2.98,4.46,6.81,5.82-.87,2.73-5.53,7.13-6,7.24-.1.02-1.35.25-1.35.25l-2.22,2.78h6.84c.5-3.28,6.05-7.21,7.51-10.11.33-.51-.01-1.01-.06-1.12-.9-1.23-1.13-1.9-1.03-3.5-.06-2.04.81-3.77,1.64-5.45"/>
    <path class="cls-4" d="M38.68,54.48c-.87.03-1.69.48-2.07,1.27v.49l2.35-.81.4-.81c-.19-.12-.44-.14-.68-.14"/>
    <path class="cls-1" d="M58.69,62.83c.71,1.13,1.24,1.83,1.27,1.83,4.33-.89,12.1-5.76,12.2-5.85l-13.48,4.02Z"/>
    <path class="cls-1" d="M64.1,35.82l-2.82,1.86s4.14-.17,9.03,1.02c0,0-2.38-2.19-6.21-2.88"/>
    <path class="cls-4" d="M72.23,29.48c-6.96.33-9.9,2.22-9.9,2.22l2.1-2.53c1.32-1.73,3.5-3.94,6.88-6.1-12.71,5.1-15.33,8.79-15.33,8.79l.68-3.11c.08-.56.84-3.26.97-3.92-4.18,3.41-5.32,5.59-4.83,7.26.33,1.12,1.54,3.64,1.58,5.37.05,1.99-.65,3.75-1.23,6.02,0,0,7.35,2.38,11.29,1.43,0,0-1.73-1.37-1.77-2.14,5.02-1.41,7.57-4.11,7.61-4.07,0,0,0,0,0,0-4.89-1.19-9.03-1.02-9.03-1.02l2.82-1.86h0s0,0,0,0c2.75-2.1,5.93-3.53,8.14-6.33"/>
    <path class="cls-1" d="M56.67,28.74c4.75-2.96,8.79-4.38,11.42-5.07,2.04-.53,3.23-.61,3.23-.61-12.71,5.1-15.33,8.79-15.33,8.79l.68-3.11Z"/>
    <path class="cls-1" d="M64.44,29.16s4.21-.45,7.8.32c-6.96.33-9.9,2.22-9.9,2.22l2.1-2.54"/>
    <path class="cls-4" d="M39.97,51.58c1.35-.56,2.52-2.64,2.91-4.62-.02-1.37-.24-2.42-.24-2.42.02.22-.66,5.43-4.54,5.58-.91.03-1.26.21-1.39,1.27-.02.13-.01.27,0,.4h0s0,0,0,0c.94.21,1.99.31,3.25-.22"/>
    <path class="cls-1" d="M37.7,53.04s3.26.45,4.33-1.63c.93-1.69.85-4.22.85-4.43h0c-.39,1.98-1.56,4.06-2.91,4.61-1.26.52-2.31.42-3.25.22h0c0,.08.13,1.01.98,1.24"/>
  </g>
  <g>
    <polygon class="cls-1" points="114.3 78.93 115.09 78.93 115.73 82.47 115.75 82.47 116.28 78.93 117.17 78.93 116.19 84.49 115.39 84.49 114.7 80.82 114.69 80.82 114.04 84.49 113.24 84.49 112.18 78.93 113.08 78.93 113.66 82.47 113.68 82.47 114.3 78.93"/>
    <rect class="cls-1" x="117.92" y="78.93" width=".95" height="5.56"/>
    <polygon class="cls-1" points="119.93 84.49 119.93 78.93 120.81 78.93 121.98 82.11 121.99 82.11 121.99 78.93 122.85 78.93 122.85 84.49 122.02 84.49 120.8 81.02 120.79 81.02 120.79 84.49 119.93 84.49"/>
    <path class="cls-1" d="M125.1,81.67h1.56v2.82h-.46l-.18-.42c-.28.34-.52.49-.96.49-.75,0-1.28-.54-1.28-1.42v-2.87c0-.79.46-1.42,1.4-1.42s1.43.69,1.43,1.52v.35h-.91c0-.83-.17-1.05-.55-1.05-.23,0-.42.14-.42.61v2.86c0,.35.12.58.45.58.39,0,.52-.21.52-.77v-.54h-.61v-.76Z"/>
    <path class="cls-1" d="M129.37,80.3c-.04-.48-.29-.62-.51-.62-.31,0-.48.2-.48.54,0,.95,1.94,1.4,1.94,2.91,0,.92-.62,1.42-1.51,1.42s-1.39-.71-1.43-1.54l.91-.13c.04.56.26.84.57.84.33,0,.55-.18.55-.51,0-1.1-1.94-1.39-1.94-2.99,0-.89.54-1.39,1.48-1.39.78,0,1.24.56,1.33,1.35l-.91.1Z"/>
    <rect class="cls-1" x="130.99" y="83.58" width=".91" height=".91"/>
    <path class="cls-1" d="M134.48,78.93h1.42c1.02,0,1.48.52,1.48,1.47,0,.48-.2.98-.66,1.16.48.22.77.6.77,1.32,0,.92-.41,1.61-1.5,1.61h-1.51v-5.56ZM135.43,81.21h.35c.36,0,.64-.25.64-.71,0-.52-.2-.79-.62-.79h-.36v1.49ZM135.43,83.71h.4c.51,0,.69-.29.69-.85s-.21-.86-.79-.86h-.31v1.71Z"/>
    <polygon class="cls-1" points="138.33 84.49 138.33 78.93 140.89 78.93 140.89 79.76 139.29 79.76 139.29 81.2 140.52 81.2 140.52 82.03 139.29 82.03 139.29 83.66 141 83.66 141 84.49 138.33 84.49"/>
    <polygon class="cls-1" points="141.75 84.49 141.75 78.93 144.31 78.93 144.31 79.76 142.71 79.76 142.71 81.2 143.94 81.2 143.94 82.03 142.71 82.03 142.71 83.66 144.42 83.66 144.42 84.49 141.75 84.49"/>
    <path class="cls-1" d="M146.13,84.49h-.96v-5.56h1.34c1.07,0,1.62.45,1.62,1.64,0,.89-.35,1.25-.67,1.4l.81,2.52h-.97l-.68-2.3c-.12.02-.32.02-.49.02v2.28ZM146.13,81.43h.34c.52,0,.71-.19.71-.85s-.19-.86-.71-.86h-.34v1.71Z"/>
    <rect class="cls-1" x="148.96" y="83.58" width=".91" height=".91"/>
    <path class="cls-1" d="M154.19,80.3c-.04-.48-.29-.62-.51-.62-.31,0-.48.2-.48.54,0,.95,1.94,1.4,1.94,2.91,0,.92-.62,1.42-1.51,1.42s-1.39-.71-1.43-1.54l.91-.13c.04.56.26.84.57.84.33,0,.55-.18.55-.51,0-1.1-1.94-1.39-1.94-2.99,0-.89.54-1.39,1.48-1.39.78,0,1.24.56,1.32,1.35l-.91.1Z"/>
    <path class="cls-1" d="M155.87,84.49v-5.56h1.37c1.18,0,1.73.45,1.73,1.64s-.55,1.64-1.73,1.64h-.42v2.28h-.95ZM156.82,81.43h.37c.62,0,.82-.19.82-.85s-.19-.86-.82-.86h-.37v1.71Z"/>
    <path class="cls-1" d="M159.72,80.28c0-.79.46-1.42,1.46-1.42s1.46.64,1.46,1.42v2.87c0,.79-.46,1.42-1.46,1.42s-1.46-.64-1.46-1.42v-2.87ZM160.68,83.12c0,.42.12.61.51.61s.51-.2.51-.61v-2.82c0-.42-.12-.62-.51-.62s-.51.2-.51.62v2.82Z"/>
    <path class="cls-1" d="M164.53,84.49h-.95v-5.56h1.34c1.07,0,1.62.45,1.62,1.64,0,.89-.35,1.25-.67,1.4l.81,2.52h-.97l-.68-2.3c-.12.02-.32.02-.49.02v2.28ZM164.53,81.43h.34c.52,0,.71-.19.71-.85s-.19-.86-.71-.86h-.34v1.71Z"/>
    <polygon class="cls-1" points="167.98 79.76 167.06 79.76 167.06 78.93 169.86 78.93 169.86 79.76 168.94 79.76 168.94 84.49 167.98 84.49 167.98 79.76"/>
    <path class="cls-1" d="M172.17,80.3c-.04-.48-.29-.62-.51-.62-.31,0-.48.2-.48.54,0,.95,1.94,1.4,1.94,2.91,0,.92-.62,1.42-1.51,1.42s-1.39-.71-1.43-1.54l.91-.13c.04.56.26.84.57.84.33,0,.55-.18.55-.51,0-1.1-1.94-1.39-1.94-2.99,0-.89.54-1.39,1.48-1.39.78,0,1.24.56,1.32,1.35l-.91.1Z"/>
    <rect class="cls-1" x="173.79" y="83.58" width=".91" height=".91"/>
  </g>
  <g>
    <g>
      <path class="cls-2" d="M112.47,32.6h.32c.91,0,1.24-.37,1.24-1.32s-.32-1.29-1.24-1.29h-.32v2.62ZM112.47,27.82h.25c.83,0,1.25-.18,1.25-1.08s-.46-1.08-1.25-1.08h-.25v2.17ZM108.71,35.15v-9.5l-1.49-2.55h6.47c.94,0,2-.01,2.81.49.9.55,1.2,1.56,1.2,2.56,0,1.38-.55,2.32-1.9,2.7v.03c1.55.2,2.08,1.43,2.08,2.84,0,.98-.22,2.08-1.01,2.71-.86.7-1.95.72-3.01.72h-5.15Z"/>
      <path class="cls-2" d="M163.09,29.3v1.95c0,.76.01,1.34-.94,1.34h-.37v-9.49h-4.5l.75,2.55v9.5h8.37v-5.85h-3.3Z"/>
      <path class="cls-2" d="M171.16,31.65c0,.08-.04.94.73.94s.73-.86.73-.94v-5.26c0-.08.04-.73-.73-.73s-.73.84-.73.93v5.06ZM176.38,31.67c0,2.98-1.83,3.73-4.49,3.73s-4.49-.74-4.49-3.73v-5.08c0-2.98,1.83-3.73,4.49-3.73s4.49.75,4.49,3.73v5.08Z"/>
      <path class="cls-2" d="M147.18,27.25v-4.15h-9.03s.75,2.56.75,2.56v9.49h0s0,0,0,0h3.74v-4.55h2.39v-2.65h-2.39v-2.29c.72-.06,1.03.07,1.17.34.15.27.11.69.11,1.25h3.25Z"/>
      <path class="cls-2" d="M137.43,27.25v-4.15h-9.03s.75,2.56.75,2.56v9.49h0s0,0,0,0h3.74v-4.55h2.39v-2.65h-2.39v-2.29c.72-.06,1.03.07,1.17.34.16.27.11.69.11,1.25h3.25Z"/>
      <path class="cls-2" d="M123.99,23.1v8.63c0,.24-.06.86-.75.86s-.74-.62-.74-.86v-8.63h-4.5l.75,2.55v5.64c.03,1.28.13,2.29,1.15,3.19.89.77,2.26.9,3.35.9s2.46-.13,3.35-.9c1.03-.9,1.13-1.91,1.15-3.19v-8.2h-3.75Z"/>
      <path class="cls-2" d="M151.38,29.66l.62-3.99h.05l.62,3.99h-1.29ZM154.98,23.1h-7.1l.75,2.55-1.64,9.5h3.44l.42-2.56h2.31l.46,2.56h3.44l-2.09-12.05Z"/>
    </g>
    <g>
      <path class="cls-2" d="M153.35,47.34v3.38c0,1.31.02,2.31-1.63,2.31h-.63v-16.42h-7.79l1.29,4.42v16.43h14.48v-10.12h-5.72Z"/>
      <polygon class="cls-2" points="135.87 41.04 134.58 36.61 142.37 36.61 142.37 57.47 135.87 57.47 135.87 41.04"/>
      <path class="cls-2" d="M167.49,53.06h.51c1.41,0,1.85-.51,1.85-2.02v-7.86c0-1.51-.44-2.14-1.85-2.14h-.51v12.02ZM169.17,36.61c1.78,0,3.82.03,5.31,1.17,1.7,1.34,1.87,3.24,1.87,5.23v7.81c0,2.04-.1,3.63-1.68,5.11-1.48,1.41-3.33,1.53-5.3,1.53h-8.37v-16.43l-1.29-4.42h9.47Z"/>
      <polygon class="cls-2" points="126.94 36.61 125.54 47.35 125.49 47.35 124.08 36.61 119.51 36.61 118.1 47.35 118.05 47.35 116.65 36.61 107.22 36.61 110.61 41.04 113.62 57.47 119.75 57.47 121.77 50.23 121.82 50.23 123.84 57.47 129.97 57.47 133.79 36.61 126.94 36.61"/>
    </g>
    <g>
      <polygon class="cls-2" points="122.94 58.93 121.82 67.48 121.78 67.48 120.65 58.93 117.01 58.93 115.89 67.48 115.85 67.48 114.73 58.93 107.22 58.93 109.92 62.45 112.32 75.54 117.2 75.54 118.81 69.78 118.85 69.78 120.46 75.54 125.35 75.54 128.39 58.93 122.94 58.93"/>
      <polygon class="cls-2" points="129.97 62.45 128.94 58.93 135.14 58.93 135.14 75.53 129.97 75.53 129.97 62.45"/>
      <polygon class="cls-2" points="144.77 66.42 144.81 66.42 144.81 58.93 149 58.93 149 75.53 143.98 75.53 140.9 68.07 140.86 68.07 140.86 75.53 136.83 75.53 136.83 62.45 135.8 58.93 141.89 58.93 144.77 66.42"/>
      <path class="cls-2" d="M162.54,64.7h-4.98v-.37c0-.73.16-1.88-.99-1.88-.97,0-1.05.91-1.05,1.63v6.84c0,.17.08,1.08,1.05,1.08,1.14,0,.99-1.14.99-1.9v-.97l-1.03-3.52h6.01v8.45c-1.63,1.47-4.09,1.8-6.2,1.8-1.49,0-3.2-.12-4.38-1.11-1.53-1.3-1.61-2.81-1.61-4.63v-6.32c0-1.47.17-2.91,1.38-3.91,1.2-1.03,2.85-1.3,4.38-1.3,2.27,0,4.61.52,6.43,1.92v4.19Z"/>
      <path class="cls-2" d="M171.04,64.22c0-.74-.02-1.76-1.03-1.76-.66,0-1.01.21-1.01.83,0,.33.04.66.31.93.29.31,1.03.54,1.45.66,1.24.33,2.91.78,3.95,1.47.6.41,1.05.89,1.28,1.59.27.72.39,1.51.39,2.29v.08c0,3.2-1.41,5.56-6.35,5.56-2.11,0-4.34-.41-6.03-1.75v-4.45h5.06c0,.99-.02,1.45.15,1.8.18.33.54.54.93.54.7,0,1.01-.4,1.01-1.01,0-1.7-1.07-1.84-2.5-2.19-3.14-.77-4.9-1.53-4.9-5.11v-.37c.08-1.78.37-2.67,1.72-3.7,1.1-.83,2.71-1.03,4.26-1.03,2.25,0,4.24.45,6.12,1.74v3.91h-4.83v-.04Z"/>
    </g>
  </g>
</svg>