<?xml version="1.0" encoding="UTF-8"?>
<svg id="Layer_1" data-name="Layer 1" xmlns="http://www.w3.org/2000/svg" viewBox="0 0 200 100">
  <defs>
    <style>
      .cls-1, .cls-2 {
        fill: #bc2e31;
      }

      .cls-1, .cls-3 {
        fill-rule: evenodd;
      }

      .cls-4, .cls-3 {
        fill: #727376;
      }

      .cls-5 {
        fill: #606062;
      }
    </style>
  </defs>
  <polygon class="cls-3" points="85.56 58.49 61.83 58.49 61.83 58.32 61.83 35.68 85.56 35.68 85.56 58.49"/>
  <rect class="cls-2" x="61.83" y="9.56" width="23.73" height="22.81"/>
  <polygon class="cls-1" points="111.14 56.88 88.98 35.68 111.14 35.68 111.14 56.88"/>
  <polygon class="cls-3" points="88.86 11.04 111.14 32.34 111.14 32.37 88.86 32.37 88.86 11.04"/>
  <rect class="cls-4" x="114.44" y="35.68" width="23.73" height="22.81"/>
  <rect class="cls-2" x="114.44" y="9.56" width="23.73" height="22.81"/>
  <path class="cls-5" d="M167.37,90.44h-6.31l10.48-18.78h7.71l10.25,18.78h-6.29l-1.77-3.41h-11.05l1.94-3.89h7.11l-4.06-7.89c-2.66,5.08-5.29,10.15-8.01,15.18"/>
  <polygon class="cls-5" points="144.93 78.73 152.67 71.66 160.56 71.66 149.81 80.95 161.74 90.44 153.35 90.44 144.93 83.29 142 83.29 142 90.44 136.29 90.44 136.29 71.66 142 71.66 142 78.73 144.93 78.73"/>
  <rect class="cls-5" x="128.04" y="71.66" width="5.71" height="18.78"/>
  <path class="cls-5" d="M119.43,71.66c2.25,0,3.86.44,4.83,1.31.97.87,1.45,2.42,1.45,4.63,0,.85-.05,1.57-.14,2.17s-.28,1.12-.56,1.56c-.28.44-.61.77-.99.99-.38.21-1.16.52-2.36.92,1.32.17,2.28.5,2.9,1,.62.5.93,1.37.93,2.6v3.6h-5.8v-1.8c0-.92-.08-1.65-.24-2.2-.16-.54-.91-.82-2.24-.82h-9.54v4.81h-5.72v-18.78h17.49ZM117.03,81.07c1.3,0,2.1-.16,2.42-.48.32-.32.48-1.03.48-2.14,0-.62-.06-1.08-.18-1.38-.12-.3-.38-.51-.76-.62-.38-.11-.7-.18-.94-.2-.24-.02-.54-.03-.87-.03h-9.52v8.88s3.36-4.04,3.36-4.04h6.02Z"/>
  <path class="cls-5" d="M78.8,90.44h-6.31l10.47-18.78h7.72l10.25,18.78h-6.29l-1.77-3.41h-10.87l1.94-3.89h6.93l-4.06-7.89c-2.66,5.08-5.29,10.15-8.01,15.18"/>
  <polygon class="cls-5" points="71.45 71.66 71.45 90.44 65.71 90.44 65.71 83.21 52.76 83.21 52.76 90.44 47.04 90.44 47.04 71.66 52.76 71.66 52.72 82.81 56.03 78.53 65.71 78.53 65.71 71.66 71.45 71.66"/>
  <rect class="cls-5" x="38.82" y="71.66" width="5.72" height="18.78"/>
  <polygon class="cls-5" points="27.2 90.44 15.88 76.34 15.88 90.44 10.5 90.44 10.5 71.66 19.59 71.66 30.91 85.74 30.91 71.66 36.29 71.66 36.29 90.44 27.2 90.44"/>
</svg>