<?xml version="1.0" encoding="UTF-8"?>
<svg id="Layer_1" data-name="Layer 1" xmlns="http://www.w3.org/2000/svg" viewBox="0 0 200 100">
  <defs>
    <style>
      .cls-1 {
        fill: #444343;
      }

      .cls-2 {
        fill: #e12227;
      }

      .cls-3 {
        fill: #5c5c5c;
      }

      .cls-4 {
        fill: #fff;
      }
    </style>
  </defs>
  <g>
    <path class="cls-3" d="M66.15,24.6c0,.36-.01.74,0,1.09,0,.52.06.46.34.74,1.85,1.77,3.6,3.66,5.4,5.48,1.89,1.91,3.86,3.77,5.68,5.74,2.15,2.33,4.55,4.45,6.7,6.79,2.13,2.3,4.43,4.46,6.6,6.72.14.14.12.09.28.27,1.44,1.66,3.09,3.14,4.65,4.7.38.38.69.7,1.08,1.08.21.2.31.35.51.57.01.01.03.03.04.05.01.01.04.03.05.05.01.01.03.03.04.05l.68.67c2.1,2.15,1.66,2.52,3.22.96l7.33-7.42c2.84-2.84,5.57-5.66,8.41-8.5.71-.71,1.44-1.38,2.12-2.11l.98-1.08c1.76-1.75,3.64-3.49,5.3-5.32.01-.01.03-.03.05-.05l.49-.5c.56-.59,7.77-7.67,7.77-8.06v-.9h-22.93c0,1.02.51.99,1.24,1.73.3.3,1.2,1.03,1.28,1.33-.41.11-.56.43-.82.7-1.42,1.42-2.71,3.01-4.25,4.3-.01.01-.04.03-.05.04s-.03.03-.05.04c-.02.02-.08.07-.1.08-1.28,1.09-4.46,4.47-6.2,6.12l-.31.32c-.38.38-1.02.73-1.15,1.27-.27-.18-4.12-4.22-4.14-4.23-1.1-1.26-2.41-2.33-3.51-3.59-.09-.1-.1-.12-.21-.25-.9-1.06-1.99-1.97-2.92-3.02-.6-.68-1.31-1.28-1.92-1.95-.01-.01-.03-.03-.04-.05-.21-.23-.39-.33-.58-.59.3-.41,1.27-1.08,1.69-1.46.18-.16.22-.16.4-.32.18-.17.23-.23.43-.38l1.69-1.45c.45-.36.38-.45,1.18-.44,5.31.06,10.61,0,15.92,0h25.36c-.03-.44-.49-.65-.81-.9-2.69-2.1-5.8-4.82-8.52-7.04-.41-.33-5.49-4.66-5.78-4.66h-36.96c-.54,0-1.14.8-1.57,1.13l-.97.83c-.19.17-.25.26-.47.43-.52.4-.93.85-1.43,1.27l-1.43,1.26c-.22.18-.28.19-.49.41l-3.87,3.42c-1.05.93-2.47,2-3.42,2.97-.28.28-1.74,1.61-2,1.69"/>
    <path class="cls-2" d="M66.15,24.6c0,.36-.01.74,0,1.09,0,.52.06.46.34.74,1.85,1.77,3.6,3.66,5.4,5.48,1.89,1.91,3.86,3.77,5.68,5.74,2.15,2.33,4.55,4.45,6.7,6.79,2.13,2.3,4.43,4.46,6.6,6.72.14.14.12.09.28.27,1.44,1.66,3.09,3.14,4.65,4.7.38.38.69.7,1.08,1.08.21.2.31.35.51.57.01.01.03.03.04.05.01.01.04.03.05.05.01.01.03.03.04.05l.68.67c2.1,2.15,1.66,2.52,3.22.96l.29-.29v-19.04l-.05.05c-.38.38-1.02.73-1.15,1.27-.27-.18-4.12-4.22-4.14-4.23-1.1-1.26-2.41-2.33-3.51-3.59-.09-.1-.1-.13-.21-.25-.9-1.06-1.99-1.97-2.92-3.02-.6-.68-1.31-1.28-1.92-1.95-.01-.01-.03-.03-.04-.05-.21-.23-.38-.33-.58-.59.3-.41,1.27-1.08,1.69-1.46.18-.16.22-.16.4-.32.18-.17.23-.23.43-.38l1.69-1.45c.45-.36.38-.45,1.18-.44,3.04.04,6.08.03,9.13.02v-12.61h-19.92c-.54,0-1.14.8-1.57,1.13l-.97.83c-.19.17-.25.26-.47.43-.52.4-.93.85-1.43,1.27l-1.43,1.26c-.22.18-.28.19-.49.41l-3.87,3.42c-1.05.93-2.47,2-3.42,2.97-.28.28-1.74,1.62-2,1.69"/>
    <path class="cls-4" d="M132.73,12.08c-.43-.43-1.02-.69-1.66-.69s-1.24.26-1.66.69h0c-.43.42-.7,1.01-.7,1.66s.27,1.24.7,1.66c.42.43,1.01.69,1.66.69s1.24-.26,1.66-.69c.42-.42.69-1.01.69-1.66,0-.65-.27-1.24-.69-1.66ZM131.07,11c.76,0,1.44.31,1.93.8h0c.5.5.8,1.18.8,1.94s-.3,1.44-.8,1.94h0c-.5.5-1.18.8-1.93.8s-1.44-.3-1.94-.8c-.5-.5-.8-1.18-.8-1.94s.31-1.44.8-1.94c.5-.49,1.18-.8,1.94-.8Z"/>
    <path class="cls-1" d="M132.73,12.08c-.43-.43-1.02-.69-1.66-.69s-1.24.26-1.66.69h0c-.43.42-.7,1.01-.7,1.66s.27,1.24.7,1.66c.42.43,1.01.69,1.66.69s1.24-.26,1.66-.69c.42-.42.69-1.01.69-1.66,0-.65-.27-1.24-.69-1.66ZM131.07,11c.76,0,1.44.31,1.93.8h0c.5.5.8,1.18.8,1.94s-.3,1.44-.8,1.94h0c-.5.5-1.18.8-1.93.8s-1.44-.3-1.94-.8c-.5-.5-.8-1.18-.8-1.94s.31-1.44.8-1.94c.5-.49,1.18-.8,1.94-.8Z"/>
    <path class="cls-4" d="M129.9,14.7v-1.69h-.63v-.23h1.52v.23h-.63v1.69h-.25ZM131.03,14.7v-1.91h.38l.45,1.35c.04.13.07.22.09.28.02-.07.05-.17.1-.31l.45-1.33h.35v1.91h-.24v-1.6l-.56,1.6h-.23l-.55-1.63v1.63h-.25Z"/>
    <path class="cls-1" d="M129.9,14.7v-1.69h-.63v-.23h1.52v.23h-.63v1.69h-.25ZM131.03,14.7v-1.91h.38l.45,1.35c.04.13.07.22.09.28.02-.07.05-.17.1-.31l.45-1.33h.35v1.91h-.24v-1.6l-.56,1.6h-.23l-.55-1.63v1.63h-.25Z"/>
  </g>
  <g>
    <g>
      <path class="cls-3" d="M81.34,85.12l-.76.73c-.52-.55-1.1-.82-1.75-.82-.55,0-1.01.19-1.38.56-.38.37-.57.84-.57,1.38,0,.38.08.72.25,1.02.17.3.4.53.71.7.3.17.64.25,1.01.25.32,0,.6-.06.87-.18.26-.12.55-.33.87-.65l.74.77c-.42.41-.82.7-1.2.86-.38.16-.81.24-1.29.24-.89,0-1.62-.28-2.19-.85-.57-.57-.85-1.29-.85-2.17,0-.57.13-1.08.39-1.52.26-.44.63-.8,1.11-1.07.48-.27,1-.41,1.56-.41.47,0,.93.1,1.37.3.44.2.82.48,1.13.85"/>
      <path class="cls-3" d="M84.17,85.5c.4,0,.78.1,1.13.3.35.2.63.47.83.81.2.34.3.71.3,1.11s-.1.77-.3,1.12c-.2.35-.47.62-.81.82-.34.2-.72.29-1.13.29-.61,0-1.13-.22-1.56-.65-.43-.43-.64-.96-.64-1.58,0-.66.24-1.21.73-1.66.43-.38.92-.58,1.47-.58M84.19,86.5c-.33,0-.6.12-.83.35-.22.23-.33.52-.33.88s.11.67.32.9c.22.23.49.34.83.34s.61-.12.83-.35c.22-.23.33-.53.33-.89s-.11-.66-.32-.89c-.22-.23-.49-.34-.83-.34Z"/>
      <path class="cls-3" d="M87.29,85.61h1.06v.43c.24-.2.46-.34.66-.42.19-.08.39-.12.6-.12.42,0,.78.15,1.07.44.25.25.37.62.37,1.1v2.8h-1.06v-1.86c0-.51-.02-.84-.07-1.01-.04-.17-.12-.29-.24-.38-.11-.09-.25-.13-.42-.13-.21,0-.4.07-.55.22-.16.14-.27.34-.32.6-.03.13-.04.42-.04.86v1.7h-1.06v-4.24h0Z"/>
      <path class="cls-3" d="M94.67,86.2l-.66.66c-.27-.26-.51-.4-.73-.4-.12,0-.21.02-.28.08-.07.05-.1.11-.1.19,0,.06.02.11.07.16.04.05.15.11.32.2l.39.19c.41.2.7.41.85.62.15.21.23.46.23.74,0,.38-.14.69-.42.94-.28.25-.64.38-1.11.38-.62,0-1.11-.24-1.48-.72l.66-.71c.12.14.27.26.44.35.17.09.32.13.45.13.14,0,.25-.03.34-.1.09-.07.13-.14.13-.23,0-.16-.15-.32-.46-.48l-.36-.18c-.69-.35-1.03-.78-1.03-1.3,0-.33.13-.62.39-.86.26-.24.59-.36.99-.36.28,0,.53.06.78.18.24.12.45.29.62.52"/>
      <polygon class="cls-3" points="95.72 84.04 96.78 84.04 96.78 85.61 97.41 85.61 97.41 86.52 96.78 86.52 96.78 89.84 95.72 89.84 95.72 86.52 95.17 86.52 95.17 85.61 95.72 85.61 95.72 84.04"/>
      <path class="cls-3" d="M97.73,85.61h.91v.53c.1-.21.23-.37.4-.48.16-.11.34-.16.54-.16.14,0,.28.04.43.11l-.33.92c-.13-.06-.23-.09-.31-.09-.17,0-.3.1-.41.3-.12.2-.17.6-.17,1.19v.21s0,1.71,0,1.71h-1.06v-4.24h0Z"/>
      <path class="cls-3" d="M100.53,85.61h1.08v2.04c0,.4.03.67.08.83.06.16.14.28.26.36.12.09.27.13.45.13s.32-.04.45-.13c.12-.09.21-.21.27-.37.05-.12.07-.38.07-.78v-2.08h1.07v1.8c0,.74-.06,1.25-.17,1.52-.14.33-.36.59-.63.76-.28.18-.63.27-1.06.27-.47,0-.84-.1-1.13-.31-.28-.21-.49-.5-.6-.87-.08-.26-.13-.72-.13-1.4v-1.77h0Z"/>
      <path class="cls-3" d="M109.47,86.46l-.89.49c-.17-.17-.33-.29-.49-.36-.16-.07-.35-.1-.57-.1-.4,0-.72.12-.97.36-.24.24-.37.54-.37.91s.12.65.36.88c.24.23.55.34.93.34.48,0,.85-.16,1.11-.49l.84.57c-.45.59-1.09.88-1.92.88-.74,0-1.33-.22-1.75-.66-.42-.44-.63-.96-.63-1.55,0-.41.1-.79.31-1.13.21-.34.49-.62.86-.81.37-.2.78-.3,1.24-.3.42,0,.79.08,1.13.25.34.17.61.41.82.72"/>
      <polygon class="cls-3" points="110.56 84.04 111.62 84.04 111.62 85.61 112.25 85.61 112.25 86.52 111.62 86.52 111.62 89.84 110.56 89.84 110.56 86.52 110.01 86.52 110.01 85.61 110.56 85.61 110.56 84.04"/>
      <path class="cls-3" d="M113.24,83.86c.19,0,.35.07.48.2.13.14.2.3.2.49s-.07.35-.2.48c-.14.13-.29.2-.48.2s-.35-.07-.49-.2c-.13-.14-.2-.3-.2-.5s.07-.35.2-.48c.14-.13.29-.2.48-.2M112.71,85.61h1.07v4.24h-1.07v-4.24Z"/>
      <path class="cls-3" d="M116.72,85.5c.4,0,.78.1,1.13.3.35.2.63.47.83.81.2.34.3.71.3,1.11s-.1.77-.3,1.12c-.2.35-.47.62-.81.82-.34.2-.72.29-1.13.29-.61,0-1.13-.22-1.56-.65-.43-.43-.64-.96-.64-1.58,0-.66.24-1.21.73-1.66.43-.38.91-.58,1.47-.58M116.74,86.5c-.33,0-.6.12-.82.35-.22.23-.33.52-.33.88s.11.67.32.9c.22.23.49.34.83.34s.61-.12.83-.35c.22-.23.33-.53.33-.89s-.11-.66-.32-.89c-.22-.23-.49-.34-.83-.34Z"/>
      <path class="cls-3" d="M119.84,85.61h1.05v.43c.24-.2.46-.34.66-.42.19-.08.4-.12.6-.12.42,0,.78.15,1.07.44.25.25.37.62.37,1.1v2.8h-1.05v-1.86c0-.51-.02-.84-.07-1.01-.04-.17-.12-.29-.24-.38-.11-.09-.25-.13-.42-.13-.22,0-.4.07-.55.22-.16.14-.26.34-.32.6-.03.13-.05.42-.05.86v1.7h-1.05v-4.24h0Z"/>
      <path class="cls-3" d="M127.22,86.2l-.66.66c-.27-.26-.51-.4-.73-.4-.12,0-.21.02-.28.08-.07.05-.1.11-.1.19,0,.06.02.11.06.16.04.05.15.11.32.2l.39.19c.41.2.7.41.85.62.15.21.23.46.23.74,0,.38-.14.69-.41.94-.28.25-.65.38-1.12.38-.62,0-1.11-.24-1.48-.72l.66-.71c.12.14.27.26.44.35.17.09.32.13.45.13.14,0,.25-.03.34-.1.09-.07.13-.14.13-.23,0-.16-.16-.32-.46-.48l-.36-.18c-.69-.35-1.03-.78-1.03-1.3,0-.33.13-.62.39-.86.26-.24.59-.36.99-.36.28,0,.53.06.77.18.24.12.45.29.62.52"/>
    </g>
    <path class="cls-2" d="M63.72,70.75c.19-.24.44-.35.73-.35.26,0,.48.09.67.27.18.18.27.41.27.67,0,.24-.07.43-.2.57l-.02.02-4.75,6.4c-.24.3-.53.55-.89.74-.36.19-.75.28-1.17.28-.39,0-.76-.09-1.11-.25-.35-.17-.64-.41-.87-.71l-4.77-6.38c-.08-.09-.15-.19-.2-.31-.05-.11-.08-.23-.08-.36,0-.26.09-.48.28-.67.18-.18.4-.27.67-.27.31,0,.56.13.74.37l4.58,6.11c.09.11.2.22.34.34.14.13.28.19.42.19s.29-.06.42-.19c.14-.12.24-.24.32-.34l4.62-6.13Z"/>
    <path class="cls-2" d="M67.06,78.6c-.19.24-.44.35-.72.35-.27,0-.49-.09-.67-.27-.19-.18-.28-.41-.28-.67,0-.24.07-.43.2-.57l4.77-6.42c.23-.3.52-.55.88-.74.37-.19.76-.29,1.18-.29.39,0,.77.09,1.12.26.36.17.64.41.87.71l4.77,6.38c.08.09.15.19.2.3.05.11.08.23.08.36,0,.26-.09.48-.28.67-.18.18-.4.27-.67.27-.31,0-.56-.12-.74-.37l-4.58-6.11c-.09-.1-.21-.22-.34-.34-.14-.12-.28-.19-.42-.19s-.28.06-.42.19c-.14.13-.25.24-.32.34l-4.61,6.12Z"/>
    <path class="cls-2" d="M82.81,75.66c0,.18.05.36.15.52.11.16.25.31.42.45.18.14.39.25.63.32.25.08.5.12.78.12h7.91c.43,0,.79-.07,1.07-.22.28-.14.51-.33.67-.55.16-.22.28-.46.35-.73.07-.26.11-.51.11-.75v-3.5c0-.26.1-.48.29-.67.19-.18.41-.27.66-.27s.49.09.67.27c.19.18.28.41.28.67v3.34c0,.5-.09,1-.26,1.5-.17.5-.42.96-.74,1.37-.32.41-.71.75-1.17,1.01-.46.26-.97.39-1.53.39h-8.88c-.45,0-.87-.09-1.27-.27-.4-.18-.75-.43-1.05-.74-.3-.31-.54-.66-.72-1.06-.18-.4-.26-.81-.26-1.23,0-.26.09-.48.29-.67.19-.18.41-.27.66-.27s.49.09.67.27c.18.18.28.4.28.67"/>
    <path class="cls-2" d="M111.38,75.62c.35.22.71.46,1.08.72.37.26.74.53,1.12.84.15.1.27.22.38.36.11.14.15.3.15.48,0,.26-.09.48-.27.67-.18.18-.41.27-.67.27-.22,0-.45-.09-.67-.27-.54-.39-1.09-.77-1.65-1.14-.56-.37-1.15-.69-1.75-.98-.61-.29-1.24-.52-1.9-.69-.65-.17-1.33-.26-2.04-.26h-3.91c-.17.03-.32.1-.43.24-.12.13-.18.29-.18.49v1.67c0,.26-.09.48-.28.67-.19.18-.41.27-.66.27s-.48-.09-.67-.27c-.18-.18-.27-.41-.27-.67v-1.89c0-.33.06-.64.19-.93.12-.3.29-.55.5-.77.21-.22.46-.39.74-.51.29-.12.6-.19.95-.19h10.41c.19,0,.37-.07.52-.21.15-.14.23-.31.23-.52,0-.2-.07-.37-.23-.51-.15-.14-.32-.22-.52-.22h-11.84c-.26,0-.48-.09-.67-.27-.18-.18-.27-.41-.27-.67s.09-.48.27-.67c.18-.18.41-.27.67-.27h11.76c.36,0,.71.07,1.03.21.32.14.6.32.84.56.24.24.43.51.57.83.14.32.21.66.21,1.02s-.07.71-.21,1.02c-.14.32-.33.59-.57.83-.24.24-.52.42-.84.56-.32.14-.67.21-1.03.21h-.08Z"/>
    <path class="cls-2" d="M117.74,78.6c-.2.24-.44.35-.73.35-.26,0-.49-.09-.67-.27-.18-.18-.28-.41-.28-.67,0-.24.07-.43.2-.57l4.77-6.42c.22-.3.52-.55.88-.74.37-.19.76-.29,1.18-.29.4,0,.77.09,1.12.26.36.17.64.41.86.71l4.77,6.38c.08.09.14.19.19.3.06.11.08.23.08.36,0,.26-.09.48-.28.67-.18.18-.41.27-.67.27-.32,0-.56-.12-.75-.37l-4.58-6.11c-.09-.1-.21-.22-.34-.34-.14-.12-.28-.19-.42-.19s-.28.06-.42.19c-.13.13-.25.24-.32.34l-4.61,6.12Z"/>
    <path class="cls-2" d="M148.67,78.01c0,.26-.09.48-.27.67-.19.18-.41.27-.67.27s-.48-.09-.66-.27c-.19-.18-.28-.41-.28-.67v-4.28c0-.54-.03-.8-.1-.8-.05,0-.23.18-.55.53l-4.32,4.91c-.17.2-.38.34-.63.44-.25.1-.52.15-.81.15s-.56-.05-.8-.15c-.25-.1-.46-.25-.63-.44l-4.32-4.91c-.3-.35-.48-.53-.55-.53-.06,0-.1.27-.1.8v4.28c0,.26-.09.48-.27.67-.19.18-.41.27-.67.27s-.49-.09-.67-.27c-.18-.18-.28-.41-.28-.67v-5.73c0-.52.15-.97.45-1.34.3-.37.71-.55,1.24-.55.32,0,.6.08.85.24.25.16.48.35.69.57l4.52,5.15c.07.06.15.14.24.21.1.07.2.11.3.11s.21-.03.3-.11c.1-.07.18-.14.24-.21l4.5-5.15h.02c.19-.25.41-.44.67-.59.26-.15.55-.22.87-.22.53,0,.94.18,1.24.55.3.37.45.81.45,1.34v5.73h0Z"/>
  </g>
</svg>