<?xml version="1.0" encoding="UTF-8"?>
<svg id="Layer_1" data-name="Layer 1" xmlns="http://www.w3.org/2000/svg" viewBox="0 0 200 100">
  <polygon points="92.69 10.47 92.69 24.3 106.86 24.3 106.86 10.47 114.73 10.47 114.73 45.39 114.57 45.55 106.86 45.55 106.86 31.61 92.69 31.61 92.69 45.55 84.82 45.55 84.82 10.47 92.69 10.47"/>
  <polygon points="149.71 10.47 149.71 17.44 130.82 17.44 130.82 24.41 147.46 24.41 147.46 31.39 130.82 31.39 130.82 38.69 149.94 38.69 149.94 45.55 123.06 45.55 123.06 10.47 149.71 10.47"/>
  <polygon points="78.97 10.47 78.97 17.67 68.28 17.67 68.28 45.55 60.41 45.55 60.41 17.67 49.72 17.67 49.72 10.47 78.97 10.47"/>
  <path d="M106.52,51.18c3.69.21,7.76-.34,11.4.13,4.39.56,7.39,3.49,6.68,8.11-.52,3.39-3.51,4.84-6.61,5.31l7.53,9.95h-2.36l-7.2-9.67h-7.65v9.67h-1.8v-23.5ZM108.32,63.32h8.72c3.59,0,6.7-3.18,5.6-6.84-.58-1.91-2.98-3.51-4.93-3.51h-9.39v10.35Z"/>
  <path d="M62.21,65.91v8.77h-1.8v-23.5c2.84.11,5.78-.15,8.61,0,5.38.27,9.76,3.26,8.32,9.23-.71,2.93-4.36,5.51-7.31,5.51h-7.82ZM62.21,64.22h7.48c.61,0,2.39-.56,2.98-.85,4.39-2.15,4.05-8.45-.7-9.98-.33-.1-1.45-.42-1.72-.42h-8.04v11.25Z"/>
  <polygon points="133.74 51.18 133.74 63.1 147.52 51.18 149.6 51.18 135.65 63.49 150.28 74.68 147.52 74.68 133.74 64.56 133.74 74.68 131.94 74.68 131.94 51.18 133.74 51.18"/>
  <path d="M78.18,74.68l10.74-23.39,1.58-.12,10.96,23.51h-2.02l-3.84-8.53-11.63-.03-4.04,8.55h-1.74ZM94.94,64.67l-5.28-11.36-5.06,11.36h10.35Z"/>
  <polygon points="62.43 80.41 62.43 83.9 65.92 83.9 65.92 80.41 68.06 80.41 68.06 89.3 65.92 89.3 65.92 85.81 62.43 85.81 62.43 89.3 60.41 89.3 60.41 80.41 62.43 80.41"/>
  <path d="M72.64,82.36c5.26-.6,5.64,6.89.75,7.16-4.81.27-5.35-6.64-.75-7.16ZM72.64,84.15c-1.61.33-1.63,3.31.21,3.56,2.85.38,2.71-4.16-.21-3.56Z"/>
  <path d="M89.76,86.6h-4.72c.44,1.63,2.22,1.53,3.32.59l1.06,1.03c-2.05,2.54-6.41,1.14-6.41-2.23-.01-5.15,7.63-4.69,6.76.62ZM85.04,85.36h2.81c-.23-1.87-2.55-1.82-2.81,0Z"/>
  <path d="M99.77,83.12l-.68,1.46c-.1.08-1.97-1.06-2.41-.55-.93.65,1.51,1.23,1.85,1.39,1.07.51,1.49,1.01,1.35,2.25-.23,1.97-2.85,2.02-4.3,1.49-.31-.11-1.28-.55-1.19-.9l.73-1.1c.84.31,2.35,1.35,2.97.29l-.18-.38c-1.01-.43-2.98-.65-3.19-1.99-.48-3.05,3.16-3.24,5.05-1.96Z"/>
  <path d="M80.54,80.75v1.69h1.57v1.8h-1.57v3.09c.44.58,1,.22,1.57.17v1.5c-.77.63-2.68.64-3.24-.23-.09-.13-.36-.77-.36-.88v-3.65h-.79v-1.8h.79v-1.69h2.02Z"/>
  <rect x="91.23" y="79.97" width="2.02" height="9.33"/>
</svg>