<?xml version="1.0" encoding="UTF-8"?>
<svg id="Layer_1" data-name="Layer 1" xmlns="http://www.w3.org/2000/svg" viewBox="0 0 200 100">
  <defs>
    <style>
      .cls-1 {
        fill: #53b748;
      }

      .cls-2 {
        fill: #016b9f;
      }
    </style>
  </defs>
  <g id="Group_105" data-name="Group 105">
    <g id="Group_104" data-name="Group 104">
      <path id="Path_424" data-name="Path 424" class="cls-1" d="M30.37,83.2c1.59,0,2.87,1.27,2.87,2.86v.8h-5.41c0,1.43,1.11,2.71,2.55,2.71h.16c.8,0,1.59-.32,2.07-.8l.48.8c-.8.64-1.59.96-2.55.96-1.91,0-3.5-1.43-3.66-3.34v-.32c-.16-1.91,1.27-3.5,3.18-3.66h.32ZM32.44,86.07c.16-1.11-.64-2.07-1.75-2.07h-.16c-1.27,0-2.23.96-2.39,2.07h4.3Z"/>
      <path id="Path_425" data-name="Path 425" class="cls-1" d="M35.14,83.36h.96v1.59h0c.48-.96,1.43-1.75,2.55-1.75,1.11-.16,2.07.64,2.07,1.59v.16h0c.48-.96,1.43-1.75,2.55-1.75,1.75,0,2.23.96,2.23,2.71v4.46h-.96v-4.14c0-1.11-.16-2.07-1.59-2.07-1.11.16-1.91.96-2.23,1.91-.16.32-.16.64-.16.96v3.34h-.96v-4.14c0-1.11-.16-2.07-1.43-2.07-1.11.16-2.07.96-2.23,2.07,0,.32-.16.64-.16.96v3.34h-.96l.32-7.16h0Z"/>
      <path id="Path_426" data-name="Path 426" class="cls-1" d="M47.72,83.36h.96v1.11h0c.48-.96,1.43-1.43,2.39-1.43,1.91,0,3.02,1.43,3.02,3.66.16,1.75-1.11,3.34-2.87,3.66h-.32c-.96,0-1.91-.48-2.23-1.27h0v3.98h-.96v-9.71h0ZM50.9,89.57c1.27,0,2.23-1.11,2.23-2.86s-.96-2.71-2.23-2.71c-1.11,0-2.23.8-2.23,2.86-.16,1.27.8,2.55,2.23,2.71h0Z"/>
      <path id="Path_427" data-name="Path 427" class="cls-1" d="M59.02,83.2c1.91,0,3.66,1.59,3.66,3.5v.16c0,2.07-1.59,3.66-3.66,3.82-2.07,0-3.66-1.59-3.82-3.66.16-2.23,1.75-3.82,3.82-3.82h0ZM59.02,89.57c1.59,0,2.71-1.27,2.71-2.71h0c0-1.43-1.27-2.71-2.71-2.71s-2.71,1.27-2.71,2.71,1.11,2.71,2.71,2.71h0Z"/>
      <path id="Path_428" data-name="Path 428" class="cls-1" d="M63.64,83.36h.96l1.75,5.09c.16.32.16.8.16.8h0s.16-.48.16-.8l1.75-5.09h.96l1.75,5.09c.16.32.16.8.16.8h0s.16-.48.16-.8l1.75-5.09h.96l-2.39,7h-.96l-1.75-4.93c-.16-.32-.16-.8-.16-.8h0s-.16.48-.16.8l-1.75,4.93h-.96l-2.39-7Z"/>
      <path id="Path_429" data-name="Path 429" class="cls-1" d="M78.44,83.2c1.59,0,2.87,1.27,2.87,2.86v.8h-5.41c0,1.43,1.11,2.71,2.55,2.71h.16c.8,0,1.59-.32,2.07-.8l.48.8c-.8.64-1.59.96-2.55.96-1.91,0-3.5-1.43-3.66-3.34v-.32c-.16-1.91,1.27-3.5,3.18-3.66h.32ZM80.51,86.07c.16-1.11-.64-2.07-1.75-2.07h-.16c-1.27,0-2.23.96-2.39,2.07h4.3Z"/>
      <path id="Path_430" data-name="Path 430" class="cls-1" d="M83.21,83.36h.96v1.75h0c.16-1.11,1.11-1.75,2.23-1.91h.32v.96h-.32c-.96,0-1.75.8-2.07,1.75-.16.48-.16.96-.16,1.43v2.86h-.96v-6.84Z"/>
      <path id="Path_431" data-name="Path 431" class="cls-1" d="M91.01,83.2c1.59,0,2.87,1.27,2.87,2.86v.8h-5.41c0,1.43,1.11,2.71,2.55,2.71h.16c.8,0,1.59-.32,2.07-.8l.48.8c-.8.64-1.59.96-2.55.96-1.91,0-3.5-1.43-3.66-3.34v-.32c-.16-1.91,1.27-3.5,3.18-3.66,0,0,.16,0,.32,0ZM92.92,86.07c.16-1.11-.64-2.07-1.75-2.07h-.16c-1.27,0-2.23.96-2.39,2.07h4.3Z"/>
      <path id="Path_432" data-name="Path 432" class="cls-1" d="M98.33,83.2c.96,0,1.75.48,2.23,1.27h0v-3.82h.96v9.71h-.96v-1.27h0c-.48.96-1.43,1.43-2.39,1.43-1.91,0-3.02-1.43-3.02-3.66-.16-1.75,1.11-3.34,2.87-3.66q.16,0,.32,0ZM98.33,89.57c1.11,0,2.23-.8,2.23-2.86,0-1.43-.8-2.71-2.23-2.71-1.27,0-2.23,1.11-2.23,2.71s.96,2.86,2.23,2.86h0Z"/>
      <path id="Path_433" data-name="Path 433" class="cls-1" d="M109.32,80.65h.64v.96h-.64v-.96ZM109.48,83.36h.64v6.84h-.64v-6.84Z"/>
      <path id="Path_434" data-name="Path 434" class="cls-1" d="M112.34,83.36h.64v1.91h0c.48-1.11,1.59-1.91,2.87-1.91,1.75,0,2.23,1.11,2.23,2.71v4.46h-.64v-4.14c0-1.27-.16-2.39-1.75-2.39-1.27,0-2.39.96-2.87,2.23-.16.32-.16.64-.16.96v3.34h-.64v-7.16h.32Z"/>
      <path id="Path_435" data-name="Path 435" class="cls-1" d="M120.46,83.36h.64v1.91h0c.48-1.11,1.59-1.91,2.87-1.91,1.75,0,2.23,1.11,2.23,2.71v4.46h-.64v-4.14c0-1.27-.16-2.39-1.75-2.39-1.27,0-2.39.96-2.87,2.23-.16.32-.16.64-.16.96v3.34h-.64v-7.16h.32Z"/>
      <path id="Path_436" data-name="Path 436" class="cls-1" d="M131.6,83.2c1.91,0,3.5,1.59,3.66,3.5h0c0,1.91-1.59,3.5-3.5,3.5s-3.5-1.59-3.5-3.5h0c-.16-1.91,1.43-3.5,3.34-3.5h0ZM131.6,89.89c1.59,0,3.02-1.43,3.02-3.02h0c0-1.59-1.27-3.02-2.87-3.02s-3.02,1.27-3.02,2.86v.16c0,1.59,1.27,3.02,2.87,3.02h0Z"/>
      <path id="Path_437" data-name="Path 437" class="cls-1" d="M136.22,83.36h.64l2.07,5.41c.16.32.16.48.16.8h0s.16-.48.16-.8l2.07-5.41h.64l-2.71,6.84h-.48l-2.55-6.84Z"/>
      <path id="Path_438" data-name="Path 438" class="cls-1" d="M147.36,86.07h.48v-.16c0-1.59-.8-2.07-1.91-2.07-.64,0-1.43.16-1.91.64l-.32-.48c.64-.48,1.43-.8,2.39-.8,1.59,0,2.39.96,2.39,2.55v4.46h-.64v-1.59h0c-.32.96-1.27,1.59-2.39,1.75s-2.23-.8-2.39-1.91v-.16c0-2.23,3.02-2.23,4.3-2.23ZM145.45,89.89c1.43-.16,2.55-1.43,2.39-2.86v-.32h-.48c-1.11,0-3.66,0-3.66,1.75,0,.8.8,1.43,1.75,1.43h0Z"/>
      <path id="Path_439" data-name="Path 439" class="cls-1" d="M150.86,84h-.96v-.48h.96v-1.91h.64v1.91h1.75v.48h-1.75v3.82c0,1.75,1.11,2.07,1.59,2.07h.32v.48h-.32c-.8,0-2.23-.32-2.23-2.55v-3.82h0Z"/>
      <path id="Path_440" data-name="Path 440" class="cls-1" d="M155,80.65h.64v.96h-.64v-.96ZM155,83.36h.64v6.84h-.64v-6.84Z"/>
      <path id="Path_441" data-name="Path 441" class="cls-1" d="M161.21,83.2c1.91,0,3.5,1.59,3.66,3.5h0c0,1.91-1.59,3.5-3.5,3.5s-3.5-1.59-3.5-3.5h0c-.32-1.91,1.27-3.5,3.34-3.5q-.16,0,0,0ZM161.21,89.89c1.59,0,3.02-1.43,3.02-3.02h0c0-1.59-1.27-3.02-2.87-3.02s-3.02,1.27-3.02,2.86v.16c-.16,1.59,1.11,3.02,2.87,3.02q-.16,0,0,0Z"/>
      <path id="Path_442" data-name="Path 442" class="cls-1" d="M166.62,83.36h.64v1.91h0c.48-1.11,1.59-1.91,2.87-1.91,1.75,0,2.23,1.11,2.23,2.71v4.46h-.64v-4.14c0-1.27-.16-2.39-1.75-2.39-1.27,0-2.39.96-2.87,2.23-.16.32-.16.64-.16.96v3.34h-.64v-7.16h.32Z"/>
      <g>
        <path class="cls-2" d="M50.58,61.55h-14.01l-3.66,10.66h-5.25l13.37-37.09h5.41l13.37,37.09h-5.41l-3.82-10.66ZM43.58,40.22s-.8,3.34-1.43,5.25l-4.14,11.78h11.3l-4.14-11.78c-.64-1.91-1.43-5.25-1.59-5.25h0Z"/>
        <path class="cls-2" d="M63.48,65.37s3.02,3.02,7.64,3.02c2.23,0,4.46-1.11,4.46-3.34,0-4.93-13.69-3.82-13.69-12.57,0-4.78,4.3-7.64,9.55-7.64,5.89,0,8.6,2.86,8.6,2.86l-2.07,3.82s-2.39-2.39-6.53-2.39c-2.23,0-4.3.96-4.3,3.18,0,4.78,13.69,3.66,13.69,12.41,0,4.46-3.82,7.8-9.55,7.8-6.53,0-10.03-3.82-10.03-3.82l2.23-3.34Z"/>
        <path class="cls-2" d="M84.96,65.37s3.02,3.02,7.64,3.02c2.23,0,4.46-1.11,4.46-3.34,0-4.93-13.69-3.82-13.69-12.57,0-4.78,4.3-7.64,9.55-7.64,5.89,0,8.6,2.86,8.6,2.86l-2.07,3.82s-2.39-2.39-6.53-2.39c-2.23,0-4.3.96-4.3,3.18,0,4.78,13.69,3.66,13.69,12.41,0,4.46-3.82,7.8-9.55,7.8-6.53,0-10.03-3.82-10.03-3.82l2.23-3.34Z"/>
        <path class="cls-2" d="M117.59,45c7.48,0,11.46,5.57,11.46,12.41,0,.64-.16,2.23-.16,2.23h-19.42c.32,5.89,4.46,8.75,9.07,8.75s7.96-3.02,7.96-3.02l2.07,3.66s-3.98,3.82-10.35,3.82c-8.44,0-14.17-6.05-14.17-14.01.16-8.44,5.89-13.85,13.53-13.85M123.8,55.82c-.16-4.62-3.02-6.84-6.37-6.84-3.82,0-7,2.39-7.8,6.84h14.17Z"/>
        <path class="cls-2" d="M135.26,50.09h-3.5v-4.14h3.66v-7.64h4.93v7.64h6.37v4.14h-6.37v11.78c0,5.25,3.66,6.05,5.73,6.05.8,0,1.27-.16,1.27-.16v4.46s-.8.16-1.75.16c-3.34,0-10.19-1.11-10.19-9.87-.16,0-.16-12.41-.16-12.41Z"/>
        <path class="cls-2" d="M150.07,69.35l13.37-16.87c1.11-1.43,2.23-2.55,2.23-2.55v-.16s-.8.16-2.55.16h-12.42v-4.3h21.81v2.86l-13.37,16.87c-1.11,1.43-2.23,2.39-2.23,2.39v.16s.96-.16,2.71-.16h13.53v4.3h-22.92l-.16-2.71h0Z"/>
        <path class="cls-1" d="M168.37,38.31c.16.16.16.32.32.64v.64l-.16.16h-.16c-.32-.16-.64-.48-.8-.96-7-10.98-23.88-28.17-54.44-28.33-30.56-.16-48.87,25.63-48.87,25.63-.8.96-1.59,1.91-2.71,2.55-.48.32-1.11.48-1.59.64h-.8c-.8-.16-1.27-.64-1.43-1.43,0-.16-.16-.16-.16-.32v-.96c0-.16.16-.16.16-.32s0-.32.16-.48c.32-1.27,1.11-2.55,1.91-3.5,0,0,18.94-26.26,53.48-25.31s50.93,24.19,55.07,31.36Z"/>
      </g>
    </g>
  </g>
</svg>