<?xml version="1.0" encoding="UTF-8"?>
<svg id="Layer_1" data-name="Layer 1" xmlns="http://www.w3.org/2000/svg" xmlns:xlink="http://www.w3.org/1999/xlink" viewBox="0 0 200 100">
  <defs>
    <style>
      .cls-1 {
        fill: #9e8c3f;
      }

      .cls-2 {
        clip-path: url(#clippath-17);
      }

      .cls-3 {
        clip-path: url(#clippath-19);
      }

      .cls-4 {
        clip-path: url(#clippath-11);
      }

      .cls-5 {
        clip-path: url(#clippath-16);
      }

      .cls-6 {
        clip-path: url(#clippath-18);
      }

      .cls-7 {
        clip-path: url(#clippath-10);
      }

      .cls-8 {
        clip-path: url(#clippath-15);
      }

      .cls-9 {
        clip-path: url(#clippath-13);
      }

      .cls-10 {
        clip-path: url(#clippath-14);
      }

      .cls-11 {
        clip-path: url(#clippath-12);
      }

      .cls-12 {
        clip-path: url(#clippath-20);
      }

      .cls-13 {
        clip-path: url(#clippath-21);
      }

      .cls-14 {
        clip-path: url(#clippath-22);
      }

      .cls-15 {
        clip-path: url(#clippath-1);
      }

      .cls-16 {
        clip-path: url(#clippath-3);
      }

      .cls-17 {
        clip-path: url(#clippath-4);
      }

      .cls-18 {
        clip-path: url(#clippath-2);
      }

      .cls-19 {
        clip-path: url(#clippath-7);
      }

      .cls-20 {
        clip-path: url(#clippath-6);
      }

      .cls-21 {
        clip-path: url(#clippath-9);
      }

      .cls-22 {
        clip-path: url(#clippath-8);
      }

      .cls-23 {
        clip-path: url(#clippath-5);
      }

      .cls-24 {
        clip-path: url(#clippath);
      }
    </style>
    <clipPath id="clippath">
      <path class="cls-1" d="M67.17,62.52v.25c.54.02.86.1,1.03.25s.25.44.25.93v19.9l1.33-2.36v-16.48c0-1.53.07-1.82.25-1.97.17-.12.49-.22,1.03-.25v-.25h-3.89v-.02Z"/>
    </clipPath>
    <clipPath id="clippath-1">
      <path class="cls-1" d="M153.94,62.52v.25c.57.02.91.1,1.08.25s.25.47.25.96v6.1c0,.52-.07,6.72-.25,6.81-.17.15-.52.22-1.08.27v.25h4.03v-.25c-.54-.05-.91-.12-1.08-.27-.17-.12-.25-6.3-.25-6.81v-6.05c0-.49.07-.81.25-.96s.52-.25,1.08-.25v-.25h-4.03v-.05Z"/>
    </clipPath>
    <clipPath id="clippath-2">
      <path class="cls-1" d="M163.65,62.52v.25c.57.02.91.12,1.08.27s.25.47.25.96v14.91l1.38-1.62h5.12c.49,0,.84.07.98.25s.22.52.25,1.08h.25v-4.03h-.25c-.02.54-.1.91-.25,1.08-.15.17-.47.25-.98.25h-5.12v-11.91c0-.49.07-.81.25-.96s.52-.25,1.08-.27v-.25h-4.03Z"/>
    </clipPath>
    <clipPath id="clippath-3">
      <path class="cls-1" d="M177.7,62.52v.25c.57.02.91.12,1.08.27s.25.47.25.96v14.91l1.38-1.62h5.12c.49,0,.81.07.98.25.15.17.22.52.25,1.08h.25v-4.03h-.25c-.02.54-.1.91-.25,1.08-.15.17-.47.25-.98.25h-5.12v-11.91c0-.49.07-.81.25-.96s.52-.25,1.08-.27v-.25h-4.03Z"/>
    </clipPath>
    <clipPath id="clippath-4">
      <path class="cls-1" d="M16.44,70.17l-.74-.07v-5.54l.15-.57c.1-.07.37-.12.79-.12.91,0,1.7.12,2.29.37,1.11.49,1.67,1.38,1.67,2.68,0,1.38-.49,2.31-1.53,2.83-.57.27-1.33.42-2.31.42h-.32ZM13,62.52v.34c.52.05.84.15,1.01.3.15.15.22.49.22,1.01v11.56c0,.59-.07.98-.2,1.16-.15.17-.47.27-1.03.32v.27h4.06v-.27c-.59-.05-.96-.15-1.13-.27-.17-.15-.25-.49-.25-1.03v-4.33h1.13c3.49,0,5.41-1.43,5.41-4.75,0-2.24-1.4-4.33-5.41-4.33h-3.81v.02Z"/>
    </clipPath>
    <clipPath id="clippath-5">
      <path class="cls-1" d="M39.3,62.54v.25c.52.02.84.12.98.25.15.15.22.47.22.96v5.36c0,3.94-2.56,6.94-5.9,6.94h-.27c-3.35,0-5.9-2.98-5.9-6.94v-5.36c0-.49.07-.81.22-.96.17-.15.49-.22,1.01-.25v-.25h-3.81v.25c.52.05.84.15.98.27.15.15.22.44.22.93v6.91c0,3.71,3.69,6.91,7.38,6.91h.1c3.67,0,7.36-3.2,7.36-6.91v-6.91c0-.49.07-.79.22-.93.15-.12.49-.22.98-.27v-.25h-3.79Z"/>
    </clipPath>
    <clipPath id="clippath-6">
      <path class="cls-1" d="M57.5,62.52v.25c.54.02.89.1,1.03.25.15.15.25.44.25.93v9.47l-8.46-9.15v-.34c0-.49.07-.81.25-.93.15-.15.52-.22,1.03-.25v-.25h-3.89v.25c.54.02.89.1,1.03.25s.25.44.25.93v12.05c0,.49-.07.81-.25.93s-.49.2-1.03.22v.25h3.89v-.25c-.52-.05-.89-.12-1.03-.22-.15-.12-.25-.44-.25-.93v-9.42l8.46,9.23v.22c0,.49-.07.81-.25.93s-.52.2-1.03.22v.25h3.89v-.25c-.54-.05-.89-.12-1.03-.22-.15-.12-.25-.44-.25-.93v-12.05c0-.49.07-.81.25-.93.17-.15.52-.22,1.03-.25v-.25h-3.89Z"/>
    </clipPath>
    <clipPath id="clippath-7">
      <path class="cls-1" d="M119.37,70.09c0,2.83,2.41,7.7,7.6,7.7,2.02,0,4.31-1.57,4.4-1.65v-6.81h-4.38v2.76h.34s-.12-1.18.66-1.18h1.89v4.4s-1.23.84-2.88.84-6.03-1.28-6.03-6.37c0-3.27,2.78-6.03,6.03-6.03s3.91,2.26,3.91,2.26h.22l-.07-2.61s-1.45-1.23-4.53-1.23c-2.39.02-7.18,2.34-7.18,7.92Z"/>
    </clipPath>
    <clipPath id="clippath-8">
      <path class="cls-1" d="M139.69,63.89h2.29c.49,0,2.36.47,2.36,2.53,0,1.03-.47,2.93-2.19,2.93-.91,0-2.46.05-2.46.05v-5.51ZM139.18,62.52h-2.16v.25c.54.02.91.1,1.08.25.17.15.25.47.25.96v6.1c0,.52-.07,6.72-.25,6.81-.17.15-.52.22-1.08.27v.25h4.03v-.25c-.54-.05-.98-.12-1.16-.25s-.17-5.61-.17-6.15l1.43.02,6.25,6.67h2.66v-.37l-.84-.15-6.13-6.3s2.8-1.03,2.8-4.13c0-3.47-3.15-3.99-3.94-3.99h-2.78Z"/>
    </clipPath>
    <clipPath id="clippath-9">
      <path class="cls-1" d="M97.95,69.82h2.34c1.21,0,2.56,1.43,2.56,3,0,2.51-2.04,3.05-2.53,3.05h-2.36v-6.05ZM97.9,63.92h2.09c.32,0,1.89.42,1.89,2.14,0,.76-.44,2.39-1.67,2.39h-2.34v-4.53h.02ZM97.6,62.52h-2.36v.25c.57.02.91.1,1.08.25.17.15.25.47.25.96v6.1c0,.52-.07,6.72-.25,6.81-.17.15-.52.22-1.08.27v.25h2.76c1.21,0,1.85.02,2.76.02.76,0,3.62-1.53,3.62-4.21,0-3.2-2.14-4.26-2.14-4.26l-.15-.15.76-.64c.22-.25.62-.71.62-2.46s-1.4-2.9-3.15-3.1c-.59-.07-1.3-.07-1.85-.07-.49-.02-.86-.02-.86-.02Z"/>
    </clipPath>
    <clipPath id="clippath-10">
      <path class="cls-1" d="M83.36,65.2l3.69,8.86-7.53.05,3.84-8.91ZM76.76,76.39c-.2.32-.49.57-1.3.39l-.2.22,3.49,1.72.12-.34s-1.03-.49-.69-1.28c.34-.76.76-1.7.76-1.7h8.78l.76,1.87s.22.62-.57.96l.07.42,3.42-1.7-.12-.3s-.89.54-1.38-.32c-.49-.84-6.54-14.59-6.54-14.59l-6.62,14.64Z"/>
    </clipPath>
    <clipPath id="clippath-11">
      <path class="cls-1" d="M103.06,20.08s.66.86,1.28-.57c0,0,2.53-6.67,11.71-.66,0,0-7.21-9.62-12.45-.02,0,0-1.01-6.74,6.77-5.56,0,0-2.19-1.28-3-1.57-.02,0-7.43,1.62-4.31,8.39Z"/>
    </clipPath>
    <clipPath id="clippath-12">
      <path class="cls-1" d="M114.11,23.08s-.96.93.91.74c0,0,2.36-.74,4.82,4.23,0,0-.84-5.51-3.91-5.51-.54,0-1.13.17-1.82.54Z"/>
    </clipPath>
    <clipPath id="clippath-13">
      <path class="cls-1" d="M115.26,26.99c-1.7.42.02,1.3.02,1.3,4.03,2.83,4.72,8.93,4.72,8.93.2-1.25.34-2.93.34-2.93-.49-1.53-1.5-4.03-1.5-4.03-1.18-3.12-3.2-3.27-3.54-3.27h-.05Z"/>
    </clipPath>
    <clipPath id="clippath-14">
      <path class="cls-1" d="M112.34,36.56s1.8,5.58-2.31,16.01l1.6-1.13s3.22-7.4,2.53-11.91c0,0-.49-2.14-.47-3.91,0,0-.02-1.53-.54-2.93,0,0,6.05,1.7,1.55,15.77,0,0,1.97-2.19,3.15-4.77,0,0,1.16-11.86-5.17-13.09,0,0-.1-.05-.25-.05-.49.02-1.65.57-.1,6Z"/>
    </clipPath>
    <clipPath id="clippath-15">
      <path class="cls-1" d="M100.09,41.41s-1.6,1.48-2.63,1.35c0,0-.74-.12-.59.52,0,0,.54,1.48,3.22,1.21h.02c2.68.27,3.22-1.21,3.22-1.21.15-.62-.59-.52-.59-.52-1.03.15-2.66-1.35-2.66-1.35Z"/>
    </clipPath>
    <clipPath id="clippath-16">
      <path class="cls-1" d="M102.57,22.49c-.27.1-1.18.62-1.67.84-.22.1-.47.15-.64.15h-.15.15-.34.15-.15c-.17-.02-.42-.05-.64-.15-.49-.22-1.4-.74-1.67-.84-.27-.1-1.16-.54-1.94.1,0,0-.27.34-.84.32-.57-.02-1.72-.12-2.14.42,0,0-.86.81-1.5.3,0,0-.93-1.21-1.38-1.3,0,0-.44-.27-.84.22-.42.49-1.08,1.33-1.08,1.94-.02.62.12,1.5,1.01,1.65.89.15,2.09.05,2.21,1.06v1.85c0,.07-.02,2.24,1.45,4.48,1.5,2.24,2.46,4.21,2.51,4.7.05.2.32,1.5,1.3,2.09,0,0,.93.76,1.99-.98,0,0,.49-.81.2-2.16,0,0-.17-.64-.93-.66l-.98-.15c-.37-.15-.32-.22-.74-.27-.44-.05-.86-.02-.96-1.18,0,0,.02-1.03.37-2.85,0,0,.27-1.28-.89-1.85-1.18-.54-1.62-.86-1.94-1.33l-.32-.39s-.69-1.03.59-1.01c0,0,1.23.34,2.07.44.81.1,2.21-.15,2.68-.25,0,0,1.38-.27.96,1.18,0,0-.34.89-.59,1.5s-.62,2.02-.71,2.51c0,0-.34,1.11.62,1.43,0,0,.98.15,1.75.15h.22c1.45.05,2.71-.15,2.71-.15.93-.3.62-1.43.62-1.43-.1-.52-.47-1.89-.71-2.51-.25-.62-.59-1.5-.59-1.5-.39-1.45.96-1.18.96-1.18.44.12,1.85.34,2.68.25s2.04-.44,2.04-.44c1.28-.02.62,1.01.62,1.01l-.34.39c-.3.47-.76.79-1.94,1.33-1.18.57-.89,1.85-.89,1.85.32,1.82.37,2.85.37,2.85-.1,1.13-.54,1.11-.96,1.18-.42.05-.39.12-.74.27l-.98.15c-.79.02-.96.66-.96.66-.3,1.35.2,2.16.2,2.16,1.06,1.75,1.99.98,1.99.98.98-.59,1.25-1.89,1.3-2.09.05-.49,1.01-2.46,2.51-4.7,1.5-2.24,1.45-4.4,1.45-4.48v-1.85c.1-1.03,1.33-.91,2.21-1.06s1.03-1.03,1.01-1.65c-.02-.62-.66-1.45-1.08-1.94-.42-.49-.84-.22-.84-.22-.44.1-1.38,1.3-1.38,1.3-.64.52-1.5-.3-1.5-.3-.44-.52-1.57-.44-2.14-.42-.57.02-.84-.32-.84-.32-.32-.27-.66-.34-.96-.34-.44.02-.84.2-.98.25Z"/>
    </clipPath>
    <clipPath id="clippath-17">
      <path class="cls-1" d="M89.83,13.27c7.77-1.18,6.77,5.56,6.77,5.56-5.24-9.59-12.47.02-12.47.02,9.18-5.98,11.71.66,11.71.66.59,1.43,1.25.57,1.25.57,3.1-6.77-4.28-8.39-4.28-8.39-.79.27-2.98,1.57-2.98,1.57Z"/>
    </clipPath>
    <clipPath id="clippath-18">
      <path class="cls-1" d="M80.33,28.05c2.44-4.97,4.82-4.23,4.82-4.23,1.87.2.91-.74.91-.74-.66-.39-1.28-.57-1.8-.57-3.1.02-3.94,5.54-3.94,5.54Z"/>
    </clipPath>
    <clipPath id="clippath-19">
      <path class="cls-1" d="M84.88,26.99c-.34,0-2.39.15-3.54,3.27,0,0-1.01,2.51-1.5,4.03,0,0,.15,1.67.34,2.93,0,0,.69-6.1,4.7-8.93,0,0,1.72-.89.02-1.3h-.02Z"/>
    </clipPath>
    <clipPath id="clippath-20">
      <path class="cls-1" d="M87.44,30.61c-6.32,1.23-5.17,13.09-5.17,13.09,1.21,2.58,3.17,4.77,3.17,4.77-4.53-14.07,1.55-15.77,1.55-15.77-.52,1.4-.54,2.93-.54,2.93.02,1.77-.47,3.91-.47,3.91-.69,4.53,2.53,11.91,2.53,11.91l1.6,1.13c-4.08-10.43-2.29-16.01-2.29-16.01,1.55-5.44.39-6-.15-6-.15.02-.25.05-.25.05Z"/>
    </clipPath>
    <clipPath id="clippath-21">
      <path class="cls-1" d="M106.78,41.68s-1.16,4.58-2.02,6.4c0,0-.81,1.77-1.67,3.59s-1.67,3.2-2.98,3.32h-.02c-1.33-.12-2.12-1.5-3-3.32-.86-1.82-1.67-3.59-1.67-3.59-.86-1.82-2.02-6.4-2.02-6.4-.1-.32-.22-.37-.3-.37h-.05c-1.67,1.33-2.16,3.05-2.16,3.05-.89,2.44,1.23,9.32,1.23,9.32,1.87.98,4.23,1.4,4.23,1.4-2.8-1.33-3.81-5.78-3.81-5.78-.59-2.44,0-5.34,0-5.34.2-.62.27,0,.27,0,.47,3.74,3.25,7.7,3.25,7.7.71,1.01,1.45,2.51,1.45,2.51.49,1.53,2.53,1.3,2.53,1.3h.02s2.07.22,2.56-1.3c0,0,.71-1.5,1.45-2.51,0,0,2.78-3.96,3.25-7.7,0,0,.07-.62.25,0,0,0,.62,2.9,0,5.34,0,0-.96,4.45-3.79,5.78,0,0,2.36-.44,4.23-1.4,0,0,2.14-6.89,1.23-9.32,0,0-.47-1.72-2.14-3.05h-.05s-.2.05-.27.37Z"/>
    </clipPath>
    <clipPath id="clippath-22">
      <path class="cls-1" d="M99.03,14.4c-.34-1.43,1.06-3.44,1.06-3.44h.02s1.4,2.04,1.06,3.44l-1.06,2.9h-.02l-1.06-2.9ZM100.09,10.17h0s-2.95-.12-5.98,1.01c0,0,3.79.42,4.62,4.58.22,1.18,1.01,4.85,1.33,4.85h.02c.34.02,1.13-3.64,1.35-4.85.84-4.18,4.62-4.58,4.62-4.58-2.53-.93-4.99-1.01-5.73-1.01-.15-.02-.25,0-.25,0Z"/>
    </clipPath>
  </defs>
  <g>
    <path class="cls-1" d="M67.17,62.52v.25c.54.02.86.1,1.03.25s.25.44.25.93v19.9l1.33-2.36v-16.48c0-1.53.07-1.82.25-1.97.17-.12.49-.22,1.03-.25v-.25h-3.89v-.02Z"/>
    <g class="cls-24">
      <rect class="cls-1" x="67.17" y="62.52" width="3.89" height="21.3"/>
    </g>
  </g>
  <g>
    <path class="cls-1" d="M153.94,62.52v.25c.57.02.91.1,1.08.25s.25.47.25.96v6.1c0,.52-.07,6.72-.25,6.81-.17.15-.52.22-1.08.27v.25h4.03v-.25c-.54-.05-.91-.12-1.08-.27-.17-.12-.25-6.3-.25-6.81v-6.05c0-.49.07-.81.25-.96s.52-.25,1.08-.25v-.25h-4.03v-.05Z"/>
    <g class="cls-15">
      <rect class="cls-1" x="153.94" y="62.52" width="4.03" height="14.86"/>
    </g>
  </g>
  <g>
    <path class="cls-1" d="M163.65,62.52v.25c.57.02.91.12,1.08.27s.25.47.25.96v14.91l1.38-1.62h5.12c.49,0,.84.07.98.25s.22.52.25,1.08h.25v-4.03h-.25c-.02.54-.1.91-.25,1.08-.15.17-.47.25-.98.25h-5.12v-11.91c0-.49.07-.81.25-.96s.52-.25,1.08-.27v-.25h-4.03Z"/>
    <g class="cls-18">
      <rect class="cls-1" x="163.65" y="62.52" width="9.3" height="16.38"/>
    </g>
  </g>
  <g>
    <path class="cls-1" d="M177.7,62.52v.25c.57.02.91.12,1.08.27s.25.47.25.96v14.91l1.38-1.62h5.12c.49,0,.81.07.98.25.15.17.22.52.25,1.08h.25v-4.03h-.25c-.02.54-.1.91-.25,1.08-.15.17-.47.25-.98.25h-5.12v-11.91c0-.49.07-.81.25-.96s.52-.25,1.08-.27v-.25h-4.03Z"/>
    <g class="cls-16">
      <rect class="cls-1" x="177.7" y="62.52" width="9.3" height="16.38"/>
    </g>
  </g>
  <g>
    <path class="cls-1" d="M16.44,70.17l-.74-.07v-5.54l.15-.57c.1-.07.37-.12.79-.12.91,0,1.7.12,2.29.37,1.11.49,1.67,1.38,1.67,2.68,0,1.38-.49,2.31-1.53,2.83-.57.27-1.33.42-2.31.42h-.32ZM13,62.52v.34c.52.05.84.15,1.01.3.15.15.22.49.22,1.01v11.56c0,.59-.07.98-.2,1.16-.15.17-.47.27-1.03.32v.27h4.06v-.27c-.59-.05-.96-.15-1.13-.27-.17-.15-.25-.49-.25-1.03v-4.33h1.13c3.49,0,5.41-1.43,5.41-4.75,0-2.24-1.4-4.33-5.41-4.33h-3.81v.02Z"/>
    <g class="cls-17">
      <rect class="cls-1" x="13" y="62.52" width="9.23" height="14.96"/>
    </g>
  </g>
  <g>
    <path class="cls-1" d="M39.3,62.54v.25c.52.02.84.12.98.25.15.15.22.47.22.96v5.36c0,3.94-2.56,6.94-5.9,6.94h-.27c-3.35,0-5.9-2.98-5.9-6.94v-5.36c0-.49.07-.81.22-.96.17-.15.49-.22,1.01-.25v-.25h-3.81v.25c.52.05.84.15.98.27.15.15.22.44.22.93v6.91c0,3.71,3.69,6.91,7.38,6.91h.1c3.67,0,7.36-3.2,7.36-6.91v-6.91c0-.49.07-.79.22-.93.15-.12.49-.22.98-.27v-.25h-3.79Z"/>
    <g class="cls-23">
      <rect class="cls-1" x="25.84" y="62.54" width="17.25" height="15.28"/>
    </g>
  </g>
  <g>
    <path class="cls-1" d="M57.5,62.52v.25c.54.02.89.1,1.03.25.15.15.25.44.25.93v9.47l-8.46-9.15v-.34c0-.49.07-.81.25-.93.15-.15.52-.22,1.03-.25v-.25h-3.89v.25c.54.02.89.1,1.03.25s.25.44.25.93v12.05c0,.49-.07.81-.25.93s-.49.2-1.03.22v.25h3.89v-.25c-.52-.05-.89-.12-1.03-.22-.15-.12-.25-.44-.25-.93v-9.42l8.46,9.23v.22c0,.49-.07.81-.25.93s-.52.2-1.03.22v.25h3.89v-.25c-.54-.05-.89-.12-1.03-.22-.15-.12-.25-.44-.25-.93v-12.05c0-.49.07-.81.25-.93.17-.15.52-.22,1.03-.25v-.25h-3.89Z"/>
    <g class="cls-20">
      <rect class="cls-1" x="47.74" y="62.52" width="13.65" height="14.88"/>
    </g>
  </g>
  <g>
    <path class="cls-1" d="M119.37,70.09c0,2.83,2.41,7.7,7.6,7.7,2.02,0,4.31-1.57,4.4-1.65v-6.81h-4.38v2.76h.34s-.12-1.18.66-1.18h1.89v4.4s-1.23.84-2.88.84-6.03-1.28-6.03-6.37c0-3.27,2.78-6.03,6.03-6.03s3.91,2.26,3.91,2.26h.22l-.07-2.61s-1.45-1.23-4.53-1.23c-2.39.02-7.18,2.34-7.18,7.92Z"/>
    <g class="cls-19">
      <rect class="cls-1" x="119.37" y="62.2" width="12.01" height="15.62"/>
    </g>
  </g>
  <g>
    <path class="cls-1" d="M139.69,63.89h2.29c.49,0,2.36.47,2.36,2.53,0,1.03-.47,2.93-2.19,2.93-.91,0-2.46.05-2.46.05v-5.51ZM139.18,62.52h-2.16v.25c.54.02.91.1,1.08.25.17.15.25.47.25.96v6.1c0,.52-.07,6.72-.25,6.81-.17.15-.52.22-1.08.27v.25h4.03v-.25c-.54-.05-.98-.12-1.16-.25s-.17-5.61-.17-6.15l1.43.02,6.25,6.67h2.66v-.37l-.84-.15-6.13-6.3s2.8-1.03,2.8-4.13c0-3.47-3.15-3.99-3.94-3.99h-2.78Z"/>
    <g class="cls-22">
      <rect class="cls-1" x="137.01" y="62.52" width="13.06" height="14.93"/>
    </g>
  </g>
  <g>
    <path class="cls-1" d="M97.95,69.82h2.34c1.21,0,2.56,1.43,2.56,3,0,2.51-2.04,3.05-2.53,3.05h-2.36v-6.05ZM97.9,63.92h2.09c.32,0,1.89.42,1.89,2.14,0,.76-.44,2.39-1.67,2.39h-2.34v-4.53h.02ZM97.6,62.52h-2.36v.25c.57.02.91.1,1.08.25.17.15.25.47.25.96v6.1c0,.52-.07,6.72-.25,6.81-.17.15-.52.22-1.08.27v.25h2.76c1.21,0,1.85.02,2.76.02.76,0,3.62-1.53,3.62-4.21,0-3.2-2.14-4.26-2.14-4.26l-.15-.15.76-.64c.22-.25.62-.71.62-2.46s-1.4-2.9-3.15-3.1c-.59-.07-1.3-.07-1.85-.07-.49-.02-.86-.02-.86-.02Z"/>
    <g class="cls-21">
      <rect class="cls-1" x="95.24" y="62.52" width="9.1" height="14.91"/>
    </g>
  </g>
  <g>
    <path class="cls-1" d="M83.36,65.2l3.69,8.86-7.53.05,3.84-8.91ZM76.76,76.39c-.2.32-.49.57-1.3.39l-.2.22,3.49,1.72.12-.34s-1.03-.49-.69-1.28c.34-.76.76-1.7.76-1.7h8.78l.76,1.87s.22.62-.57.96l.07.42,3.42-1.7-.12-.3s-.89.54-1.38-.32c-.49-.84-6.54-14.59-6.54-14.59l-6.62,14.64Z"/>
    <g class="cls-7">
      <rect class="cls-1" x="75.26" y="61.8" width="16.16" height="16.93"/>
    </g>
  </g>
  <g>
    <path class="cls-1" d="M103.06,20.08s.66.86,1.28-.57c0,0,2.53-6.67,11.71-.66,0,0-7.21-9.62-12.45-.02,0,0-1.01-6.74,6.77-5.56,0,0-2.19-1.28-3-1.57-.02,0-7.43,1.62-4.31,8.39Z"/>
    <g class="cls-4">
      <rect class="cls-1" x="99.94" y="9.23" width="16.09" height="11.71"/>
    </g>
  </g>
  <g>
    <path class="cls-1" d="M114.11,23.08s-.96.93.91.74c0,0,2.36-.74,4.82,4.23,0,0-.84-5.51-3.91-5.51-.54,0-1.13.17-1.82.54Z"/>
    <g class="cls-11">
      <rect class="cls-1" x="113.15" y="22.54" width="6.69" height="5.51"/>
    </g>
  </g>
  <g>
    <path class="cls-1" d="M115.26,26.99c-1.7.42.02,1.3.02,1.3,4.03,2.83,4.72,8.93,4.72,8.93.2-1.25.34-2.93.34-2.93-.49-1.53-1.5-4.03-1.5-4.03-1.18-3.12-3.2-3.27-3.54-3.27h-.05Z"/>
    <g class="cls-9">
      <rect class="cls-1" x="113.57" y="26.99" width="6.79" height="10.21"/>
    </g>
  </g>
  <g>
    <path class="cls-1" d="M112.34,36.56s1.8,5.58-2.31,16.01l1.6-1.13s3.22-7.4,2.53-11.91c0,0-.49-2.14-.47-3.91,0,0-.02-1.53-.54-2.93,0,0,6.05,1.7,1.55,15.77,0,0,1.97-2.19,3.15-4.77,0,0,1.16-11.86-5.17-13.09,0,0-.1-.05-.25-.05-.49.02-1.65.57-.1,6Z"/>
    <g class="cls-10">
      <rect class="cls-1" x="110.05" y="30.58" width="9.2" height="22.02"/>
    </g>
  </g>
  <g>
    <path class="cls-1" d="M100.09,41.41s-1.6,1.48-2.63,1.35c0,0-.74-.12-.59.52,0,0,.54,1.48,3.22,1.21h.02c2.68.27,3.22-1.21,3.22-1.21.15-.62-.59-.52-.59-.52-1.03.15-2.66-1.35-2.66-1.35Z"/>
    <g class="cls-8">
      <rect class="cls-1" x="96.69" y="41.41" width="6.77" height="3.32"/>
    </g>
  </g>
  <g>
    <path class="cls-1" d="M102.57,22.49c-.27.1-1.18.62-1.67.84-.22.1-.47.15-.64.15h-.15.15-.34.15-.15c-.17-.02-.42-.05-.64-.15-.49-.22-1.4-.74-1.67-.84-.27-.1-1.16-.54-1.94.1,0,0-.27.34-.84.32-.57-.02-1.72-.12-2.14.42,0,0-.86.81-1.5.3,0,0-.93-1.21-1.38-1.3,0,0-.44-.27-.84.22-.42.49-1.08,1.33-1.08,1.94-.02.62.12,1.5,1.01,1.65.89.15,2.09.05,2.21,1.06v1.85c0,.07-.02,2.24,1.45,4.48,1.5,2.24,2.46,4.21,2.51,4.7.05.2.32,1.5,1.3,2.09,0,0,.93.76,1.99-.98,0,0,.49-.81.2-2.16,0,0-.17-.64-.93-.66l-.98-.15c-.37-.15-.32-.22-.74-.27-.44-.05-.86-.02-.96-1.18,0,0,.02-1.03.37-2.85,0,0,.27-1.28-.89-1.85-1.18-.54-1.62-.86-1.94-1.33l-.32-.39s-.69-1.03.59-1.01c0,0,1.23.34,2.07.44.81.1,2.21-.15,2.68-.25,0,0,1.38-.27.96,1.18,0,0-.34.89-.59,1.5s-.62,2.02-.71,2.51c0,0-.34,1.11.62,1.43,0,0,.98.15,1.75.15h.22c1.45.05,2.71-.15,2.71-.15.93-.3.62-1.43.62-1.43-.1-.52-.47-1.89-.71-2.51-.25-.62-.59-1.5-.59-1.5-.39-1.45.96-1.18.96-1.18.44.12,1.85.34,2.68.25s2.04-.44,2.04-.44c1.28-.02.62,1.01.62,1.01l-.34.39c-.3.47-.76.79-1.94,1.33-1.18.57-.89,1.85-.89,1.85.32,1.82.37,2.85.37,2.85-.1,1.13-.54,1.11-.96,1.18-.42.05-.39.12-.74.27l-.98.15c-.79.02-.96.66-.96.66-.3,1.35.2,2.16.2,2.16,1.06,1.75,1.99.98,1.99.98.98-.59,1.25-1.89,1.3-2.09.05-.49,1.01-2.46,2.51-4.7,1.5-2.24,1.45-4.4,1.45-4.48v-1.85c.1-1.03,1.33-.91,2.21-1.06s1.03-1.03,1.01-1.65c-.02-.62-.66-1.45-1.08-1.94-.42-.49-.84-.22-.84-.22-.44.1-1.38,1.3-1.38,1.3-.64.52-1.5-.3-1.5-.3-.44-.52-1.57-.44-2.14-.42-.57.02-.84-.32-.84-.32-.32-.27-.66-.34-.96-.34-.44.02-.84.2-.98.25Z"/>
    <g class="cls-5">
      <rect class="cls-1" x="87.86" y="21.97" width="24.48" height="19.16"/>
    </g>
  </g>
  <g>
    <path class="cls-1" d="M89.83,13.27c7.77-1.18,6.77,5.56,6.77,5.56-5.24-9.59-12.47.02-12.47.02,9.18-5.98,11.71.66,11.71.66.59,1.43,1.25.57,1.25.57,3.1-6.77-4.28-8.39-4.28-8.39-.79.27-2.98,1.57-2.98,1.57Z"/>
    <g class="cls-2">
      <rect class="cls-1" x="84.14" y="9.23" width="16.09" height="11.71"/>
    </g>
  </g>
  <g>
    <path class="cls-1" d="M80.33,28.05c2.44-4.97,4.82-4.23,4.82-4.23,1.87.2.91-.74.91-.74-.66-.39-1.28-.57-1.8-.57-3.1.02-3.94,5.54-3.94,5.54Z"/>
    <g class="cls-6">
      <rect class="cls-1" x="80.33" y="22.54" width="6.69" height="5.51"/>
    </g>
  </g>
  <g>
    <path class="cls-1" d="M84.88,26.99c-.34,0-2.39.15-3.54,3.27,0,0-1.01,2.51-1.5,4.03,0,0,.15,1.67.34,2.93,0,0,.69-6.1,4.7-8.93,0,0,1.72-.89.02-1.3h-.02Z"/>
    <g class="cls-3">
      <rect class="cls-1" x="79.84" y="26.99" width="6.79" height="10.21"/>
    </g>
  </g>
  <g>
    <path class="cls-1" d="M87.44,30.61c-6.32,1.23-5.17,13.09-5.17,13.09,1.21,2.58,3.17,4.77,3.17,4.77-4.53-14.07,1.55-15.77,1.55-15.77-.52,1.4-.54,2.93-.54,2.93.02,1.77-.47,3.91-.47,3.91-.69,4.53,2.53,11.91,2.53,11.91l1.6,1.13c-4.08-10.43-2.29-16.01-2.29-16.01,1.55-5.44.39-6-.15-6-.15.02-.25.05-.25.05Z"/>
    <g class="cls-12">
      <rect class="cls-1" x="80.92" y="30.58" width="9.2" height="22.02"/>
    </g>
  </g>
  <g>
    <path class="cls-1" d="M106.78,41.68s-1.16,4.58-2.02,6.4c0,0-.81,1.77-1.67,3.59s-1.67,3.2-2.98,3.32h-.02c-1.33-.12-2.12-1.5-3-3.32-.86-1.82-1.67-3.59-1.67-3.59-.86-1.82-2.02-6.4-2.02-6.4-.1-.32-.22-.37-.3-.37h-.05c-1.67,1.33-2.16,3.05-2.16,3.05-.89,2.44,1.23,9.32,1.23,9.32,1.87.98,4.23,1.4,4.23,1.4-2.8-1.33-3.81-5.78-3.81-5.78-.59-2.44,0-5.34,0-5.34.2-.62.27,0,.27,0,.47,3.74,3.25,7.7,3.25,7.7.71,1.01,1.45,2.51,1.45,2.51.49,1.53,2.53,1.3,2.53,1.3h.02s2.07.22,2.56-1.3c0,0,.71-1.5,1.45-2.51,0,0,2.78-3.96,3.25-7.7,0,0,.07-.62.25,0,0,0,.62,2.9,0,5.34,0,0-.96,4.45-3.79,5.78,0,0,2.36-.44,4.23-1.4,0,0,2.14-6.89,1.23-9.32,0,0-.47-1.72-2.14-3.05h-.05s-.2.05-.27.37Z"/>
    <g class="cls-13">
      <rect class="cls-1" x="90" y="41.31" width="20.15" height="14.39"/>
    </g>
  </g>
  <g>
    <path class="cls-1" d="M99.03,14.4c-.34-1.43,1.06-3.44,1.06-3.44h.02s1.4,2.04,1.06,3.44l-1.06,2.9h-.02l-1.06-2.9ZM100.09,10.17h0s-2.95-.12-5.98,1.01c0,0,3.79.42,4.62,4.58.22,1.18,1.01,4.85,1.33,4.85h.02c.34.02,1.13-3.64,1.35-4.85.84-4.18,4.62-4.58,4.62-4.58-2.53-.93-4.99-1.01-5.73-1.01-.15-.02-.25,0-.25,0Z"/>
    <g class="cls-14">
      <rect class="cls-1" x="94.11" y="10.04" width="11.96" height="10.55"/>
    </g>
  </g>
</svg>