<?xml version="1.0" encoding="UTF-8"?>
<svg id="Layer_1" data-name="Layer 1" xmlns="http://www.w3.org/2000/svg" viewBox="0 0 200 100">
  <defs>
    <style>
      .cls-1 {
        fill: #f58b5a;
      }

      .cls-2 {
        fill: #fefefe;
      }

      .cls-3 {
        fill: #01adee;
      }

      .cls-4 {
        fill: #bfd631;
      }
    </style>
  </defs>
  <g>
    <path class="cls-3" d="M97.77,56.82c-4.14-.89-5.69-7.89-1.97-9.43,3.94-1.63,1.92,4.73,6.02,5.38,6.55,1.04,7.33-7.79,1.87-10.47-8-3.93-16.54,6.97-11.76,14.15.49.75,1.82,1.44,1.56,2.27-7.93-1.9-14.79-8.43-17.33-16.13-5.57-16.82,6.33-33.6,24.01-33.35l-3.71,3.55c-5.97,8.2-13.34,14.62-12.61,25.64.04.62,1.42,9.4,2.68,8.44.93-5.92,6.24-8.62,8.55-14.12,2.76-6.55.01-13.76,4.13-19.58,1.86-2.63,2.17-2.76,4.04-.35,6.83,8.81,11.75,26.44,7.04,36.91-2.2,4.86-7.02,8.26-12.52,7.09Z"/>
    <path class="cls-3" d="M114.42,55.05c-2.09,1.41-4.9,2.92-7.44,3.07l3.09-2.99c9.43-13.86,3.41-33.91-6.95-45.61,22.46,2.17,30.33,32.76,11.3,45.52Z"/>
    <path class="cls-3" d="M96.54,6.66c-18.36,1.86-29.29,21.77-22.22,38.63,8.83,21.06,38.79,22.61,49.89,2.66,11.19-20.09-4.93-43.6-27.67-41.29ZM121.32,50.41c-11.65,15.6-35.95,13.61-45.03-3.54-9.16-17.3,3.02-38.7,22.61-39.32,22.46-.72,35.87,24.82,22.42,42.86Z"/>
    <path class="cls-2" d="M97.77,56.82c-4.14-.89-5.69-7.89-1.97-9.43,3.94-1.63,1.92,4.73,6.02,5.38,6.55,1.04,7.33-7.79,1.87-10.47-8-3.93-16.54,6.97-11.76,14.15.49.75,1.82,1.44,1.56,2.27-7.93-1.9-14.79-8.43-17.33-16.13-5.57-16.82,6.33-33.6,24.01-33.35l-3.71,3.55c-5.97,8.2-13.34,14.62-12.61,25.64.04.62,1.42,9.4,2.68,8.44.93-5.92,6.24-8.62,8.55-14.12,2.76-6.55.01-13.76,4.13-19.58,1.86-2.63,2.17-2.76,4.04-.35,6.83,8.81,11.75,26.44,7.04,36.91-2.2,4.86-7.02,8.26-12.52,7.09Z"/>
    <path class="cls-2" d="M114.42,55.05c-2.09,1.41-4.9,2.92-7.44,3.07l3.09-2.99c9.43-13.86,3.41-33.91-6.95-45.61,22.46,2.17,30.33,32.76,11.3,45.52Z"/>
    <path class="cls-4" d="M110.29,49.73c-2.2,4.86-7.02,8.26-12.52,7.09-4.14-.89-5.69-7.89-1.97-9.43,3.94-1.63,1.92,4.73,6.02,5.38,6.55,1.04,7.33-7.79,1.87-10.47-8-3.93-16.54,6.97-11.76,14.15.49.75,1.82,1.44,1.56,2.27-7.93-1.9-14.79-8.43-17.33-16.13-5.57-16.82,6.33-33.6,24.01-33.35l-3.71,3.55c-5.97,8.2-13.34,14.62-12.61,25.64.04.62,1.42,9.4,2.68,8.44.93-5.92,6.24-8.62,8.55-14.12,2.76-6.55.01-13.76,4.13-19.58,1.86-2.63,2.17-2.76,4.04-.35,6.83,8.81,11.75,26.44,7.04,36.91Z"/>
    <path class="cls-1" d="M114.42,55.05c-2.09,1.41-4.9,2.92-7.44,3.07l3.09-2.99c9.43-13.86,3.41-33.91-6.95-45.61,22.46,2.17,30.33,32.76,11.3,45.52Z"/>
  </g>
  <g>
    <path d="M38.64,86h-6.34v-.76c.56-.04,1.02-.11,1.39-.21.37-.11.55-.24.55-.4,0-.06,0-.14-.02-.24-.01-.09-.04-.17-.06-.25l-1.26-3.42h-5.35c-.2.5-.36.94-.49,1.31-.13.37-.24.72-.34,1.03-.09.31-.16.56-.19.75-.04.19-.05.35-.05.47,0,.29.23.51.68.67.45.16.96.25,1.53.28v.76h-5.74v-.76c.19-.01.42-.05.7-.12s.51-.16.69-.27c.29-.19.51-.4.67-.61.16-.21.31-.5.46-.88.77-1.91,1.61-4.06,2.54-6.45s1.75-4.51,2.47-6.37h.86l5.08,13.15c.11.28.23.5.37.68.14.17.33.34.57.5.16.1.38.18.64.25.26.07.49.11.67.11v.76ZM32.51,79.77l-2.31-5.92-2.28,5.92h4.58Z"/>
    <path d="M44.75,86h-5.17v-.71c.16-.01.34-.03.53-.05.19-.02.34-.04.46-.08.2-.06.35-.18.45-.34.1-.16.15-.37.15-.63v-12.28c0-.26-.06-.5-.17-.73-.11-.23-.26-.4-.44-.53-.13-.09-.37-.17-.71-.24-.34-.07-.62-.11-.83-.13v-.69l3.99-.24.15.16v14.53c0,.25.05.46.14.62.09.16.24.28.45.37.16.07.31.13.47.16.15.04.33.06.52.08v.71Z"/>
    <path d="M55.49,83.51c-.44.85-1.04,1.52-1.78,2.02-.75.5-1.6.75-2.57.75-.85,0-1.6-.15-2.24-.45-.64-.3-1.17-.71-1.58-1.22-.42-.52-.73-1.12-.93-1.8s-.31-1.41-.31-2.18c0-.69.11-1.36.33-2.02.22-.66.54-1.26.96-1.79.41-.51.91-.92,1.52-1.23.6-.31,1.28-.47,2.04-.47s1.44.12,1.99.37c.55.24,1,.58,1.34,1,.33.4.57.87.74,1.42.16.54.24,1.14.24,1.77v.71h-7.01c0,.7.07,1.33.2,1.9.13.57.34,1.07.63,1.5.28.42.64.75,1.1.99s.99.36,1.61.36,1.19-.15,1.65-.45.91-.84,1.34-1.61l.75.46ZM53.12,79.47c0-.4-.03-.83-.1-1.29-.07-.46-.18-.84-.33-1.15-.17-.33-.39-.6-.68-.8-.29-.21-.66-.31-1.11-.31-.75,0-1.38.31-1.87.94-.5.62-.77,1.49-.81,2.61h4.9Z"/>
    <path d="M67.94,86h-3.2c-.56-.81-1.16-1.67-1.8-2.6-.64-.92-1.3-1.82-1.99-2.69l-.88.82v2.51c0,.26.05.47.14.64.09.17.24.29.45.37.17.07.34.13.49.16.16.04.34.06.55.08v.71h-5.19v-.71c.16-.01.33-.03.51-.05.18-.02.33-.04.45-.08.2-.06.35-.18.45-.34.1-.16.15-.37.15-.63v-12.32c0-.26-.06-.51-.17-.75-.11-.23-.26-.41-.44-.53-.15-.11-.39-.19-.7-.23-.32-.04-.57-.06-.77-.08v-.69l3.92-.24.15.16v11.21c.56-.56,1.16-1.16,1.81-1.8.65-.64,1.19-1.21,1.64-1.71.06-.06.12-.15.19-.25.07-.1.1-.19.1-.25,0-.19-.16-.34-.47-.43-.31-.09-.61-.16-.9-.19v-.69h4.66v.67c-.6.18-1.13.4-1.6.67s-.81.51-1.06.72c-.17.14-.42.38-.73.7-.32.32-.76.74-1.32,1.27.59.72,1.25,1.59,1.98,2.6.73,1.01,1.27,1.74,1.61,2.19.32.42.6.7.85.83.25.13.62.21,1.1.24v.71Z"/>
    <path d="M80.03,86h-5.21v-.71c.16-.01.35-.03.55-.04.2-.01.37-.04.49-.09.2-.06.35-.18.45-.34s.15-.37.15-.63v-5.45c0-.75-.18-1.33-.53-1.74-.35-.41-.79-.61-1.3-.61-.37,0-.72.06-1.04.18s-.6.26-.86.43c-.24.18-.43.36-.56.54-.13.18-.23.33-.3.45v6.09c0,.24.05.44.15.6.1.16.25.28.45.37.16.07.32.13.49.16.17.04.35.06.55.08v.71h-5.19v-.71c.16-.01.33-.03.51-.05.18-.02.33-.04.45-.08.2-.06.35-.18.45-.34.1-.16.15-.37.15-.63v-12.34c0-.24-.06-.49-.17-.73-.11-.24-.26-.43-.44-.55-.13-.09-.36-.16-.68-.2-.33-.04-.59-.07-.79-.08v-.69l3.92-.24.15.16v7.39h.04c.24-.24.45-.45.65-.63s.45-.37.76-.58c.27-.17.59-.31.96-.43.37-.11.78-.17,1.24-.17.95,0,1.67.3,2.18.9s.76,1.46.76,2.58v5.51c0,.25.04.45.14.61.09.15.24.27.45.36.17.06.32.11.45.15.13.03.31.06.52.07v.71Z"/>
    <path d="M80.5,89.46c0-.36.1-.65.3-.88.2-.23.44-.34.74-.34.23,0,.43.04.59.13.17.09.31.2.44.33.11.11.22.25.34.44.12.18.22.34.29.46.36-.19.79-.7,1.28-1.51.5-.82.86-1.53,1.08-2.14-.68-1.7-1.3-3.21-1.85-4.55s-1.13-2.72-1.73-4.16c-.14-.33-.37-.58-.69-.77s-.64-.3-.97-.35v-.71h4.84v.75c-.21,0-.47.05-.77.13s-.45.18-.45.28c0,.04.02.11.05.21.03.1.07.2.11.31.27.71.69,1.73,1.24,3.06.56,1.33.99,2.4,1.3,3.2.32-.77.66-1.56,1.01-2.38s.74-1.79,1.17-2.9c.05-.14.12-.32.22-.56.09-.24.14-.45.14-.62,0-.19-.16-.36-.49-.52-.33-.16-.64-.26-.93-.3v-.69h3.93v.67c-.21.04-.5.16-.85.37-.35.21-.61.51-.78.9-.85,1.98-1.61,3.78-2.27,5.4-.66,1.63-1.17,2.82-1.51,3.59-.45,1-.85,1.79-1.21,2.35-.35.56-.7,1-1.04,1.33-.33.3-.63.5-.9.61-.27.1-.55.16-.83.16-.56,0-1-.13-1.32-.4-.32-.26-.48-.57-.48-.91Z"/>
    <path d="M102.17,85.81c-.34.12-.63.22-.89.3s-.54.11-.86.11c-.56,0-1-.13-1.34-.39-.33-.26-.55-.64-.64-1.14h-.06c-.47.52-.97.91-1.5,1.18-.53.27-1.18.41-1.93.41-.79,0-1.45-.24-1.96-.73-.51-.49-.77-1.12-.77-1.91,0-.41.06-.77.17-1.1.11-.32.29-.61.52-.87.18-.21.42-.41.71-.57.29-.17.57-.3.83-.4.32-.12.98-.35,1.96-.68.98-.33,1.65-.59,1.99-.77v-1.06c0-.09-.02-.27-.06-.54-.04-.26-.12-.52-.25-.75-.14-.26-.35-.5-.61-.69-.26-.2-.63-.3-1.11-.3-.33,0-.64.06-.92.17-.28.11-.48.23-.6.35,0,.14.03.35.1.63.07.28.1.54.1.77,0,.25-.11.48-.34.69-.23.21-.54.31-.94.31-.36,0-.62-.13-.79-.38-.17-.25-.25-.54-.25-.85s.12-.64.35-.95c.23-.3.54-.57.91-.81.32-.2.71-.37,1.17-.51.46-.14.91-.21,1.34-.21.6,0,1.13.04,1.57.12.45.08.85.26,1.22.53.37.27.64.62.83,1.08.19.46.28,1.04.28,1.76,0,1.02-.01,1.93-.03,2.72s-.03,1.66-.03,2.59c0,.28.05.5.15.67.1.17.25.3.45.42.11.06.28.1.51.11.23,0,.47.01.71.01v.69ZM98.42,80.14c-.61.18-1.14.36-1.6.53-.46.17-.88.39-1.28.65-.36.24-.64.53-.85.87-.21.33-.31.73-.31,1.19,0,.6.16,1.03.47,1.31.31.28.71.42,1.19.42.51,0,.96-.12,1.34-.37s.71-.54.98-.88l.06-3.71Z"/>
    <path d="M124.59,86h-6.33v-.76c.17-.01.42-.04.75-.06.33-.03.55-.07.67-.13.21-.09.37-.22.47-.39.1-.18.15-.4.15-.68v-5.42h-7.16v5.31c0,.25.04.46.12.63s.25.32.49.45c.12.06.34.13.65.19.31.06.56.1.74.11v.76h-6.33v-.76c.17-.01.42-.04.75-.06.33-.03.55-.07.67-.13.21-.09.37-.22.47-.39.1-.18.15-.4.15-.68v-11c0-.23-.05-.44-.14-.63-.09-.19-.25-.34-.48-.45-.19-.09-.43-.17-.7-.25-.28-.07-.51-.11-.71-.13v-.76h6.33v.76c-.2,0-.45.04-.74.1-.29.06-.51.11-.65.16-.24.09-.41.23-.49.43-.08.2-.12.42-.12.66v4.73h7.16v-4.62c0-.23-.05-.44-.14-.63-.09-.19-.25-.34-.48-.45-.19-.09-.43-.17-.7-.25-.28-.07-.51-.11-.71-.13v-.76h6.33v.76c-.2,0-.45.04-.74.1-.29.06-.51.11-.65.16-.24.09-.41.23-.49.43-.08.2-.12.42-.12.66v10.99c0,.25.04.46.12.63s.25.32.49.45c.12.06.34.13.65.19.31.06.56.1.74.11v.76Z"/>
    <path d="M136.79,80.6c0,.75-.12,1.48-.35,2.2-.24.72-.57,1.33-1.01,1.83-.5.57-1.07,1-1.72,1.28s-1.38.42-2.19.42c-.67,0-1.32-.13-1.92-.38s-1.15-.62-1.62-1.11c-.47-.48-.84-1.06-1.11-1.76-.28-.69-.41-1.47-.41-2.33,0-1.65.48-3.01,1.45-4.06s2.23-1.58,3.79-1.58,2.71.5,3.67,1.5,1.45,2.33,1.45,3.99ZM134.57,80.62c0-.54-.05-1.1-.16-1.7-.11-.6-.27-1.1-.48-1.52-.23-.44-.53-.8-.9-1.07s-.83-.4-1.37-.4-1.02.14-1.42.41c-.39.27-.71.64-.95,1.12-.23.44-.39.93-.48,1.49-.09.56-.14,1.1-.14,1.62,0,.69.06,1.32.17,1.91.11.58.29,1.1.53,1.56.24.46.55.82.92,1.08.37.26.83.39,1.37.39.9,0,1.61-.43,2.13-1.3.52-.87.79-2.06.79-3.59Z"/>
    <path d="M156.44,86h-5.16v-.71c.17-.01.33-.03.5-.04.17-.01.32-.04.45-.09.2-.06.35-.18.45-.34.1-.16.14-.37.14-.63v-5.47c0-.74-.17-1.32-.51-1.72-.34-.4-.76-.61-1.27-.61-.35,0-.68.05-.99.16s-.59.26-.85.45c-.21.16-.38.33-.52.51-.14.18-.25.33-.32.46v6.11c0,.25.04.46.13.62s.23.28.44.37c.17.06.31.11.45.15.13.03.31.06.52.07v.71h-5.05v-.71c.17-.01.32-.03.48-.04.15-.01.29-.04.42-.09.2-.06.35-.18.45-.34.1-.16.15-.37.15-.63v-5.47c0-.74-.17-1.32-.51-1.72s-.77-.61-1.28-.61c-.35,0-.68.06-.99.17-.31.11-.59.26-.85.46-.21.16-.38.33-.53.53s-.25.35-.32.45v6.07c0,.24.05.45.15.61.1.17.25.29.45.38.15.07.3.13.46.16.16.04.33.06.53.08v.71h-5.15v-.71c.17-.01.33-.03.51-.04.17-.01.33-.04.46-.09.2-.06.35-.18.45-.34.1-.16.14-.37.14-.63v-6.58c0-.23-.05-.43-.16-.62-.1-.18-.25-.34-.43-.47-.14-.09-.3-.16-.5-.21s-.41-.09-.62-.1v-.71l3.54-.24.15.15v1.51h.08c.18-.18.4-.39.66-.63.26-.24.5-.44.72-.59.25-.17.56-.31.94-.43.38-.11.78-.17,1.22-.17.69,0,1.28.18,1.77.55s.85.81,1.06,1.34c.26-.25.48-.47.68-.66.2-.19.46-.39.78-.61.27-.19.59-.34.96-.45.37-.11.78-.17,1.23-.17.89,0,1.6.29,2.12.88.52.59.78,1.49.78,2.71v5.38c0,.25.04.46.13.62s.23.28.44.37c.17.06.33.11.49.15.16.03.34.06.54.07v.71Z"/>
    <path d="M167.11,83.51c-.44.85-1.04,1.52-1.78,2.02s-1.6.75-2.57.75c-.85,0-1.6-.15-2.24-.45-.64-.3-1.17-.71-1.58-1.22s-.73-1.12-.93-1.8c-.21-.69-.31-1.41-.31-2.18,0-.69.11-1.36.33-2.02.22-.66.54-1.26.96-1.79.41-.51.92-.92,1.52-1.23.61-.31,1.28-.47,2.04-.47s1.44.12,1.99.37c.55.24,1,.58,1.34,1,.33.4.58.87.74,1.42.16.54.24,1.14.24,1.77v.71h-7.01c0,.7.07,1.33.2,1.9.13.57.34,1.07.63,1.5.28.42.64.75,1.1.99s.99.36,1.61.36,1.19-.15,1.65-.45c.46-.3.91-.84,1.34-1.61l.75.46ZM164.73,79.47c0-.4-.03-.83-.1-1.29-.07-.46-.18-.84-.33-1.15-.17-.33-.39-.6-.68-.8s-.66-.31-1.11-.31c-.75,0-1.38.31-1.87.94-.5.62-.77,1.49-.81,2.61h4.9Z"/>
    <path d="M175.32,80.82c.29.26.52.56.68.89.16.34.24.75.24,1.24,0,.98-.37,1.78-1.1,2.41-.73.62-1.68.93-2.85.93-.62,0-1.18-.11-1.7-.33-.52-.22-.89-.43-1.11-.61l-.21.7h-.81l-.11-3.68h.74c.06.28.18.61.37.98.19.37.41.71.68,1.01.28.32.61.58,1,.8.39.22.83.32,1.32.32.69,0,1.22-.16,1.59-.47s.56-.76.56-1.35c0-.3-.06-.56-.18-.78-.12-.22-.29-.41-.52-.58-.24-.16-.53-.31-.87-.45s-.73-.26-1.15-.39c-.34-.1-.71-.24-1.12-.41-.41-.18-.76-.38-1.06-.62-.32-.25-.57-.56-.77-.92s-.3-.79-.3-1.29c0-.87.32-1.6.97-2.2s1.51-.9,2.59-.9c.42,0,.84.05,1.27.16.43.11.79.24,1.06.39l.25-.56h.77l.16,3.41h-.74c-.15-.76-.47-1.38-.97-1.86-.5-.48-1.1-.72-1.82-.72-.59,0-1.05.15-1.39.44-.34.29-.5.65-.5,1.07,0,.32.06.59.17.81.11.21.28.4.5.55.21.14.49.28.81.4.33.12.73.27,1.21.42.47.15.92.33,1.34.53.42.2.76.42,1.04.67Z"/>
  </g>
</svg>