<?xml version="1.0" encoding="UTF-8"?>
<svg id="Layer_1" data-name="Layer 1" xmlns="http://www.w3.org/2000/svg" viewBox="0 0 200 100">
  <path d="M120.33,45.08v-11.95s.07-.08.08-.08h4.95v23.94l-14.16-13.73v11.25h-5.01s-.08-.07-.08-.08v-23.09l14.21,13.73Z"/>
  <path d="M39.14,33.78l-2.8,5.13c-.08.05-1.33-.7-1.56-.8-2.52-1.1-6.43-.59-8.04,1.81-1.13,1.68-1.26,4.25-.64,6.13,1.17,3.5,5.08,4.66,8.31,3.23v-6.71s.07-.08.08-.08h4.88s.08.07.08.08v9.17c-5.05,5.05-13.94,3.98-17.39-2.38-1.42-2.62-1.74-6.24-.95-9.1,1.85-6.7,9.28-9.28,15.47-6.85.13.05.73.37.77.37h1.79Z"/>
  <polygon points="104.92 54.51 99.34 54.51 93.09 42.54 87.69 54.51 82.14 54.51 92.86 31.03 104.92 54.51"/>
  <polygon points="158.98 54.51 153.4 54.51 147.15 42.54 141.75 54.51 136.2 54.51 146.86 31.03 158.98 54.51"/>
  <path d="M48.01,38.13s.05.07.05.08v2.49s-.07.04-.05.08h4.41v5.08h-4.36v3.6s-.07.04-.05.08h5.65v5.03h-10.69v-21.43s.07-.08.08-.08h9.86s.08.07.08.08v4.92s-.07.08-.08.08h-4.9Z"/>
  <path d="M62.69,38.13v2.64h4.41v5s-.07.08-.08.08h-4.33v3.68h5.65v5.03h-10.69v-21.43s.07-.08.08-.08h9.86s.08.07.08.08v4.92s-.07.08-.08.08h-4.9Z"/>
  <path d="M86.4,33.05v5.18h-5.4v16.25s-.07.08-.08.08h-4.93s-.08-.07-.08-.08v-16.25h-5.45v-5.18h15.93Z"/>
  <path d="M165.51,33.05v16.53h6.87s.08.07.08.08v4.95l-11.93.05v-21.61h4.98Z"/>
  <path d="M135.37,33.05v20.29c-.34,3.71-3.15,6.57-6.45,7.96l-2.36-4.33c.75-.53,1.63-.89,2.33-1.51.59-.52,1.45-1.62,1.45-2.44v-19.98h5.03Z"/>
  <path d="M179.31,33.1v21.46h-4.95s-.08-.07-.08-.08v-21.3s.07-.08.08-.08h4.95Z"/>
  <path d="M64.45,57.05c-.15.33-.38.61-.55.93-2.38,4.67,1.38,10.07,6.58,9.53,4.94-.51,7.52-6.38,4.57-10.36-.05-.03.05-.1.05-.1h1.25c1.47,2.39,1.42,5.56-.04,7.95-1.79,2.93-5.3,4.36-8.64,3.42-4.85-1.37-7.14-7.01-4.55-11.36h1.32Z"/>
  <polygon points="92.47 66.02 92.47 57.05 93.61 57.05 93.61 68.97 83.03 57.05 84.45 57.05 92.47 66.02"/>
  <path d="M25.67,57.05c.13.04.06.41.08.54.35,2.28,4.52,3.22,5.5,5.65.73,1.79-.12,3.83-1.81,4.69-1.89.96-4.29.68-6.09-.35-.06-.08.53-.82.58-.98.74.38,1.51.71,2.36.77,1.98.15,4.29-.71,4.07-3.08-.24-2.5-4.88-3.24-5.66-6.26-.05-.18-.16-.69-.14-.84,0-.05.05-.13.08-.13.21,0,.9-.04,1.04,0Z"/>
  <path d="M54.13,67.21h5.63s.08.07.08.08v1.06h-6.8v-11.3h1.06l.03,10.16Z"/>
  <polygon points="47.9 68.35 46.74 68.35 41.94 57.05 43.11 57.05 47.9 68.35"/>
  <polygon points="40.95 57.05 36.23 68.35 35.04 68.35 39.79 57.05 40.95 57.05"/>
  <path d="M81.73,57.05v11.22s-.07.08-.08.08h-1.06v-11.3h1.14Z"/>
</svg>