<?xml version="1.0" encoding="UTF-8"?>
<svg id="Layer_1" data-name="Layer 1" xmlns="http://www.w3.org/2000/svg" viewBox="0 0 200 100">
  <defs>
    <style>
      .cls-1 {
        fill: red;
      }
    </style>
  </defs>
  <g>
    <path d="M99.16,22.38l.53.7c.55,1.93.96,3.93,1.55,5.85.16.51-.04,1.5.8,1.23.38-.12,1.78-6.76,1.85-7.78h6.57v15.97h-4.52v-10.65l-2.91,10.61-2.99.07-3.53-11.08v11.06h-3.69v-15.97h6.36Z"/>
    <polygon points="130.56 42.04 132.62 50.23 135.08 42.04 141.65 42.04 141.65 58.01 137.13 58.01 137.13 46.95 134.02 58.03 130.76 57.61 127.69 46.95 127.69 58.01 124 58.01 124 42.04 130.56 42.04"/>
    <path d="M118.46,61.69c4.94.73,6.04,6.88,1.53,9.19l2.78,6.77-5.34-.19-2.25-5.53-1.85-.41v6.14h-4.93v-15.97c3.11.33,7.06-.44,10.06,0ZM117.33,65.48l-4.01-.51v3.28l3.83-.38.18-2.39Z"/>
    <path d="M92.8,42.04h4.93s.06,5.47.06,5.47c.34,1.03,3.65,1.03,3.99,0l.06-5.47h4.93v15.97h-4.93v-6.14h-4.1v6.14h-4.93v-15.97Z"/>
    <path d="M114.47,41.72c10.92-1.19,11.5,16.14,1.51,16.7-10.5.59-11.16-15.64-1.51-16.7ZM116.92,45.82c-4.73-2.17-4.7,5.61-3.09,8.4,4.82,2.5,4.64-5.67,3.09-8.4Z"/>
    <path d="M130.84,61.44c6.34-.1,8.25,5.14,7.49,10.65-.41,2.99-3.31,5.69-6.32,5.97-11.6,1.09-11.71-16.46-1.16-16.63ZM130.45,65.03c-2.93.79-3.11,11.82,1.97,8.96,1.57-1.98,1.54-9.9-1.97-8.96Z"/>
    <path d="M106.76,77.66l-2.44-.04-.63-1.18c-7.77,5.49-13.84-3.35-10.55-10.93,2.55-5.88,13-5.36,13.62,1.51l-4.24.43c-3.35-6.39-6.45.65-4.78,5.09,1.36,3.6,5.66.93,4.5-.19h-2.46s0-3.28,0-3.28h6.98v8.6Z"/>
    <polygon points="155.6 42.04 155.6 45.72 148.22 45.72 148.22 48.18 153.96 48.18 153.96 51.45 148.22 51.45 148.22 54.32 155.6 54.32 155.6 58.01 143.29 58.01 143.29 42.04 155.6 42.04"/>
    <path d="M144.52,61.69v11.67c.73,1.05,1.77,1.26,3,.95.6-.1,1.52-1.78,1.52-2.18v-10.44h3.69v12.08c0,.11-.72,1.73-.88,1.99-1.88,3.02-8.94,3.07-11.21.65-.16-.17-1.05-1.72-1.05-1.82v-12.9h4.93Z"/>
    <path d="M159.3,71.93v5.73h-4.93v-15.97h8.83c.78,0,3.31,1.23,3.69,2.05s.38,4.98.13,5.85c-.69,2.37-5.71,2.56-7.71,2.34ZM159.3,68.65c2.18.19,4.47-.24,3.52-2.9l-3.52-.38v3.28Z"/>
    <path d="M116.2,31.19l-5.34-8.8,5.34.2c.67.61,2.26,4.95,3.07,4.72.25-.07,1.94-4.02,2.22-4.66l4.56-.05c-.68,1.25-4.92,7.88-4.92,8.6v7.17h-4.93v-7.17Z"/>
  </g>
  <path class="cls-1" d="M32.87,48.18c.55-9.43,5.38-19.24,12.51-25.4,13.28-11.47,32.43-11.84,46.34-1.25l.26.84-38.58,24.17h17.24v31.53h21.35l-4.65,3.35c-23.64,13.17-52.87-2.74-54.46-29.55-.07-1.14-.07-2.54,0-3.69Z"/>
</svg>