<?xml version="1.0" encoding="UTF-8"?>
<svg id="Layer_1" data-name="Layer 1" xmlns="http://www.w3.org/2000/svg" viewBox="0 0 200 100">
  <defs>
    <style>
      .cls-1 {
        fill: #b5895d;
      }
    </style>
  </defs>
  <g>
    <path class="cls-1" d="M11.9,56.83h14.16c1.17,0,2.03-.26,2.58-.79.56-.53.83-1.34.83-2.44v-5.43h-2.3v4.92c0,.66-.14,1.13-.42,1.4s-.75.41-1.41.41h-13.44M11.91,41.74v1.94h17.56v-1.94H11.91Z"/>
    <path class="cls-1" d="M32.75,48.17v8.66h2.31v-6.73h13.96v6.73h2.33v-8.66h-18.6Z"/>
    <path class="cls-1" d="M75.71,48.17v8.66h2.31v-6.73h13.96v6.73h2.33v-8.66h-18.6Z"/>
    <path class="cls-1" d="M115.8,49.99c-.38-.47-1.01-.75-1.9-.86.89-.1,1.52-.38,1.9-.85.03-.03.05-.07.08-.11h-18.11v8.66h15.3c1.15,0,1.99-.25,2.51-.75.52-.51.79-1.31.79-2.39v-1.65c0-.9-.19-1.58-.57-2.05ZM114.06,53.16c0,.63-.14,1.08-.4,1.34-.27.27-.72.4-1.36.4h-12.22v-4.8h12.22c.65,0,1.1.13,1.37.4s.39.71.39,1.34v1.32Z"/>
    <path class="cls-1" d="M144.42,54.9v-4.8h13.55v-1.93h-15.85v8.66h18.02v-1.93h-15.72Z"/>
    <rect class="cls-1" x="76" y="41.43" width="18.02" height="1.94"/>
    <rect class="cls-1" x="33.04" y="41.43" width="18.02" height="1.94"/>
  </g>
  <g>
    <path class="cls-1" d="M70.73,41.43v4.95c0,.66-.14,1.12-.42,1.39-.27.26-.74.39-1.4.39h-10.73c-.66,0-1.13-.13-1.41-.41-.28-.27-.42-.72-.42-1.37v-4.95h-2.33v5.43c0,2.16,1.13,3.24,3.4,3.24h4.96v6.73h2.3v-6.73h4.96c2.27,0,3.4-1.08,3.4-3.24v-5.43h-2.31Z"/>
    <path class="cls-1" d="M116.37,46.23v-1.65c0-1.09-.27-1.88-.79-2.39s-1.36-.76-2.51-.76h-15.3v1.94h14.53c.64,0,1.09.13,1.36.39.26.27.4.71.4,1.34v1.32c0,.63-.13,1.08-.39,1.35-.27.26-.72.39-1.37.39h-14.53v8.67h15.3c1.15,0,1.99-.25,2.51-.76.52-.5.79-1.3.79-2.39v-1.65c0-.89-.19-1.57-.57-2.04-.38-.47-1.01-.76-1.9-.86.89-.1,1.52-.39,1.9-.86.38-.47.57-1.15.57-2.04ZM114.06,51.84v1.32c0,.63-.14,1.07-.4,1.34-.27.26-.72.39-1.36.39h-12.22v-4.79h12.22c.65,0,1.1.13,1.37.39.26.27.39.71.39,1.35Z"/>
    <path class="cls-1" d="M136.16,41.43v6.73h-14.37v-6.73h-2.31v15.4h2.31v-6.73h14.37v6.73h2.31v-15.4h-2.31Z"/>
    <path class="cls-1" d="M142.12,41.43v1.94h18.02v-1.94h-18.02ZM144.42,54.89v-4.79h13.55v-1.94h-15.85v8.67h18.02v-1.94h-15.72Z"/>
    <path class="cls-1" d="M181.59,46.23v-1.65c0-1.09-.26-1.88-.78-2.39s-1.36-.76-2.52-.76h-15.29v1.94h14.53c.63,0,1.08.13,1.35.39.27.27.41.71.41,1.34v1.32c0,.63-.13,1.08-.4,1.35-.26.26-.71.39-1.36.39h-14.53v8.67h2.3v-6.73h12.14c.68,0,1.15.14,1.43.44.28.29.42.76.42,1.41v4.88h2.3v-4.62c0-.89-.19-1.6-.57-2.11-.39-.52-1.05-.83-1.99-.95.93-.1,1.58-.39,1.97-.86.4-.47.59-1.15.59-2.06Z"/>
    <path class="cls-1" d="M184.85,41.43v15.4h2.3v-15.4h-2.3Z"/>
  </g>
</svg>