<?xml version="1.0" encoding="UTF-8"?>
<svg id="Layer_1" data-name="Layer 1" xmlns="http://www.w3.org/2000/svg" viewBox="0 0 200 100">
  <defs>
    <style>
      .cls-1 {
        fill: #ed4aab;
      }
    </style>
  </defs>
  <path class="cls-1" d="M39.24,64.39c-.97.89-1.57,1.98-2.7,2.77-7.34,5.16-17.59.53-19.44-7.98-2.63-12.11,9.3-21.73,19.84-14.46l2.11,2.4v-4.13c.35-.47,2.99-.38,3.18-.11l.28,25.73h-2.97l-.29-.29v-3.93ZM36.87,48.72c-4.72-5.51-13.31-4.15-16.06,2.52-2.29,5.56-.05,12.98,6.14,14.59,10.19,2.65,16.15-9.84,9.91-17.11Z"/>
  <path class="cls-1" d="M145.27,65.08c-6.7-6.04-5.81-17.81,2.23-22.27,12.21-6.77,23.64,8.71,16.38,19.65-4.25,6.4-12.78,7.88-18.62,2.62ZM152.83,44.3c-13.95,1.21-9.89,24.74,3.41,20.49,10.71-3.42,7.64-21.45-3.41-20.49Z"/>
  <path class="cls-1" d="M121.58,67.85h-3.26l-.19-25.72h3.07l.19,2.88c2.65-3.28,6.5-4.33,10.55-3.17,7.31,2.11,7.5,8.75,7.69,15.15.1,3.5-.07,7.03-.03,10.54-.19.57-2.48.3-3.06.23-.2-.14-.16-.37-.19-.58-.71-5.87,2.14-17.78-3.47-21.48-5.21-3.44-10.89.33-11.47,6.14-.42,4.23-.17,10.58-.03,14.96.01.37.15.69.2,1.05Z"/>
  <path class="cls-1" d="M166.69,41.75l6.05,9.6c.39,0,.6-.48.79-.75,1.99-2.79,3.53-5.91,5.45-8.75l3.83-.29-7.86,12.76,8.05,13.15h-3.55l-6.53-9.98-6.04,9.88c-.46.01-3.81.64-3.84,0l7.87-13.04-8.06-12.58h3.84Z"/>
  <path class="cls-1" d="M101.43,33.3c.57.39,1.6-.14,1.73.67l.19,34.45-1.73-.29v-5.66c-.56.45-.88,1.28-1.35,1.82-7.7,8.95-17.03-.58-16.5-10.17.59-10.59,10.94-16.55,17.66-6.62v-14.2ZM98.29,63.94c5.57-5.57,3.52-20.48-5.4-19.7-5.91.52-8.13,8.52-7.16,13.48,1.15,5.86,7.18,11.6,12.55,6.22Z"/>
  <path class="cls-1" d="M63.43,33.68v8.83h5.66l.29.29v2.78h-5.76l.19,22.84h-3.26l-.19-22.65-4.99-.19v-3.07c.14-.05.23.19.29.19h4.41l.29-.29v-8.92l3.07.19Z"/>
  <path class="cls-1" d="M47.5,45.97c.69-.68.94-1.55,1.72-2.21,1.2-1.02,3.33-1.87,4.91-1.63.3.05.29-.12.29.29,0,.96-.36,2.1-.22,3.14-5.95,1.04-6.75,4.93-6.69,10.29,0,.36.19.74.2,1.15.03,3.81.03,7.65-.09,11.44l-2.86.15-.32-.45-.11-25.25c.19-.27,2.83-.36,3.18.11v2.97Z"/>
  <path class="cls-1" d="M116.02,42.13l.3,25.73-2.86.15c-.34-.1-.32-.69-.32-1.03v-21.5l-.29-.29h-4.7v-3.07h7.87Z"/>
  <polygon class="cls-1" points="76.1 33.3 77.82 33.3 78.01 43.09 83.2 43.09 83.2 44.24 78.01 44.24 78.21 67.94 77.89 68.4 76.48 68.42 76.24 44.76 75.97 44.23 70.83 44.26 71.01 43.09 76.1 43.09 76.1 33.3"/>
  <path class="cls-1" d="M116.02,37.71v3.07h-7.77l-.26-2.57.16-.22c.3.02.89-.28,1.06-.28h6.81Z"/>
  <polygon class="cls-1" points="107.95 26.39 105.24 35.39 104.5 35.41 107.36 26.5 107.95 26.39"/>
</svg>