<?xml version="1.0" encoding="UTF-8"?>
<svg id="Layer_1" data-name="Layer 1" xmlns="http://www.w3.org/2000/svg" viewBox="0 0 200 100">
  <defs>
    <style>
      .cls-1 {
        fill: #fc0;
      }

      .cls-2 {
        fill-rule: evenodd;
      }

      .cls-2, .cls-3 {
        fill: #96c126;
      }

      .cls-4 {
        fill: #c1d345;
      }
    </style>
  </defs>
  <rect class="cls-4" x="88.85" y="8.08" width="22.23" height="23.1"/>
  <rect class="cls-3" x="74.08" y="8.08" width="7.38" height="46.13"/>
  <path class="cls-2" d="M118.46,8.08h7.38v46.13h-37v-15.72h23.34c3.41,0,6.27-2.94,6.27-6.51V8.08Z"/>
  <rect class="cls-1" x="88.77" y="8.08" width="22.23" height="23.1"/>
  <path d="M74.08,65.16h1.43v-2.62h1.75c.79,0,1.75.08,2.38-.56.64-.56.64-1.43.64-2.22,0-2.46-1.03-2.78-3.1-2.78h-3.18v8.18h.08ZM75.51,61.19v-2.86h1.91c1.19,0,1.35.32,1.35,1.51,0,1.27-.4,1.35-1.51,1.35h-1.75ZM86.31,57.07v5.64c0,1.11-.48,1.19-1.51,1.19h-.48c-1.03,0-1.51-.16-1.51-1.35v-5.48h-1.51v5.48c0,2.54,1.27,2.7,3.33,2.7.24,0,.56,0,.87-.08,1.91-.08,2.3-.95,2.3-2.78v-5.4h-1.51v.08ZM95.12,59.45v-.32c0-2.06-1.43-2.06-3.02-2.06h-1.27c-1.35.16-1.91.87-1.91,2.22,0,2.22,1.11,2.3,2.94,2.38,1.11.08,1.98-.16,1.98,1.11,0,.95-.4,1.19-1.35,1.19h-1.11c-.87,0-.95-.64-.95-1.35h-1.43v.32c0,2.22,1.27,2.3,3.1,2.3.48,0,.95,0,1.51-.08,1.59-.16,1.83-1.11,1.83-2.46,0-2.54-1.91-2.14-3.73-2.3-.87-.08-1.11-.24-1.11-1.11,0-.32.08-.71.32-.87.32-.16.79-.16,1.19-.16h.4c.95,0,1.27.24,1.27,1.19h1.35ZM103.06,57.07h-1.51v3.33h-3.73v-3.33h-1.51v8.1h1.51v-3.49h3.73v3.49h1.51v-8.1ZM105.91,57.07h-1.51v8.1h1.51v-3.49h.71l2.86,3.49h1.91l-3.57-4.21,3.18-3.97h-1.91l-2.62,3.33h-.71v-3.25h.16ZM116.71,63.58l.48,1.59h1.51l-2.7-8.1h-2.22l-2.54,8.1h1.59l.48-1.59h3.41ZM116.39,62.46h-2.78l1.35-4.21,1.43,4.21ZM119.41,65.16h1.43v-2.7h2.14c.71,0,1.19.24,1.19,1.03v1.67h1.51v-1.75c0-.95-.4-1.51-1.35-1.59v-.08c.32-.08.64-.16.95-.4.48-.4.48-1.19.48-1.83,0-1.91-.79-2.46-2.54-2.46h-3.81v8.1ZM120.84,61.11v-2.78h2.3c1.11,0,1.19.48,1.19,1.51,0,.95-.32,1.27-1.27,1.27h-2.22Z"/>
  <path d="M74.08,74.13h1.19v-2.06h1.43c.64,0,1.35.08,1.91-.4.48-.4.48-1.11.48-1.75,0-1.91-.79-2.22-2.46-2.22h-2.46v6.43h-.08ZM75.19,70.96v-2.22h1.51c.95,0,1.11.24,1.11,1.19,0,1.03-.32,1.11-1.19,1.11h-1.43v-.08ZM79.8,74.13h1.19v-2.14h1.67c.56,0,.95.16.95.87v1.35h1.19v-1.43c0-.79-.32-1.19-1.03-1.27v-.08c.24-.08.56-.16.71-.32.4-.32.4-.95.4-1.43,0-1.51-.64-1.98-2.06-1.98h-3.02v6.43ZM80.91,70.96v-2.22h1.75c.87,0,.95.4.95,1.19,0,.71-.24,1.03-.95,1.03h-1.75ZM85.59,70.96v.64c0,2.06.71,2.54,2.62,2.54,2.7,0,2.78-.95,2.78-3.33v-1.27c-.08-1.83-1.35-1.98-2.86-1.98-2.38.08-2.54,1.27-2.54,3.41h0ZM86.78,70.96c0-1.83-.16-2.3,1.67-2.3,1.19,0,1.35.4,1.35,1.59v1.59c0,1.19-.48,1.35-1.59,1.35-.87,0-1.27-.08-1.35-1.03-.08-.4-.08-.79-.08-1.19h0ZM91.78,74.13h1.19v-2.06h1.43c.64,0,1.43.08,1.91-.4.48-.4.48-1.11.48-1.75,0-1.91-.79-2.22-2.46-2.22h-2.54v6.43ZM92.89,70.96v-2.22h1.51c.95,0,1.11.24,1.11,1.19,0,1.03-.32,1.11-1.19,1.11h-1.43v-.08ZM98.53,68.74h3.1v-1.03h-4.29v6.43h4.29v-1.03h-3.1v-1.83h2.94v-.87h-2.94v-1.67ZM102.66,74.13h1.19v-2.14h1.67c.56,0,.95.16.95.87v1.35h1.19v-1.43c0-.79-.32-1.19-1.03-1.27v-.08c.24-.08.56-.16.71-.32.4-.32.4-.95.4-1.43,0-1.51-.64-1.98-2.06-1.98h-3.02v6.43ZM103.85,70.96v-2.22h1.75c.87,0,.95.4.95,1.19,0,.71-.24,1.03-.95,1.03h-1.75ZM111.15,68.74h1.83v-1.11h-4.84v1.11h1.83v5.4h1.19v-5.4ZM114.81,67.7h-1.19v6.43h1.19v-6.43ZM116.87,68.74h3.1v-1.03h-4.29v6.43h4.29v-1.03h-3.1v-1.83h2.94v-.87h-2.94v-1.67ZM125.68,69.53v-.24c0-1.67-1.11-1.67-2.38-1.67-.32,0-.64,0-.95.08-1.11.08-1.51.64-1.51,1.75,0,1.75.87,1.83,2.3,1.91.87.08,1.51-.16,1.51.87,0,.79-.32.95-1.03.95h-.87c-.71,0-.71-.48-.71-1.11h-1.11v.24c0,1.75,1.03,1.83,2.46,1.83.4,0,.79,0,1.19-.08,1.27-.16,1.43-.87,1.43-1.98,0-1.98-1.51-1.67-3.02-1.83-.64-.08-.87-.24-.87-.87,0-.24.08-.56.24-.64.24-.16.64-.16.95-.16h.32c.71,0,1.03.24,1.03.95,0,0,1.03,0,1.03,0Z"/>
  <path d="M74.08,83.03h1.19v-2.14h1.43c.64,0,1.43.08,1.91-.4.48-.4.48-1.11.48-1.75,0-1.91-.79-2.22-2.46-2.22h-2.54v6.51ZM75.19,79.85v-2.22h1.51c.95,0,1.11.24,1.11,1.19,0,1.03-.32,1.03-1.27,1.03h-1.35ZM82.65,83.03h1.19v-2.14h1.75c.56,0,.95.16.95.87v1.35h1.19v-1.43c0-.79-.32-1.19-1.11-1.27h0c.24-.08.56-.16.71-.32.4-.32.4-.95.4-1.43,0-1.51-.56-1.98-2.06-1.98h-3.02v6.35ZM83.76,79.85v-2.22h1.75c.87,0,.95.4.95,1.19,0,.71-.24,1.03-.95,1.03h-1.75ZM92.74,76.6h-1.19v6.43h1.19v-6.43ZM100.6,76.6l-1.67,5.4-1.67-5.4h-1.27l1.98,6.43h1.83l2.06-6.43h-1.27ZM108.93,81.84l.4,1.27h1.27l-2.14-6.43h-1.75l-2.14,6.43h1.27l.4-1.27h2.7ZM108.69,80.88h-2.22l1.11-3.33,1.11,3.33ZM116.39,77.71h1.83v-1.11h-4.92v1.11h1.91v5.4h1.19v-5.4ZM122.67,77.63h3.1v-1.03h-4.21v6.43h4.29v-1.03h-3.18v-1.83h2.94v-.87h-2.94v-1.67Z"/>
  <path d="M75.27,85.49h-1.19v6.43h4.13v-1.11h-2.94v-5.32ZM83.05,85.49h-1.19v6.43h1.19v-6.43ZM94.56,85.49h-1.98l-1.67,4.76h-.08l-1.67-4.76h-1.98v6.43h1.19l-.08-5.4,1.98,5.4h1.11l1.98-5.4v5.4h1.19v-6.43ZM99.96,85.49h-1.19v6.43h1.19v-6.43ZM106.63,86.52h1.83v-1.11h-4.92v1.11h1.83v5.4h1.19v-5.4h.08ZM113.14,86.52h3.1v-1.03h-4.29v6.43h4.29v-1.03h-3.1v-1.83h2.94v-.87h-2.94v-1.67ZM120.36,91.92h3.33c1.91,0,2.22-1.35,2.22-2.94v-1.11c0-1.67-.79-2.38-2.38-2.38h-3.1v6.43h-.08ZM121.55,90.89v-4.37h1.83c.64,0,1.11.16,1.19.95.08.4.08.87.08,1.27v.4c0,1.03-.08,1.83-1.35,1.83h-1.75v-.08Z"/>
</svg>