<?xml version="1.0" encoding="UTF-8"?>
<svg id="Layer_1" data-name="Layer 1" xmlns="http://www.w3.org/2000/svg" viewBox="0 0 200 100">
  <defs>
    <style>
      .cls-1 {
        fill: #b4d342;
      }

      .cls-2 {
        fill: #0097c5;
      }

      .cls-3 {
        fill: #942c4b;
      }

      .cls-4 {
        fill: #ef62a3;
      }

      .cls-5 {
        fill: #f47e35;
      }
    </style>
  </defs>
  <g id="Layer_1-2" data-name="Layer_1">
    <g id="_2550315809584" data-name=" 2550315809584">
      <g>
        <g>
          <path class="cls-2" d="M90.81,46.71c-7.57,0-14-4.65-16.32-11.1,1.44,8.29,8.32,14.58,16.6,14.58,9.32,0,16.87-7.97,16.87-17.8,0-.12,0-.23-.01-.35-.91,8.25-8.24,14.68-17.15,14.68Z"/>
          <path class="cls-5" d="M124.11,34.19c0-12.48-11.61-22.27-25.92-22.27-4.15,0-8.07,1.3-11.55,2.82,2.3-.59,4.74-.91,7.26-.91,14.32,0,25.93,9.94,25.93,22.42,0,7.69-4.41,14.47-11.15,18.55-.56.31-3.89,2.02-7.61,2.22,0,0,2.86.17,7.84-1.68.01,0,.03-.01.04-.02.03,0,.06-.02.09-.03h0c8.91-3.66,15.09-11.99,15.09-21.09Z"/>
          <path class="cls-3" d="M104.55,20.81c4.53,5.49,6.04,13.26,3.27,20.14-3.76,9.33-13.83,13.43-23.09,9.79-2.91-1.31-4.96-3.68-4.96-3.68,1.17,1.73,3.76,4.24,6.33,5.43,9.53,4.39,20.74-.4,24.59-9.94,3.16-7.84.16-16.32-6.14-21.73Z"/>
          <path class="cls-1" d="M124.83,37.53s.69-2.03.72-5.54c0-.16.01-.33.01-.48,0-14.19-11.51-25.69-25.7-25.69-12.98,0-23.7,9.63-25.44,22.13,2.88-10.09,13.03-17.54,25.1-17.54s22.88,7.95,25.36,18.54c.3,1.39.77,5.5-.07,8.58Z"/>
          <path class="cls-4" d="M100.38,15.86c-1.76-.4-3.53-.59-5.26-.59.36.06.71.14,1.07.21,11.98,2.7,19.65,13.79,17.13,24.79-1.76,7.68-8.01,13.25-15.72,14.99-2.64.53-5.4.48-8.38-.57,0,0,2.44,1.2,5.89,1.47h.02c.07,0,.13,0,.21,0,.18.01.35.02.53.03,10.26.33,19.45-5.97,21.64-15.56,2.52-10.99-5.15-22.09-17.13-24.78Z"/>
        </g>
        <g>
          <path d="M127.47,74.61c.82-1.52.65-3.84.65-3.84,0-3.79-3.09-3.84-3.09-3.84h-7.94c-1.69,0-1.65,2.15-1.65,2.15v11.26h3.31v-9.73c-.01-.99.94-1.05.94-1.05h3.55c1.6,0,1.44,1.84,1.44,1.84,0,2.27-1.42,2.13-1.42,2.13h-1.97c-1.6,0-1.41,1.31-1.41,1.31,0,.54.8,1.34.8,1.34l3.48,4.18h4.18l-4.18-4.4c2.62,0,3.31-1.34,3.31-1.34Z"/>
          <path d="M38.98,66.74c-2.2,0-2.67,1.61-2.67,1.61l-5,12h3.65l1.18-3.06h5.65l1.21,3.06h3.61l-5.05-11.97c-.89-1.92-2.59-1.64-2.59-1.64ZM40.73,74.7h-3.54s-.3,0-.19-.25l1.63-3.99s.12-.42.33-.42h0c.21,0,.33.42.33.42l1.63,3.99c.11.26-.2.25-.2.25Z"/>
          <path d="M73.34,66.74c-2.2,0-2.67,1.61-2.67,1.61l-5,12h3.65l1.18-3.06h5.65l1.21,3.06h3.61l-5.05-11.97c-.89-1.92-2.59-1.64-2.59-1.64ZM75.09,74.7h-3.54s-.31,0-.19-.25l1.63-3.99s.12-.42.33-.42.33.42.33.42l1.63,3.99c.11.26-.19.25-.19.25h0Z"/>
          <path d="M102.66,66.74c-2.2,0-2.67,1.61-2.67,1.61l-5,12h3.65l1.18-3.06h5.65l1.21,3.06h3.61l-5.05-11.97c-.89-1.92-2.59-1.64-2.59-1.64h0ZM104.41,74.7h-3.54s-.31,0-.19-.25l1.63-3.99s.12-.42.33-.42h0c.21,0,.33.42.33.42l1.63,3.99c.11.26-.19.25-.19.25h0Z"/>
          <path d="M62.42,66.72c-2.4,0-2.94,1.97-2.94,1.97l-3.03,8.06c-.23.61-.39.06-.39.06l-3-7.91c-.8-2.4-3.08-2.18-3.08-2.18-2.61,0-2.53,2.13-2.53,2.13v11.49h3.32s.04-8.81.04-9.44.28,0,.28,0l3.25,8.63c.51,1.19,2.05,1.01,2.05,1.01.91,0,1.47-.45,1.7-1,.12-.27,2.96-7.75,3.29-8.63.25-.68.31.01.31.01l-.02,9.42h3.33v-11.7c0-2.02-2.56-1.93-2.56-1.93Z"/>
          <path d="M93.74,74.61c.81-1.52.64-3.84.64-3.84,0-3.79-3.09-3.84-3.09-3.84h-7.94c-1.69,0-1.66,2.15-1.66,2.15v11.26h3.31v-9.73c-.01-.99.94-1.05.94-1.05h3.55c1.6,0,1.43,1.84,1.43,1.84,0,2.27-1.42,2.13-1.42,2.13h-1.97c-1.6,0-1.4,1.31-1.4,1.31,0,.54.8,1.34.8,1.34l3.49,4.18h4.19l-4.19-4.4c2.62,0,3.31-1.34,3.31-1.34h0Z"/>
          <path d="M136.39,66.74c-2.21,0-2.67,1.61-2.67,1.61l-5,12h3.65l1.18-3.06h5.66l1.21,3.06h3.61l-5.05-11.97c-.89-1.92-2.59-1.64-2.59-1.64ZM138.14,74.7h-3.54s-.31,0-.2-.25l1.63-3.99s.12-.42.33-.42h0c.21,0,.33.42.33.42l1.63,3.99c.11.26-.19.25-.19.25Z"/>
          <path d="M163.64,68.38c-.89-1.92-2.59-1.64-2.59-1.64-2.2,0-2.67,1.61-2.67,1.61l-5,12h3.65l1.18-3.06h5.65l1.21,3.06h3.61l-5.05-11.97h0ZM162.8,74.7h-3.54s-.3,0-.19-.25l1.63-3.99s.12-.42.33-.42.33.42.33.42l1.63,3.99c.11.26-.19.25-.19.25h0Z"/>
          <path d="M153.1,66.94h-3.31v7.59c0,1.49-.57,2.16-.57,2.16-.88,1.1-3.07.97-3.07.97h-1.53v2.68h3.28c2.72.01,3.99-1.29,3.99-1.29,1.26-1.26,1.21-3.1,1.21-3.1v-9h0Z"/>
        </g>
        <g>
          <path d="M59.62,90.44c-.1.3-.26.57-.48.8-.25.27-.55.48-.88.63-.33.14-.69.22-1.07.22-.36,0-.69-.07-1.02-.19-.32-.13-.6-.32-.85-.56-.17-.17-.3-.35-.39-.53-.09-.18-.16-.38-.2-.61-.04-.23-.07-.46-.08-.72-.01-.25-.02-.62-.02-1.1s0-.85.02-1.1c.01-.26.04-.49.08-.72.04-.22.11-.42.2-.6.09-.18.22-.36.39-.53.51-.51,1.13-.76,1.87-.76.68,0,1.25.2,1.71.6.46.4.74.93.85,1.58h-.78c-.1-.46-.31-.83-.62-1.09-.31-.26-.7-.39-1.15-.39-.24,0-.47.05-.69.14-.22.09-.41.22-.57.38-.12.12-.21.24-.28.37-.07.13-.12.29-.15.46-.03.17-.06.39-.07.64-.01.25-.02.59-.02,1.01s0,.76.02,1.01c.01.25.03.46.07.65.03.18.08.34.15.47.07.13.16.26.28.38.16.16.35.29.57.38.22.09.45.13.69.13.27,0,.53-.05.77-.16.24-.11.45-.26.61-.46.14-.18.25-.37.31-.58.07-.21.1-.46.1-.74v-.55h-1.79v-.69h2.57v1.16c0,.42-.05.78-.14,1.08h0Z"/>
          <path d="M64.97,90.66c-.09.33-.25.61-.49.85-.38.38-.86.57-1.45.57s-1.06-.19-1.45-.57c-.24-.24-.4-.52-.49-.85-.09-.33-.13-.71-.13-1.16s.04-.83.13-1.16c.08-.33.25-.61.49-.85.38-.38.86-.57,1.45-.57s1.06.19,1.45.57c.24.24.4.52.49.85.09.33.13.71.13,1.16s-.04.83-.13,1.16ZM64.28,88.57h0c-.05-.26-.16-.47-.32-.64-.25-.25-.55-.37-.92-.37s-.67.12-.91.37c-.16.16-.27.38-.33.64-.05.26-.08.57-.08.92s.03.66.08.92c.06.26.16.47.33.64.25.25.55.37.91.37s.68-.12.92-.37c.16-.16.27-.38.32-.64.05-.26.08-.57.08-.92s-.03-.66-.08-.92Z"/>
          <path d="M67.88,92.02c-.42,0-.74-.13-.96-.38-.22-.25-.33-.58-.33-.97v-3.1h-.64v-.56h.64v-1.58h.74v1.58h1.08v.56h-1.08v3.08c0,.24.06.42.17.55.11.13.29.19.52.19h.39v.64h-.52Z"/>
          <path d="M71.08,92.02c-.42,0-.74-.13-.96-.38-.22-.25-.33-.58-.33-.97v-3.1h-.64v-.56h.64v-1.58h.74v1.58h1.08v.56h-1.08v3.08c0,.24.06.42.17.55.11.13.29.19.52.19h.39v.64h-.52Z"/>
          <path d="M75.64,92.02v-.48c-.21.21-.41.35-.63.43-.21.08-.49.12-.83.12s-.63-.04-.86-.11-.41-.19-.57-.35c-.12-.12-.22-.27-.28-.45-.07-.18-.1-.37-.1-.57,0-.45.15-.81.46-1.07.3-.26.73-.39,1.29-.39h1.52v-.48c0-.38-.1-.65-.3-.84-.2-.18-.53-.27-.99-.27-.32,0-.58.04-.76.13-.19.08-.36.23-.51.45l-.5-.46c.22-.28.46-.48.74-.58.27-.11.62-.16,1.05-.16,1.35,0,2.02.56,2.02,1.68v3.42h-.74,0ZM75.64,89.69h-1.41c-.75,0-1.13.3-1.13.89s.39.86,1.16.86c.26,0,.48-.02.65-.07.17-.04.33-.13.48-.27.17-.16.26-.45.26-.87v-.54h0Z"/>
          <path d="M84.19,90.74c-.09.37-.25.66-.48.9-.14.14-.31.24-.53.32-.22.08-.45.12-.7.12-.3,0-.57-.05-.79-.14-.23-.1-.44-.27-.63-.52v.61h-.74v-7.3h.74v2.84c.19-.25.4-.42.63-.51.23-.09.49-.14.79-.14.25,0,.49.04.7.12.22.08.39.19.53.32.23.23.39.53.48.9.09.37.13.78.13,1.25s-.05.88-.13,1.25ZM83.54,88.74h0c-.03-.22-.09-.42-.18-.6-.09-.18-.22-.32-.39-.42-.17-.1-.39-.15-.65-.15s-.47.05-.65.15c-.17.1-.3.24-.39.42-.09.18-.15.38-.18.61-.03.23-.05.48-.05.75s.02.52.05.75c.03.23.1.43.18.6.09.18.22.32.39.42.17.1.39.15.65.15s.48-.05.65-.15c.17-.1.3-.24.39-.42.09-.18.15-.38.18-.6.03-.22.05-.47.05-.75s-.02-.53-.05-.75Z"/>
          <path d="M86.16,89.69c0,.55.13.98.38,1.29s.62.46,1.1.46c.29,0,.53-.04.72-.13.19-.09.4-.24.6-.44l.5.44c-.27.27-.54.47-.81.59-.27.12-.61.18-1.03.18-.69,0-1.23-.21-1.62-.64-.39-.43-.58-1.07-.58-1.94,0-.81.18-1.45.55-1.9.37-.45.87-.68,1.52-.68s1.16.22,1.52.66c.37.44.55,1.03.55,1.78v.34h-3.4ZM88.78,88.66h0c-.02-.11-.05-.23-.11-.36-.1-.23-.25-.42-.46-.55-.21-.14-.45-.21-.72-.21s-.51.07-.72.21c-.21.14-.37.32-.46.55-.05.14-.09.26-.11.36-.02.11-.03.26-.05.48h2.67c-.01-.21-.03-.37-.05-.48h0Z"/>
          <path d="M96.13,92.02v-.48c-.21.21-.41.35-.63.43-.21.08-.49.12-.83.12s-.63-.04-.86-.11c-.22-.07-.41-.19-.57-.35-.12-.12-.22-.27-.28-.45-.07-.18-.1-.37-.1-.57,0-.45.15-.81.46-1.07.3-.26.73-.39,1.29-.39h1.52v-.48c0-.38-.1-.65-.3-.84-.2-.18-.53-.27-.99-.27-.32,0-.58.04-.76.13-.19.08-.36.23-.51.45l-.5-.46c.22-.28.46-.48.74-.58.27-.11.62-.16,1.05-.16,1.35,0,2.02.56,2.02,1.68v3.42h-.74ZM96.13,89.69h-1.41c-.75,0-1.13.3-1.13.89s.39.86,1.16.86c.26,0,.48-.02.65-.07.17-.04.33-.13.48-.27.17-.16.26-.45.26-.87v-.54h0Z"/>
          <path d="M104.68,90.74c-.09.37-.25.66-.48.9-.14.14-.31.24-.53.32-.22.08-.45.12-.7.12-.3,0-.57-.05-.79-.14-.23-.1-.44-.27-.63-.52v.61h-.74v-7.3h.74v2.84c.19-.25.4-.42.63-.51.23-.09.49-.14.79-.14.25,0,.49.04.7.12.22.08.39.19.53.32.23.23.39.53.48.9.09.37.13.78.13,1.25s-.04.88-.13,1.25ZM104.03,88.74h0c-.03-.22-.09-.42-.18-.6-.09-.18-.22-.32-.39-.42-.17-.1-.39-.15-.65-.15s-.47.05-.64.15c-.17.1-.3.24-.39.42-.09.18-.15.38-.18.61-.03.23-.05.48-.05.75s.02.52.05.75c.03.23.1.43.18.6.09.18.22.32.39.42.17.1.39.15.64.15s.48-.05.65-.15c.17-.1.3-.24.39-.42.09-.18.15-.38.18-.6.03-.22.05-.47.05-.75s-.02-.53-.05-.75Z"/>
          <path d="M106.65,89.69c0,.55.13.98.38,1.29.26.3.62.46,1.1.46.29,0,.53-.04.72-.13.19-.09.39-.24.6-.44l.5.44c-.27.27-.55.47-.81.59-.27.12-.61.18-1.03.18-.69,0-1.23-.21-1.62-.64-.39-.43-.58-1.07-.58-1.94,0-.81.18-1.45.55-1.9.37-.45.87-.68,1.52-.68s1.16.22,1.52.66c.37.44.55,1.03.55,1.78v.34h-3.4ZM109.27,88.66h0c-.02-.11-.05-.23-.11-.36-.1-.23-.25-.42-.46-.55-.21-.14-.45-.21-.72-.21s-.51.07-.72.21c-.21.14-.37.32-.46.55-.05.14-.09.26-.11.36-.02.11-.03.26-.05.48h2.67c-.01-.21-.03-.37-.05-.48h0Z"/>
          <path d="M112.83,92.02c-.42,0-.74-.13-.96-.38-.22-.25-.33-.58-.33-.97v-3.1h-.64v-.56h.64v-1.58h.74v1.58h1.08v.56h-1.08v3.08c0,.24.06.42.17.55.11.13.29.19.52.19h.39v.64h-.52,0Z"/>
          <path d="M116.02,92.02c-.42,0-.74-.13-.96-.38-.22-.25-.33-.58-.33-.97v-3.1h-.64v-.56h.64v-1.58h.74v1.58h1.08v.56h-1.08v3.08c0,.24.06.42.17.55.11.13.29.19.52.19h.39v.64h-.52Z"/>
          <path d="M118.19,89.69c0,.55.13.98.38,1.29.26.3.62.46,1.1.46.29,0,.53-.04.72-.13.2-.09.4-.24.6-.44l.5.44c-.27.27-.55.47-.81.59-.27.12-.61.18-1.03.18-.69,0-1.23-.21-1.62-.64-.39-.43-.58-1.07-.58-1.94,0-.81.18-1.45.55-1.9.37-.45.87-.68,1.52-.68s1.16.22,1.52.66c.37.44.55,1.03.55,1.78v.34h-3.4ZM120.81,88.66h0c-.02-.11-.05-.23-.11-.36-.1-.23-.25-.42-.46-.55-.21-.14-.45-.21-.72-.21s-.51.07-.72.21c-.21.14-.37.32-.46.55-.05.14-.09.26-.11.36-.02.11-.03.26-.05.48h2.67c-.01-.21-.03-.37-.05-.48Z"/>
          <path d="M125.77,87.94c-.14-.14-.27-.23-.39-.29-.13-.06-.28-.08-.48-.08-.36,0-.65.13-.88.38-.22.26-.33.58-.33.97v3.1h-.74v-5.04h.74v.62c.14-.21.33-.38.59-.5.26-.12.53-.18.83-.18.25,0,.47.04.67.11.19.07.37.19.54.36l-.54.55h0Z"/>
          <polygon points="134.21 92.02 133.52 92.02 132.2 88.1 130.89 92.02 130.2 92.02 128.6 86.98 129.4 86.98 130.56 91.02 131.88 86.98 132.52 86.98 133.85 91.02 135 86.98 135.79 86.98 134.21 92.02"/>
          <path d="M139.48,92.02v-.48c-.21.21-.41.35-.63.43-.21.08-.49.12-.83.12s-.63-.04-.86-.11c-.22-.07-.41-.19-.57-.35-.12-.12-.22-.27-.28-.45-.07-.18-.1-.37-.1-.57,0-.45.15-.81.46-1.07.3-.26.73-.39,1.29-.39h1.52v-.48c0-.38-.1-.65-.3-.84-.2-.18-.53-.27-.99-.27-.32,0-.58.04-.76.13-.19.08-.36.23-.51.45l-.5-.46c.22-.28.46-.48.74-.58.27-.11.62-.16,1.05-.16,1.35,0,2.02.56,2.02,1.68v3.42h-.74ZM139.48,89.69h-1.41c-.75,0-1.13.3-1.13.89s.39.86,1.16.86c.26,0,.48-.02.65-.07.17-.04.33-.13.48-.27.17-.16.26-.45.26-.87v-.54h0Z"/>
          <path d="M143.06,93.24c-.09.27-.22.46-.36.59-.12.12-.27.21-.44.27-.17.06-.35.08-.54.08h-.32v-.66h.23c.25,0,.43-.04.54-.13.11-.09.21-.25.29-.49l.36-.98-1.81-4.94h.8l1.38,4.05,1.37-4.05h.8l-2.3,6.26h0Z"/>
        </g>
      </g>
    </g>
  </g>
</svg>