<?xml version="1.0" encoding="UTF-8"?>
<svg id="Layer_1" data-name="Layer 1" xmlns="http://www.w3.org/2000/svg" viewBox="0 0 200 100">
  <path d="M53.58,32.52l20.63,35.72.1,1.73h-11.58l-14.8-24.56-.95,1.58,12.57,21.46.13,1.52h-5.66l-4.27-7.32-.36.11c-.77,1.92-1.73.36-2.79-.18-5.81-2.97-9.61,4.56-5.32,8.37,2.05,1.83,6.73,1.03,6.38-2.2h-2.79v-1.92h4.96c.64,1.32.22,3.1-.54,4.34-2.34,3.83-8.04,3.79-10.69.23-1.41-1.89-1.8-4.59-.88-6.83l-3.29,6.15-.54.22L13,35.31v-1.57l11.97.06,13.89,23.63,1.05-1.58-12.39-21.41.1-.7h6.1l8.68,15.27.81.93,9.49-17.42h.87ZM32.94,34.61h-4.09l11.76,20.21c.11-.05.5-1.16.6-1.32.5-.84,1.53-1.77,1.09-2.8l-9.35-16.09ZM24.5,34.96h-10.28l19.25,33.1,4.65-8.58.11-.87c-4.61-7.86-9.27-15.73-13.73-23.64ZM63.16,69.27h9.67s.45-.2.43-.26l-19.59-34.05-4.93,9.27,14.42,25.05ZM48.61,51.95c-.69-1.18-1.41-2.35-2-3.58l-2.09,3.41,9.85,17.14c.77.84,3.05.05,4.08.18.14-.13-.68-1.58-.84-1.86-2.89-5.14-6.04-10.19-9.01-15.28ZM47.38,58.93c-.95-1.64-2.07-4.03-3.14-5.49-.16-.21-.27-.43-.59-.37l-4.53,8.71,2.63-1.46c2.42-.54,5.25-.52,7.12,1.29l-1.23-2.47c-.03-.12-.23-.15-.26-.21Z"/>
  <path d="M129.35,63c.2,2.97-1.35,5.99-4.26,6.97-7.1,2.4-12.83-5.71-8.18-11.49,2.23-2.77,6.09-3.49,9.22-1.93,1.01.5,1.74,1.39,2.5,2.21l-1.26,1.27c-.2-.03-.96-1.11-1.27-1.35-1.21-.93-3-1.46-4.51-1.26-.07,0-1.01.47-1.19.55-3.21,1.55-4.39,5.36-2.31,8.37,1.83,2.65,6.11,3.25,8.29.71.61-.72,1.06-1.51.88-2.48h-3.92l-.09-1.57h6.1Z"/>
  <path d="M94.78,33.74c6.48.69,8.79,8.77,4,12.71-1.74,1.43-4.93,1.76-7.14,1.58-.34-.03-.63-.1-.95-.18v-14.11c1.31.1,2.8-.14,4.09,0ZM94.95,35.48c-.76-.11-1.73.08-2.53,0v10.8c1.99.05,3.79.01,5.32-1.39,3.24-2.97,1.63-8.77-2.79-9.41Z"/>
  <path d="M129.61,33.74c.19.02,1.28.32,1.51.4,3.84,1.36,2.98,7.04-.9,7.69l4.18,5.92c-.1.5-1.93.28-2.28-.16-1.24-1.61-2.26-3.62-3.5-5.21-.15-.19-.17-.36-.49-.29v5.75c-.64,0-1.37.44-1.92-.12v-13.99c1.09.09,2.35-.13,3.4,0ZM128.13,35.48v4.7c5.02.69,4.89-5.35,0-4.7Z"/>
  <path d="M96.17,56.03c.83.13,2.36.95,2.82,1.71,1.51,2.53.14,5.64-2.73,6.22l4.18,6.18-2.23-.04-4.3-6.06-.11,6.08-1.72.02v-14.11c1.26.14,2.89-.19,4.09,0ZM93.82,57.77v3.57c0,.18.27.55,0,.96,1.53.4,4.02-.27,4.03-2.17.01-2.29-2.23-2.54-4.03-2.35Z"/>
  <path d="M114.89,33.74v5.75h6.97l-.02-5.64,1.76-.1v14.11c-.56.12-1.29.43-1.74-.09v-6.53h-6.97v6.53c-.37.41-1.37.41-1.74,0v-14.02h1.74Z"/>
  <path d="M171.76,56.03c.33.05,1.68.58,1.99.8,1.88,1.32,1.89,4.72.28,6.17-.48.43-1.25.56-1.78.83-.16.08-.29-.04-.23.3l4.19,6.01-2.26-.09-4.1-6.01c-.44-.05-.2.12-.18.35.11,1.15-.08,2.25-.09,3.4,0,.72.22,1.53,0,2.34h-1.74v-14.11c1.22.13,2.74-.17,3.92,0ZM169.58,58.04v4.18c.32.35,1.84.16,2.31.05.41-.11.86-.72,1.31-.87l.03-2.62c-.82-.94-2.57-1.38-3.65-.74Z"/>
  <path d="M141.71,33.22l6.1,14.63c-.55.14-1.33.38-1.84.02-.44-.31-1.17-2.85-1.56-3.49l-.25-.27-5.73-.07c-.67,1.46-.94,4.83-3.31,3.8-.08-.23,0-.46.07-.68.4-1.34,1.45-2.9,1.99-4.14,1.21-2.79,2.41-6.57,3.87-9.15.15-.27.24-.71.67-.63ZM139.28,42.27h4.18c-.1-.75-.55-1.38-.82-2.06-.3-.74-.52-1.62-.92-2.39-.08-.16-.11-.41-.35-.43l-2.09,4.88Z"/>
  <path d="M139.86,63.29c.39.91,1.09,2.06,1.48,2.99.19.45,1.56,3.72,1.41,3.86l-1.89-.03-1.62-3.95h-5.68s-1.63,3.95-1.63,3.95l-1.89.03,6.36-14.63c.32-.08.62.76.73,1.01.99,2.21,1.78,4.55,2.73,6.77ZM138.41,64.39l-2-4.7-2,4.7c.25.15.46,0,.61,0h3.4Z"/>
  <path d="M84.74,55.53l6.11,14.61-1.92-.08-1.67-3.94-5.8.03-1.43,3.97-2.07.02,6.27-14.63.5.02ZM82.76,64.39c.92-.13,2.32,0,3.31,0,.05,0,.24.24.43.17l-1.92-5.05-1.97,4.21-.12.84c.06.09.21-.17.26-.17Z"/>
  <path d="M85.18,38.2c1.18,2.71,3.09,6.19,3.99,8.98.07.21.16.43.11.65l-1.86-.04-1.31-3.13c-.13-.24-.34-.54-.61-.61-1.25-.36-3.79.2-5.19-.05l-1.87,3.8-1.87.05,6.27-14.63c.45-.3,2.16,4.59,2.33,4.99ZM84.93,42.27c-.1-.63-1.74-4.87-2-4.87l-2,4.87h4.01Z"/>
  <path d="M165.4,56.03v1.74h-5.57v3.66h5.14c.53.36.55,1,.35,1.57-.4.69-4.56.26-5.49.17v5.23h5.31l.26,1.74h-7.49v-14.11h7.49Z"/>
  <path d="M104.96,35.48v3.83h4.96c.07,0,.53.29.55.42l-.12,1.49h-5.4v5.05h5.49c.39.23.42,1.59-.02,1.73h-6.93s-.27-.25-.27-.25v-14.02h7.23c.41.37.41,1.37,0,1.74h-5.49Z"/>
  <polygon points="72.4 44.01 72.9 43.53 76.42 33.76 78.32 33.74 72.65 48.72 72.21 48.29 66.82 33.74 68.83 33.9 72.4 44.01"/>
  <polygon points="180.73 63.78 176.2 56.03 178.26 56.07 181.86 61.96 185.35 56.03 187 56.03 182.47 64.13 182.47 70.14 180.73 70.14 180.73 63.78"/>
  <polygon points="109.14 56.03 109.14 57.77 105.84 57.77 105.84 69.88 103.92 70.14 103.92 57.77 100.87 57.77 100.61 56.03 109.14 56.03"/>
  <polygon points="152.86 56.03 152.86 68.4 156.69 68.4 156.69 70.14 151.21 70.14 150.95 69.88 150.95 56.03 152.86 56.03"/>
  <polygon points="145.9 56.03 145.9 68.4 149.73 68.4 149.73 70.14 144.15 70.14 144.15 56.03 145.9 56.03"/>
</svg>