<svg id="Group_5" data-name="Group 5" xmlns="http://www.w3.org/2000/svg" xmlns:xlink="http://www.w3.org/1999/xlink" width="92.338" height="93.419" viewBox="0 0 92.338 93.419">
  <defs>
    <clipPath id="clip-path">
      <rect id="Rectangle_26" data-name="Rectangle 26" width="92.338" height="93.419" transform="translate(0 0)"/>
    </clipPath>
  </defs>
  <g id="Group_4" data-name="Group 4" transform="translate(0 0)" clip-path="url(#clip-path)">
    <path id="Path_17" data-name="Path 17" d="M46.17,93.422C20.712,93.422,0,72.467,0,46.711S20.712,0,46.17,0,92.34,20.955,92.34,46.711,71.628,93.422,46.17,93.422m0-91.253C21.894,2.168,2.143,22.15,2.143,46.711S21.894,91.253,46.17,91.253,90.2,71.271,90.2,46.711,70.446,2.168,46.17,2.168" transform="translate(0 0)"/>
    <path id="Path_18" data-name="Path 18" d="M42.216,37.3c-.1-1.119.427-2.16.231-3.353a6.737,6.737,0,0,1,4.327-7.286c3.288-1.233,6.6-.885,9.9.072a1.056,1.056,0,0,1,.75.945.887.887,0,0,1-.5.958c-1.775.8-2.574,2.387-3.351,4.034a7.008,7.008,0,0,1-4.554,3.968,7.358,7.358,0,0,1-3.893-.037c-.556-.147-.752,0-.8.565a27.135,27.135,0,0,0-.037,2.766,1.455,1.455,0,0,0,.411.828,20.912,20.912,0,0,1,3.893,7.76A19.171,19.171,0,0,1,33.405,71.639a18.95,18.95,0,0,1-21.8-15.406A19.25,19.25,0,0,1,22.032,35.581a2.083,2.083,0,0,1,.759-.244.99.99,0,0,1,1.067.637.97.97,0,0,1-.325,1.2,3.971,3.971,0,0,1-.746.441A16.478,16.478,0,0,0,13.619,50.5a16.36,16.36,0,0,0,4.036,13.507,16.1,16.1,0,0,0,10.161,5.571A16.868,16.868,0,0,0,43.286,42.4c-2.515-3.3-5.272-6.4-7.715-9.744A7.882,7.882,0,0,0,31.839,29.8c-4.885-1.9-7.036-6.817-5.554-12.212A26.584,26.584,0,0,1,31.618,7.559c.366-.443.787-.867,1.419-.643a1.29,1.29,0,0,1,.8,1.415,8.333,8.333,0,0,0,2.272,5.476,15.4,15.4,0,0,1,2.675,3.931,10.029,10.029,0,0,1-1.714,10.611c-1.088,1.363-1.135,1.363-.037,2.766,1.587,2.027,3.214,4.022,4.826,6.03a.336.336,0,0,0,.36.153M31.972,27.465a19.672,19.672,0,0,1-1.8-5.784,12.42,12.42,0,0,1,0-3.293c.108-.747.552-1.078,1.178-1.005.568.064.894.5.9,1.21,0,.314,0,.629-.018.943a14.072,14.072,0,0,0,2.147,7.748c.231.4.415.476.728.1a9.392,9.392,0,0,0,2.176-4.121,7.944,7.944,0,0,0-1.8-6.854,15.943,15.943,0,0,1-3.384-5.364c-.174-.588-.378-.137-.5.048a24.229,24.229,0,0,0-1.947,3.455,14.27,14.27,0,0,0-1.671,7,6.905,6.905,0,0,0,4,5.917M44.7,31.76c.245-.186.38-.294.521-.391a7.129,7.129,0,0,1,4.427-1.43.964.964,0,0,1,1,.9,1,1,0,0,1-.71,1.154,2.851,2.851,0,0,1-.855.116,5.11,5.11,0,0,0-3.513,1.852c-.272.306-.227.476.192.6a4.853,4.853,0,0,0,5.681-2.414,17.059,17.059,0,0,1,2.047-3.54c.186-.211.153-.364-.149-.4a11.505,11.505,0,0,0-6.034.55A4.35,4.35,0,0,0,44.7,31.76" transform="translate(11.804 7.325)"/>
    <path id="Path_19" data-name="Path 19" d="M42.176,36.618A14.32,14.32,0,1,1,27.9,22.075,14.352,14.352,0,0,1,42.176,36.618M31.258,39.6c-.2,0-.4.017-.6,0-1.869-.186-3.464-1.121-3.329-3.618a10.424,10.424,0,0,1,1.09-3.867,5.549,5.549,0,0,0,.207-4.129,25.781,25.781,0,0,0-1.276-3.331c-.127-.277-.276-.43-.607-.391A12.077,12.077,0,0,0,17.4,30.222a.854.854,0,0,0-.041.892,5.775,5.775,0,0,0,2.409,2.88,5.258,5.258,0,0,1,1.137.819,3.745,3.745,0,0,1,.742,5.128,2.359,2.359,0,0,0-.431,1.324c-.029.554.221.867.761.887a15.64,15.64,0,0,0,1.734-.014,5.657,5.657,0,0,1,3.1.621,8.339,8.339,0,0,1,4.163,4.955c.188.563.454.658.992.453a13.149,13.149,0,0,0,4.29-2.667.757.757,0,0,0,.27-.716c-.237-1.645-.45-3.293-.691-4.938-.131-.9-.162-.9-1.074-.724a19.356,19.356,0,0,1-3.495.48m7.1,2.948a.844.844,0,0,0,.415-.523,12.71,12.71,0,0,0,1.143-7.282,12.369,12.369,0,0,0-9.6-10.267c-.188-.033-.415-.178-.566.01s.027.381.1.561a19.311,19.311,0,0,1,1.033,3.275,6.262,6.262,0,0,1-.313,4.088,14.074,14.074,0,0,0-1.043,3.058c-.3,1.473.092,1.941,1.57,1.98a19.277,19.277,0,0,0,3.495-.476,2.776,2.776,0,0,1,2.536.422,3.062,3.062,0,0,1,.779,1.961c.157,1.043.3,2.087.45,3.194M16.119,33.4a9.72,9.72,0,0,0-.46,3.55,12.252,12.252,0,0,0,4.186,8.877,12.1,12.1,0,0,0,8.329,3.06c.879,0,.941-.137.611-.943a5.13,5.13,0,0,0-.4-.85c-1.159-1.8-2.628-3.037-4.932-2.772a9.461,9.461,0,0,1-1.532.012,2.881,2.881,0,0,1-2.853-3.064,4.816,4.816,0,0,1,.806-2.532,1.48,1.48,0,0,0-.19-2.114,4.435,4.435,0,0,0-1.284-.95A4.449,4.449,0,0,1,16.863,34.4c-.225-.3-.444-.6-.744-1" transform="translate(14.145 23.593)"/>
  </g>
</svg>
