<svg id="Group_1343" data-name="Group 1343" xmlns="http://www.w3.org/2000/svg" xmlns:xlink="http://www.w3.org/1999/xlink" width="92.338" height="93.419" viewBox="0 0 92.338 93.419">
  <defs>
    <clipPath id="clip-path">
      <rect id="Rectangle_33" data-name="Rectangle 33" width="92.338" height="93.419"/>
    </clipPath>
  </defs>
  <g id="Group_14" data-name="Group 14" transform="translate(0 0)" clip-path="url(#clip-path)">
    <path id="Path_51" data-name="Path 51" d="M46.17,93.422C20.712,93.422,0,72.467,0,46.711S20.712,0,46.17,0,92.34,20.955,92.34,46.711,71.628,93.422,46.17,93.422m0-91.253C21.894,2.168,2.143,22.15,2.143,46.711S21.894,91.253,46.17,91.253,90.2,71.271,90.2,46.711,70.446,2.168,46.17,2.168" transform="translate(0 0)"/>
    <path id="Path_52" data-name="Path 52" d="M21.129,15.983c-9.1,7.975-.6,13.01-2.777,19.012,8.349-6.107-2.192-9.041,2.777-19.012" transform="translate(17.58 17.082)"/>
    <path id="Path_53" data-name="Path 53" d="M27.757,13.75a2.223,2.223,0,0,0,1.393.718,1.536,1.536,0,0,0,.7-.106,1.869,1.869,0,0,0,.622-.428,3.157,3.157,0,0,0,.8-1.581,1.916,1.916,0,0,0-.022-.759,1.59,1.59,0,0,0-.327-.637,2.172,2.172,0,0,0-1.39-.718,1.554,1.554,0,0,0-.705.106,1.889,1.889,0,0,0-.622.428,2.867,2.867,0,0,0-.509.73,2.921,2.921,0,0,0-.286.85,1.878,1.878,0,0,0,.025.759,1.544,1.544,0,0,0,.329.637" transform="translate(28.603 10.938)"/>
    <path id="Path_54" data-name="Path 54" d="M19.329,33.568a2.017,2.017,0,0,0-.632-.492,2,2,0,0,0-.755-.234,1.514,1.514,0,0,0-.7.1,1.832,1.832,0,0,0-.624.424,3.146,3.146,0,0,0-.808,1.574,1.882,1.882,0,0,0,.018.759,1.6,1.6,0,0,0,.323.641,2.185,2.185,0,0,0,1.386.726,1.533,1.533,0,0,0,.705-.1,1.852,1.852,0,0,0,.624-.424,2.766,2.766,0,0,0,.513-.726,2.873,2.873,0,0,0,.292-.848,1.882,1.882,0,0,0-.018-.759,1.531,1.531,0,0,0-.325-.639" transform="translate(16.488 35.092)"/>
    <path id="Path_55" data-name="Path 55" d="M15.317,13.872a2.826,2.826,0,0,0,.571.687,1.849,1.849,0,0,0,.656.372,1.491,1.491,0,0,0,.71.041,2.227,2.227,0,0,0,1.325-.834,1.586,1.586,0,0,0,.272-.662,1.894,1.894,0,0,0-.041-.759,3.177,3.177,0,0,0-.926-1.506,1.811,1.811,0,0,0-.656-.37,1.537,1.537,0,0,0-.708-.048,1.99,1.99,0,0,0-.736.294,2.012,2.012,0,0,0-.589.542,1.569,1.569,0,0,0-.274.666,1.9,1.9,0,0,0,.041.759,2.848,2.848,0,0,0,.356.817" transform="translate(15.566 11.513)"/>
    <path id="Path_56" data-name="Path 56" d="M25.577,17.97c-9.1,7.975-.6,13.01-2.775,19.012,8.349-6.107-2.192-9.041,2.775-19.012" transform="translate(22.229 19.205)"/>
    <path id="Path_57" data-name="Path 57" d="M31.8,33.523a2.881,2.881,0,0,0-.566-.691,1.846,1.846,0,0,0-.652-.377,1.519,1.519,0,0,0-.71-.048,2.228,2.228,0,0,0-1.331.828,1.567,1.567,0,0,0-.278.66,1.931,1.931,0,0,0,.037.759,2.913,2.913,0,0,0,.352.823,2.809,2.809,0,0,0,.566.687,1.828,1.828,0,0,0,.652.377,1.538,1.538,0,0,0,.708.052,2.017,2.017,0,0,0,.738-.288,2.05,2.05,0,0,0,.593-.54,1.583,1.583,0,0,0,.278-.664,1.919,1.919,0,0,0-.037-.757,2.844,2.844,0,0,0-.35-.821" transform="translate(29.502 34.613)"/>
    <path id="Path_58" data-name="Path 58" d="M61.665,16.394A31.9,31.9,0,0,0,38.973,6.886h-.047a32.467,32.467,0,0,0,.047,64.928,31.9,31.9,0,0,0,22.691-9.508,32.736,32.736,0,0,0,0-45.912M14.705,41.979l-1.691-1.014-1.689,1.016.431-1.938-1.478-1.312,1.957-.184.775-1.827.779,1.825,1.955.182L14.272,40.04ZM55.5,17.207a3.086,3.086,0,0,1,1.233-.31A3.124,3.124,0,0,1,58,17.116a3.746,3.746,0,0,1,1.192.763,3.678,3.678,0,0,1,.47.521,3.415,3.415,0,0,1,.327.55,2.88,2.88,0,0,1,.2.561,2.612,2.612,0,0,1,.074.552l-.84.163a.718.718,0,0,1-.164.006.315.315,0,0,1-.176-.091.375.375,0,0,1-.088-.13c-.018-.052-.037-.108-.053-.17l-.055-.2a1.364,1.364,0,0,0-.094-.242,1.775,1.775,0,0,0-.17-.275,2.112,2.112,0,0,0-.282-.31,1.918,1.918,0,0,0-.656-.408,1.628,1.628,0,0,0-.716-.087,1.931,1.931,0,0,0-.726.232,2.554,2.554,0,0,0-.685.554,2.724,2.724,0,0,0-.5.761,2.006,2.006,0,0,0-.168.747,1.619,1.619,0,0,0,.131.679,1.676,1.676,0,0,0,.4.565c.1.093.2.174.292.242a1.582,1.582,0,0,0,.28.163,1.38,1.38,0,0,0,.292.1,1.806,1.806,0,0,0,.329.035.6.6,0,0,1,.137.025.3.3,0,0,1,.117.068.264.264,0,0,1,.065.089.275.275,0,0,1,.029.122l.018.883a2.452,2.452,0,0,1-1.258-.093,3.479,3.479,0,0,1-1.219-.765,3.423,3.423,0,0,1-.816-1.1,2.949,2.949,0,0,1-.266-1.208,3.133,3.133,0,0,1,.247-1.223,3.98,3.98,0,0,1,.736-1.146,3.5,3.5,0,0,1,1.094-.834m-5.877-4.555a3.172,3.172,0,0,1,1.28-.141,3.6,3.6,0,0,1,1.358.408,3.649,3.649,0,0,1,1.123.871,3.191,3.191,0,0,1,.767,2.4,3.721,3.721,0,0,1-1.2,2.379,3.192,3.192,0,0,1-1.1.641,3.117,3.117,0,0,1-1.276.145A3.889,3.889,0,0,1,48.1,18.08a3.219,3.219,0,0,1-.638-1.132,3.253,3.253,0,0,1-.135-1.276,3.721,3.721,0,0,1,1.2-2.381,3.091,3.091,0,0,1,1.1-.639m-7-2.729a.551.551,0,0,1,.3.153.5.5,0,0,1,.129.271l.562,3.73c.027.161.051.339.074.528s.039.389.051.594c.08-.186.164-.364.254-.532s.174-.323.258-.463l1.914-3.231a.523.523,0,0,1,.217-.19.5.5,0,0,1,.333-.037l1.206.242-3.846,5.981-1.35-.269-1.3-7.015ZM29.467,11.146a.586.586,0,0,1,.341.019.418.418,0,0,1,.219.2l1.587,3.192c.053.1.106.213.162.333a3.687,3.687,0,0,1,.149.377c0-.145,0-.283.014-.414s.018-.254.027-.372l.329-3.6a.492.492,0,0,1,.123-.261.5.5,0,0,1,.294-.168l.44-.1a.563.563,0,0,1,.335.019.454.454,0,0,1,.225.2l1.736,3.159q.08.146.172.31a3.823,3.823,0,0,1,.17.356c0-.134-.006-.265-.006-.389s0-.24.008-.35l.172-3.569a.426.426,0,0,1,.119-.263.518.518,0,0,1,.3-.166l1.168-.252-.62,6.906-1.345.29-2.045-3.759c-.035-.058-.07-.122-.106-.19s-.076-.145-.115-.223c0,.089-.008.172-.014.25s-.014.151-.02.217L32.9,17.18l-1.345.29-3.337-6.057Zm-7.562,5.168a3.251,3.251,0,0,1,.54-1.183,3.65,3.65,0,0,1,1.047-.964,3.594,3.594,0,0,1,1.317-.523,3.181,3.181,0,0,1,1.284.035,3.149,3.149,0,0,1,1.145.54,3.512,3.512,0,0,1,.906,1,3.608,3.608,0,0,1,.491,1.264,3.257,3.257,0,0,1-.025,1.283,3.212,3.212,0,0,1-.534,1.181,3.679,3.679,0,0,1-1.047.964,3.636,3.636,0,0,1-1.317.525,3.084,3.084,0,0,1-2.437-.575,3.514,3.514,0,0,1-.906-1,3.555,3.555,0,0,1-.491-1.266,3.172,3.172,0,0,1,.027-1.281M18.1,18.63l3.773,3.815,1.716-1.736.859.869L21.656,24.4l-4.629-4.684Zm4.167,42.737a3.079,3.079,0,0,1-2.5.07,3.738,3.738,0,0,1-1.186-.772,3.428,3.428,0,0,1-.464-.525,3.357,3.357,0,0,1-.325-.552,3,3,0,0,1-.2-.561,2.619,2.619,0,0,1-.07-.552l.842-.159a.719.719,0,0,1,.164,0,.3.3,0,0,1,.174.091.32.32,0,0,1,.088.132c.018.052.037.108.053.17s.035.132.053.207a1.5,1.5,0,0,0,.092.24,1.945,1.945,0,0,0,.168.279,2.083,2.083,0,0,0,.28.312,1.929,1.929,0,0,0,.654.41,1.619,1.619,0,0,0,.714.093,1.9,1.9,0,0,0,.728-.225,2.541,2.541,0,0,0,.689-.55,2.7,2.7,0,0,0,.507-.757,1.969,1.969,0,0,0,.174-.745,1.626,1.626,0,0,0-.127-.681,1.658,1.658,0,0,0-.4-.567,3.135,3.135,0,0,0-.292-.244,1.449,1.449,0,0,0-.278-.166,1.35,1.35,0,0,0-.292-.1,1.753,1.753,0,0,0-.329-.039.5.5,0,0,1-.135-.025.3.3,0,0,1-.117-.068.322.322,0,0,1-.065-.089.325.325,0,0,1-.029-.124l-.01-.883a2.477,2.477,0,0,1,1.258.1,3.464,3.464,0,0,1,1.211.774,3.385,3.385,0,0,1,.81,1.107,2.955,2.955,0,0,1,.258,1.21,3.167,3.167,0,0,1-.258,1.221,3.928,3.928,0,0,1-.744,1.14,3.473,3.473,0,0,1-1.1.828m5.86,4.607a3.175,3.175,0,0,1-1.28.132,3.6,3.6,0,0,1-1.356-.418,3.642,3.642,0,0,1-1.116-.879,3.271,3.271,0,0,1-.626-1.136,3.23,3.23,0,0,1-.125-1.272,3.744,3.744,0,0,1,1.213-2.371,3.181,3.181,0,0,1,1.1-.633,3.13,3.13,0,0,1,1.278-.137,3.555,3.555,0,0,1,1.352.416,3.661,3.661,0,0,1,1.121.879,3.178,3.178,0,0,1,.755,2.412,3.73,3.73,0,0,1-1.215,2.375,3.126,3.126,0,0,1-1.1.631M35.1,68.75a.547.547,0,0,1-.3-.155.5.5,0,0,1-.127-.273l-.538-3.732c-.025-.163-.047-.339-.067-.53s-.037-.389-.047-.6c-.082.188-.166.366-.258.532s-.178.321-.262.461l-1.936,3.217a.5.5,0,0,1-.219.19.5.5,0,0,1-.331.035l-1.206-.25L33.7,61.694l1.348.281L36.3,69Zm3.865-9.361A19.087,19.087,0,0,1,25.3,53.752l-.137-.132a19.564,19.564,0,0,1-3.21-4.013,20.215,20.215,0,0,1-2.791-10.257,19.926,19.926,0,0,1,19.731-20.04h.078A19.158,19.158,0,0,1,52.694,25l.092.089A19.6,19.6,0,0,1,55.992,29.1,20.219,20.219,0,0,1,52.974,53.52a19.675,19.675,0,0,1-14.005,5.869m9.3,8.232a.567.567,0,0,1-.341-.023.411.411,0,0,1-.219-.2l-1.564-3.2c-.051-.106-.1-.215-.159-.335a3.154,3.154,0,0,1-.145-.379c0,.147-.008.283-.018.416s-.018.254-.031.37l-.354,3.6a.492.492,0,0,1-.123.261.511.511,0,0,1-.3.165l-.44.091a.57.57,0,0,1-.337-.021.458.458,0,0,1-.221-.2l-1.716-3.171c-.053-.1-.108-.2-.168-.31s-.117-.23-.17-.358c0,.134,0,.265,0,.389s0,.24-.01.35l-.2,3.569a.413.413,0,0,1-.121.261.522.522,0,0,1-.3.163L40.18,69.3l.669-6.9,1.348-.279,2.02,3.773q.049.087.1.192c.037.068.074.143.112.221,0-.087.008-.17.014-.248s.016-.151.025-.219l.409-4.276,1.348-.277,3.294,6.08Zm7.6-5.116a3.263,3.263,0,0,1-.548,1.177,3.655,3.655,0,0,1-1.053.958,3.576,3.576,0,0,1-1.321.513,3.088,3.088,0,0,1-2.427-.592,3.723,3.723,0,0,1-1.38-2.274,3.255,3.255,0,0,1,.033-1.283,3.186,3.186,0,0,1,.544-1.177A3.889,3.889,0,0,1,52.1,58.355a3.088,3.088,0,0,1,2.433.59,3.736,3.736,0,0,1,1.382,2.28,3.245,3.245,0,0,1-.035,1.281m3.82-2.294-3.746-3.842-1.728,1.725-.853-.873,2.808-2.805,4.6,4.717Zm5.243-19.246-1.687,1.016.429-1.938L62.2,38.731l1.955-.184.777-1.827.777,1.825,1.957.182L66.2,40.04l.434,1.938Z" transform="translate(7.195 7.359)"/>
    <path id="Path_59" data-name="Path 59" d="M30.027,19.674c-9.1,7.975-.6,13.01-2.775,19.012,8.349-6.107-2.192-9.041,2.775-19.012" transform="translate(26.878 21.027)"/>
  </g>
</svg>
