<svg id="Group_1342" data-name="Group 1342" xmlns="http://www.w3.org/2000/svg" xmlns:xlink="http://www.w3.org/1999/xlink" width="92.6" height="93.684" viewBox="0 0 92.6 93.684">
  <defs>
    <clipPath id="clip-path">
      <rect id="Rectangle_31" data-name="Rectangle 31" width="92.6" height="93.684"/>
    </clipPath>
  </defs>
  <g id="Group_10" data-name="Group 10" transform="translate(0 0)" clip-path="url(#clip-path)">
    <path id="Path_37" data-name="Path 37" d="M46.3,93.684C20.771,93.684,0,72.672,0,46.843S20.771,0,46.3,0,92.6,21.015,92.6,46.843,71.831,93.684,46.3,93.684m0-91.51c-24.346,0-44.152,20.038-44.152,44.669S21.955,91.51,46.3,91.51,90.453,71.474,90.453,46.843,70.647,2.174,46.3,2.174" transform="translate(0 0.001)"/>
    <path id="Path_580" data-name="Path 580" d="M0,0,2.161-.013,1.711,77.37l-2.161.013Z" transform="matrix(0.707, -0.707, 0.707, 0.707, 18.34, 20.094)"/>
    <path id="Path_38" data-name="Path 38" d="M33.969,56.8a22,22,0,0,1-15.7-6.63A22.554,22.554,0,0,1,33.977,11.757a22.02,22.02,0,0,1,15.766,6.612A22.554,22.554,0,0,1,34.022,56.8Zm.243-1.436c.055,0,.115.006.174.006.211,0,.456-.023.716-.046.159-.014.323-.029.487-.039a19.322,19.322,0,0,0,5.378-1.15.727.727,0,0,0,.5-.41.742.742,0,0,0-.157-.633c-.8-1.225-1.6-2.458-2.39-3.689l-1.063-1.653-.1-.157a2.764,2.764,0,0,0-.56-.71q-2.285-1.921-4.55-3.867a.8.8,0,0,0-.505-.221A.769.769,0,0,0,31.65,43c-.417.356-.847.7-1.274,1.043l-1.568,1.268q-1.144.928-2.29,1.852a.907.907,0,0,1-.562.2.749.749,0,0,1-.395-.108c-.237-.151-.3-.366-.239-.772.035-.213.2-.362.431-.548l.409-.331c.421-.339.842-.681,1.274-1.01a.653.653,0,0,0,.307-.459.666.666,0,0,0-.243-.5c-1.206-1.2-2.446-2.454-3.685-3.726a.735.735,0,0,0-.519-.261.837.837,0,0,0-.458.168c-1.061.724-2.133,1.434-3.2,2.143l-.268.176a1.607,1.607,0,0,0-.519.569l-.2.362c-.458.836-.93,1.7-1.419,2.528a.979.979,0,0,0,.063,1.221,21.178,21.178,0,0,0,9.971,7.412,1.026,1.026,0,0,0,.339.068c.444,0,.573-.426.615-.567.151-.5.309-.993.468-1.49.151-.472.3-.943.446-1.417a1.028,1.028,0,0,1,.346-.538c.591-.47,1.178-.945,1.765-1.421.425-.343.849-.689,1.276-1.03a1.117,1.117,0,0,1,.667-.292.614.614,0,0,1,.495.275c.182.238.352.61-.272,1.113-.577.465-1.157.927-1.736,1.386l-.777.619a1.432,1.432,0,0,0-.552.7c-.241.786-.505,1.626-.787,2.456a.721.721,0,0,0,.014.6.693.693,0,0,0,.5.29,25.236,25.236,0,0,0,4.063.383ZM44.968,45.176a8.838,8.838,0,0,0-4.358,1.082,5.751,5.751,0,0,1-.967.4.651.651,0,0,0-.444.364.688.688,0,0,0,.141.592c1.1,1.709,2.186,3.409,3.219,5.052a.685.685,0,0,0,.571.393.846.846,0,0,0,.421-.134,23.057,23.057,0,0,0,2.975-1.978,21.463,21.463,0,0,0,7.218-10.443.651.651,0,0,0-.585-.976c-1.037-.178-2.071-.372-3.106-.567-.566-.106-1.131-.211-1.7-.314-.544-.1-.744-.294-.826-.8q-.39-2.383-.761-4.769l-.039-.246a1.21,1.21,0,0,1,.254-.989q1.2-1.564,2.386-3.136,1.34-1.772,2.691-3.538A.961.961,0,0,0,52.147,24a20.643,20.643,0,0,0-4.879-5.966A20.081,20.081,0,0,0,44.038,15.8l-.822-.455.438.838A7.71,7.71,0,0,0,45.9,18.617l.186.149a1.421,1.421,0,0,1,.577,1.245c-.027,1.641-.027,3.248,0,4.777a1.474,1.474,0,0,1-.528,1.359.643.643,0,0,0-.3.5.671.671,0,0,0,.331.511.721.721,0,0,1,.231,1.14c-.54.892-1.09,1.771-1.634,2.611a.845.845,0,0,1-.689.428.635.635,0,0,1-.35-.105.807.807,0,0,1-.155-1.127c.168-.277.346-.55.523-.821l.243-.374c.2-.31.311-.482.264-.7s-.219-.329-.505-.515a.939.939,0,0,1-.468-.612.924.924,0,0,1,.292-.7c.3-.333.564-.6.822-.832a1.335,1.335,0,0,0,.454-1.067c-.016-1.326-.016-2.646,0-3.927a1.18,1.18,0,0,0-.515-1.059,8.739,8.739,0,0,1-2.208-2.356c-.366-.546-.759-1.086-1.137-1.605-.231-.317-.462-.633-.687-.952a1.445,1.445,0,0,0-.8-.581,22.971,22.971,0,0,0-2.624-.554,1.14,1.14,0,0,0-.162-.014.661.661,0,0,0-.6.4q-1.972,3.789-3.959,7.563a.685.685,0,0,0,.145.9c.413.4.816.815,1.221,1.227l.4.4.431.432c.341.341.685.681,1.01,1.039a.81.81,0,0,1,.227.7.647.647,0,0,1-.395.461.728.728,0,0,1-.3.07.856.856,0,0,1-.6-.3q-1.024-1.021-2.057-2.036l-1.411-1.392c-.705-.7-.726-.842-.249-1.717q.886-1.632,1.771-3.269,1.046-1.936,2.1-3.871a.659.659,0,0,0,.088-.637.633.633,0,0,0-.583-.232,22.854,22.854,0,0,0-2.861.184,20.893,20.893,0,0,0-9.04,3.387.7.7,0,0,0-.276,1c.176.368.344.743.509,1.115.243.548.495,1.115.779,1.657a1.282,1.282,0,0,1-.031,1.568.706.706,0,0,0,.1,1.014c.548.59,1.086,1.192,1.624,1.794l.922,1.03c.6.664,1.192,1.328,1.777,2a.733.733,0,0,1-.012,1.022.64.64,0,0,1-.436.157.865.865,0,0,1-.568-.221,1.756,1.756,0,0,1-.133-.143L25.7,27.682c-.918-1.03-1.838-2.06-2.75-3.095a.709.709,0,0,0-.5-.306c-.294,0-.448.3-.505.412-.887,1.736-1.84,3.567-3.086,5.935a1.229,1.229,0,0,0-.067,1.07c.333.892.654,1.789.971,2.687.247.7.159.9-.517,1.227l-.677.321c-1.47.7-2.942,1.4-4.421,2.077a.755.755,0,0,0-.462,1.007,24.566,24.566,0,0,0,1.229,3.575l.045.106a12.192,12.192,0,0,0,.752,1.523l.254.42.638-1.165c.315-.571.618-1.119.9-1.676a2.135,2.135,0,0,1,.757-.83c1.029-.679,2.055-1.365,3.08-2.05l1.276-.854a1.476,1.476,0,0,1,.74-.319c.211,0,.429.134.755.463l.712.718c1.208,1.221,2.419,2.441,3.617,3.67a.8.8,0,0,0,.56.29.806.806,0,0,0,.507-.221c.957-.807,1.816-1.508,2.626-2.145a.6.6,0,0,0,.284-.465A.62.62,0,0,0,32.1,39.6q-1.12-.8-2.215-1.626c-.354-.265-.478-.488-.429-.77q.589-3.413,1.2-6.821a.734.734,0,0,1,.779-.7,1.483,1.483,0,0,1,.229.019c1.049.165,2.123.345,3.19.54a1.362,1.362,0,0,0,.266.027.942.942,0,0,0,.8-.428c.828-1.119,1.683-2.238,2.54-3.325a1.027,1.027,0,0,0,.174-1.179.855.855,0,0,1,.012-.937c.176-.259.346-.517.515-.78.19-.292.38-.583.579-.871a.711.711,0,0,1,.583-.348.756.756,0,0,1,.4.124.682.682,0,0,1,.241.956,4.779,4.779,0,0,1-.505.813,1.073,1.073,0,0,0-.067,1.382.746.746,0,0,1-.057.952q-1.868,2.455-3.75,4.9a.787.787,0,0,1-.658.345,1.234,1.234,0,0,1-.276-.033c-.493-.11-.99-.2-1.485-.294-.433-.079-.867-.157-1.3-.25a1.072,1.072,0,0,0-.241-.029c-.505,0-.581.474-.607.629-.2,1.2-.46,2.789-.759,4.361a.939.939,0,0,0,.4,1.065c.816.585,1.622,1.19,2.423,1.794l.153.116a1.034,1.034,0,0,1,.474.71,1.067,1.067,0,0,1-.454.747l-.117.1a1.9,1.9,0,0,1-.249.2.622.622,0,0,0-.329.457.657.657,0,0,0,.288.519q1.942,1.654,3.857,3.333a.783.783,0,0,0,.526.219.9.9,0,0,0,.348-.079l.162-.066c.969-.408,1.973-.828,2.967-1.212a.722.722,0,0,0,.44-.374.778.778,0,0,0-.065-.606c-.106-.236-.207-.478-.3-.718-.131-.317-.262-.633-.409-.941a1.028,1.028,0,0,1,.194-1.227q1.037-1.238,2.069-2.48l1.2-1.444a.935.935,0,0,1,.677-.389.665.665,0,0,1,.44.182.752.752,0,0,1-.029,1.115l-.654.8c-.673.825-1.345,1.653-2.035,2.464a1.1,1.1,0,0,0-.209,1.345,6.732,6.732,0,0,1,.472,1.194.92.92,0,0,0,1,.72c.646-.012,1.243-.017,1.838-.017.65,0,1.3.006,1.953.012a.786.786,0,0,1,.577.2.731.731,0,0,1,.168.542c-.006.29-.092.674-.763.681-.221,0-.44.006-.66.012-.282.006-.564.012-.847.012-.313,0-.628-.008-.939-.033-.292-.023-.583-.033-.869-.033m8.118-18.627-.057.031a.394.394,0,0,0-.151.116l-4.355,5.716a.756.756,0,0,0-.176.6c.2,1.247.391,2.493.575,3.74a.723.723,0,0,0,.658.672c1.57.275,2.865.519,4.077.768a1.457,1.457,0,0,0,.262.029.706.706,0,0,0,.679-.7,18.371,18.371,0,0,0,.155-6.068,21.3,21.3,0,0,0-1.264-4.769l-.125-.3ZM20.547,18.375a.727.727,0,0,0-.472.242,21.179,21.179,0,0,0-6.9,15.516,6.251,6.251,0,0,0,.043,1.159,6.752,6.752,0,0,1,.049.921.569.569,0,0,0,.123.42.388.388,0,0,0,.284.118.673.673,0,0,0,.3-.081q1.923-.915,3.85-1.818a.626.626,0,0,0,.341-.875c-.1-.273-.2-.552-.292-.832-.137-.4-.276-.817-.444-1.219a1.513,1.513,0,0,1,.112-1.421q1.31-2.492,2.6-5,.932-1.8,1.871-3.6a1.047,1.047,0,0,0,.022-1.039c-.35-.693-.681-1.39-.988-2.073-.045-.1-.188-.422-.5-.422" transform="translate(12.283 12.566)"/>
  </g>
</svg>
