<svg xmlns="http://www.w3.org/2000/svg" xmlns:xlink="http://www.w3.org/1999/xlink" width="95.568" height="95.568" viewBox="0 0 95.568 95.568">
  <defs>
    <clipPath id="clip-path">
      <rect id="Rectangle_25" data-name="Rectangle 25" width="95.568" height="95.568"/>
    </clipPath>
  </defs>
  <g id="Group_1344" data-name="Group 1344" transform="translate(0 0)">
    <rect id="Rectangle_15" data-name="Rectangle 15" width="2.217" height="7.571" transform="translate(51.303 62.548) rotate(-15.001)"/>
    <rect id="Rectangle_16" data-name="Rectangle 16" width="2.217" height="7.572" transform="translate(63.37 59.314) rotate(-15.001)"/>
    <rect id="Rectangle_17" data-name="Rectangle 17" width="2.217" height="7.571" transform="translate(39.236 65.781) rotate(-15.001)"/>
    <rect id="Rectangle_18" data-name="Rectangle 18" width="2.217" height="7.571" transform="translate(40.863 26.281) rotate(-15.001)"/>
    <rect id="Rectangle_19" data-name="Rectangle 19" width="2.217" height="7.571" transform="translate(52.93 23.048) rotate(-15.001)"/>
    <rect id="Rectangle_20" data-name="Rectangle 20" width="2.217" height="7.571" transform="matrix(0.966, -0.259, 0.259, 0.966, 28.796, 29.514)"/>
    <rect id="Rectangle_21" data-name="Rectangle 21" width="7.571" height="2.216" transform="translate(67.001 30.644) rotate(-60.004)"/>
    <rect id="Rectangle_22" data-name="Rectangle 22" width="2.216" height="7.571" transform="translate(14.827 40.703) rotate(-59.999)"/>
    <rect id="Rectangle_23" data-name="Rectangle 23" width="7.571" height="2.216" transform="matrix(0.5, -0.866, 0.866, 0.5, 22.862, 70.689)"/>
    <rect id="Rectangle_24" data-name="Rectangle 24" width="2.216" height="7.571" transform="translate(73.075 53.314) rotate(-59.999)"/>
    <g id="Group_2" data-name="Group 2" transform="translate(0 0)">
      <g id="Group_1" data-name="Group 1" clip-path="url(#clip-path)">
        <path id="Path_11" data-name="Path 11" d="M24.1,51.189a15.078,15.078,0,0,1-3.9-29.634l26.978-7.231a15.074,15.074,0,0,1,7.8,29.122L28,50.674a15.136,15.136,0,0,1-3.9.515M51.076,16.027a12.869,12.869,0,0,0-3.324.439L20.774,23.7a12.856,12.856,0,0,0,6.654,24.836L54.406,41.3a12.858,12.858,0,0,0-3.33-25.277" transform="translate(10.096 15.447)"/>
        <path id="Path_12" data-name="Path 12" d="M27.914,25.531a4.2,4.2,0,1,1,4.2-4.2,4.206,4.206,0,0,1-4.2,4.2m0-6.186A1.984,1.984,0,1,0,29.9,21.328a1.987,1.987,0,0,0-1.985-1.983" transform="translate(26.524 19.158)"/>
        <path id="Path_13" data-name="Path 13" d="M32.779,26.147a3.459,3.459,0,1,1,3.46-3.46,3.463,3.463,0,0,1-3.46,3.46m0-4.7a1.243,1.243,0,1,0,1.244,1.241,1.243,1.243,0,0,0-1.244-1.241" transform="translate(32.795 21.511)"/>
        <path id="Path_14" data-name="Path 14" d="M17.714,32a3.46,3.46,0,1,1,3.46-3.46A3.463,3.463,0,0,1,17.714,32m0-4.7a1.243,1.243,0,1,0,1.244,1.241A1.243,1.243,0,0,0,17.714,27.3" transform="translate(15.944 28.058)"/>
        <path id="Path_15" data-name="Path 15" d="M22.094,29.2a3.46,3.46,0,1,1,3.46-3.457,3.463,3.463,0,0,1-3.46,3.457m0-4.7a1.243,1.243,0,1,0,1.244,1.244A1.244,1.244,0,0,0,22.094,24.5" transform="translate(20.843 24.922)"/>
        <path id="Path_16" data-name="Path 16" d="M47.784,95.567A47.784,47.784,0,1,1,95.568,47.783,47.838,47.838,0,0,1,47.784,95.567m0-93.35A45.567,45.567,0,1,0,93.35,47.783,45.618,45.618,0,0,0,47.784,2.217" transform="translate(0 0)"/>
      </g>
    </g>
  </g>
</svg>
