<svg xmlns="http://www.w3.org/2000/svg" xmlns:xlink="http://www.w3.org/1999/xlink" width="120" height="78" viewBox="0 0 120 78">
  <defs>
    <clipPath id="clip-path">
      <rect id="Rectangle_1324" data-name="Rectangle 1324" width="120" height="78" transform="translate(0 0)" fill="#fff" stroke="#707070" stroke-width="1"/>
    </clipPath>
    <clipPath id="clip-path-2">
      <rect id="Rectangle_1323" data-name="Rectangle 1323" width="370.74" height="76.302" fill="#c2bffa"/>
    </clipPath>
  </defs>
  <g id="Mask_Group_121" data-name="Mask Group 121" transform="translate(0 0)" clip-path="url(#clip-path)">
    <g id="Group_1536" data-name="Group 1536" transform="translate(-183.067 1.697)">
      <g id="Group_1535" data-name="Group 1535" transform="translate(0 0)" clip-path="url(#clip-path-2)">
        <path id="Path_2178" data-name="Path 2178" d="M7373.563,1132.312a5.276,5.276,0,0,1-5.324-4.971l-.3-4.9a.325.325,0,0,1,.315-.332.307.307,0,0,1,.354.3l.3,4.9a4.63,4.63,0,0,0,4.655,4.381,4.523,4.523,0,0,0,4.656-4.363v-5.179a.335.335,0,0,1,.668,0v5.179a5.171,5.171,0,0,1-5.324,4.99" transform="translate(-7070.561 -1079.361)" fill="#c2bffa"/>
        <path id="Path_2179" data-name="Path 2179" d="M4428.911,966.283a5.17,5.17,0,0,1-5.324-4.99V935.587a.335.335,0,0,1,.668,0v25.707a4.665,4.665,0,0,0,9.311-.008l.1-4.33a.325.325,0,0,1,.334-.307h.007a.321.321,0,0,1,.327.32l-.1,4.332a5.2,5.2,0,0,1-5.323,4.983" transform="translate(-4245.047 -899.867)" fill="#c2bffa"/>
        <path id="Path_2180" data-name="Path 2180" d="M4175.054,770.2a.325.325,0,0,1-.334-.314v-7.909a5.138,5.138,0,0,1,5.29-4.959,5.2,5.2,0,0,1,5.323,4.956l.1,4.359a.324.324,0,0,1-.328.321.359.359,0,0,1-.341-.307l-.1-4.362a4.55,4.55,0,0,0-4.654-4.339,4.489,4.489,0,0,0-4.622,4.331v7.909a.324.324,0,0,1-.333.314" transform="translate(-4006.224 -728.356)" fill="#c2bffa"/>
        <path id="Path_2181" data-name="Path 2181" d="M7622.174,964.084a.324.324,0,0,1-.333-.314v-6.089a5.152,5.152,0,0,1,5.289-4.99,5.214,5.214,0,0,1,5.324,4.986.325.325,0,0,1-.33.318h0a.325.325,0,0,1-.334-.31,4.564,4.564,0,0,0-4.655-4.366,4.5,4.5,0,0,0-4.621,4.363v6.089a.324.324,0,0,1-.334.314" transform="translate(-7314.216 -916.626)" fill="#c2bffa"/>
        <path id="Path_2182" data-name="Path 2182" d="M7921.867,1079.015h-47.479a5.17,5.17,0,0,1-5.324-4.99.335.335,0,0,1,.668,0,4.522,4.522,0,0,0,4.656,4.363h47.479a.314.314,0,1,1,0,.627" transform="translate(-7551.461 -1033.065)" fill="#c2bffa"/>
        <path id="Path_2183" data-name="Path 2183" d="M163.84,1073.215H.334a.314.314,0,1,1,0-.627H163.84a4.522,4.522,0,0,0,4.655-4.363.335.335,0,0,1,.668,0,5.17,5.17,0,0,1-5.324,4.99" transform="translate(0 -1027.484)" fill="#c2bffa"/>
        <path id="Path_2184" data-name="Path 2184" d="M4703.239,819.256h-28.765a.324.324,0,0,1-.333-.314v-6.057a.323.323,0,0,1,.333-.313h28.765a.324.324,0,0,1,.334.313v6.057a.324.324,0,0,1-.334.314m-28.43-.628h28.1V813.2h-28.1Z" transform="translate(-4485.489 -781.81)" fill="#c2bffa"/>
        <path id="Path_2185" data-name="Path 2185" d="M4605.292,975.871h-30.3a.345.345,0,0,1-.248-.1l-2.579-2.668a.3.3,0,0,1-.058-.338.333.333,0,0,1,.3-.187h32.883a.324.324,0,0,1,.334.314v2.668a.324.324,0,0,1-.334.314m-30.155-.628h29.822V973.2h-31.794Z" transform="translate(-4387.543 -935.758)" fill="#c2bffa"/>
        <path id="Path_2186" data-name="Path 2186" d="M4703.239,1175.61a.323.323,0,0,1-.334-.313v-32.11h-28.1v15.725a.335.335,0,0,1-.668,0v-16.038a.323.323,0,0,1,.333-.314h28.765a.324.324,0,0,1,.334.314V1175.3a.324.324,0,0,1-.334.313" transform="translate(-4485.489 -1099.307)" fill="#c2bffa"/>
        <path id="Path_2187" data-name="Path 2187" d="M5694.1,818.817a.324.324,0,0,1-.334-.314v-5.618a.335.335,0,0,1,.668,0V818.5a.325.325,0,0,1-.334.314" transform="translate(-5463.958 -781.81)" fill="#c2bffa"/>
        <path id="Path_2188" data-name="Path 2188" d="M5770.409,821.284a.324.324,0,0,1-.334-.314v-5.618a.335.335,0,0,1,.668,0v5.618a.325.325,0,0,1-.334.314" transform="translate(-5537.19 -784.184)" fill="#c2bffa"/>
        <path id="Path_2189" data-name="Path 2189" d="M4833.779,1059.692a.323.323,0,0,1-.334-.313v-2.762a.335.335,0,0,1,.668,0v2.762a.324.324,0,0,1-.334.313" transform="translate(-4638.363 -1016.315)" fill="#c2bffa"/>
        <path id="Path_2190" data-name="Path 2190" d="M4910.926,1060.581a.324.324,0,0,1-.334-.314v-2.793a.335.335,0,0,1,.668,0v2.793a.323.323,0,0,1-.333.314" transform="translate(-4712.396 -1017.141)" fill="#c2bffa"/>
        <path id="Path_2191" data-name="Path 2191" d="M6274.187,1081.141a1.226,1.226,0,1,1,1.3-1.224,1.271,1.271,0,0,1-1.3,1.224m0-1.82a.6.6,0,1,0,0,1.192.6.6,0,1,0,0-1.192" transform="translate(-6019.671 -1037.858)" fill="#c2bffa"/>
        <path id="Path_2192" data-name="Path 2192" d="M4992.219,1052.274a.324.324,0,0,1-.334-.313v-2.794a.335.335,0,0,1,.668,0v2.794a.324.324,0,0,1-.334.313" transform="translate(-4790.408 -1009.148)" fill="#c2bffa"/>
        <path id="Path_2193" data-name="Path 2193" d="M5068.561,1053.912a.324.324,0,0,1-.334-.313V1050.8a.335.335,0,0,1,.668,0v2.795a.323.323,0,0,1-.333.313" transform="translate(-4863.668 -1010.724)" fill="#c2bffa"/>
        <path id="Path_2194" data-name="Path 2194" d="M5144.868,1055.564a.323.323,0,0,1-.334-.314v-2.762a.334.334,0,0,1,.667,0v2.762a.323.323,0,0,1-.333.314" transform="translate(-4936.896 -1012.344)" fill="#c2bffa"/>
        <path id="Path_2195" data-name="Path 2195" d="M5221.2,1056.422a.324.324,0,0,1-.334-.313v-2.793a.335.335,0,0,1,.669,0v2.793a.324.324,0,0,1-.334.313" transform="translate(-5010.145 -1013.14)" fill="#c2bffa"/>
        <path id="Path_2196" data-name="Path 2196" d="M5304.989,1056.422a.324.324,0,0,1-.334-.313v-2.793a.334.334,0,0,1,.667,0v2.793a.323.323,0,0,1-.333.313" transform="translate(-5090.555 -1013.14)" fill="#c2bffa"/>
        <path id="Path_2197" data-name="Path 2197" d="M4703.239,750.969h-28.765a.324.324,0,0,1-.333-.314v-2.448a.323.323,0,0,1,.333-.314h28.765a.324.324,0,0,1,.334.314v2.448a.324.324,0,0,1-.334.314m-28.43-.627h28.1V748.52h-28.1Z" transform="translate(-4485.489 -719.581)" fill="#c2bffa"/>
        <path id="Path_2198" data-name="Path 2198" d="M4844.523,1238.622a.324.324,0,0,1-.334-.313v-29.63h-15.07v29.63a.335.335,0,0,1-.668,0v-29.943a.324.324,0,0,1,.334-.314h15.738a.324.324,0,0,1,.334.314v29.943a.324.324,0,0,1-.334.313" transform="translate(-4633.57 -1162.32)" fill="#c2bffa"/>
        <path id="Path_2199" data-name="Path 2199" d="M5776.978,1128.538a.324.324,0,0,1-.334-.313v-19.743c0-7.84-4.853-14.218-10.816-14.218-5.983,0-10.851,6.378-10.851,14.218v19.743a.334.334,0,0,1-.667,0v-19.743c0-8.186,5.167-14.846,11.519-14.846,6.334,0,11.485,6.66,11.485,14.846v19.743a.324.324,0,0,1-.334.313" transform="translate(-5522.06 -1052.235)" fill="#c2bffa"/>
        <path id="Path_2200" data-name="Path 2200" d="M5721.645,1081.141a1.229,1.229,0,1,1,0-2.448,1.226,1.226,0,1,1,0,2.448m0-1.82a.6.6,0,1,0,0,1.192.6.6,0,1,0,0-1.192" transform="translate(-5489.429 -1037.858)" fill="#c2bffa"/>
        <path id="Path_2201" data-name="Path 2201" d="M5411.7,748.552h-2.142a.314.314,0,1,1,0-.628h2.142a.315.315,0,1,1,0,.628m-8.639,0h-34.622a.314.314,0,1,1,0-.628h34.622a.315.315,0,1,1,0,.628m-41.286,0h0l-2.845-.032a.314.314,0,1,1,0-.627h0l2.846.031a.314.314,0,1,1,0,.628" transform="translate(-5142.314 -719.581)" fill="#c2bffa"/>
        <path id="Path_2202" data-name="Path 2202" d="M5447.982,973.2h-50.9a.314.314,0,1,1,0-.628h50.9a.314.314,0,1,1,0,.628" transform="translate(-5178.933 -935.759)" fill="#c2bffa"/>
        <path id="Path_2203" data-name="Path 2203" d="M5892.378,818.817a.324.324,0,0,1-.333-.314v-5.618a.335.335,0,0,1,.668,0V818.5a.325.325,0,0,1-.334.314" transform="translate(-5654.236 -781.81)" fill="#c2bffa"/>
        <path id="Path_2204" data-name="Path 2204" d="M5968.7,821.284a.324.324,0,0,1-.334-.314v-5.618a.335.335,0,0,1,.668,0v5.618a.325.325,0,0,1-.333.314" transform="translate(-5727.477 -784.184)" fill="#c2bffa"/>
        <path id="Path_2205" data-name="Path 2205" d="M6090.66,818.817a.325.325,0,0,1-.334-.314v-5.618a.335.335,0,0,1,.668,0V818.5a.324.324,0,0,1-.333.314" transform="translate(-5844.515 -781.81)" fill="#c2bffa"/>
        <path id="Path_2206" data-name="Path 2206" d="M6167.828,821.284a.324.324,0,0,1-.334-.314v-5.618a.335.335,0,0,1,.668,0v5.618a.325.325,0,0,1-.334.314" transform="translate(-5918.569 -784.184)" fill="#c2bffa"/>
        <path id="Path_2207" data-name="Path 2207" d="M6289.768,818.817a.325.325,0,0,1-.334-.314v-5.618a.335.335,0,0,1,.668,0V818.5a.325.325,0,0,1-.334.314" transform="translate(-6035.587 -781.81)" fill="#c2bffa"/>
        <path id="Path_2208" data-name="Path 2208" d="M6366.108,821.284a.325.325,0,0,1-.334-.314v-5.618a.335.335,0,0,1,.668,0v5.618a.325.325,0,0,1-.334.314" transform="translate(-6108.846 -784.184)" fill="#c2bffa"/>
        <path id="Path_2209" data-name="Path 2209" d="M5478.736,441.734h-47.649a.314.314,0,1,1,0-.628h47.649a.315.315,0,1,1,0,.628" transform="translate(-5211.563 -424.407)" fill="#c2bffa"/>
        <path id="Path_2210" data-name="Path 2210" d="M5662.575,1048.745a.323.323,0,0,1-.334-.313v-37.414a.335.335,0,0,1,.668,0v37.414a.324.324,0,0,1-.334.313" transform="translate(-5433.708 -972.443)" fill="#c2bffa"/>
        <path id="Path_2211" data-name="Path 2211" d="M5639.245,330.625h-33.92a.314.314,0,1,1,0-.628h33.92a.314.314,0,1,1,0,.628" transform="translate(-5378.769 -317.505)" fill="#c2bffa"/>
        <path id="Path_2212" data-name="Path 2212" d="M5437.584,82.965a.324.324,0,0,1-.335-.314V59.738c0-2.824-1.334-5.21-2.914-5.21s-2.914,2.386-2.914,5.21V82.651a.335.335,0,0,1-.668,0V59.738c0-3.219,1.606-5.838,3.583-5.838s3.582,2.619,3.582,5.838V82.651a.324.324,0,0,1-.333.314" transform="translate(-5211.563 -51.859)" fill="#c2bffa"/>
        <path id="Path_2213" data-name="Path 2213" d="M5439.031,188.854h-6.261a.314.314,0,1,1,0-.628h6.261a.314.314,0,1,1,0,.628" transform="translate(-5213.179 -181.1)" fill="#c2bffa"/>
        <path id="Path_2214" data-name="Path 2214" d="M5509.078,3.984a.324.324,0,0,1-.334-.315V1.975a.335.335,0,0,1,.668,0V3.67a.324.324,0,0,1-.334.315" transform="translate(-5286.405 -1.598)" fill="#c2bffa"/>
        <path id="Path_2215" data-name="Path 2215" d="M5387.137,1040.51a.324.324,0,0,1-.333-.314v-4.3a.334.334,0,0,1,.667,0v4.3a.324.324,0,0,1-.334.314" transform="translate(-5169.388 -996.38)" fill="#c2bffa"/>
        <path id="Path_2216" data-name="Path 2216" d="M5445.495,1009.692h-50.9a.315.315,0,1,1,0-.628h50.9a.315.315,0,1,1,0,.628" transform="translate(-5176.547 -970.865)" fill="#c2bffa"/>
        <path id="Path_2217" data-name="Path 2217" d="M5440.468,813.2H5389.6a.314.314,0,1,1,0-.627h50.863a.314.314,0,1,1,0,.627" transform="translate(-5171.755 -781.81)" fill="#c2bffa"/>
        <path id="Path_2218" data-name="Path 2218" d="M5405.415,1124.932H5394.6a.314.314,0,1,1,0-.627h10.816a.314.314,0,1,1,0,.627" transform="translate(-5176.548 -1081.743)" fill="#c2bffa"/>
        <path id="Path_2219" data-name="Path 2219" d="M5405.415,1843.808H5394.6a.314.314,0,1,1,0-.627h10.816a.314.314,0,1,1,0,.627" transform="translate(-5176.548 -1773.406)" fill="#c2bffa"/>
        <path id="Path_2220" data-name="Path 2220" d="M6391.822,1047.167a.324.324,0,0,1-.335-.313v-37.476a.335.335,0,0,1,.668,0v37.476a.324.324,0,0,1-.333.313" transform="translate(-6133.521 -970.865)" fill="#c2bffa"/>
        <path id="Path_2221" data-name="Path 2221" d="M6403.44,1136.552h-10.782a.314.314,0,1,1,0-.626h10.782a.314.314,0,1,1,0,.626" transform="translate(-6134.325 -1092.924)" fill="#c2bffa"/>
        <path id="Path_2222" data-name="Path 2222" d="M6403.44,1856.242h-10.782a.314.314,0,1,1,0-.627h10.782a.314.314,0,1,1,0,.627" transform="translate(-6134.325 -1785.37)" fill="#c2bffa"/>
        <path id="Path_2223" data-name="Path 2223" d="M4676.145,1060.581a.324.324,0,0,1-.334-.314v-2.793a.335.335,0,0,1,.669,0v2.793a.325.325,0,0,1-.334.314" transform="translate(-4487.091 -1017.141)" fill="#c2bffa"/>
        <path id="Path_2224" data-name="Path 2224" d="M4752.442,1062.21a.324.324,0,0,1-.334-.314v-2.761a.335.335,0,0,1,.669,0v2.761a.324.324,0,0,1-.334.314" transform="translate(-4560.309 -1018.739)" fill="#c2bffa"/>
        <path id="Path_2225" data-name="Path 2225" d="M4907.062,1305.629a.323.323,0,0,1-.333-.313v-20.841c0-3.392-2.149-6.152-4.79-6.152s-4.789,2.76-4.789,6.152v20.841a.335.335,0,0,1-.668,0v-20.841c0-3.738,2.448-6.779,5.457-6.779s5.458,3.041,5.458,6.779v20.841a.324.324,0,0,1-.334.313" transform="translate(-4698.855 -1229.327)" fill="#c2bffa"/>
        <path id="Path_2226" data-name="Path 2226" d="M5478.815,242.933a.325.325,0,0,1-.335-.314V236.78c0-.817-.522-1.507-1.14-1.507s-1.1.676-1.1,1.507v5.838a.335.335,0,0,1-.668,0V236.78a1.957,1.957,0,0,1,1.773-2.134,1.993,1.993,0,0,1,1.808,2.134v5.838a.324.324,0,0,1-.333.314" transform="translate(-5254.569 -225.763)" fill="#c2bffa"/>
        <path id="Path_2227" data-name="Path 2227" d="M6685.251,819.256h-28.8a.325.325,0,0,1-.335-.314v-6.057a.324.324,0,0,1,.335-.313h28.8a.323.323,0,0,1,.333.313v6.057a.324.324,0,0,1-.333.314m-28.463-.628h28.128V813.2h-28.128Z" transform="translate(-6387.473 -781.81)" fill="#c2bffa"/>
        <path id="Path_2228" data-name="Path 2228" d="M6686.758,975.871h-30.3a.324.324,0,0,1-.334-.314V972.89a.324.324,0,0,1,.334-.314h32.916a.337.337,0,0,1,.307.188.3.3,0,0,1-.061.339L6687,975.77a.349.349,0,0,1-.247.1m-29.97-.628h29.822l2-2.04h-31.821Z" transform="translate(-6387.473 -935.758)" fill="#c2bffa"/>
        <path id="Path_2229" data-name="Path 2229" d="M6656.455,1175.61a.324.324,0,0,1-.335-.313v-32.423a.324.324,0,0,1,.335-.314h28.8a.314.314,0,1,1,0,.627h-28.463v32.11a.324.324,0,0,1-.334.313" transform="translate(-6387.473 -1099.307)" fill="#c2bffa"/>
        <path id="Path_2230" data-name="Path 2230" d="M7209.843,1059.692a.324.324,0,0,1-.334-.313v-2.762a.335.335,0,0,1,.668,0v2.762a.324.324,0,0,1-.334.313" transform="translate(-6918.527 -1016.315)" fill="#c2bffa"/>
        <path id="Path_2231" data-name="Path 2231" d="M7133.5,1060.581a.324.324,0,0,1-.334-.314v-2.793a.335.335,0,0,1,.668,0v2.793a.324.324,0,0,1-.334.314" transform="translate(-6845.268 -1017.141)" fill="#c2bffa"/>
        <path id="Path_2232" data-name="Path 2232" d="M7052.2,1052.274a.323.323,0,0,1-.334-.313v-2.794a.334.334,0,0,1,.667,0v2.794a.323.323,0,0,1-.333.313" transform="translate(-6767.248 -1009.148)" fill="#c2bffa"/>
        <path id="Path_2233" data-name="Path 2233" d="M6975.88,1053.912a.324.324,0,0,1-.334-.313V1050.8a.335.335,0,0,1,.668,0v2.795a.324.324,0,0,1-.334.313" transform="translate(-6694.007 -1010.724)" fill="#c2bffa"/>
        <path id="Path_2234" data-name="Path 2234" d="M6899.539,1055.564a.324.324,0,0,1-.334-.314v-2.762a.335.335,0,0,1,.669,0v2.762a.325.325,0,0,1-.335.314" transform="translate(-6620.747 -1012.344)" fill="#c2bffa"/>
        <path id="Path_2235" data-name="Path 2235" d="M6822.395,1056.422a.324.324,0,0,1-.333-.313v-2.793a.335.335,0,0,1,.668,0v2.793a.324.324,0,0,1-.335.313" transform="translate(-6546.717 -1013.14)" fill="#c2bffa"/>
        <path id="Path_2236" data-name="Path 2236" d="M6738.592,1056.422a.324.324,0,0,1-.334-.313v-2.793a.335.335,0,0,1,.668,0v2.793a.324.324,0,0,1-.334.313" transform="translate(-6466.296 -1013.14)" fill="#c2bffa"/>
        <path id="Path_2237" data-name="Path 2237" d="M6685.251,750.969h-28.8a.325.325,0,0,1-.335-.314v-2.448a.324.324,0,0,1,.335-.314h28.8a.324.324,0,0,1,.333.314v2.448a.324.324,0,0,1-.333.314m-28.463-.627h28.128V748.52h-28.128Z" transform="translate(-6387.473 -719.581)" fill="#c2bffa"/>
        <path id="Path_2238" data-name="Path 2238" d="M6828.166,1238.622a.324.324,0,0,1-.334-.313v-29.63h-15.069v29.63a.335.335,0,0,1-.669,0v-29.943a.324.324,0,0,1,.334-.314h15.738a.324.324,0,0,1,.334.314v29.943a.324.324,0,0,1-.334.313" transform="translate(-6537.151 -1162.32)" fill="#c2bffa"/>
        <path id="Path_2239" data-name="Path 2239" d="M6656.455,1040.51a.324.324,0,0,1-.335-.314v-4.3a.335.335,0,0,1,.669,0v4.3a.324.324,0,0,1-.334.314" transform="translate(-6387.473 -996.38)" fill="#c2bffa"/>
        <path id="Path_2240" data-name="Path 2240" d="M7367.468,1060.581a.323.323,0,0,1-.334-.314v-2.793a.334.334,0,0,1,.667,0v2.793a.324.324,0,0,1-.333.314" transform="translate(-7069.79 -1017.141)" fill="#c2bffa"/>
        <path id="Path_2241" data-name="Path 2241" d="M7291.135,1062.21a.323.323,0,0,1-.334-.314v-2.761a.335.335,0,0,1,.668,0v2.761a.323.323,0,0,1-.334.314" transform="translate(-6996.538 -1018.739)" fill="#c2bffa"/>
        <path id="Path_2242" data-name="Path 2242" d="M6890.7,1305.629a.324.324,0,0,1-.335-.313v-20.841c0-3.392-2.148-6.152-4.789-6.152s-4.789,2.76-4.789,6.152v20.841a.335.335,0,0,1-.668,0v-20.841c0-3.738,2.448-6.779,5.458-6.779s5.457,3.041,5.457,6.779v20.841a.323.323,0,0,1-.333.313" transform="translate(-6602.429 -1229.327)" fill="#c2bffa"/>
        <path id="Path_2243" data-name="Path 2243" d="M6458.01,80.378a.324.324,0,0,1-.334-.315V57.245c0-2.824-1.32-5.21-2.881-5.21-1.579,0-2.914,2.386-2.914,5.21V80.063a.334.334,0,0,1-.667,0V57.245c0-3.219,1.606-5.838,3.582-5.838s3.549,2.564,3.549,5.838V80.063a.325.325,0,0,1-.334.315" transform="translate(-6190.836 -49.461)" fill="#c2bffa"/>
        <path id="Path_2244" data-name="Path 2244" d="M6461.177,186.362h-6.3a.314.314,0,1,1,0-.628h6.3a.315.315,0,1,1,0,.628" transform="translate(-6194.037 -178.703)" fill="#c2bffa"/>
        <path id="Path_2245" data-name="Path 2245" d="M6534.515,2.321a.325.325,0,0,1-.334-.314V.312a.335.335,0,0,1,.668,0v1.7a.324.324,0,0,1-.334.314" transform="translate(-6270.456 0.002)" fill="#c2bffa"/>
        <path id="Path_2246" data-name="Path 2246" d="M6498.44,240.456a.324.324,0,0,1-.334-.314V234.3c0-.83-.5-1.506-1.1-1.506s-1.138.69-1.138,1.506v5.838a.335.335,0,0,1-.669,0V234.3A1.993,1.993,0,0,1,6497,232.17a1.958,1.958,0,0,1,1.774,2.134v5.838a.324.324,0,0,1-.334.314" transform="translate(-6233.042 -223.381)" fill="#c2bffa"/>
        <path id="Path_2247" data-name="Path 2247" d="M5668.384,336.978a.324.324,0,0,1-.333-.314V332.8a.335.335,0,0,1,.668,0v3.861a.325.325,0,0,1-.335.314" transform="translate(-5439.283 -319.903)" fill="#c2bffa"/>
        <path id="Path_2248" data-name="Path 2248" d="M5745.541,338.656a.324.324,0,0,1-.334-.314v-3.892a.335.335,0,0,1,.668,0v3.892a.325.325,0,0,1-.334.314" transform="translate(-5513.325 -321.486)" fill="#c2bffa"/>
        <path id="Path_2249" data-name="Path 2249" d="M5826.006,341.121a.324.324,0,0,1-.333-.314v-3.861a.335.335,0,0,1,.668,0v3.861a.324.324,0,0,1-.334.314" transform="translate(-5590.543 -323.889)" fill="#c2bffa"/>
        <path id="Path_2250" data-name="Path 2250" d="M5902.338,342.809a.325.325,0,0,1-.335-.314V338.6a.335.335,0,0,1,.669,0V342.5a.325.325,0,0,1-.334.314" transform="translate(-5663.793 -325.483)" fill="#c2bffa"/>
        <path id="Path_2251" data-name="Path 2251" d="M5983.619,339.5a.325.325,0,0,1-.334-.314v-3.892a.335.335,0,0,1,.668,0v3.892a.324.324,0,0,1-.334.314" transform="translate(-5741.794 -322.296)" fill="#c2bffa"/>
        <path id="Path_2252" data-name="Path 2252" d="M6059.96,341.955a.325.325,0,0,1-.334-.314v-3.86a.335.335,0,0,1,.668,0v3.86a.324.324,0,0,1-.334.314" transform="translate(-5815.054 -324.692)" fill="#c2bffa"/>
        <path id="Path_2253" data-name="Path 2253" d="M6141.274,340.291a.324.324,0,0,1-.334-.314v-3.861a.335.335,0,0,1,.668,0v3.861a.325.325,0,0,1-.334.314" transform="translate(-5893.086 -323.09)" fill="#c2bffa"/>
        <path id="Path_2254" data-name="Path 2254" d="M6217.584,341.988a.325.325,0,0,1-.334-.314v-3.892a.335.335,0,0,1,.668,0v3.892a.324.324,0,0,1-.334.314" transform="translate(-5966.317 -324.693)" fill="#c2bffa"/>
        <path id="Path_2255" data-name="Path 2255" d="M6298.9,337.8a.324.324,0,0,1-.333-.314v-3.861a.335.335,0,0,1,.668,0v3.861a.324.324,0,0,1-.334.314" transform="translate(-6044.351 -320.691)" fill="#c2bffa"/>
        <path id="Path_2256" data-name="Path 2256" d="M6375.219,339.5a.324.324,0,0,1-.333-.314v-3.892a.334.334,0,0,1,.667,0v3.892a.324.324,0,0,1-.334.314" transform="translate(-6117.589 -322.296)" fill="#c2bffa"/>
        <path id="Path_2257" data-name="Path 2257" d="M5405.415,1576.805H5394.6a.314.314,0,1,1,0-.627h10.816a.314.314,0,1,1,0,.627" transform="translate(-5176.548 -1516.51)" fill="#c2bffa"/>
        <path id="Path_2258" data-name="Path 2258" d="M6403.44,1588.426h-10.782a.314.314,0,1,1,0-.627h10.782a.314.314,0,1,1,0,.627" transform="translate(-6134.325 -1527.691)" fill="#c2bffa"/>
        <path id="Path_2259" data-name="Path 2259" d="M5405.415,1309H5394.6a.314.314,0,1,1,0-.627h10.816a.314.314,0,1,1,0,.627" transform="translate(-5176.548 -1258.843)" fill="#c2bffa"/>
        <path id="Path_2260" data-name="Path 2260" d="M6403.44,1321.456h-10.782a.314.314,0,1,1,0-.627h10.782a.314.314,0,1,1,0,.627" transform="translate(-6134.325 -1270.828)" fill="#c2bffa"/>
      </g>
    </g>
  </g>
</svg>
