<svg xmlns="http://www.w3.org/2000/svg" xmlns:xlink="http://www.w3.org/1999/xlink" width="113" height="81" viewBox="0 0 113 81">
  <defs>
    <clipPath id="clip-path">
      <rect id="Rectangle_1261" data-name="Rectangle 1261" width="113" height="81" transform="translate(0 131.065)" fill="#d7f5ef"/>
    </clipPath>
    <clipPath id="clip-path-2">
      <rect id="Rectangle_1260" data-name="Rectangle 1260" width="147.163" height="72.277" fill="#fccfca"/>
    </clipPath>
  </defs>
  <g id="Mask_Group_117" data-name="Mask Group 117" transform="translate(0 -131.065)" clip-path="url(#clip-path)">
    <g id="Group_1452" data-name="Group 1452" transform="translate(-20.739 139.788)">
      <g id="Group_1451" data-name="Group 1451" transform="translate(0 0)" clip-path="url(#clip-path-2)">
        <path id="Path_2060" data-name="Path 2060" d="M147.053,64.3H107.9v4.363c1.11-3.853,1.11-3.853,3.67-3.75l1.121,1.9c.408-.706.742-1.284,1.076-1.864,1.523-.214,3.066-.473,3.444,1.8,1.014-.64.972-2.1,2.607-1.992,1.47.1,1.662,1.12,2.284,1.911,1.438-1.844,1.438-1.844,3.693-1.768l1.123,1.948c.4-.727.72-1.308,1.04-1.887,1.609-.3,3.13-.4,3.556,1.831,2.03-2.638,3.074-2.644,5.011-.005.462-2.133,1.93-2.132,3.531-1.842l1.083,1.891,1.061-1.888a1.516,1.516,0,0,1,.287-.062c2.943-.089,3.011-.008,3.06,2.972.016.991.134,1.981.22,3.169H107.914V84.724l.328.04a9.546,9.546,0,0,0,.138-1.143c.013-2.871,0-5.742.016-8.613a6.18,6.18,0,0,1,.151-1.326c.359-1.572,1.45-1.786,2.782-1.45l1.26,2.228c1.091-1.131,1.406-3.311,3.569-2.088l.978,1.773c1.479-.1.918-2.082,2.641-2.1,1.764-.017,1.226,1.778,2.574,2.153l1.247-1.966h1.968l1.2,2.143c1.212-.937,1.443-3.3,3.643-1.974l1.221,2.165,1.406-2.327c1.779-.834,2.455.7,3.365,2.3l1.351-2.329h2.014l1.21,2.162c1.206-.884,1.381-3.36,3.579-1.98l1.461,2.222c-.476.311-1.114.836-.032,1.233a7.045,7.045,0,0,0-.519,1.657c-.067,1.458.043,2.926-.042,4.383a3.545,3.545,0,0,0,1.627,3.608H.1c1.988-1.054,1.665-2.861,1.555-4.5-.112-1.673.551-3.457-.558-5.125.933-.376.78-.873.011-1.218L2.645,72.3c1.991-1.126,2.351.989,3.467,2.124l1.272-2.177H9.414l1.215,2.189c1.143-1.03,1.4-3.333,3.6-2.048l1.207,2.16L16.951,72.2c1.629-.739,2.469.469,3.135,2.523l1.58-2.5c1.733-.827,2.431.671,3.2,2.154,1.162-.982,1.438-3.275,3.6-1.99.3.541.672,1.2,1.225,2.193l1.4-2.324c1.824-.888,2.452.726,3.281,2.112,1.17-.928,1.393-3.311,3.7-1.9,1.366,2.488.548,5.447.735,8.3.087,1.326.015,2.663.015,3.995l.4,0V71.149h-38c.176-.87.349-1.492.416-2.125a12.5,12.5,0,0,1,.043-1.806c.212-.806.456-2.058.983-2.233,1.1-.364,2.527-.481,3,1.211a5.131,5.131,0,0,0,.4.706c.537-2.053,1.861-2.4,3.662-1.877l1.04,1.806,1.075-1.882c1.568-.2,3.182-.511,3.482,1.992.914-1.023.994-2.235,2.564-2.155,1.413.072,1.7.911,2.348,2.144.6-1.99,1.862-2.477,3.713-1.892l1.047,1.812,1.045-1.894c1.608-.3,3.115-.377,3.686,1.971.551-2.191,1.933-2.341,3.674-1.937.267.463.6,1.049,1.16,2.02.37-2.364,2.121-2.7,3.306-1.974.88.538.981,2.352,1.352,3.386V64.384H.13c0-.187,0-.374-.005-.561H39.216c0-.178,0-.357,0-.536H0c.212-.771.362-1.312.592-2.152l.693,1.316.488-1.332L2.4,62.479c.1-1.031.19-1.937.279-2.843l.563,0c.09.913.18,1.826.287,2.91l.607-1.41.529,1.417.57-1.32c.24.491.41.836.6,1.216l1.938-3.128.408,3.183.442-1.358.7,1.466.5-1.457.557,1.31,1.8-2.8,1.755,2.887c.141-.478.239-.815.426-1.453l.692,1.518.485-1.407.627,1.126c.1-.916.194-1.811.325-3.031l2.024,3.149.458-1.327.629,1.422.527-1.33.64,1.352c.1-1.087.178-2,.26-2.92l.584-.037c.107.882.214,1.763.319,2.622l.577-1.035.526,1.236.618-1.26.579,1.375.465-1.452.643,1.4c.115-1.061.212-1.956.309-2.85l.575.013c.076.9.151,1.8.242,2.88l.646-1.434c.219.614.342.957.507,1.421l.536-1.359.643,1.245L30.695,59.4c.153,1.135.272,2.016.391,2.893l.568-1.008.587,1.326.5-1.416.625,1.211,1.963-3.061c.126,1.239.218,2.138.329,3.224l.576-1.483.548,1.548.548-1.441c.242.521.4.868.633,1.363l.524-1.361.7,1.362c.375-1.06-.09-2.238,1.144-2.931.28-.158-.214-1.822-.467-2.762a17.32,17.32,0,0,0-.826-2.085c.908-.355,1.8-.42,2.047-.852.812-1.426,1.739-2.895,1.284-4.6l-1.657-1.073,3.641-.84c-1.956-1.184-.347-3.008-1.25-4.232,1.624.1,4.464-1.737,4.858-3.167.184-.668-.089-1.453.047-2.147a11.672,11.672,0,0,1,.8-2.053l.5-.061c.285.942.949,1.958.781,2.81-.4,2.018.945,2.851,2.13,3.8a11.65,11.65,0,0,0,2.326,1.105,12.773,12.773,0,0,1-.009,1.385A3.6,3.6,0,0,0,55.585,47.6c.815,1.012,1.034,2.5,1.662,4.187.838.428,1.475-.069,1.385-1.493-.149-2.374-.381-4.743-.59-7.259,5.477-3.028,22.385-3.852,31-.1-.164,2.734-.381,5.354-.454,7.978-.039,1.407,1.054.761,1.867.782a5.546,5.546,0,0,1,1.8-4.985c.667-.6.34-2.306.465-3.508,1.936.2,4.395-2.339,4.325-4.415a11.092,11.092,0,0,1,.764-3.024l.768.028c.166,1.166.307,2.337.512,3.5a2.554,2.554,0,0,0,.49,1.33,23.686,23.686,0,0,0,2.746,2.29,4.983,4.983,0,0,0,1.575.376c-.717,1.03.775,2.731-1.528,3.945l3.918,1.044-1.54,1.089c-.207,3.273,1.036,5.424,3.393,5.058-.267.811-.5,1.475-.7,2.145a14.753,14.753,0,0,0-.671,2.395c-.045.342.422.725.567,1.122.261.71.455,1.445.7,2.242l.584-1.153c.234.551.377.89.583,1.375l.576-1.463.5,1.458L112.04,59.7l1.772,2.785.446-1.332.716,1.424.424-1.429.739,1.444c.066-1.087.12-1.99.175-2.893l.573-.046q.182,1.3.364,2.61l.562-1,.524,1.178c.183-.384.347-.725.6-1.257l.6,1.345L120,61.193l.691,1.254c.081-.979.155-1.872.229-2.764l.57-.018c.1.9.207,1.8.331,2.885l.514-1.307.626,1.25c.173-.414.313-.753.551-1.326l.577,1.313.48-1.293.687,1.291c.086-.966.167-1.882.287-3.225.825,1.313,1.4,2.235,2.073,3.3l.452-1.423.605,1.342,1.965-3.188c.15,1.263.257,2.171.372,3.144l.527-1.32.562,1.448.623-1.432c.215.621.331.955.526,1.516l.557-1.34.616,1.046q.129-1.332.259-2.673l.309-.043,1.786,2.931c.132-.448.234-.8.418-1.424l.716,1.429c.163-.487.274-.819.487-1.461l.635,1.52c.1-1.136.179-2.053.291-3.341l1.983,3.143.573-1.248.621,1.533c.163-.623.251-.96.417-1.588l.695,1.382c.1-1.025.18-1.925.264-2.823l.582-.022c.09.9.179,1.8.278,2.8l.6-1.194.537,1.178.652-1.319c.238.788.4,1.327.635,2.1H108.152q0,.258,0,.516h38.9V64.3m-48.9-.091-.047-.04V65.31h2.811a15.143,15.143,0,0,0,.268-2.091A1.581,1.581,0,0,0,98.435,62.1c-.393.431-.207,1.389-.284,2.107m-49.16-.023a5.556,5.556,0,0,0-.312-2.106c-.189-.32-1.172-.429-1.669-.26-1.984.678-.589,2.242-.835,3.409h2.859V64.15ZM41.18,58V84.788h9.985V69.425c-1.271,1.1-1.178,2.451-.857,3.763.389,1.593.984,3.148-.345,4.32-.543-.325-1.01-.843-1.457-.827-1.1.039-2.547-.729-3.058,1.221-.73-1.2-1.392-2.169-.78-3.468a3.645,3.645,0,0,0,.3-1.44c.032-1.455.6-3.08-1-3.9a17.615,17.615,0,0,0,1.2-3.863c.124-1.716-.229-3.459,1.807-4.36.295-.131.427-.631.587-.887L46.272,58Zm64.771,26.838V58.026c-4.59-.475-4.642-.459-6.462,2.065a17,17,0,0,1,1.357,1.233,3.5,3.5,0,0,1,.966,1.408c.43,2.133.734,4.291,1.1,6.516a3.657,3.657,0,0,0-.758,1.354,9.848,9.848,0,0,0,.144,2.672c.226,1.535.94,3.108-.549,4.423a2.825,2.825,0,0,0-4.572.083,7.591,7.591,0,0,1-.832-2.172A7.4,7.4,0,0,1,96.86,73.2c.48-1.6.128-3.256-.834-3.725V84.838Zm-29.453,0c.124-2.591.289-5.023.343-7.458.083-3.65.141-7.3.091-10.953a6.938,6.938,0,0,0-.766-2.678,8.9,8.9,0,0,0-1.5-1.71H71.944l-.226,1.721-1.078-.582c-.077,1.744-.182,3.3-.206,4.86-.057,3.767-.12,7.535-.093,11.3.013,1.819.222,3.636.345,5.5Zm18.36-25.869h-42.5v2.163h42.5ZM79.531,84.776h4.262c.284-7.323.612-14.518-.045-21.7l-.429-.088-.267.909-.435-.322c-.062-.519-.124-1.038-.186-1.565H80.876l-.3,1.824-.922-.867c-.825,7.372-.44,14.559-.127,21.806M67.2,63.209l-.695.611c-.094-.749-.159-1.274-.228-1.821H64.71c-.078.586-.147,1.107-.242,1.823l-.974-.863c-.807,7.438-.38,14.609-.111,21.807h4.2c.709-9.789.545-18.378-.384-21.557M48.49,58.061H98.663a6.831,6.831,0,0,0-5.121-2.041q-19.946.128-39.893.005a6.867,6.867,0,0,0-5.158,2.036M89.226,63.7l-.759-1.735-.822,1.79-.685-.838c-.948,7.452-.452,14.656-.181,21.859h3.4c.32-7.275.713-14.421-.091-21.744l-.857.667m-30.4-1.825-.469.175q-.145.8-.289,1.6l-.306.072q-.147-.392-.294-.784l-.449.2c-.67,7.2-.323,14.414-.059,21.759.641,0,1.185.009,1.728,0s1.068-.046,1.576-.069c.807-6.809.608-18.62-.326-21.572l-.592.442c-.2-.7-.359-1.262-.52-1.827m-5.173-16.2c.436-1.7-1.742-2.968-4.081-3.018-3.607-.078-5.216.776-5.359,3.018Zm39.78,0h9.545c-.262-2.25-1.514-2.944-5-3.011-2.738-.052-4.681,1.15-4.541,3.011M76.784,54.416c.257-1.588,1-3.377-.33-4.733-1.266-1.291-4.506-1.128-5.833.01-.746.64-.9,3.365-.158,5.086.342-.96.643-1.715.88-2.488a2.011,2.011,0,0,1,3.413-.994,26.736,26.736,0,0,1,2.029,3.119M67.469,42.777l-.333.018-.4-1.489-.45-.091-.789,2.165c-.2-.737-.318-1.169-.436-1.6l-.4-.135-.945,1.963-.591-1.831-1.052,2.038c-1.521-2.927-1.126.408-1.83.418l-.417-1.054-.48-.1-.691,2.379c5.022-1.731,9.687-2.876,14.631-2.182l-.214-1.809c-1.659-.826-.928,1.1-1.765,1.382-.15-.545-.285-1.039-.421-1.534l-.438-.2-1.126,1.72c-.475-.537-.024-2.148-1.56-1.418l-.293,1.359m14.17.526c-.334-.863-.572-1.475-.809-2.086l-.384.13c-.167.492-.335.984-.613,1.8-.462-.986-.037-2.4-1.533-1.728l-.475,1.715c-.588-1.782-.588-1.782-1.6-1.717l-.456,1.7c-.58-.883-.191-2.452-1.729-1.63-.016.266-.029.516-.046.766-.018.271-.039.542-.076,1.041,4.974-.761,9.573.492,14.559,2.124l-.7-2.352-.446.114-.563,1.185-.689-1.581-1.136.838-.911-1.773-.688,1.7L82.5,41.659l-.39.151L81.639,43.3M52.807,47.96c-2.66,0-5.179-.047-7.694.033a6.793,6.793,0,0,0-1.93.677c.272.424.558.839.809,1.276a3.065,3.065,0,0,1,.163.706c.184-.58.3-.957.55-1.733l.455,1.557.6-1.669c.256.762.389,1.158.552,1.642.137-.5.245-.9.352-1.291h.249c.107.4.214.79.349,1.29.171-.534.3-.921.516-1.6.244.61.36.9.5,1.247l.716-1.23c.16.694.248,1.075.36,1.561l.382-1.28.267.026.333,1.3c.2-.541.34-.922.6-1.626.234.719.362,1.114.5,1.553l.513-1.592.458,1.1c.125-.616.244-1.2.4-1.94m46.076,2.271.388-1.092.268.065c.09.409.18.819.3,1.375.178-.593.306-1.022.434-1.45l.267.029.319,1.4.625-1.77c.228.769.346,1.168.471,1.591.164-.383.315-.735.642-1.5l.331,1.941a4.018,4.018,0,0,1,.315-1.013c.979-1.236.957-1.6-.521-1.688-2.774-.167-5.564-.048-8.369-.048.142.661.267,1.24.371,1.726l.628-.916c.125.721.193,1.121.3,1.712l.623-1.789.55,1.627.359-1.3.269.018c.1.386.2.772.323,1.221.132-.454.247-.85.454-1.566l.657,1.414m-52.856,19.2c-.084,1.046-.234,2.1-.214,3.152a1.285,1.285,0,0,0,.739.93c2.107.66,3-.036,2.907-2.225a12.575,12.575,0,0,0-.36-1.857Zm55.324.034h-3.7a13.224,13.224,0,0,0,.492,3.844c.158.368,2.549.371,2.675.051a15,15,0,0,0,.533-3.895m-49.32,4.485c0,1.663-.03,3.326.024,4.986.011.353.328.7.5,1.045.161-.314.46-.626.463-.941q.053-4.987,0-9.973c0-.3-.33-.594-.507-.891-.161.313-.452.621-.461.938-.047,1.61-.021,3.223-.024,4.835m42.65-20.964h7.2c-.035-.582-.064-1.059-.094-1.564H94.681Zm-49.347.016h7.032V51.423H45.334Zm-4.928,2.887-.251.253c.424.363.855,1.045,1.272,1.037,2.692-.053,5.465.473,8.152-.689L49,55.117l-.607,1.159c-.243-.473-.389-.754-.562-1.091l-.553,1.044-.65-.994-.621.99-.527-1.018-.669.96-.543-1.022L43.7,56.177l-.621-.785L42.7,56l-2.291-.107m66.594.35-.213-.282-3.012-.169-.35.422-.529-1.033c-.2.355-.36.642-.593,1.057l-.674-1.1c-.391,1.468-.778.835-1.133.1l-.6,1.021-.541-1.122L98.7,56.246,98.1,55.033l-.419,1.419c.543.279,1.018.721,1.511.741,2.052.086,4.113.115,6.162,0,.565-.031,1.1-.62,1.65-.954M2.48,84.815H4.839V80.521H2.48Zm130.364,0h2.364V80.533h-2.364Zm-101.931.006h2.368V80.539H30.913Zm-11.88-4.3H16.688v4.3h2.344Zm111.462.049h-2.348v4.2h2.348ZM95.139,74.1H95.13c0-1.659.025-3.319-.022-4.977-.009-.317-.3-.626-.463-.938-.167.308-.475.614-.478.923q-.061,4.978-.016,9.956c0,.309.312.614.479.921.17-.3.478-.6.487-.908.049-1.657.023-3.318.023-4.977m28.241,10.7h2.332V80.523H123.38ZM61.371,74.058h-.005c0,1.608-.028,3.218.021,4.824a3.509,3.509,0,0,0,.441,1.1c.176-.345.5-.689.5-1.037q.057-4.9,0-9.8c0-.32-.286-.637-.44-.955-.173.349-.485.692-.5,1.046-.054,1.606-.023,3.216-.023,4.824M7.224,84.818H9.547v-4.3H7.224Zm83.994-4.857.521.113A3.351,3.351,0,0,0,92.153,79q.048-4.907-.006-9.816c0-.335-.335-.666-.515-1a2.986,2.986,0,0,0-.4.977c-.032,2.819-.018,5.639-.018,8.458v2.341M85.425,68.108l-.6.129c0,3.7-.008,7.4.02,11.107,0,.214.288.427.442.64.167-.3.476-.6.479-.909q.051-4.974,0-9.949a3.467,3.467,0,0,0-.343-1.017M55.338,80.059l.41-.115a1.266,1.266,0,0,0,.161-.407c.016-3.515.032-7.03.01-10.545,0-.27-.273-.54-.419-.81-.172.295-.491.589-.494.886-.035,3.364-.029,6.729,0,10.094a2.837,2.837,0,0,0,.336.9m58.607,4.713h2.323V80.524h-2.323ZM77.578,79.947l.538.124c.139-.246.4-.493.4-.741q.042-5.2,0-10.4c0-.248-.318-.493-.488-.74-.148.265-.421.529-.425.8-.037,2.111-.022,4.222-.023,6.334v4.631m-8-5.7c0-1.707.023-3.414-.02-5.119-.009-.318-.285-.63-.439-.945-.169.3-.48.6-.483.907q-.055,4.969-.005,9.937c0,.319.289.635.443.952.168-.3.471-.6.481-.914.049-1.6.023-3.212.023-4.817M28.57,80.524H26.224v4.257H28.57Zm-14.233.038H12v4.224h2.334Zm21.3,4.241H37.98v-4.27H35.636Zm85.32-4.212H118.62v4.232h2.336Zm-97.178-.081H21.463v4.343h2.315Zm85.4,4.286h2.295V80.5h-2.295ZM139.9,80.55h-2.269v4.292H139.9Zm2.44,4.276h2.332V80.578h-2.332ZM78.783,49.1a4.6,4.6,0,0,0-.966-.631c-1.144-.382-2.3-.721-3.468-1.035a2.668,2.668,0,0,0-1.265-.12A34.729,34.729,0,0,0,69.161,48.5c-.294.112-.434.73-.538,1.143-.019.078.559.47.716.4.889-.4,1.729-.913,2.592-1.373a5.5,5.5,0,0,1,5.55,1.008,1.22,1.22,0,0,0,.838.346c.13-.005.241-.459.464-.926M33.622,76.585a32.126,32.126,0,0,0-.911-3.277,1.853,1.853,0,0,0-1.255.005c-.348,1.018-.543,2.089-.816,3.272Zm97.18-.018a27.847,27.847,0,0,0-.86-3.2c-.342-.86-1-.807-1.314.03a29.844,29.844,0,0,0-.817,3.175ZM2.084,76.555H5.126a25.353,25.353,0,0,0-.821-3.2c-.328-.825-1-.822-1.334.024a31.841,31.841,0,0,0-.887,3.176m133.387.011c-.274-1.162-.476-2.191-.78-3.189a1.029,1.029,0,0,0-.746-.5c-.177-.025-.53.26-.587.466-.284,1.032-.5,2.083-.754,3.22Zm-84.833-13.9c.428-1.374.771-2.472,1.165-3.735H47.728l2.91,3.735m65.945,13.911a27.816,27.816,0,0,0-.872-3.22c-.338-.843-1.025-.817-1.332.018a25.978,25.978,0,0,0-.749,3.2Zm-17.2-17.6H95.28l1.245,3.664,2.861-3.664M126.03,76.57c-.3-1.16-.517-2.137-.819-3.087a.964.964,0,0,0-.638-.6.919.919,0,0,0-.681.541c-.311.984-.532,2-.823,3.145Zm-116.144,0c-.323-1.233-.51-2.276-.879-3.251-.3-.788-.959-.788-1.248-.025a27.233,27.233,0,0,0-.817,3.276Zm111.329-.014c-.255-1.154-.435-2.14-.711-3.1a.968.968,0,0,0-.679-.581.914.914,0,0,0-.691.527c-.313.983-.534,2-.829,3.154Zm-82.863,0c-.33-1.216-.558-2.192-.875-3.138a.924.924,0,0,0-.68-.537.949.949,0,0,0-.629.6c-.29.977-.5,1.98-.759,3.078ZM144.94,76.6a27.882,27.882,0,0,0-.763-3.215c-.307-.85-.993-.849-1.3-.014a25.6,25.6,0,0,0-.758,3.229Zm-33.1-.029a29,29,0,0,0-.909-3.278c-.307-.754-.959-.774-1.245.035a32.843,32.843,0,0,0-.8,3.242ZM14.63,76.554a29.037,29.037,0,0,0-.854-3.177c-.322-.824-1.006-.855-1.323-.016a24.313,24.313,0,0,0-.747,3.193Zm4.683.017a33.15,33.15,0,0,0-.815-3.283,1.9,1.9,0,0,0-1.252.011,33.329,33.329,0,0,0-.849,3.272Zm1.81-.018h2.966a30.4,30.4,0,0,0-.844-3.17c-.322-.841-.949-.855-1.274,0a32.213,32.213,0,0,0-.848,3.166m119.117,0c-.311-1.219-.538-2.29-.9-3.314a1.76,1.76,0,0,0-1.165.006c-.358,1.022-.579,2.093-.882,3.307ZM28.89,76.567c-.327-1.219-.555-2.205-.873-3.161a1,1,0,0,0-.69-.533.785.785,0,0,0-.625.441c-.288,1.038-.5,2.1-.761,3.253ZM52.933,46.444H44.8c1.124,1.1,6.956,1.1,8.135,0M94.3,46.435c1.007,1.114,6.924,1.129,8.02,0ZM5.359,68.369a20.688,20.688,0,0,0-1.143-2.734,1.412,1.412,0,0,0-1.223.042,19.251,19.251,0,0,0-.932,2.692Zm14.15-.009a17.926,17.926,0,0,0-1.025-2.69,1.558,1.558,0,0,0-1.322.083,15.541,15.541,0,0,0-.8,2.607Zm14.341.008a21.5,21.5,0,0,0-1.236-2.747,1.4,1.4,0,0,0-1.211.091,18.676,18.676,0,0,0-.846,2.656Zm82.785,0a17.176,17.176,0,0,0-.93-2.688,1.578,1.578,0,0,0-1.334.03,16.258,16.258,0,0,0-.865,2.658Zm1.564-.021h3.253a19.945,19.945,0,0,0-1.051-2.7,1.421,1.421,0,0,0-1.223.01,19.6,19.6,0,0,0-.979,2.687m17.579.026a21.425,21.425,0,0,0-1.209-2.747,1.4,1.4,0,0,0-1.214.076,18.945,18.945,0,0,0-.878,2.671Zm-120.958,0a21.008,21.008,0,0,0-1.156-2.752,1.423,1.423,0,0,0-1.22.053,19.573,19.573,0,0,0-.894,2.7ZM29,68.367a20.5,20.5,0,0,0-1.1-2.741,1.436,1.436,0,0,0-1.225.032,19.766,19.766,0,0,0-.916,2.709Zm9.508.02a17.784,17.784,0,0,0-1.066-2.726,1.559,1.559,0,0,0-1.322.074,15.911,15.911,0,0,0-.756,2.652Zm92.391-.032a17.739,17.739,0,0,0-1-2.7,1.579,1.579,0,0,0-1.33.074,15.689,15.689,0,0,0-.789,2.627Zm10.964,0h3.268a19.534,19.534,0,0,0-1.02-2.706,1.44,1.44,0,0,0-1.237-.01,19.959,19.959,0,0,0-1.01,2.716M92.973,79.892l.269.013V68.2l-.269.007Zm-39.105.043.255,0V68.157l-.255,0Zm86.443-11.568a16.927,16.927,0,0,0-.877-2.672,1.59,1.59,0,0,0-1.324,0,16.825,16.825,0,0,0-.86,2.674Zm-14.119.021a18.685,18.685,0,0,0-1.08-2.753c-.1-.175-1.228-.093-1.328.125a15.274,15.274,0,0,0-.723,2.627Zm-14.28-.006a17.538,17.538,0,0,0-.962-2.7,1.563,1.563,0,0,0-1.319.049,16.079,16.079,0,0,0-.833,2.654ZM10.02,68.392a18.082,18.082,0,0,0-1.027-2.733,1.585,1.585,0,0,0-1.325.076,16,16,0,0,0-.747,2.657Zm14.223-.006a18.825,18.825,0,0,0-1.057-2.748c-.1-.172-1.216-.1-1.317.122a15.349,15.349,0,0,0-.733,2.627ZM136.636,76.4l-.549.03a44.988,44.988,0,0,0,.08,7.531l.469-.007Zm-4.72-.181c-.974,1.115-.923,7.05,0,7.807Zm-14.723-.081V84.22c.87-1.173.867-6.85,0-8.085m-82.545.283-.386,0v7.543l.386,0Zm-4.631.006c-1.063,1.264-.877,7.024,0,7.52ZM15.253,83.963c.976-1.582.778-6.995,0-7.566Zm-9.475.18c.92-1.082.914-6.8,0-7.925Zm14.21-7.93v7.92c.914-1.066.913-6.794,0-7.92m102.376.178-.384.008v7.554l.384-.006Zm-9.429,0c-.95,1.521-.8,6.9,0,7.622Zm28.432-.359c-.887,1.487-.85,7.106,0,8.149ZM10.518,83.983l.614-.025c.016-2.513.1-5.029-.068-7.537l-.546.011ZM67.574,49.2c1.158-1.224,1.574-2.312.971-3.6a4.562,4.562,0,0,0-.425-.624c-.181.227-.509.446-.521.681-.055,1.1-.025,2.206-.025,3.542m12.171-.265c-.076-1.15-.13-2.3-.247-3.449-.019-.187-.314-.346-.481-.518a3.243,3.243,0,0,0-.391.5c-.661,1.333-.219,2.46,1.119,3.462m47.419,27.5c-.909,1.457-.774,6.787,0,7.6ZM24.744,83.92l.579-.008a61.873,61.873,0,0,0-.107-7.49l-.472.012ZM45.127,53.929c-.008.11-.017.219-.025.329h7.285c0-.11,0-.219,0-.329Zm56.92.379c-.01-.107-.02-.212-.03-.319h-7.27c0,.107.007.212.011.319ZM97.316,63.13c-1.67,1.55-1.981,3.273-.819,4.97.285-1.733.524-3.181.819-4.97m-2,21.763V82.146h-1.4v2.674l1.4.073m11.457-.429.168.006v-12.9h-.168Zm-66.61.022.163,0v-12.9h-.163Zm50.808.506c.587-.175,1.341-.239,1.38-.439a5.711,5.711,0,0,0-.041-2.225c-.038-.176-.81-.193-1.339-.3Zm-6.319-2.836v2.667c1.587.016,1.62-.058,1.256-2.667Zm-7.316,2.849c.585-.181,1.338-.251,1.378-.456a5.665,5.665,0,0,0-.045-2.218c-.037-.173-.8-.188-1.332-.294ZM81.05,49.969l-.155.729,5.927,1.335.13-.548-5.9-1.516M60.187,51.481l.189.568,5.9-1.392-.168-.681-5.916,1.5m9.591,30.661c-1.613-.038-1.642.023-1.289,2.646h1.289Zm-7.239-.025c-1.656,0-1.711.124-1.307,2.683h1.307Zm-6.327.069c-1.9-.491-1.432.78-1.51,1.629-.1,1.138.51,1.213,1.45.957.021-.308.052-.6.057-.887.009-.542,0-1.084,0-1.7M49.9,63.266c.258,1.646.482,3.076.706,4.506,1.135-1.552.8-3.191-.706-4.506M69.384,47.928c1.506-.409,2.078-2.029,1.194-2.83-.1-.091-.748.144-.792.317-.2.787-.27,1.606-.4,2.513m10.423-3.7c0-.068,0-.136,0-.2H67.331l0,.2Zm-2.044,3.777c-.145-1.022-.222-1.841-.409-2.634-.033-.139-.686-.323-.778-.226-.808.855-.352,2.291,1.187,2.86m14.053,5.953c-.115-.648-.219-1.229-.323-1.809l-.176.032v2.26h2.5V52.193l-.214.009L93.4,53.959Zm-36,.516v-2.31l-.192-.011c-.072.566-.144,1.132-.226,1.774H53.749c-.1-.639-.192-1.2-.282-1.755l-.2.062v2.24ZM51.843,85.017c.6-.19,1.294-.277,1.313-.441a8.535,8.535,0,0,0-.1-2.348c-.018-.1-.747-.09-1.217-.138Zm-6.75-16.749.023.245h5.1c-.006-.082-.012-.163-.018-.245Zm51.859.025c0,.092,0,.184,0,.277h5.087l0-.277Zm-19.14-13.87.411.066V50.774l-.411-.006ZM81.2,44.072c-.04.119-.081.239-.122.358L87.7,46.235c.03-.113.061-.226.091-.34L81.2,44.072m-15.221.391c0-.132.006-.263.009-.395L59.347,45.9l.091.339,6.545-1.775M71.58,47l.409.353c.387-.417.993-.79,1.087-1.265.066-.333-.564-.8-1.121-1.519-.183,1.181-.279,1.806-.376,2.431m3.454.383.686-.465-.836-1.955c-.274.331-.827.735-.764.978a5.311,5.311,0,0,0,.914,1.442M46.223,74.527c.011.122.021.245.033.367h2.815v-.367ZM30.152,70.265c-.077-.976-.152-1.935-.227-2.9-.846,1.627-.667,2.845.227,2.9M44.48,51.6c-1.535-.216-1.458.643-1.222,1.672,1.387.125,1.524-.584,1.222-1.672m59.453,1.693c.11-1.037.259-1.958-1.235-1.69-.34,1.054-.2,1.752,1.235,1.69M80.659,48.345l.532-.011q-.071-1.377-.141-2.755l-.391.009Zm53.328,31.674,1.262-.826A3.929,3.929,0,0,0,134,78.774a3.78,3.78,0,0,0-1.214.456l1.2.789M32.09,78.461l-1.234.851a3.044,3.044,0,0,0,1.114.4,5.243,5.243,0,0,0,1.362-.47l-1.242-.778M3.64,80.023l1.254-.8a3.95,3.95,0,0,0-1.231-.458,4.165,4.165,0,0,0-1.278.4l1.255.858m94.307-5.584c1.144.984,2.482.9,2.95,0ZM69.342,50.826l-.347,0v3.65l.347-.021Zm59.941,27.689-1.23.694c.392.176.788.5,1.175.488a4.158,4.158,0,0,0,1.31-.5l-1.255-.684m-22.5-10.862.166.128v-6.67h-.166Zm8.33,10.859-1.255.666c.376.187.754.524,1.129.521a4.22,4.22,0,0,0,1.326-.475l-1.2-.712M27.316,80.025l1.279-.84a4.045,4.045,0,0,0-1.257-.412,3.789,3.789,0,0,0-1.211.447l1.189.8m-9.4-.053,1.139-.73c-.388-.168-.783-.483-1.161-.464a3.961,3.961,0,0,0-1.265.533l1.288.661M52.494,62.014l-.943,1.356h2.1l-1.153-1.356M40.2,67.779l.12,0V61.109l-.12,0Z" transform="translate(0 -13.221)" fill="#fccfca"/>
        <path id="Path_2061" data-name="Path 2061" d="M118.883,17.51c.18,3.285.358,6.6.566,9.908.006.1.333.175.614.311.134-.453.25-.847.456-1.551.361.834.608,1.405,1.013,2.339.347-.776.509-1.139.754-1.685l1.041,2.464a50.073,50.073,0,0,0-31.836,0l.943-2.354.9,1.494.822-2.15.678,1.511c1.675-1.588.5-3.411.638-5.048.155-1.788.351-3.573.531-5.374.305-.057.744-.013,1-.208,2.007-1.553,3.979-3.152,5.962-4.736.185-.147.553-.3.541-.425a5.533,5.533,0,0,1,1.032-3.438,4.808,4.808,0,0,0,.719-2.494,9.721,9.721,0,0,0-.785-3.141c-.589-1.472-.323-2.024,1.2-2.278.547-.091,1.068-.7,1.565-.655a6.547,6.547,0,0,1,2.833.777,1.4,1.4,0,0,1,.385,2.075c-1.4,2.268-.827,4.538.471,6.69.051.084.176.169.166.239-.454,3.206,2.8,3.276,4.185,4.925a19.6,19.6,0,0,0,2.4,2.252,5.172,5.172,0,0,0,1.215.55M97.3,21.3l7.2-1.809a5.712,5.712,0,0,1,.762-4.189c.416-.407.762-1.053,1.246-1.179a2.419,2.419,0,0,1,1.927.255c.763.674,2.089,1.221,1.464,2.7,1.34.521.972,1.466.456,2.419l7.2,1.8a4.71,4.71,0,0,0-1.6-5.214c-4.06-3.432-12.9-3.466-17.006-.066A4.66,4.66,0,0,0,97.3,21.3m13.169-9.54c.479-1.531-.272-2.123-1.7-2.152a26.711,26.711,0,0,0-2.851.028c-1.726.149-1.845.367-1.509,2.124ZM103.11,24.551c.813,1.611.813,1.611,1.663,1.518l.468-1.744c.614,1.914.614,1.914,1.724,1.665.032-.48.065-.97.115-1.707-2.149.088-4.246.142-6.34.27-1.117.068-1.21.756-.764,1.959a5.513,5.513,0,0,0,.769-.877,4.283,4.283,0,0,0,.255-.954l.352.043c.072.468.145.935.22,1.422h1.16c.127-.529.234-.979.381-1.6m9.028,1.54.5.311,1.15-1.775a5.848,5.848,0,0,0,.3.862,3.054,3.054,0,0,0,.546.709c.028.028.4-.163.416-.274a1.8,1.8,0,0,0-.082-1.008,1.078,1.078,0,0,0-.788-.345c-2.145-.12-4.291-.205-6.484-.3.093.8.154,1.332.207,1.79,1.632.8,1-1.045,1.8-1.413l.348,1.439c1.593.792.867-1.142,1.717-1.409l.374,1.417M108.715,8.73a6.012,6.012,0,0,0-.689-1.928,1.418,1.418,0,0,0-1.352.038,6.015,6.015,0,0,0-.4,1.89Zm-4.057,3.811c.006.1.012.205.018.308h5.5c0-.1,0-.2-.005-.308Zm2.239-10.4-.532.049c.127.5.1,1.192.425,1.451a1.461,1.461,0,0,0,1.4-.142c.259-.22.134-.892.178-1.365l-.386,0-.623,1.018L106.9,2.145" transform="translate(-33.832 0)" fill="#fccfca"/>
        <rect id="Rectangle_1257" data-name="Rectangle 1257" width="42.499" height="2.163" transform="translate(52.359 45.748)" fill="#fccfca"/>
        <path id="Path_2062" data-name="Path 2062" d="M72.907,89.2h3.072a12.418,12.418,0,0,1,.36,1.857c.1,2.189-.8,2.885-2.906,2.225a1.284,1.284,0,0,1-.739-.93c-.02-1.051.129-2.106.213-3.152" transform="translate(-26.88 -32.983)" fill="#fccfca"/>
        <path id="Path_2063" data-name="Path 2063" d="M158.649,89.25a15.02,15.02,0,0,1-.533,3.894c-.127.321-2.517.317-2.676-.051a13.222,13.222,0,0,1-.492-3.843Z" transform="translate(-57.297 -33.003)" fill="#fccfca"/>
        <path id="Path_2064" data-name="Path 2064" d="M82.557,92.978c0-1.612-.025-3.225.023-4.835.009-.317.3-.626.462-.938.176.3.5.592.507.89q.053,4.986,0,9.973c0,.315-.3.627-.463.941-.176-.348-.493-.692-.5-1.045-.054-1.661-.024-3.324-.023-4.986" transform="translate(-30.524 -32.247)" fill="#fccfca"/>
        <path id="Path_2065" data-name="Path 2065" d="M150.235,62.184V60.62h7.107c.03.505.059.983.094,1.564Z" transform="translate(-55.554 -22.416)" fill="#fccfca"/>
        <rect id="Rectangle_1258" data-name="Rectangle 1258" width="7.032" height="1.582" transform="translate(45.334 38.203)" fill="#fccfca"/>
        <path id="Path_2066" data-name="Path 2066" d="M63.968,67.254l2.291.107.378-.607.621.785.568-1.031.543,1.022.669-.96.527,1.017.621-.99.65.994.553-1.043.562,1.09.607-1.158.583,1.375c-2.688,1.163-5.46.637-8.152.69-.417.008-.848-.674-1.272-1.037l.251-.254" transform="translate(-23.561 -24.583)" fill="#fccfca"/>
        <path id="Path_2067" data-name="Path 2067" d="M164.312,67.554c-.55.333-1.084.923-1.651.954-2.049.112-4.11.082-6.162,0-.493-.021-.968-.463-1.511-.742.134-.451.247-.836.42-1.419l.606,1.213.656-1.109.541,1.122.6-1.021c.355.734.741,1.367,1.133-.1l.675,1.1c.233-.415.393-.7.593-1.057l.529,1.033.35-.421,3.012.169.214.281" transform="translate(-57.312 -24.533)" fill="#fccfca"/>
        <path id="Path_2068" data-name="Path 2068" d="M150.372,93.13c0,1.659.025,3.319-.023,4.977-.009.307-.317.606-.487.908-.167-.307-.476-.613-.479-.921q-.044-4.978.015-9.956c0-.31.312-.616.478-.924.162.313.454.622.463.939.047,1.658.022,3.318.022,4.977Z" transform="translate(-55.232 -32.25)" fill="#fccfca"/>
        <path id="Path_2069" data-name="Path 2069" d="M97.374,93.089c0-1.608-.03-3.217.024-4.824.012-.354.323-.7.5-1.047.153.318.436.635.439.955q.052,4.9,0,9.8c0,.348-.328.692-.5,1.038a3.516,3.516,0,0,1-.441-1.1c-.049-1.607-.021-3.216-.021-4.824Z" transform="translate(-36.002 -32.252)" fill="#fccfca"/>
        <path id="Path_2070" data-name="Path 2070" d="M144.739,98.989V96.648c0-2.819-.013-5.639.019-8.458a3,3,0,0,1,.395-.977c.18.333.511.665.516,1q.06,4.908.006,9.817a3.374,3.374,0,0,1-.414,1.073l-.521-.113" transform="translate(-53.521 -32.25)" fill="#fccfca"/>
        <path id="Path_2071" data-name="Path 2071" d="M135.2,87.093a3.476,3.476,0,0,1,.343,1.016q.04,4.975-.005,9.95c0,.3-.312.606-.478.909-.154-.214-.441-.426-.442-.64-.027-3.7-.02-7.4-.02-11.106l.6-.129" transform="translate(-49.77 -32.205)" fill="#fccfca"/>
        <path id="Path_2072" data-name="Path 2072" d="M87.6,99.086a2.852,2.852,0,0,1-.336-.9c-.025-3.365-.03-6.729,0-10.094,0-.3.322-.591.495-.886.146.27.417.539.419.81.021,3.515.006,7.03-.011,10.545a1.252,1.252,0,0,1-.16.407l-.411.115" transform="translate(-32.261 -32.248)" fill="#fccfca"/>
        <path id="Path_2073" data-name="Path 2073" d="M123.1,98.976q0-2.316,0-4.631c0-2.111-.014-4.223.023-6.334,0-.268.277-.532.425-.8.17.246.485.492.488.74q.046,5.2,0,10.4c0,.248-.26.495-.4.741l-.538-.124" transform="translate(-45.518 -32.25)" fill="#fccfca"/>
        <path id="Path_2074" data-name="Path 2074" d="M109.838,93.281c0,1.606.026,3.213-.023,4.817-.009.309-.313.609-.481.914-.154-.317-.44-.633-.443-.952q-.047-4.968.005-9.937c0-.3.315-.6.483-.907.153.315.43.627.439.945.044,1.705.021,3.413.02,5.119" transform="translate(-40.257 -32.251)" fill="#fccfca"/>
        <rect id="Rectangle_1259" data-name="Rectangle 1259" width="2.295" height="4.296" transform="translate(109.178 67.279)" fill="#fccfca"/>
        <path id="Path_2075" data-name="Path 2075" d="M119.048,55.865c-.223.467-.335.921-.464.926a1.225,1.225,0,0,1-.838-.346,5.5,5.5,0,0,0-5.55-1.008c-.863.461-1.7.969-2.591,1.373-.158.071-.735-.321-.716-.4.1-.412.243-1.031.537-1.143a34.725,34.725,0,0,1,3.922-1.187,2.668,2.668,0,0,1,1.265.12c1.165.314,2.324.653,3.468,1.035a4.6,4.6,0,0,1,.966.631" transform="translate(-40.265 -19.984)" fill="#fccfca"/>
        <path id="Path_2076" data-name="Path 2076" d="M78.643,76.264l-2.91-3.735h4.074l-1.165,3.735" transform="translate(-28.005 -26.82)" fill="#fccfca"/>
        <path id="Path_2077" data-name="Path 2077" d="M155.292,72.6l-2.861,3.663c-.442-1.3-.8-2.36-1.245-3.663Z" transform="translate(-55.906 -26.847)" fill="#fccfca"/>
        <path id="Path_2078" data-name="Path 2078" d="M79.218,52.717c-1.179,1.1-7.011,1.1-8.135,0Z" transform="translate(-26.285 -19.494)" fill="#fccfca"/>
        <path id="Path_2079" data-name="Path 2079" d="M149.637,52.7h8.021c-1.1,1.129-7.013,1.114-8.021,0" transform="translate(-55.333 -19.488)" fill="#fccfca"/>
        <path id="Path_2080" data-name="Path 2080" d="M147.525,98.931V87.248l.269-.007v11.7l-.269-.013" transform="translate(-54.552 -32.26)" fill="#fccfca"/>
        <path id="Path_2081" data-name="Path 2081" d="M85.475,98.948V87.174l.255,0V98.944l-.255,0" transform="translate(-31.607 -32.234)" fill="#fccfca"/>
        <path id="Path_2082" data-name="Path 2082" d="M216.416,100.243V107.8l-.469.007a45.05,45.05,0,0,1-.08-7.531l.549-.03" transform="translate(-79.78 -37.068)" fill="#fccfca"/>
        <path id="Path_2083" data-name="Path 2083" d="M208.9,99.956v7.808c-.922-.757-.974-6.692,0-7.808" transform="translate(-76.985 -36.962)" fill="#fccfca"/>
        <path id="Path_2084" data-name="Path 2084" d="M185.956,99.829c.868,1.235.87,6.911,0,8.084Z" transform="translate(-68.763 -36.915)" fill="#fccfca"/>
        <path id="Path_2085" data-name="Path 2085" d="M54.751,100.277v7.542l-.386,0v-7.543l.386,0" transform="translate(-20.103 -37.081)" fill="#fccfca"/>
        <path id="Path_2086" data-name="Path 2086" d="M47.2,100.288v7.52c-.877-.5-1.063-6.256,0-7.52" transform="translate(-17.185 -37.085)" fill="#fccfca"/>
        <path id="Path_2087" data-name="Path 2087" d="M24.2,107.812v-7.566c.778.57.976,5.983,0,7.566" transform="translate(-8.949 -37.069)" fill="#fccfca"/>
        <path id="Path_2088" data-name="Path 2088" d="M31.715,99.953c.913,1.126.914,6.854,0,7.919Z" transform="translate(-11.728 -36.961)" fill="#fccfca"/>
        <path id="Path_2089" data-name="Path 2089" d="M193.935,100.235v7.555l-.383.006v-7.554l.383-.008" transform="translate(-71.572 -37.065)" fill="#fccfca"/>
        <path id="Path_2090" data-name="Path 2090" d="M178.812,100.228v7.622c-.8-.718-.95-6.1,0-7.622" transform="translate(-65.879 -37.062)" fill="#fccfca"/>
        <path id="Path_2091" data-name="Path 2091" d="M223.931,99.659v8.148c-.85-1.042-.887-6.662,0-8.148" transform="translate(-82.565 -36.852)" fill="#fccfca"/>
        <path id="Path_2092" data-name="Path 2092" d="M75.98,79.4v1.08H73.122c.246-1.168-1.149-2.732.835-3.41.5-.17,1.48-.059,1.669.26a5.5,5.5,0,0,1,.309,2.109c-.021-.293-.014-.593-.062-.884-.165-1-.863-1.508-1.7-1.079a2.029,2.029,0,0,0-.733,1.755c.161.853.947,1.092,1.783.646.263-.14.505-.318.758-.478" transform="translate(-26.947 -28.47)" fill="#fccfca"/>
        <path id="Path_2093" data-name="Path 2093" d="M107.219,54.61c0-1.337-.031-2.442.025-3.542.012-.235.339-.454.521-.681a4.616,4.616,0,0,1,.425.624c.6,1.288.188,2.375-.971,3.6" transform="translate(-39.644 -18.632)" fill="#fccfca"/>
        <path id="Path_2094" data-name="Path 2094" d="M155.713,79.358c.078-.718-.108-1.676.284-2.106a1.581,1.581,0,0,1,2.748,1.116,15.126,15.126,0,0,1-.268,2.091h-2.811c0-.432,0-.787,0-1.139.214.127.42.346.638.359.548.032,1.285.176,1.6-.109A1.739,1.739,0,0,0,158.2,78a1.451,1.451,0,0,0-1.264-.681c-.488.206-.824.824-1.159,1.313-.119.174-.05.478-.066.722" transform="translate(-57.562 -28.371)" fill="#fccfca"/>
        <path id="Path_2095" data-name="Path 2095" d="M125.7,54.341c-1.338-1-1.78-2.129-1.119-3.461a3.218,3.218,0,0,1,.391-.505c.168.172.463.331.481.518.117,1.146.171,2.3.247,3.449" transform="translate(-45.956 -18.627)" fill="#fccfca"/>
        <path id="Path_2096" data-name="Path 2096" d="M201.407,100.3v7.6c-.774-.816-.909-6.145,0-7.6" transform="translate(-74.243 -37.09)" fill="#fccfca"/>
        <path id="Path_2097" data-name="Path 2097" d="M39.263,107.783V100.3l.472-.012a62,62,0,0,1,.107,7.49l-.579.008" transform="translate(-14.519 -37.084)" fill="#fccfca"/>
        <path id="Path_2098" data-name="Path 2098" d="M71.591,64.593h7.261c0,.11,0,.219,0,.33H71.566c.008-.11.017-.22.025-.33" transform="translate(-26.464 -23.885)" fill="#fccfca"/>
        <path id="Path_2099" data-name="Path 2099" d="M157.64,65.008h-7.289c0-.106-.007-.212-.011-.319h7.27c.01.107.02.212.03.319" transform="translate(-55.593 -23.921)" fill="#fccfca"/>
        <path id="Path_2100" data-name="Path 2100" d="M153.528,79.194c-.294,1.789-.533,3.237-.819,4.97-1.162-1.7-.851-3.42.819-4.97" transform="translate(-56.212 -29.285)" fill="#fccfca"/>
        <path id="Path_2101" data-name="Path 2101" d="M150.423,112.116l-1.4-.073v-2.673h1.4Z" transform="translate(-55.105 -40.443)" fill="#fccfca"/>
        <path id="Path_2102" data-name="Path 2102" d="M169.426,105.481V92.59h.167v12.9l-.167-.006" transform="translate(-62.651 -34.238)" fill="#fccfca"/>
        <path id="Path_2103" data-name="Path 2103" d="M63.731,105.51v-12.9h.163v12.9l-.163,0" transform="translate(-23.567 -34.244)" fill="#fccfca"/>
        <path id="Path_2104" data-name="Path 2104" d="M144.351,112.143v-2.968c.529.11,1.3.128,1.339.3a5.712,5.712,0,0,1,.04,2.225c-.038.2-.793.264-1.38.439" transform="translate(-53.378 -40.371)" fill="#fccfca"/>
        <path id="Path_2105" data-name="Path 2105" d="M134.325,109.383h1.257c.364,2.609.33,2.683-1.257,2.667Z" transform="translate(-49.671 -40.448)" fill="#fccfca"/>
        <path id="Path_2106" data-name="Path 2106" d="M122.716,112.163v-2.968c.527.107,1.3.122,1.333.294a5.664,5.664,0,0,1,.045,2.218c-.039.206-.792.275-1.378.456" transform="translate(-45.378 -40.378)" fill="#fccfca"/>
        <path id="Path_2107" data-name="Path 2107" d="M128.515,58.31l5.9,1.515-.129.548-5.928-1.335.155-.729" transform="translate(-47.465 -21.562)" fill="#fccfca"/>
        <path id="Path_2108" data-name="Path 2108" d="M95.5,59.826l5.916-1.5.168.681-5.9,1.392Z" transform="translate(-35.315 -21.566)" fill="#fccfca"/>
        <path id="Path_2109" data-name="Path 2109" d="M109.857,109.357V112h-1.289c-.352-2.623-.324-2.685,1.289-2.646" transform="translate(-40.079 -40.436)" fill="#fccfca"/>
        <path id="Path_2110" data-name="Path 2110" d="M98.343,109.321V112H97.036c-.4-2.559-.349-2.681,1.307-2.683" transform="translate(-35.805 -40.425)" fill="#fccfca"/>
        <path id="Path_2111" data-name="Path 2111" d="M88.3,109.366c0,.615.006,1.157,0,1.7-.005.29-.037.58-.057.887-.94.256-1.553.18-1.45-.957.078-.85-.388-2.12,1.51-1.629" transform="translate(-32.089 -40.401)" fill="#fccfca"/>
        <path id="Path_2112" data-name="Path 2112" d="M79.184,79.408c1.507,1.315,1.841,2.954.706,4.507-.224-1.431-.449-2.861-.706-4.507" transform="translate(-29.281 -29.364)" fill="#fccfca"/>
        <path id="Path_2113" data-name="Path 2113" d="M110.1,53.4c.132-.907.2-1.726.4-2.513.043-.172.691-.408.791-.317.885.8.313,2.421-1.193,2.83" transform="translate(-40.712 -18.692)" fill="#fccfca"/>
        <path id="Path_2114" data-name="Path 2114" d="M119.315,49.082H106.841l0-.2h12.473l0,.2" transform="translate(-39.507 -18.074)" fill="#fccfca"/>
        <path id="Path_2115" data-name="Path 2115" d="M122.464,53.5c-1.539-.569-2-2.005-1.187-2.86.092-.1.746.088.778.226.187.793.264,1.611.409,2.634" transform="translate(-44.701 -18.716)" fill="#fccfca"/>
        <path id="Path_2116" data-name="Path 2116" d="M145.4,63.579h1.585l.205-1.757.214-.009v2.248h-2.5V61.8l.176-.032c.1.58.207,1.161.323,1.809" transform="translate(-53.581 -22.841)" fill="#fccfca"/>
        <path id="Path_2117" data-name="Path 2117" d="M87.07,64.1H84.523v-2.24l.2-.062L85,63.55h1.649c.081-.642.153-1.208.225-1.774l.192.011Z" transform="translate(-31.255 -22.844)" fill="#fccfca"/>
        <path id="Path_2118" data-name="Path 2118" d="M82.262,112.2v-2.927c.47.048,1.2.033,1.217.139a8.505,8.505,0,0,1,.1,2.348c-.018.163-.715.251-1.312.44" transform="translate(-30.419 -40.409)" fill="#fccfca"/>
        <path id="Path_2119" data-name="Path 2119" d="M71.552,87.346h5.1c.006.082.012.163.018.245h-5.1l-.023-.245" transform="translate(-26.459 -32.299)" fill="#fccfca"/>
        <path id="Path_2120" data-name="Path 2120" d="M153.84,87.386h5.087c0,.092,0,.185,0,.277h-5.087l0-.277" transform="translate(-56.887 -32.314)" fill="#fccfca"/>
        <path id="Path_2121" data-name="Path 2121" d="M123.47,63.233V59.578l.41.006V63.3l-.41-.067" transform="translate(-45.657 -22.031)" fill="#fccfca"/>
        <path id="Path_2122" data-name="Path 2122" d="M128.779,48.953l6.585,1.824-.091.34-6.616-1.806.122-.358" transform="translate(-47.575 -18.102)" fill="#fccfca"/>
        <path id="Path_2123" data-name="Path 2123" d="M100.805,49.341,94.26,51.116l-.091-.339,6.645-1.831c0,.132-.006.263-.009.395" transform="translate(-34.822 -18.099)" fill="#fccfca"/>
        <path id="Path_2124" data-name="Path 2124" d="M113.579,52.171c.1-.625.193-1.25.376-2.431.556.714,1.187,1.185,1.121,1.519-.095.475-.7.849-1.087,1.265l-.409-.353" transform="translate(-41.999 -18.393)" fill="#fccfca"/>
        <path id="Path_2125" data-name="Path 2125" d="M118.521,52.785a5.286,5.286,0,0,1-.914-1.442c-.064-.243.489-.647.763-.978l.836,1.955-.685.465" transform="translate(-43.487 -18.624)" fill="#fccfca"/>
        <path id="Path_2126" data-name="Path 2126" d="M73.345,97.278h2.848v.367H73.378c-.011-.122-.022-.245-.033-.367" transform="translate(-27.122 -35.972)" fill="#fccfca"/>
        <path id="Path_2127" data-name="Path 2127" d="M47.389,88.816c-.894-.051-1.073-1.269-.227-2.9.075.96.151,1.92.227,2.9" transform="translate(-17.237 -31.772)" fill="#fccfca"/>
        <path id="Path_2128" data-name="Path 2128" d="M69.785,60.872c.3,1.089.165,1.8-1.222,1.672-.237-1.028-.313-1.888,1.222-1.672" transform="translate(-25.305 -22.497)" fill="#fccfca"/>
        <path id="Path_2129" data-name="Path 2129" d="M164.1,62.561c-1.432.062-1.575-.635-1.235-1.69,1.494-.269,1.344.652,1.235,1.69" transform="translate(-60.168 -22.492)" fill="#fccfca"/>
        <path id="Path_2130" data-name="Path 2130" d="M127.986,54.109V51.354l.391-.01q.07,1.377.141,2.755l-.532.011" transform="translate(-47.327 -18.986)" fill="#fccfca"/>
        <path id="Path_2131" data-name="Path 2131" d="M211.9,105.26l-1.2-.789a3.793,3.793,0,0,1,1.214-.456,3.929,3.929,0,0,1,1.246.419l-1.262.826" transform="translate(-77.914 -38.463)" fill="#fccfca"/>
        <path id="Path_2132" data-name="Path 2132" d="M50.195,103.519l1.242.778a5.23,5.23,0,0,1-1.362.471,3.072,3.072,0,0,1-1.114-.4l1.234-.852" transform="translate(-18.105 -38.279)" fill="#fccfca"/>
        <path id="Path_2133" data-name="Path 2133" d="M155.418,97.138h2.95c-.468.9-1.806.985-2.95,0" transform="translate(-57.471 -35.92)" fill="#fccfca"/>
        <path id="Path_2134" data-name="Path 2134" d="M109.825,59.668v3.626l-.347.021V59.666l.347,0" transform="translate(-40.483 -22.063)" fill="#fccfca"/>
        <path id="Path_2135" data-name="Path 2135" d="M204.419,103.606l1.255.684a4.161,4.161,0,0,1-1.311.5c-.387.009-.782-.313-1.175-.489l1.23-.693" transform="translate(-75.136 -38.312)" fill="#fccfca"/>
        <path id="Path_2136" data-name="Path 2136" d="M169.431,82.531V75.988h.166v6.67l-.166-.128" transform="translate(-62.652 -28.099)" fill="#fccfca"/>
        <path id="Path_2137" data-name="Path 2137" d="M181.912,103.6l1.2.712a4.216,4.216,0,0,1-1.326.475c-.375,0-.753-.335-1.129-.521l1.255-.666" transform="translate(-66.804 -38.31)" fill="#fccfca"/>
        <path id="Path_2138" data-name="Path 2138" d="M42.646,105.266l-1.189-.8a3.807,3.807,0,0,1,1.212-.447,4.047,4.047,0,0,1,1.257.412l-1.279.84" transform="translate(-15.33 -38.462)" fill="#fccfca"/>
        <path id="Path_2139" data-name="Path 2139" d="M27.673,105.216l-1.288-.661a3.979,3.979,0,0,1,1.266-.533c.378-.019.773.3,1.16.464l-1.139.729" transform="translate(-9.757 -38.465)" fill="#fccfca"/>
        <path id="Path_2140" data-name="Path 2140" d="M82.741,77.421,83.9,78.777H81.8l.943-1.356" transform="translate(-30.247 -28.629)" fill="#fccfca"/>
        <path id="Path_2141" data-name="Path 2141" d="M63.78,82.657V75.991l.12,0v6.666l-.12,0" transform="translate(-23.585 -28.099)" fill="#fccfca"/>
        <path id="Path_2142" data-name="Path 2142" d="M117.955,17.381H111.9c-.335-1.757-.216-1.974,1.509-2.124a26.71,26.71,0,0,1,2.851-.028c1.426.03,2.177.621,1.7,2.152" transform="translate(-41.322 -5.622)" fill="#fccfca"/>
        <path id="Path_2143" data-name="Path 2143" d="M112.382,19.9h5.509c0,.1,0,.205.006.308h-5.5c-.006-.1-.011-.205-.018-.308" transform="translate(-41.557 -7.359)" fill="#fccfca"/>
        <path id="Path_2144" data-name="Path 2144" d="M115.624,3.4l.468,1.013.623-1.018.386,0c-.045.473.081,1.145-.178,1.365a1.46,1.46,0,0,1-1.4.142c-.323-.258-.3-.948-.425-1.451l.532-.049" transform="translate(-42.559 -1.254)" fill="#fccfca"/>
        <path id="Path_2145" data-name="Path 2145" d="M72.67,105.618c.609-.028,1-.059,1.388-.061,2.609-.009,2.112-.16,2.308,2.223.151,1.836-.943,1.531-2.044,1.625-1.322.113-1.855-.326-1.668-1.671a16.584,16.584,0,0,0,.015-2.116" transform="translate(-26.853 -39.031)" fill="#fccfca"/>
        <path id="Path_2146" data-name="Path 2146" d="M154.976,107.63c0-2.115.013-1.99,2.018-2.148,1.716-.135,1.7.792,1.668,1.995-.048,1.876-.021,1.757-2.049,1.911-1.714.13-1.786-.766-1.637-1.758" transform="translate(-57.288 -39.001)" fill="#fccfca"/>
        <path id="Path_2147" data-name="Path 2147" d="M76.3,79.594c-.252.16-.495.338-.758.478-.836.446-1.622.207-1.783-.646A2.029,2.029,0,0,1,74.5,77.67c.838-.429,1.536.082,1.7,1.079.048.291.04.59.062.884l.045-.039" transform="translate(-27.27 -28.665)" fill="#fccfca"/>
        <path id="Path_2148" data-name="Path 2148" d="M155.715,79.7c.016-.245-.053-.548.066-.722.335-.489.671-1.107,1.159-1.313a1.451,1.451,0,0,1,1.264.681,1.739,1.739,0,0,1-.294,1.567c-.317.285-1.054.141-1.6.109-.218-.013-.424-.232-.638-.359l.045.038" transform="translate(-57.564 -28.71)" fill="#fccfca"/>
      </g>
    </g>
  </g>
</svg>
