<svg id="Group_51" data-name="Group 51" xmlns="http://www.w3.org/2000/svg" xmlns:xlink="http://www.w3.org/1999/xlink" width="62.593" height="37.763" viewBox="0 0 62.593 37.763">
  <defs>
    <clipPath id="clip-path">
      <rect id="Rectangle_564" data-name="Rectangle 564" width="62.593" height="37.763" fill="none"/>
    </clipPath>
  </defs>
  <g id="Group_50" data-name="Group 50" transform="translate(0)" clip-path="url(#clip-path)">
    <rect id="Rectangle_543" data-name="Rectangle 543" width="29.324" height="4.175" transform="translate(16.635 32.902)" fill="#fff"/>
    <path id="Rectangle_543_-_Outline" data-name="Rectangle 543 - Outline" d="M-.5-.5H29.824V4.675H-.5ZM28.824.5H.5V3.675H28.824Z" transform="translate(16.635 32.902)" fill="#fff"/>
    <path id="Line_30" data-name="Line 30" d="M.5,4.175h-1V0h1Z" transform="translate(16.635 32.903)" fill="#fff"/>
    <path id="Line_31" data-name="Line 31" d="M.5,4.175h-1V0h1Z" transform="translate(45.959 32.903)" fill="#fff"/>
    <path id="Path_555_-_Outline" data-name="Path 555 - Outline" d="M117.532,53.133a2.406,2.406,0,0,1,2.408,2.408V79.319h-4.815V55.541A2.41,2.41,0,0,1,117.532,53.133Zm1.408,25.186V55.541a1.408,1.408,0,1,0-2.815,0V78.319Z" transform="translate(-98.989 -45.917)" fill="#fff"/>
    <path id="Path_556_-_Outline" data-name="Path 556 - Outline" d="M294.861,53.133a2.406,2.406,0,0,1,2.4,2.408V79.319h-4.812V55.541A2.41,2.41,0,0,1,294.861,53.133Zm1.4,25.186V55.541a1.406,1.406,0,1,0-2.812,0V78.319Z" transform="translate(-250.806 -45.917)" fill="#fff"/>
    <path id="Rectangle_544_-_Outline" data-name="Rectangle 544 - Outline" d="M-.5-.5H14.39V19.928H-.5ZM13.39.5H.5V18.928H13.39Z" transform="translate(24.353 9.532)" fill="#fff"/>
    <path id="Rectangle_545_-_Outline" data-name="Rectangle 545 - Outline" d="M-.5-.5H6.764V19.928H-.5ZM5.764.5H.5V18.928H5.764Z" transform="translate(28.347 9.532)" fill="#fff"/>
    <path id="Path_557_-_Outline" data-name="Path 557 - Outline" d="M193.271,31.1H182.285V29.6a5.493,5.493,0,1,1,10.986,0Zm-9.986-1h8.986v-.5a4.493,4.493,0,1,0-8.986,0Z" transform="translate(-156.488 -21.069)" fill="#fff"/>
    <path id="Line_32" data-name="Line 32" d="M.5,3.541h-1V0h1Z" transform="translate(31.298 0)" fill="#fff"/>
    <path id="Line_33" data-name="Line 33" d="M29.323.5H0v-1H29.323Z" transform="translate(16.636 14.979)" fill="#fff"/>
    <path id="Line_34" data-name="Line 34" d="M12.415.5H0v-1H12.415Z" transform="translate(4.221 17.158)" fill="#fff"/>
    <path id="Line_35" data-name="Line 35" d="M12.664.5H0v-1H12.664Z" transform="translate(45.959 17.158)" fill="#fff"/>
    <rect id="Rectangle_546" data-name="Rectangle 546" width="1.566" height="1.566" transform="translate(4.221 20.494)" fill="#fff"/>
    <rect id="Rectangle_547" data-name="Rectangle 547" width="1.566" height="1.566" transform="translate(8.034 20.494)" fill="#fff"/>
    <rect id="Rectangle_548" data-name="Rectangle 548" width="1.566" height="1.566" transform="translate(11.847 20.494)" fill="#fff"/>
    <rect id="Rectangle_549" data-name="Rectangle 549" width="1.566" height="1.566" transform="translate(4.221 24.512)" fill="#fff"/>
    <rect id="Rectangle_550" data-name="Rectangle 550" width="1.566" height="1.566" transform="translate(8.034 24.512)" fill="#fff"/>
    <rect id="Rectangle_551" data-name="Rectangle 551" width="1.566" height="1.566" transform="translate(11.847 24.512)" fill="#fff"/>
    <rect id="Rectangle_552" data-name="Rectangle 552" width="1.566" height="1.566" transform="translate(4.221 28.529)" fill="#fff"/>
    <rect id="Rectangle_553" data-name="Rectangle 553" width="1.566" height="1.566" transform="translate(8.034 28.529)" fill="#fff"/>
    <rect id="Rectangle_554" data-name="Rectangle 554" width="1.566" height="1.566" transform="translate(11.847 28.529)" fill="#fff"/>
    <rect id="Rectangle_555" data-name="Rectangle 555" width="1.566" height="1.566" transform="translate(49.227 20.494)" fill="#fff"/>
    <rect id="Rectangle_556" data-name="Rectangle 556" width="1.566" height="1.566" transform="translate(53.04 20.494)" fill="#fff"/>
    <rect id="Rectangle_557" data-name="Rectangle 557" width="1.566" height="1.566" transform="translate(56.853 20.494)" fill="#fff"/>
    <rect id="Rectangle_558" data-name="Rectangle 558" width="1.566" height="1.566" transform="translate(49.227 24.512)" fill="#fff"/>
    <rect id="Rectangle_559" data-name="Rectangle 559" width="1.566" height="1.566" transform="translate(53.04 24.512)" fill="#fff"/>
    <rect id="Rectangle_560" data-name="Rectangle 560" width="1.566" height="1.566" transform="translate(56.853 24.512)" fill="#fff"/>
    <rect id="Rectangle_561" data-name="Rectangle 561" width="1.566" height="1.566" transform="translate(49.227 28.529)" fill="#fff"/>
    <rect id="Rectangle_562" data-name="Rectangle 562" width="1.566" height="1.566" transform="translate(53.04 28.529)" fill="#fff"/>
    <rect id="Rectangle_563" data-name="Rectangle 563" width="1.566" height="1.566" transform="translate(56.853 28.529)" fill="#fff"/>
    <path id="Line_36" data-name="Line 36" d="M.5,2.27h-1V0h1Z" transform="translate(18.543 5.447)" fill="#fff"/>
    <path id="Line_37" data-name="Line 37" d="M.5,2.27h-1V0h1Z" transform="translate(44.053 5.402)" fill="#fff"/>
    <path id="Line_38" data-name="Line 38" d="M3.631.5H0v-1H3.631Z" transform="translate(16.636 21.277)" fill="#fff"/>
    <path id="Line_39" data-name="Line 39" d="M3.813.5H0v-1H3.813Z" transform="translate(42.146 21.277)" fill="#fff"/>
    <path id="Line_40" data-name="Line 40" d="M3.631.5H0v-1H3.631Z" transform="translate(16.636 25.295)" fill="#fff"/>
    <path id="Line_41" data-name="Line 41" d="M3.813.5H0v-1H3.813Z" transform="translate(42.146 25.295)" fill="#fff"/>
    <path id="Line_42" data-name="Line 42" d="M3.9.5H0v-1H3.9Z" transform="translate(20.449 19.246)" fill="#fff"/>
    <path id="Line_43" data-name="Line 43" d="M6.491.5H0v-1H6.491Z" transform="translate(28.347 19.246)" fill="#fff"/>
    <path id="Line_44" data-name="Line 44" d="M3.9.5H0v-1H3.9Z" transform="translate(38.243 19.246)" fill="#fff"/>
    <path id="Line_45" data-name="Line 45" d="M3.9.5H0v-1H3.9Z" transform="translate(20.449 23.184)" fill="#fff"/>
    <path id="Line_46" data-name="Line 46" d="M6.491.5H0v-1H6.491Z" transform="translate(28.347 23.184)" fill="#fff"/>
    <path id="Line_47" data-name="Line 47" d="M3.9.5H0v-1H3.9Z" transform="translate(38.243 23.184)" fill="#fff"/>
    <path id="Line_48" data-name="Line 48" d="M3.9.5H0v-1H3.9Z" transform="translate(20.449 28.96)" fill="#fff"/>
    <path id="Line_49" data-name="Line 49" d="M3.9.5H0v-1H3.9Z" transform="translate(38.243 28.96)" fill="#fff"/>
    <path id="Line_50" data-name="Line 50" d="M.5,3.132h-1V0h1Z" transform="translate(31.298 9.532)" fill="#fff"/>
    <path id="Line_51" data-name="Line 51" d="M3.813.5H0v-1H3.813Z" transform="translate(42.146 11.756)" fill="#fff"/>
    <path id="Line_52" data-name="Line 52" d="M3.813.5H0v-1H3.813Z" transform="translate(16.636 11.938)" fill="#fff"/>
    <path id="Line_53" data-name="Line 53" d="M16.635.5H0v-1H16.635Z" transform="translate(0 32.903)" fill="#fff"/>
    <path id="Line_54" data-name="Line 54" d="M16.635.5H0v-1H16.635Z" transform="translate(0 37.078)" fill="#fff"/>
    <path id="Line_55" data-name="Line 55" d="M16.634.5H0v-1H16.634Z" transform="translate(45.959 32.903)" fill="#fff"/>
    <path id="Line_56" data-name="Line 56" d="M16.634.5H0v-1H16.634Z" transform="translate(45.959 37.078)" fill="#fff"/>
  </g>
</svg>
