<svg width="63" height="54" viewBox="0 0 63 54" fill="none" xmlns="http://www.w3.org/2000/svg">
<path fill-rule="evenodd" clip-rule="evenodd" d="M21.561 0H40.626V4.94901H21.561V0ZM22.561 1V3.94901H39.626V1H22.561Z" fill="black"/>
<path fill-rule="evenodd" clip-rule="evenodd" d="M9.849 17.839H52.338V22.515H9.849V17.839ZM10.849 18.839V21.515H51.338V18.839H10.849Z" fill="black"/>
<path fill-rule="evenodd" clip-rule="evenodd" d="M22.561 0.5V4.94901H16.841V13.118H13.165V18.838H10.848V53.426H9.848V17.838H12.165V12.118H15.841V3.94901H21.561V0.5H22.561Z" fill="black"/>
<path fill-rule="evenodd" clip-rule="evenodd" d="M9.849 21.514H22.561V30.346H9.849V21.514ZM10.849 22.514V29.346H21.561V22.514H10.849Z" fill="black"/>
<path fill-rule="evenodd" clip-rule="evenodd" d="M9.849 29.346H22.561V36.404H9.849V29.346ZM10.849 30.346V35.404H21.561V30.346H10.849Z" fill="black"/>
<path fill-rule="evenodd" clip-rule="evenodd" d="M9.849 47.116H22.561V53.926H9.849V47.116ZM10.849 48.116V52.926H21.561V48.116H10.849Z" fill="black"/>
<path fill-rule="evenodd" clip-rule="evenodd" d="M39.626 47.116H52.338V53.926H39.626V47.116ZM40.626 48.116V52.926H51.338V48.116H40.626Z" fill="black"/>
<path fill-rule="evenodd" clip-rule="evenodd" d="M40.624 3.94901V0.5H39.624V4.94901H45.344V13.118H49.02V18.838L51.338 18.839L51.338 53.426H52.338L52.338 17.839L50.02 17.838V12.118H46.344V3.94901H40.624Z" fill="black"/>
<path fill-rule="evenodd" clip-rule="evenodd" d="M15.841 3.94901H46.345V13.119H15.841V3.94901ZM16.841 4.94901V12.119H45.345V4.94901H16.841Z" fill="black"/>
<path fill-rule="evenodd" clip-rule="evenodd" d="M12.166 12.119H50.021V18.839H12.166V12.119ZM13.166 13.119V17.839H49.021V13.119H13.166Z" fill="black"/>
<path fill-rule="evenodd" clip-rule="evenodd" d="M39.626 21.514H52.338V30.346H39.626V21.514ZM40.626 22.514V29.346H51.338V22.514H40.626Z" fill="black"/>
<path fill-rule="evenodd" clip-rule="evenodd" d="M39.626 29.346H52.338V36.404H39.626V29.346ZM40.626 30.346V35.404H51.338V30.346H40.626Z" fill="black"/>
<path fill-rule="evenodd" clip-rule="evenodd" d="M39.626 35.404H52.338V48.116H39.626V35.404ZM40.626 36.404V47.116H51.338V36.404H40.626Z" fill="black"/>
<path fill-rule="evenodd" clip-rule="evenodd" d="M9.849 35.404H22.561V48.116H9.849V35.404ZM10.849 36.404V47.116H21.561V36.404H10.849Z" fill="black"/>
<path fill-rule="evenodd" clip-rule="evenodd" d="M21.56 21.513H40.626V30.346L35.404 30.345V29.845C35.404 28.7017 34.9498 27.6051 34.1413 26.7967C33.3329 25.9882 32.2363 25.534 31.093 25.534C29.9496 25.534 28.8531 25.9882 28.0447 26.7967C27.2362 27.6051 26.782 28.7017 26.782 29.845V30.345H21.56V21.513ZM22.56 22.513V29.345H25.8056C25.9214 28.1199 26.4601 26.967 27.3376 26.0896C28.3336 25.0936 29.6844 24.534 31.093 24.534C32.5016 24.534 33.8524 25.0936 34.8484 26.0896C35.7259 26.967 36.2646 28.1199 36.3804 29.345L39.626 29.346V22.513H22.56Z" fill="black"/>
<path fill-rule="evenodd" clip-rule="evenodd" d="M21.561 29.346H26.783V53.926H21.561L21.561 29.346ZM22.561 30.346L22.561 52.926H25.783V30.346H22.561Z" fill="black"/>
<path fill-rule="evenodd" clip-rule="evenodd" d="M35.404 29.346H40.626V53.926H35.404V29.346ZM36.404 30.346V52.926H39.626V30.346H36.404Z" fill="black"/>
<path fill-rule="evenodd" clip-rule="evenodd" d="M31.094 25.535C29.9507 25.535 28.8541 25.9892 28.0457 26.7977C27.2372 27.6062 26.783 28.7027 26.783 29.846V52.926H35.405V29.846C35.405 28.7027 34.9508 27.6062 34.1423 26.7977C33.3339 25.9892 32.2373 25.535 31.094 25.535ZM27.3386 26.0906C28.3346 25.0946 29.6854 24.535 31.094 24.535C32.5026 24.535 33.8534 25.0946 34.8494 26.0906C35.8454 27.0866 36.405 28.4374 36.405 29.846V53.926H25.783V29.846C25.783 28.4374 26.3426 27.0866 27.3386 26.0906Z" fill="black"/>
<path fill-rule="evenodd" clip-rule="evenodd" d="M7.955 17.838H10.349V18.838H7.955V17.838Z" fill="black"/>
<path fill-rule="evenodd" clip-rule="evenodd" d="M51.838 17.838H54.232V18.838H51.838V17.838Z" fill="black"/>
<path fill-rule="evenodd" clip-rule="evenodd" d="M0 52.926H10.349V53.926H0V52.926Z" fill="black"/>
<path fill-rule="evenodd" clip-rule="evenodd" d="M51.838 52.926H62.187V53.926H51.838V52.926Z" fill="black"/>
<path fill-rule="evenodd" clip-rule="evenodd" d="M15.296 22.877H17.954V25.535H15.296V22.877ZM16.296 23.877V24.535H16.954V23.877H16.296Z" fill="black"/>
<path fill-rule="evenodd" clip-rule="evenodd" d="M44.397 22.763H47.055V25.421H44.397V22.763ZM45.397 23.763V24.421H46.055V23.763H45.397Z" fill="black"/>
<path fill-rule="evenodd" clip-rule="evenodd" d="M36.686 7.205H39.344V9.86301H36.686V7.205ZM37.686 8.205V8.86301H38.344V8.205H37.686Z" fill="black"/>
<path fill-rule="evenodd" clip-rule="evenodd" d="M22.843 7.205H25.501V9.86301H22.843V7.205ZM23.843 8.205V8.86301H24.501V8.205H23.843Z" fill="black"/>
<path fill-rule="evenodd" clip-rule="evenodd" d="M35.043 9.03401H27.417V8.03401H35.043V9.03401Z" fill="black"/>
</svg>
