<svg id="Group_47" data-name="Group 47" xmlns="http://www.w3.org/2000/svg" xmlns:xlink="http://www.w3.org/1999/xlink" width="23" height="23" viewBox="0 0 23 23">
  <defs>
    <clipPath id="clip-path">
      <rect id="Rectangle_535" data-name="Rectangle 535" width="23" height="23"/>
    </clipPath>
  </defs>
  <g id="Group_46" data-name="Group 46" clip-path="url(#clip-path)">
    <path id="Path_549" data-name="Path 549" d="M7.275,1.087A1.759,1.759,0,0,0,5.184.063L1.3,1.122A1.77,1.77,0,0,0,0,2.825,19.766,19.766,0,0,0,19.765,22.589a1.77,1.77,0,0,0,1.7-1.3l1.059-3.882A1.759,1.759,0,0,0,21.5,15.315L17.267,13.55a1.759,1.759,0,0,0-2.043.512l-1.782,2.175a14.91,14.91,0,0,1-7.09-7.09L8.528,7.369A1.761,1.761,0,0,0,9.04,5.326L7.275,1.091Z" transform="translate(0 0)"/>
  </g>
</svg>
