<?xml version="1.0" standalone="no"?>
<!DOCTYPE svg PUBLIC "-//W3C//DTD SVG 1.1//EN" "http://www.w3.org/Graphics/SVG/1.1/DTD/svg11.dtd" >
<svg xmlns="http://www.w3.org/2000/svg" xmlns:xlink="http://www.w3.org/1999/xlink" version="1.1">
<metadata></metadata>
<defs>
<font id="rollgates_luxury_italic" horiz-adv-x="1470" >
<font-face units-per-em="2048" ascent="1536" descent="-512" />
<missing-glyph horiz-adv-x="370" />
<glyph horiz-adv-x="0" />
<glyph unicode="&#xd;" horiz-adv-x="370" />
<glyph horiz-adv-x="0" />
<glyph horiz-adv-x="0" />
<glyph unicode=" "  horiz-adv-x="370" />
<glyph unicode="&#x09;" horiz-adv-x="370" />
<glyph unicode="&#xa0;" horiz-adv-x="370" />
<glyph unicode="!" horiz-adv-x="256" d="M74 66q6 27 28.5 45t51.5 18q27 0 42 -18.5t9 -44.5q-6 -29 -28.5 -47.5t-49.5 -18.5q-29 0 -44 18.5t-9 47.5zM147 254l226 1124h96l-258 -1124h-64z" />
<glyph unicode="&#x22;" horiz-adv-x="391" d="M264 1171l49 283h88l-79 -283h-58zM410 1171l49 283h88l-80 -283h-57z" />
<glyph unicode="#" horiz-adv-x="1327" d="M152 330l12 63h289l172 357h-256l14 63h274l152 313h63l-149 -313h360l152 313h63l-151 -313h268l-14 -63h-285l-174 -357h254l-12 -63h-271l-161 -330h-64l162 330h-363l-159 -330h-68l162 330h-270zM518 393h359l176 357h-363z" />
<glyph unicode="$" horiz-adv-x="1214" d="M94 217l90 82q92 -123 188.5 -182.5t194.5 -73.5l133 631q-31 4 -62.5 8t-64.5 12q-102 25 -164.5 67t-90 96t-24.5 115.5t32 127.5q31 61 83 113.5t120.5 90t150.5 57t172 17.5l29 138h65l-31 -142q86 -10 175.5 -45t175.5 -100l-76 -78q-18 25 -46 52.5t-62.5 54 t-79 48t-95.5 31.5l-119 -559q90 -14 176 -34.5t156 -73.5q70 -57 92.5 -130t6 -149t-67.5 -148.5t-130 -128t-179.5 -87t-216.5 -27.5l-29 -129h-66l29 133q-111 14 -226.5 64.5t-238.5 148.5zM403 978q6 -44 29 -71q49 -55 126 -79.5t167 -39.5l119 555q-100 4 -175 -19.5 t-128.5 -62t-86 -90t-45 -100.5t-6.5 -93zM631 37h26q84 2 160 32.5t135.5 78t100.5 105.5t56 117.5t1 112t-66 88.5q-51 35 -123.5 55.5t-156.5 35.5z" />
<glyph unicode="%" horiz-adv-x="1425" d="M281 -4l1046 1380h103l-1047 -1380h-102zM315 1083q10 57 41 109.5t76 92.5t100.5 64.5t114.5 26.5t107.5 -17.5t80 -56t45 -88t5.5 -108.5q-10 -59 -41 -111.5t-76 -92.5t-100.5 -64.5t-114.5 -26.5t-107.5 18.5t-80 57.5t-46 87t-4.5 109zM399.5 985q8.5 -47 29 -81 t53 -52t73.5 -16t81 23.5t72.5 58t56 84t34.5 100.5q8 53 1 100t-27.5 81t-53.5 53.5t-74 17.5t-80 -23.5t-72.5 -58.5t-57.5 -85.5t-34 -101.5t-1.5 -100zM836 274q10 57 40.5 109.5t75.5 92.5t100.5 64.5t114.5 26.5t107.5 -17.5t80 -56t45 -88t5.5 -108.5 q-10 -59 -41 -111.5t-76 -92.5t-100.5 -64.5t-114.5 -26.5t-107 18.5t-80 57.5t-46.5 87t-3.5 109zM920 176q8 -47 28.5 -81t53 -52t73.5 -16t81 23.5t73 58t56.5 84t33.5 100.5q8 53 1 100t-27.5 81t-53.5 53.5t-74 17.5t-79.5 -23.5t-72.5 -58.5t-57.5 -85.5t-33.5 -101.5 t-2 -100z" />
<glyph unicode="&#x26;" horiz-adv-x="1349" d="M160.5 249.5q-13.5 65.5 1.5 135.5q16 76 64 149.5t122 137.5q63 51 133 90t142 74q-20 33 -39 65.5t-31 67.5t-16.5 73.5t6.5 81.5q12 55 42.5 101.5t73.5 80t96.5 53t108.5 19.5q51 0 95.5 -16t75 -47t43 -77t1.5 -103q-10 -61 -46 -112.5t-85 -93.5t-109.5 -77 t-119.5 -64q111 -139 180.5 -223t112.5 -133t64.5 -72.5t37.5 -42.5q31 41 53.5 86.5t32.5 73.5l64 -22q-20 -35 -48 -75t-71 -87q25 -27 43 -46.5t34.5 -35.5t35 -33.5t40.5 -42.5l-69 -61l-133 164q-59 -59 -128 -104.5t-142.5 -76t-151.5 -45t-154 -10.5 q-109 8 -184.5 43t-118.5 87t-56.5 117.5zM256 369q-14 -68 3 -126.5t58 -102.5t101.5 -71.5t134.5 -31.5q135 -8 274.5 56.5t243.5 174.5q-29 35 -69.5 85t-85 105.5t-88.5 109t-78.5 96.5t-55.5 70l-22 28q-104 -51 -179 -101.5t-124.5 -99.5t-76 -98t-36.5 -94zM606 1108 q-12 -61 7.5 -122.5t64.5 -127.5q63 31 135 74t125 90q45 43 66.5 96t14.5 101.5t-42 83t-98 38.5q-43 2 -87 -16t-82 -51t-66 -77t-38 -89z" />
<glyph unicode="'" horiz-adv-x="249" d="M338 1171l49 283h88l-80 -283h-57z" />
<glyph unicode="(" horiz-adv-x="477" d="M201 397.5q-6 145.5 26.5 298t102 297t172 274.5t237.5 232l25 -31q-106 -92 -190.5 -217t-143.5 -266t-92 -290.5t-34 -291t31 -268.5t99 -221l-39 -31q-92 104 -140 236.5t-54 278z" />
<glyph unicode=")" horiz-adv-x="479" d="M6 -86q109 94 194 221t143 268.5t89 291t32 290.5t-30.5 266t-97.5 217l37 31q90 -102 139 -232t56 -274.5t-23.5 -297t-99 -298t-174 -277.5t-242.5 -237z" />
<glyph unicode="*" horiz-adv-x="544" d="M279 1167l170 82l-136 88l43 52l113 -107l29 178h59l-51 -180l170 109l20 -52l-180 -86l146 -84l-44 -51l-124 109l-25 -178h-59l47 176l-158 -107z" />
<glyph unicode="+" horiz-adv-x="933" d="M211 614l18 80h346l72 344h78l-72 -344h348l-18 -80h-348l-74 -348h-78l74 348h-346z" />
<glyph unicode="," horiz-adv-x="256" d="M10 -96l142 225l77 -51l-174 -199z" />
<glyph unicode="-" horiz-adv-x="933" d="M209 614l18 80h772l-18 -80h-772z" />
<glyph unicode="." horiz-adv-x="256" d="M74 66q6 27 28.5 45t51.5 18q27 0 42 -18.5t9 -44.5q-6 -29 -28.5 -47.5t-49.5 -18.5q-29 0 -44 18.5t-9 47.5z" />
<glyph unicode="/" horiz-adv-x="983" d="M63 0l1047 1380h102l-1046 -1380h-103z" />
<glyph unicode="0" horiz-adv-x="1581" d="M240.5 429q-23.5 122 4 259t111.5 268q82 131 201 225.5t252 144.5t269 52t257 -53q119 -55 194 -153.5t98.5 -221.5t-4.5 -260t-112 -268t-201.5 -225.5t-250.5 -144.5t-270.5 -51t-256.5 54q-121 55 -194.5 153.5t-97 220.5zM355.5 435q19.5 -120 78 -209t150.5 -141 t211 -52q117 0 231.5 52t210.5 141t166 209t98 255q29 135 10.5 254t-77 208t-151.5 141.5t-210 52.5t-231.5 -51.5t-210.5 -140.5t-167 -209t-99 -255q-29 -135 -9.5 -255z" />
<glyph unicode="1" horiz-adv-x="303" d="M104 0q70 336 127 604q25 115 48.5 225.5t42 199.5t31 146.5t14.5 65.5q6 33 2 51q-2 8 -4 17l131 65l-291 -1374h-101z" />
<glyph unicode="2" horiz-adv-x="1144" d="M100 0l6 35q10 53 43 95t80 79q76 57 165 106.5t180.5 96.5t179.5 99t163.5 115.5t133 144.5t88.5 187q25 86 14.5 157t-48.5 121t-101.5 78.5t-143.5 28.5q-53 0 -113.5 -19t-120 -56t-111.5 -90.5t-91 -118.5q-16 10 -31.5 20.5t-42.5 22.5q55 76 121 128t136.5 86 t141 48t136.5 14q102 0 184 -35.5t131 -99t60.5 -153t-25.5 -195.5q-55 -162 -160.5 -267.5t-249.5 -187.5q-92 -53 -192.5 -100t-186.5 -94t-149.5 -95.5t-83.5 -103.5h592l258 35l-16 -82h-947z" />
<glyph unicode="3" horiz-adv-x="1259" d="M147 248q20 10 48 24.5t45 24.5q35 -96 106.5 -160.5t167.5 -87.5q90 -23 186.5 -8.5t182.5 64t151.5 129t91.5 188.5q18 86 -2 156.5t-75.5 117.5t-144.5 69.5t-208 10.5l11 43q33 -2 78.5 -2t95 9.5t100.5 28.5t98 56q78 63 106.5 139t10.5 143t-80.5 110t-165.5 40 q-117 -4 -218 -50t-206 -146l-47 51q100 86 223 132t256 46q96 0 168 -18q111 -29 157 -104.5t30 -161.5q-8 -43 -30.5 -86t-63.5 -82t-102.5 -70t-147.5 -47q131 -33 200.5 -107.5t84 -166t-25.5 -187.5t-126 -172q-72 -63 -160 -104t-183 -57.5t-189.5 -9.5t-177.5 36 t-147.5 81t-97.5 128z" />
<glyph unicode="4" horiz-adv-x="1337" d="M141 219l1053 1157h102l-233 -1104h16l219 21l-16 -76h-231l-45 -217h-103l45 217zM256 272h705l215 1012z" />
<glyph unicode="5" horiz-adv-x="1216" d="M152 254l84 45q47 -119 139 -191.5t223 -72.5q98 0 180 32.5t145.5 86t104.5 121t59 137.5q16 66 11.5 133t-35.5 122.5t-89.5 92.5t-150.5 43q-63 4 -121.5 -9.5t-106.5 -32t-81 -36.5t-45 -25h-100l143 676h891l-17 -82l-239 41h-541l-119 -561q141 55 258 62.5 t205 -18t147.5 -76t88.5 -109.5q27 -51 31 -113.5t-13 -122.5q-16 -61 -53 -120.5t-95.5 -111.5t-136 -91t-174.5 -60q-92 -18 -182 -14t-169 33.5t-142.5 84t-99.5 136.5z" />
<glyph unicode="6" horiz-adv-x="1196" d="M200 403.5q1 106.5 27 217.5q27 113 85.5 241.5t147.5 241.5t207.5 191.5t266.5 90.5q106 10 184 -13t129 -58l-47 -49q-6 8 -20.5 22.5t-39 28.5t-60.5 25.5t-83 11.5q-106 0 -203.5 -53.5t-177 -138.5t-140 -191.5t-95.5 -214.5q47 59 105.5 106t123 80t130.5 47 t132 10q104 -8 178 -52t115 -113.5t49.5 -161.5t-20.5 -199q-29 -104 -92.5 -193.5t-147.5 -153t-182 -96t-199 -26.5q-137 8 -218 64.5t-118.5 142.5t-36.5 192.5zM309 363.5q0 -91.5 32 -161t95.5 -112.5t159.5 -47q88 -4 168 26.5t145.5 90t112.5 145t72 189.5 q23 96 17.5 179t-36.5 145.5t-85 99t-130 40.5q-86 6 -168 -20.5t-150.5 -79.5t-121.5 -130t-82 -173q-29 -100 -29 -191.5z" />
<glyph unicode="7" horiz-adv-x="1161" d="M377 1296l18 82h957l-9 -43q-74 -78 -158.5 -184.5t-171.5 -227t-170 -249.5t-152.5 -252t-119 -231.5t-69.5 -190.5h-107q14 74 59.5 178.5t110 223t144 247.5t167 253t176.5 235.5t173 199.5h-574z" />
<glyph unicode="8" horiz-adv-x="1239" d="M173 291q-7 82 28 164t112.5 155.5t198.5 122.5q-90 43 -121 124t-12 169q14 63 59 125.5t116 113t161 82t194 35.5q94 2 175 -19.5t136.5 -67.5t79 -113.5t3.5 -155.5q-20 -90 -94 -174t-187 -133q109 -45 159 -114.5t50 -150.5t-45 -162t-127 -146.5t-196 -106.5 t-249 -41q-139 0 -234 41t-147.5 105.5t-59.5 146.5zM223 309q4 -76 52.5 -138t136.5 -101t213 -39q121 0 225 53t176 125q37 37 60.5 81t32.5 90t-1 89t-41 78q-41 45 -104.5 71.5t-130 42t-126.5 23.5t-93 14q-141 -37 -231.5 -100t-131.5 -138t-37 -151zM455 1049 q-14 -63 6 -108.5t60 -76t94.5 -50t111.5 -32t110.5 -19.5t90.5 -15q111 39 181.5 92t106 110.5t40 116.5t-16 109.5t-63.5 89.5t-103 57q-96 29 -197.5 18.5t-189.5 -49.5t-151.5 -102.5t-79.5 -140.5z" />
<glyph unicode="9" horiz-adv-x="1191" d="M238 72l47 49q6 -8 20 -22.5t39 -29t60.5 -25.5t82.5 -11q106 0 203.5 53t177.5 138t140.5 191.5t95.5 215.5q-47 -59 -105.5 -106.5t-123 -80t-131 -47t-132.5 -10.5q-104 8 -178 52t-114.5 114t-49 162t20.5 198q29 104 91 193.5t146 153t183.5 96.5t199.5 26 q137 -8 218 -64t119 -142t37 -192.5t-28 -217.5q-29 -113 -86 -242t-146 -241.5t-208 -191.5t-266 -91q-106 -10 -184 13.5t-129 58.5zM373.5 714q5.5 -83 36 -145.5t85 -99.5t130.5 -41q86 -6 166.5 20.5t150.5 80t123 130t82 172.5q29 100 29 191.5t-32 161t-95.5 112.5 t-159.5 47q-88 4 -168 -26.5t-145.5 -90t-112.5 -144.5t-72 -189q-23 -96 -17.5 -179z" />
<glyph unicode=":" horiz-adv-x="253" d="M72 66q6 27 28.5 45t51.5 18q27 0 42 -18.5t9 -44.5q-6 -29 -28.5 -47.5t-49.5 -18.5q-29 0 -44 18.5t-9 47.5zM197 647q4 27 26.5 45.5t50.5 18.5q27 0 42.5 -18.5t11.5 -45.5q-6 -29 -29.5 -47t-50.5 -18q-29 0 -43.5 18t-7.5 47z" />
<glyph unicode=";" horiz-adv-x="264" d="M-8 -96l139 225l78 -51l-174 -199zM207 647q4 27 26.5 45.5t51.5 18.5q27 0 42 -18.5t11 -45.5q-6 -29 -29.5 -47t-50.5 -18q-29 0 -43 18t-8 47z" />
<glyph unicode="&#x3c;" horiz-adv-x="636" d="M209 598l20 104l535 275l-19 -82l-471 -246l369 -239l-18 -86z" />
<glyph unicode="=" horiz-adv-x="929" d="M180 467l17 80h766l-17 -80h-766zM240 743l16 80h766l-16 -80h-766z" />
<glyph unicode="&#x3e;" horiz-adv-x="634" d="M150 324l18 86l471 239l-369 246l19 82l416 -275l-21 -104z" />
<glyph unicode="?" horiz-adv-x="1069" d="M317 1122q74 102 171.5 159.5t195.5 79t189.5 13.5t152.5 -37q102 -47 149.5 -138.5t24.5 -197.5q-20 -102 -71.5 -175.5t-119 -131t-145.5 -101.5t-149 -89q-39 -23 -74 -47.5t-60.5 -54t-43 -65.5t-21.5 -83h-61q10 66 52 127t107 111q80 61 153 110t134.5 101.5 t107.5 113t70 141.5q18 68 12 131.5t-35.5 115.5t-81.5 87t-124 45q-125 16 -256 -51t-225 -199q-16 10 -25.5 17.5t-26.5 17.5zM389 68q4 27 26.5 45t51.5 18q27 0 42 -18.5t11 -44.5q-6 -29 -29.5 -47.5t-50.5 -18.5q-29 0 -43 18.5t-8 47.5z" />
<glyph unicode="@" horiz-adv-x="1542" d="M198.5 327.5q-22.5 114.5 6.5 250.5q31 143 112.5 269t195.5 220t251 148.5t278 52.5q156 -2 273 -57.5t186.5 -149.5t92 -219t-8.5 -269q-14 -68 -47 -146.5t-80 -144t-104.5 -108.5t-120.5 -39q-57 0 -93 39t-38 86q-61 -51 -135 -82t-154 -33q-78 -2 -141.5 24 t-106.5 73t-60.5 111.5t-2.5 138.5q14 74 55 139t101.5 114.5t134 80t153.5 32.5q78 2 145.5 -28.5t108.5 -86.5q4 23 8 46.5t9 48.5q10 49 -0.5 77.5t-33 42t-56 13.5t-72.5 -8l26 49q41 0 86 -12.5t72 -34.5q41 -31 54.5 -81t-3.5 -124q-16 -86 -35.5 -167t-35.5 -153 q-33 -152 -29 -212t51 -62q23 0 55.5 19.5t69.5 66.5t72 127t61 199q31 141 13.5 262t-78 209t-160.5 139t-236 55q-117 4 -234.5 -49t-219 -145.5t-176 -215t-103.5 -260.5q-27 -121 -10.5 -231.5t66 -196.5t126 -144t174 -77.5t210 6t231.5 107.5l24 -49 q-127 -68 -252.5 -88.5t-238.5 0t-204 78t-150.5 146.5t-82 203.5zM601 483q-13 -86 6.5 -156.5t72.5 -115.5t143 -37q39 2 80 16.5t80 36t71.5 48t57.5 57.5q10 68 31.5 157t44.5 201q-33 63 -98.5 99t-137.5 32q-102 -2 -176 -53t-118 -125t-57 -160z" />
<glyph unicode="A" d="M102 0l863 1376h127l278 -1376h-102q0 45 -6 111q-4 55 -14.5 136t-26.5 189h-719l-273 -436h-127zM524 473h690l-159 846z" />
<glyph unicode="B" horiz-adv-x="1243" d="M102 0l291 1376q184 0 309 2q62 1 115 1t96 -1q86 -2 141.5 -14t102.5 -39q67 -41 99 -107q21 -43 21 -93q0 -25 -5 -52q-12 -57 -42 -108.5t-74 -93.5t-98.5 -72.5t-113.5 -44.5q74 -12 133.5 -40t98 -72t52.5 -106q6 -27 7 -58q0 -39 -10 -85q-33 -152 -147.5 -248 t-274.5 -125q-45 -8 -97.5 -12t-130 -6t-191.5 -2h-282zM227 33q70 0 163 -1h23q83 0 167 6q96 7 186 26.5t154 60.5q70 43 116 103q46 62 66 126q16 52 16 103q0 13 -1 25q-5 64 -39 116.5t-98.5 88.5t-160.5 44q-35 2 -88 3t-114.5 1t-124 -1t-115.5 -1zM383 764 q33 0 88 1t115.5 1t119 1t97.5 1q55 0 113.5 24.5t107.5 65.5t86 95.5t51 113.5q8 37 8 69q0 30 -7 55q-15 52 -55 86t-100.5 51.5t-132.5 17.5q-59 0 -146 -1.5t-222 -1.5z" />
<glyph unicode="C" horiz-adv-x="1425" d="M231 500q-1 20 -1 40q0 146 52 274q58 146 160.5 259t236.5 189q135 75 277 101q67 12 133 12q74 0 146 -15q137 -29 248 -123l-43 -86q-68 100 -165 150.5t-204.5 50.5t-217.5 -46t-204 -137q-102 -90 -168.5 -202.5t-97.5 -228.5q-26 -96 -26 -191q-1 -20 1 -39 q6 -113 50 -201q43 -90 102 -146.5t125.5 -85t136.5 -34.5q26 -2 52 -2q44 0 84 6q66 10 122.5 30.5t97.5 45.5q61 35 111.5 84t85.5 92q12 -16 24.5 -30.5t24.5 -26.5q-135 -111 -271 -168.5t-260 -68.5q-32 -3 -63 -3q-90 0 -170 24q-108 32 -190 97t-132 161.5t-57 217.5 z" />
<glyph unicode="D" horiz-adv-x="1314" d="M102 0l293 1378q131 0 235 1h66q63 0 115 -1q117 -2 201 -23.5t140 -51t90 -61t52 -54.5q76 -102 86 -240q2 -31 1 -63q0 -108 -25 -219q-39 -158 -107.5 -275t-167.5 -201q-27 -23 -73.5 -54.5t-116.5 -61t-162 -51t-211 -23.5h-106.5h-113.5h-107.5h-88.5zM229 35h271 q174 0 302 54t215 145.5t140 209t82 246.5q24 114 24 221v24q-3 118 -52.5 209t-154 145t-278.5 54h-270z" />
<glyph unicode="E" horiz-adv-x="1130" d="M102 0l293 1378h928l-23 -100q-68 18 -133 33q-55 12 -116.5 22t-108.5 10h-438l-119 -561h565l-8 -37h-565l-152 -712h439q47 0 111.5 10t125.5 25q70 14 148 34l-21 -102h-926z" />
<glyph unicode="F" horiz-adv-x="1130" d="M102 2l293 1376h37h80h811l-23 -100q-68 18 -133 33q-55 12 -116.5 22t-108.5 10h-438l-154 -718h565l-6 -37l-565 2l-125 -588h-117z" />
<glyph unicode="G" horiz-adv-x="1409" d="M231 502q-1 20 -1 40q0 146 52 274q58 147 160.5 259.5t236.5 188t275 101.5q67 12 133 12q74 0 146 -15q137 -29 248 -123q-8 -16 -17.5 -33.5t-25.5 -52.5q-68 100 -164 150.5t-203.5 50.5t-217.5 -46t-204 -137q-102 -90 -167.5 -202.5t-96.5 -228.5q-26 -97 -26 -191 q0 -19 1 -39q7 -113 50 -201q35 -76 82 -127t99 -83.5t108.5 -47t111.5 -14.5q45 0 101.5 10t113.5 28.5t109.5 43t91.5 53.5l119 573h-103.5t-76 -2t-68.5 -7t-84 -13l12 59h326h118l-124 -596q-119 -84 -261.5 -134t-277.5 -52h-13q-112 0 -208 33q-103 35 -179.5 99.5 t-122.5 158.5t-53 211z" />
<glyph unicode="H" horiz-adv-x="1222" d="M102 0l291 1376h117l-125 -594h784l125 594h117l-291 -1376h-116l157 745h-784l-158 -745h-117z" />
<glyph unicode="I" horiz-adv-x="321" d="M102 0l293 1378h117l-293 -1378h-117z" />
<glyph unicode="J" horiz-adv-x="1189" d="M145 311q25 10 48.5 18.5t50.5 18.5q0 -70 25.5 -128t69.5 -100t102.5 -64.5t121.5 -22.5q76 0 157 31.5t153.5 99t132 173t94.5 255.5l160 751h-435q-23 0 -56.5 -5t-61.5 -9q-37 -6 -72 -12l14 61h735l-161 -757q-37 -172 -108 -291t-160 -193t-190 -107 q-95 -30 -187 -30h-11q-80 2 -151.5 24.5t-128 63.5t-94 98.5t-48.5 124.5z" />
<glyph unicode="K" horiz-adv-x="1271" d="M102 0l293 1378h119l-172 -809q53 43 120.5 97.5t139.5 111t142.5 111.5t132.5 102q182 139 287.5 236.5t158.5 150.5h125l-748 -583q35 -10 76 -26.5t86 -45.5q59 -39 120.5 -103.5t109.5 -155.5t72 -207q16 -74 15 -158q0 -48 -5 -99h-121q1 21 1 41q0 114 -20 217 q-22 121 -74.5 217t-136.5 161.5t-205 94.5l-290 -225l-107 -506h-119z" />
<glyph unicode="L" horiz-adv-x="1128" d="M102 0l293 1378h119l-287 -1341h439q45 0 111.5 10t125.5 23q70 14 146 32l-21 -102h-926z" />
<glyph unicode="M" horiz-adv-x="1488" d="M100 0q27 104 54 211q23 92 49 199.5t49 207.5q10 49 23.5 107.5t27.5 122t28.5 127t28.5 123.5q33 139 66 280h47l379 -929l686 929h111l-260 -1378h-117l246 1278l-721 -979l-365 875q-12 -66 -29.5 -143t-35 -152.5t-34 -144t-26.5 -118.5q-18 -84 -38.5 -189 t-37.5 -202q-20 -113 -41 -225h-90z" />
<glyph unicode="N" horiz-adv-x="1230" d="M102 0l293 1378h45l688 -1155l170 801l58 354h65l-293 -1378h-28l-699 1180l-163 -766l-70 -414h-66z" />
<glyph unicode="O" horiz-adv-x="1583" d="M244 420q-13 59 -12 121q0 71 16 147q31 143 110.5 268t193.5 218.5t251 147.5t280 54q141 0 255 -54t187.5 -147.5t102.5 -218.5q14 -60 14 -125q0 -69 -16 -143q-31 -143 -111.5 -268t-193.5 -218t-250 -147.5t-278 -54.5q-143 0 -258 54.5t-189 147.5t-102 218z M362 721q-10 -58 -9 -115q0 -69 14 -137q25 -127 92 -220t161 -145q94 -53 208 -60q15 -1 30 -1q99 0 203 41q119 45 213 132t154 200q62 112 84 239q10 58 10 115q0 69 -15 137q-27 125 -94 218.5t-161 145.5t-208 59q-15 1 -31 1q-99 0 -200 -39q-119 -45 -213 -132 t-155 -199.5t-83 -239.5z" />
<glyph unicode="P" horiz-adv-x="1214" d="M102 0l293 1378h256h198t149.5 -8t112.5 -23.5t89 -46.5q76 -53 110 -136q20 -50 20 -108q0 -38 -9 -79q-18 -84 -64.5 -156.5t-113 -126t-146 -85t-161.5 -31.5h-496l-121 -578h-117zM348 608h371q94 0 175 29t142.5 78t103.5 114.5t60 139.5q11 45 11 88q0 51 -15 99 q-27 89 -113 140q-39 23 -77.5 34t-99 15.5t-156 4.5h-244.5z" />
<glyph unicode="Q" horiz-adv-x="1579" d="M244 420q-12 59 -12 121q0 71 16 147q31 141 110.5 267t193.5 219.5t251 147.5t278 54q143 0 257 -54t187.5 -147.5t101.5 -219.5q13 -60 13 -123q0 -70 -16 -144q-35 -168 -138.5 -309t-246.5 -238q31 -27 61.5 -52.5t63.5 -43.5t68 -22q6 -1 14 -1q28 0 61 13 q0 -12 -8 -30.5t-24.5 -37t-40 -31t-52.5 -10.5q-35 2 -62.5 18.5t-54 41t-50 54.5t-48.5 58q-88 -47 -183 -72.5t-193 -25.5q-141 0 -256 54.5t-189 147.5t-102 218zM362 720q-10 -59 -10 -118q0 -68 13 -135q27 -125 94 -218t161.5 -145.5t207.5 -59.5q16 -1 31 -1 q99 0 202 39q23 10 44 19.5t40 21.5q-29 31 -65 49q-25 12 -52 12q-12 0 -24 -2q0 6 16 25.5t57 17.5q37 -4 71 -21.5t64 -39.5q84 61 148.5 146t104.5 183.5t51 204.5q5 37 5 74q0 68 -14 135q-27 125 -94 218.5t-161.5 145.5t-207.5 59q-16 1 -31 1q-99 0 -202 -39 q-119 -45 -213 -132t-154.5 -199.5t-81.5 -240.5z" />
<glyph unicode="R" horiz-adv-x="1220" d="M102 0l293 1378h283q106 0 186 -1t141.5 -9t107.5 -23.5t87 -44.5q76 -53 111 -136q21 -50 21 -108q0 -38 -9 -79q-16 -80 -61 -151.5t-108.5 -126t-141.5 -87t-158 -34.5q68 -37 121 -94.5t88 -133.5t49 -164q9 -56 9 -116q0 -34 -3 -70h-121q0 106 -19.5 204.5 t-63.5 176.5t-113.5 130t-167.5 67h-293l-121 -578h-117zM348 612h371q94 0 175 29t142.5 77t103.5 112.5t58 138.5q11 46 11 90q0 50 -14 97q-26 89 -112 140q-39 23 -77 33q-38 9 -100 13q-43 2 -103 3q-27 -1 -55 -1q-96 -2 -244 -1z" />
<glyph unicode="S" horiz-adv-x="1308" d="M141 223l90 82q121 -154 248 -210q119 -52 232 -52h16q86 2 163 26.5t138.5 65.5t104.5 92.5t59 106.5q16 51 16 91q0 33 -10 59q-24 58 -81.5 92t-138.5 51.5t-169 32t-174 32t-152 49.5q-59 29 -92 70t-45 88q-8 30 -8 61q0 18 3 38q7 52 32 104q31 63 88 116.5 t131 91.5t163 56q67 14 139 14q24 0 48 -2q98 -6 200.5 -42t203.5 -105l-78 -78q-23 27 -56.5 59.5t-77.5 60t-99.5 47t-123.5 23.5q-19 1 -38 1q-69 0 -127 -12q-72 -15 -128.5 -43.5t-95.5 -68.5t-61 -85q-33 -68 -34 -121q0 -4 1 -6q2 -54 35 -92.5t89 -64.5t128 -40 q63 -10 131 -19.5t135.5 -22.5t131 -36.5t116.5 -62.5q70 -57 94 -130q13 -42 13 -85q1 -32 -7 -65q-18 -77 -71.5 -148.5t-134.5 -125.5q-80 -56 -186 -86q-88 -25 -187 -25q-20 0 -40 1q-122 6 -257 57.5t-277 159.5z" />
<glyph unicode="T" horiz-adv-x="1409" d="M373 1278l22 100h1204l-22 -100q-45 18 -88 33q-37 12 -77 22t-71 10h-292l-285 -1343h-119l285 1343h-291q-33 0 -78 -10t-86 -22q-49 -14 -102 -33z" />
<glyph unicode="U" horiz-adv-x="1261" d="M213 524l182 854h117l-184 -866q-16 -74 -16 -139q0 -27 2 -53q10 -88 49.5 -151t108.5 -97.5t165 -34.5q104 0 191 36t154 99.5t112 150.5t67 189l182 866h115q-49 -233 -84 -394t-58.5 -269.5t-39.5 -173t-29.5 -105.5t-27 -68.5t-31.5 -60.5q-63 -115 -169 -187 q-105 -74 -225 -102q-76 -18 -152 -18q-44 0 -87 6q-119 16 -206 78t-129 172q-23 60 -23 134q0 62 16 134z" />
<glyph unicode="V" d="M391 1376h125l268 -1304q33 55 90.5 145t122 192.5t129 206t113.5 183.5q86 141 145.5 248.5t98.5 181.5q45 86 73 147h103l-860 -1376h-127z" />
<glyph unicode="W" horiz-adv-x="2103" d="M393 1376h125l268 -1304l381 610l-141 694h125l113 -540q80 133 136 232t91 169q41 80 68 139h102l-383 -610l141 -694l455 727q86 141 145.5 248.5t98.5 181.5q45 86 73 147h103l-860 -1376h-127l-125 612l-381 -612h-127z" />
<glyph unicode="X" horiz-adv-x="1374" d="M90 0l672 666l-369 712h154l317 -612q111 109 207 205q41 41 83 82t79 77.5t66.5 66.5t46.5 46q59 59 90 96q18 23 30 39h99q-109 -102 -224 -213q-98 -94 -217.5 -210.5t-234.5 -231.5l368 -723h-153l-320 625l-307 -316q-59 -59 -109.5 -114.5t-86.5 -98.5 q-43 -51 -80 -96h-111z" />
<glyph unicode="Y" horiz-adv-x="1466" d="M389 1378h125l367 -868l395 479q76 94 128 167t87 122q39 57 63 100h103l-764 -921l-96 -457h-117l94 449z" />
<glyph unicode="Z" horiz-adv-x="1277" d="M102 0l7 33q33 35 100 109.5t154.5 172t189.5 211t202.5 226t194.5 217t166 185.5t116 130t46 51q-156 0 -260.5 1t-176 1h-116.5t-80 -2q-45 -4 -102.5 -9t-161.5 -23l16 75h1035l-9 -35q-37 -39 -105.5 -115.5t-156.5 -176t-188.5 -212t-199.5 -225t-190 -216 t-162 -183.5t-113 -127t-44 -49h301h186.5t113.5 1t84 5t95.5 10t147.5 17l-14 -72h-1076z" />
<glyph unicode="[" horiz-adv-x="372" d="M57 -113l340 1606h213l-16 -80h-133l-307 -1446h133l-17 -80h-213z" />
<glyph unicode="\" horiz-adv-x="1015" d="M371 1380h102l461 -1380h-103z" />
<glyph unicode="]" horiz-adv-x="372" d="M55 -113l17 78h131l307 1450h-131l16 78h213l-340 -1606h-213z" />
<glyph unicode="^" horiz-adv-x="684" d="M305 1071l326 389h71l160 -389h-78l-131 324l-270 -324h-78z" />
<glyph unicode="_" horiz-adv-x="933" d="M82 0l16 80h772l-16 -80h-772z" />
<glyph unicode="`" horiz-adv-x="450" d="M340 1231l66 78l200 -164l-33 -41z" />
<glyph unicode="a" horiz-adv-x="1024" d="M162 395q14 84 62 159t117 131t153 91t174 37h10q84 0 156 -33q76 -35 122 -96q6 27 12.5 52.5t10.5 54.5q5 26 5 47q0 22 -6 40q-11 32 -38 48q-25 15 -61 15h-5q-38 -1 -81 -9l28 57q47 0 99.5 -14t83.5 -39q67 -52 67 -153q0 -38 -10 -83q-29 -141 -60.5 -274 t-54.5 -225q-10 -46 -10 -84q0 -16 2 -30q6 -48 10 -60q-16 -6 -32.5 -12.5t-36.5 -14.5q-11 16 -23 53q-11 32 -10 67v11q-70 -59 -154 -93t-176 -38h-11q-83 0 -151 28q-72 30 -120 83t-68 127q-11 40 -12 83q0 36 8 74zM274 246q11 -70 42.5 -119t84.5 -75q43 -21 98 -20 q13 0 27 1q45 4 93.5 19.5t91.5 40t80.5 55t66.5 65.5q12 78 34.5 179.5t51.5 230.5q-38 73 -112 113q-68 37 -141 36h-15q-70 -2 -134.5 -27.5t-117.5 -73.5t-92 -116t-53 -154q-9 -50 -10 -95q1 -31 5 -60z" />
<glyph unicode="b" horiz-adv-x="1056" d="M82 0l291 1374h102l-121 -565q76 59 174.5 94t192.5 35q98 0 175 -41t123 -109q45 -67 61 -156q6 -34 6 -70q0 -57 -15 -118q-23 -98 -80 -180t-135 -142q-78 -62 -172 -94q-89 -31 -179 -30h-11q-90 2 -164 33.5t-121 91.5l-25 -123h-102zM229 221q29 -74 103 -128 t166 -58h19q67 1 129 25q72 28 133 83.5t107.5 134.5t71.5 177q18 74 18 137q0 23 -2 44q-9 81 -46 139.5t-96.5 90t-133.5 31.5h-7q-83 0 -178 -46q-99 -48 -175 -128z" />
<glyph unicode="c" horiz-adv-x="1030" d="M172 348q-1 18 -1 35q0 101 39 189q46 104 125 184t181 129t208 59q24 2 47 2q79 0 155 -26q98 -34 170 -123l-45 -78q-33 86 -101 132q-67 47 -150 57q-23 3 -46 2q-61 0 -125 -20q-88 -28 -163 -87.5t-125 -152.5t-56 -216q-1 -19 -1 -36q0 -96 28 -164q32 -82 88 -130 q56 -47 130 -59q28 -5 57 -4q46 -1 92 11q75 20 144.5 71t116.5 133q16 -10 30.5 -21.5t26.5 -19.5q-61 -68 -142 -121t-173 -78q-65 -16 -126 -16q-32 0 -64 4q-90 14 -159 58t-112 118t-49 168z" />
<glyph unicode="d" horiz-adv-x="1058" d="M180 296q-9 39 -9 82q0 53 13 111q27 109 86.5 194t137 143.5t168 89t177.5 30.5t164.5 -32.5t131.5 -98.5l120 569h101l-293 -1384h-100l26 131q-90 -73 -185 -103q-84 -27 -163 -26h-21q-88 4 -162.5 42t-123 101.5t-68.5 150.5zM290 276q16 -92 63.5 -148t119.5 -76 q44 -13 91 -13q30 0 60 5q78 13 157 60.5t145 126.5l106 502q-39 74 -102.5 116t-135.5 52q-23 3 -47 3q-50 0 -103 -14q-77 -22 -144.5 -74t-119.5 -132.5t-77 -189.5q-18 -81 -18 -147q-1 -38 5 -71z" />
<glyph unicode="e" horiz-adv-x="1060" d="M170 346q-1 16 -1 33q1 120 53 222q60 116 156 196q95 79 212 117q85 27 165 28q29 0 59 -4q108 -14 190.5 -87t109.5 -216l-819 -334q29 -137 110.5 -199.5t181 -62.5t197 57.5t156.5 159.5q16 -10 30.5 -21.5t26.5 -19.5q-76 -86 -165 -136q-89 -49 -179 -67 q-52 -10 -102 -11q-37 0 -73 6q-85 13 -151.5 57.5t-108.5 115t-48 166.5zM285 358.5q0 -8.5 2 -18.5l735 305q-25 119 -91.5 181.5t-151.5 75.5q-24 4 -49 4q-62 0 -126 -24q-90 -32 -164 -100q-72 -68 -118 -172q-38 -86 -38 -191q0 -21 1 -42v-18.5z" />
<glyph unicode="f" horiz-adv-x="862" d="M193 0q45 219 76.5 367.5t52 244t32 147.5t17.5 79.5t9 41t7 29.5h-115l9 41h116q23 90 44 146.5t44 91.5q57 94 141.5 140t170.5 50h18q76 0 145 -30q78 -33 125 -101q-10 -10 -20 -18t-19.5 -16.5t-17.5 -16.5q-29 59 -89 100q-57 39 -129 39h-7q-74 0 -124 -33.5 t-85 -87t-57.5 -123t-40.5 -141.5h325l-14 -65q-90 10 -131 15t-63.5 7t-46 2h-81.5q-4 -16 -7 -29.5t-9 -42t-17.5 -80.5t-32 -147.5t-52 -244t-76.5 -365.5h-98z" />
<glyph unicode="g" horiz-adv-x="1105" d="M124 -64q7 50 44 100t92 87q-33 39 -54.5 85t-29.5 101q-5 33 -5 67q0 59 15 118q25 94 80.5 177t137 146.5t182.5 97.5q87 29 170 29h20q92 -4 166 -43t124 -106.5t64 -159.5q5 -33 5 -66q0 -60 -16 -119q-25 -94 -80.5 -175.5t-137.5 -147.5t-180 -98q-86 -29 -167 -29 q-34 0 -68 6q-111 17 -189 82q-16 -8 -36.5 -19.5t-40 -28.5t-35 -37.5t-19.5 -47.5q-2 -11 -2 -21q0 -24 14 -40q21 -23 61 -33.5t95 -10.5t115.5 5.5t123 13.5t117.5 14q76 9 143 9h13q72 -1 126 -16t88 -49t40 -91q2 -17 2 -33q0 -43 -16 -81q-21 -54 -57 -98t-81 -79 t-85 -58.5t-67.5 -37t-31.5 -15.5l-39 86q39 12 80 33q35 16 79 43t91 62q25 20 55.5 58t38.5 77q2 9 2 17q0 29 -21 54q-28 31 -120 37q-19 1 -41 1q-47 0 -105 -6q-82 -9 -172 -18t-183 -12h-20q-82 0 -155 19q-78 18 -108 60q-23 34 -23 73q0 9 1 18zM287 348 q12 -90 52 -154.5t97.5 -102.5t129.5 -46q16 -2 33 -2q56 0 114 20q76 27 138 80.5t104 125t61 156.5q10 48 10 98q0 37 -6 75q-14 88 -55 152.5t-99.5 101.5t-131.5 45q-17 2 -34 2q-56 0 -114 -20q-78 -27 -139.5 -80.5t-101.5 -124t-56 -154.5q-9 -45 -9 -91q0 -40 7 -81 zM954 934q27 41 64 78q31 31 71.5 58.5t94.5 37.5q24 3 44 3q31 0 54 -7q39 -12 53 -21q-4 -4 -12 -16t-17.5 -26.5t-17.5 -27t-12 -18.5q-14 10 -49 25q-23 9 -53 9q-16 0 -35 -3q-35 -6 -66 -22.5t-53 -34.5q-27 -23 -51 -45z" />
<glyph unicode="h" horiz-adv-x="997" d="M82 0l291 1374h100l-129 -604q74 72 177 121t212 49q76 0 140.5 -21.5t107.5 -66.5q43 -46 59 -116q7 -30 7 -65q0 -48 -13 -104l-119 -567h-106l121 569q12 51 12 96q0 25 -4 47q-10 62 -42 104t-80 62.5t-105 20.5q-51 0 -107.5 -20.5t-110 -56.5t-99.5 -84t-79 -103 l-133 -635h-100z" />
<glyph unicode="i" horiz-adv-x="266" d="M82 0l201 950h102l-201 -950h-102zM326 1219q6 27 28.5 45t51.5 18q27 0 42 -18.5t9 -44.5q-6 -29 -29.5 -47.5t-50.5 -18.5q-29 0 -43.5 18.5t-7.5 47.5z" />
<glyph unicode="j" horiz-adv-x="262" d="M-586 -295l72 55q49 -94 135 -130q51 -21 103 -21q36 0 73 10q90 25 167 109t108 229l211 993h98q-55 -260 -100 -467q-18 -90 -37 -176t-34 -155.5t-24.5 -116.5t-11.5 -55q-25 -100 -79 -178t-124.5 -129.5t-150.5 -76.5q-71 -21 -139 -21h-17q-76 3 -141.5 35 t-108.5 95zM326 1219q6 27 28.5 45t51.5 18q27 0 42 -18.5t9 -44.5q-6 -29 -29.5 -47.5t-50.5 -18.5q-29 0 -43.5 18.5t-7.5 47.5z" />
<glyph unicode="k" horiz-adv-x="940" d="M82 0l291 1376h100l-215 -1018l717 568l33 -47l-193 -127l-272 -213l317 -539h-110l-281 481l-223 -178l-64 -303h-100z" />
<glyph unicode="l" horiz-adv-x="266" d="M82 0l291 1374h102l-291 -1374h-102z" />
<glyph unicode="m" horiz-adv-x="1560" d="M82 0l197 930h102l-31 -142q66 66 155 109t181 43q104 0 178 -48t99 -147q33 39 74.5 75t87.5 62.5t96.5 42t99.5 15.5q74 0 132 -23.5t96 -69.5q39 -46 53 -117q6 -31 5 -65q0 -45 -10 -98l-118 -567h-101l121 569q12 57 12 104q0 21 -2 39q-8 62 -33.5 104t-68.5 63.5 t-94 21.5q-68 0 -143.5 -42t-133.5 -124q-29 -41 -46 -82t-27 -86l-119 -567h-103l121 569q13 59 13 107q0 18 -2 36q-7 62 -33.5 104t-69.5 63.5t-94 21.5q-43 0 -91 -18.5t-96.5 -51t-91.5 -75.5t-73 -94l-140 -662h-102z" />
<glyph unicode="n" horiz-adv-x="997" d="M82 0l197 930h102l-35 -160q74 72 177 121t212 49q76 0 139.5 -21.5t106.5 -66.5q43 -46 59 -116q7 -30 7 -65q0 -48 -13 -104l-119 -567h-104l121 569q12 53 12 97q0 24 -4 46q-10 62 -42 104t-80 63.5t-105 21.5q-51 0 -107.5 -21.5t-110 -57.5t-99.5 -84t-79 -103 l-133 -635h-102z" />
<glyph unicode="o" horiz-adv-x="1105" d="M174 307q-5 33 -5 65q1 60 17 120q26 94 81 177t136.5 146.5t180.5 97.5q89 29 172 29h20q92 -4 167 -43t124 -106.5t63 -159.5q5 -34 5 -68q0 -57 -15 -117q-24 -94 -79.5 -176t-137.5 -146.5t-182 -96.5q-86 -31 -167 -31q-12 0 -24 1q-92 5 -166.5 43t-125 105.5 t-64.5 159.5zM287 346q14 -88 54 -154.5t97 -105.5q58 -38 128 -48q19 -3 40 -3q52 0 107 18q76 27 138 81t104 128q43 74 61 160q11 49 10 99q0 38 -6 75q-14 88 -55 154.5t-100.5 104.5t-132.5 47q-19 2 -38 2q-55 0 -110 -19q-76 -27 -137.5 -81t-101.5 -126 q-41 -72 -57 -158q-9 -45 -8 -91q0 -41 7 -83z" />
<glyph unicode="p" horiz-adv-x="1058" d="M-8 -426l291 1374h102l-27 -129q72 59 161 92t179 37h21q88 0 159 -30q80 -33 131.5 -95.5t70.5 -147.5q10 -44 10 -91q0 -44 -9 -92q-18 -98 -71.5 -185.5t-130 -153t-170 -105.5t-189.5 -44h-19q-87 0 -158 32q-79 36 -130 99l-121 -561h-100zM233 236q14 -39 42 -74 t66 -61.5t84 -43t95 -16.5q78 0 149.5 35t132 96t103.5 144t62 182q12 58 12 109q0 36 -7 69q-14 78 -53.5 130t-100.5 78q-58 23 -127 23h-11q-84 -4 -176 -49t-164 -121z" />
<glyph unicode="q" horiz-adv-x="1058" d="M180 306q-7 37 -7 77q0 52 13 109q23 98 79.5 183t133 147.5t171.5 95.5q84 30 171 30h21q86 -4 162.5 -36.5t124.5 -92.5l26 129h103l-293 -1374h-103l121 561q-78 -63 -172 -99q-85 -32 -172 -32h-20q-96 4 -171 44t-123 105.5t-65 152.5zM286 316q9 -83 42.5 -144 t91 -96t135.5 -35q49 0 101.5 16.5t101.5 43t92 61.5t74 74l106 501q-41 76 -113.5 121t-152.5 49h-11q-68 0 -135 -23q-73 -26 -135.5 -78t-110.5 -130t-71 -178q-17 -72 -17 -135q0 -24 2 -47z" />
<glyph unicode="r" horiz-adv-x="927" d="M82 0q18 90 39.5 188.5t39 182.5t30 141.5t14.5 67.5q25 98 82 170.5t134 118.5q77 45 164 65q64 14 125 14q22 0 44 -1q82 -7 152.5 -41t113.5 -95l-94 -63q-33 57 -86.5 96t-115.5 54q-39 9 -79 9q-24 0 -49 -3q-66 -9 -123 -45t-102 -100.5t-64 -158.5l-127 -600h-98z " />
<glyph unicode="s" horiz-adv-x="1001" d="M115 143l75 72q96 -106 198 -146q88 -35 169 -35q13 0 25 1q92 6 164.5 48t113.5 96q40 53 40 108q0 59 -58 96q-59 39 -151.5 51t-201.5 35q-78 18 -125 48q-46 30 -68 69q-19 35 -20 74v9q2 44 23 91q35 68 109 118t170 68q46 9 95 9q55 -1 113 -11q112 -20 224 -94 l-68 -66q-16 18 -39.5 40t-54.5 40.5t-70 31.5t-88 15q-17 1 -34 1q-92 0 -152 -28q-72 -34 -109 -82t-39 -98v-7q0 -46 27 -70q41 -41 106.5 -57.5t139 -27t147.5 -25.5t133 -54q68 -55 74 -129q1 -9 1 -18q0 -64 -37 -124q-42 -68 -126 -123q-85 -55 -195 -72 q-40 -6 -81 -6q-76 -1 -161 19q-132 30 -269 133z" />
<glyph unicode="t" horiz-adv-x="874" d="M250 190q-4 22 -4 54q0 36 5 86q9 92 42 245l72 334h-93l9 41h92l57 267h98l-57 -267h414l-15 -65l-200 24h-207l-72 -334q-25 -119 -39 -209q-11 -70 -11 -121q0 -15 1 -28q4 -102 52 -138t112 -36h7q71 0 145 39q76 41 130 100q10 -18 23 -32q8 -8 14 -19 q-74 -67 -167 -101q-83 -30 -159 -30h-18q-84 4 -148.5 50t-82.5 140z" />
<glyph unicode="u" horiz-adv-x="997" d="M156 206q-7 31 -8 67q0 47 12 102l123 575h104l-123 -577q-12 -53 -12 -97q0 -24 4 -46q10 -62 42 -104t80 -63.5t105 -21.5q51 0 107.5 20.5t110 56.5t99.5 84t77 103l137 645h102l-198 -938h-103l33 158q-74 -72 -176.5 -121t-210.5 -49q-76 0 -139.5 21.5t-106.5 68 t-59 116.5z" />
<glyph unicode="v" horiz-adv-x="1067" d="M281 948h102l176 -897q25 39 64 99.5t84 131t92 143.5t87 136.5t69.5 110.5t39.5 67q20 35 38 72t34 68q16 37 33 69h90l-615 -948h-110z" />
<glyph unicode="w" horiz-adv-x="1511" d="M281 948h102l174 -891l260 396l-94 495h102l72 -373q37 59 64.5 102.5t37.5 61.5q20 35 38 71t32 67q16 37 31 69h90l-281 -430l90 -459q27 39 67 100.5t86 130t93 141.5t87 135.5t70 108.5t40 66q20 35 37.5 71t31.5 67q16 37 31 69h90l-614 -946h-111l-78 393 l-254 -393h-110z" />
<glyph unicode="x" horiz-adv-x="960" d="M68 0q72 72 151 150q66 66 149 147.5t162 161.5l-251 483h106l215 -414q78 76 134.5 133.5t78.5 79.5q33 35 63.5 72t57.5 68q29 37 57 69h92l-462 -458l256 -492h-107l-221 422l-424 -422h-57z" />
<glyph unicode="y" horiz-adv-x="1071" d="M-82 -279l70 66q20 -51 51 -87t69 -49q19 -7 41 -7q21 0 43 6q48 12 103 59t105.5 112.5t123.5 176.5l-243 948h104l215 -833q96 145 167 250.5t121 182.5t83 131t56.5 98t39.5 84t35 87h90q-186 -287 -321.5 -497.5t-233.5 -359t-167 -243t-125 -146.5t-105.5 -71.5 t-108.5 -19.5q-72 0 -128 34.5t-85 77.5z" />
<glyph unicode="z" horiz-adv-x="952" d="M80 0q4 4 42 46t96 106.5t131 145.5t149.5 165t149.5 165t129.5 143.5t91 101t36.5 40.5q-106 0 -174.5 1t-113 1h-72t-51.5 -2q-29 -4 -73 -9t-116 -17l12 63h754q-10 -10 -50 -55t-99.5 -110.5t-132 -146.5t-147.5 -163t-144.5 -159.5t-125 -138t-72.5 -79.5l-50 -57 h208h128t76.5 1t55 3t64.5 6t103 12l-13 -63h-792z" />
<glyph unicode="{" horiz-adv-x="518" d="M207 -8q-6 31 2 67l106 500q6 35 -27.5 63.5t-70.5 28.5l16 80q18 0 41 7t42.5 20.5t35 30t19.5 34.5l106 500q8 35 27.5 66.5t47.5 55t60.5 37t67.5 13.5h72l-19 -80h-71q-39 0 -69 -27.5t-38 -64.5l-106 -500q-10 -41 -37 -74.5t-64 -60.5q27 -23 40 -55.5t5 -73.5 l-106 -500q-10 -39 9 -66.5t58 -27.5h72l-16 -78h-72q-35 0 -62.5 13.5t-45 37t-23.5 54.5z" />
<glyph unicode="|" horiz-adv-x="260" d="M57 -113l342 1610h99l-342 -1610h-99z" />
<glyph unicode="}" horiz-adv-x="514" d="M55 -113l17 80h71q39 0 69 25.5t38 64.5l108 504q8 39 38 73t67 56q-27 25 -43.5 58.5t-5.5 74.5l106 504q8 37 -11.5 62.5t-57.5 25.5h-72l18 80h72q72 0 109.5 -48t21.5 -120l-106 -504q-8 -39 24.5 -65.5t69.5 -26.5l-17 -80q-18 0 -39.5 -8t-42 -20.5t-35 -28.5 t-16.5 -33l-108 -504q-14 -70 -72.5 -120t-130.5 -50h-72z" />
<glyph unicode="~" horiz-adv-x="1073" d="M164 494q14 14 41.5 33.5t64.5 38t82 32.5t97 16q57 -2 98 -16t72.5 -33.5t59.5 -43t58 -44.5q78 -51 174.5 -42t190.5 71l14 -12q-16 -14 -44 -36t-64.5 -41.5t-82.5 -33.5t-98 -14q-80 2 -128 29.5t-89 59t-85 58.5t-113 27q-80 2 -138.5 -18.5t-97.5 -45.5z" />
<glyph unicode="&#xa1;" horiz-adv-x="260" d="M84 0l256 1124h63l-223 -1124h-96zM346 1313q6 29 29.5 47t50.5 18q29 0 43 -18.5t8 -46.5q-6 -27 -28.5 -45.5t-51.5 -18.5q-27 0 -42 18.5t-9 45.5z" />
<glyph unicode="&#xa2;" horiz-adv-x="1030" d="M172 348q-8 119 38 223.5t125 184.5t181 129t207.5 59t203 -24.5t169.5 -122.5l-45 -78q-33 86 -100.5 132t-150.5 56.5t-171 -17.5t-163 -87.5t-125 -152.5t-56 -216q-6 -119 26.5 -200.5t89 -129t130 -59.5t148.5 7.5t144.5 70.5t116.5 133q16 -10 30.5 -21.5 t26.5 -19.5q-61 -68 -142 -121t-173 -78q-100 -25 -190.5 -11.5t-159 57.5t-111.5 118t-49 168zM440 -113l252 1190h99l-252 -1190h-99z" />
<glyph unicode="&#xa3;" horiz-adv-x="1054" d="M121 61q12 10 35.5 36t51.5 69t54.5 106.5t44.5 151.5l53 244h-143l16 75h144l51 240q18 88 62.5 164t111.5 129q66 53 141.5 77.5t153.5 24.5q57 0 109.5 -18.5t111.5 -69.5l-55 -59q-27 47 -68 83t-106 36q-68 0 -127.5 -31t-105.5 -81t-79.5 -116.5t-48.5 -138.5 l-51 -240h467l-16 -75h-467l-53 -244q-14 -68 -37 -130.5t-49.5 -113.5t-52 -88t-44.5 -55h418l283 45l-17 -82h-753z" />
<glyph unicode="&#xa5;" horiz-adv-x="1429" d="M375 219l18 80h766l-18 -80h-766zM375 1378h125l366 -868l396 479q76 94 128 167t87 122q39 57 63 100h102l-763 -921l-97 -457h-116l94 449zM416 424l18 80h766l-18 -80h-766z" />
<glyph unicode="&#xa7;" horiz-adv-x="1705" />
<glyph unicode="&#xa8;" horiz-adv-x="305" d="M246 1149q4 20 21.5 34.5t37.5 14.5t32.5 -14.5t8.5 -34.5q-4 -23 -23.5 -37t-39.5 -14t-30.5 14t-6.5 37zM449 1149q4 20 21.5 34.5t37.5 14.5t32.5 -14.5t8.5 -34.5q-4 -23 -23.5 -37t-40.5 -14q-20 0 -30.5 14t-5.5 37z" />
<glyph unicode="&#xa9;" horiz-adv-x="808" d="M137.5 1015.5q-14.5 61.5 1.5 133.5q14 70 54 132t96.5 108.5t124 73t139.5 26.5q70 0 126 -26.5t93 -73t50.5 -108.5t-1.5 -132q-16 -72 -56 -133.5t-95.5 -108.5t-124 -73.5t-137.5 -26.5q-72 0 -128.5 26.5t-92 73.5t-50 108.5zM181.5 1031.5q11.5 -56.5 43 -98.5 t81 -67.5t110.5 -25.5t120.5 25.5t108.5 67.5t85 98t48 118q12 61 1 116.5t-42.5 97.5t-80 67.5t-109.5 25.5t-120.5 -25.5t-110 -67.5t-86 -97.5t-48.5 -116.5q-12 -61 -0.5 -117.5zM305 1098q-4 72 36 128t99.5 84.5t123 22.5t104.5 -57l-17 -31q-18 43 -64 58.5t-95.5 2 t-88.5 -56t-45 -116.5q-4 -68 25 -103t70 -41t83 14.5t66 63.5q8 -4 13.5 -9t13.5 -11q-51 -59 -123 -78q-41 -10 -76 -5t-62.5 22.5t-44 46t-18.5 65.5z" />
<glyph unicode="&#xab;" horiz-adv-x="950" d="M209 598l20 104l535 275l-19 -82l-471 -246l369 -239l-18 -86zM522 598l21 104l534 275l-18 -82l-471 -246l368 -239l-18 -86z" />
<glyph unicode="&#xad;" horiz-adv-x="933" d="M209 614l18 80h772l-18 -80h-772z" />
<glyph unicode="&#xae;" horiz-adv-x="811" d="M136.5 1015.5q-13.5 61.5 0.5 133.5q14 70 55 132t97.5 108.5t124 73t139.5 26.5q70 0 126 -26.5t93 -73t49.5 -108.5t-2.5 -132q-14 -72 -54 -133.5t-95.5 -108.5t-124 -73.5t-137.5 -26.5q-72 0 -128.5 26.5t-93 73.5t-50 108.5zM179 1031.5q11 -56.5 43 -99.5 t81.5 -68.5t110.5 -25.5t120.5 25.5t108.5 67.5t85 98t48 118q12 61 1 116.5t-43 98.5t-80 68.5t-109 25.5t-120.5 -25.5t-110 -67.5t-86 -97.5t-48.5 -116.5q-12 -61 -1 -117.5zM317 983l76 356h82q61 0 94 -3t58 -17q23 -14 33 -35.5t4 -48.5q-8 -41 -46.5 -70.5 t-85.5 -31.5q39 -20 60.5 -59.5t17.5 -90.5h-41q0 55 -21.5 98t-78.5 52h-74l-33 -150h-45zM399 1151h97q109 0 125 82q14 49 -29 72q-12 6 -22.5 9t-26 3h-41h-68.5z" />
<glyph unicode="&#xb0;" horiz-adv-x="487" d="M156 451q16 68 73.5 114.5t124.5 46.5q68 0 107 -47t22 -114q-6 -35 -25.5 -65t-47 -51.5t-60 -34.5t-65.5 -13q-68 0 -106 48t-23 116zM203 451q-10 -47 17.5 -82t74.5 -35t89 34.5t52 82.5q10 47 -17.5 81.5t-74.5 34.5t-89 -34.5t-52 -81.5z" />
<glyph unicode="&#xb2;" horiz-adv-x="497" d="M211 1083l4 13q6 33 43 63q41 31 90 54.5t95 51t83 64.5t54 92q16 59 -12.5 97t-86.5 38q-39 0 -83 -26.5t-72 -73.5q-4 4 -10.5 8t-14.5 9q39 53 90 75.5t98 20.5q72 0 111 -47t12 -123q-18 -55 -55 -93t-86 -67q-35 -18 -70.5 -35.5t-66.5 -34t-53.5 -34t-28.5 -35.5 h207l92 12l-6 -29h-334z" />
<glyph unicode="&#xb3;" horiz-adv-x="534" d="M328 1169q10 4 17 8.5t17 10.5q6 -37 31 -58q25 -25 66 -31.5t82 3.5q45 12 81.5 44t49.5 85q12 59 -28 96t-124 27l4 16q25 0 63 4t68 27q27 23 36 49.5t3 50t-26.5 38.5t-57.5 15q-41 -4 -77.5 -19t-71.5 -50l-15 20q35 33 79 47.5t87 14.5h31.5t30.5 -4q39 -10 55 -39 t10 -58q-8 -33 -36 -61.5t-87 -38.5q47 -12 72 -37.5t30 -58.5t-8.5 -68t-43.5 -61q-37 -33 -88.5 -47.5t-100.5 -10.5t-90 25.5t-59 60.5z" />
<glyph unicode="&#xb4;" horiz-adv-x="286" d="M242 1143l270 164l33 -78l-287 -127z" />
<glyph unicode="&#xb7;" horiz-adv-x="262" d="M94 436q4 27 26.5 45.5t51.5 18.5q27 0 42 -18.5t11 -45.5q-6 -29 -29.5 -47t-50.5 -18q-29 0 -43 18.5t-8 46.5z" />
<glyph unicode="&#xb8;" horiz-adv-x="161" d="M-37 -217l10 47l62 -16q14 -4 27.5 3t22.5 19t14 25.5t5 23.5t-5 20.5t-17 15.5t-28.5 4t-37.5 -11l-20 23l94 88l21 -21l-45 -45q35 -2 55 -27.5t12 -60.5t-39.5 -61.5t-66.5 -26.5h-64z" />
<glyph unicode="&#xb9;" horiz-adv-x="163" d="M293 1083l94 443q2 8 2 18q0 4 -2 6l47 23l-104 -490h-37z" />
<glyph unicode="&#xba;" horiz-adv-x="491" d="M156 457q16 68 73.5 114.5t124.5 46.5q68 0 107 -47t22 -114q-6 -35 -25.5 -65t-47 -51.5t-60 -34.5t-65.5 -13q-68 0 -106 48t-23 116zM203 457q-10 -47 17.5 -82t74.5 -35t89 35t52 82t-17.5 81.5t-74.5 34.5t-89 -34.5t-52 -81.5z" />
<glyph unicode="&#xbb;" horiz-adv-x="948" d="M150 324l18 82l471 245l-369 240l19 86l416 -275l-21 -104zM463 324l18 82l471 245l-368 240l18 86l416 -275l-21 -104z" />
<glyph unicode="&#xbc;" horiz-adv-x="1626" d="M252 616q38 185 69 332q13 63 26 124t23 110t17 80.5t8 35.5q3 19 1 29q-1 4 -2 9l71 36l-159 -756h-54zM307 0l1047 1380h102l-1046 -1380h-103zM876 120l588 646h57l-130 -616h8l123 12l-9 -43h-129l-25 -121h-58l25 121zM940 150h394l120 565z" />
<glyph unicode="&#xbd;" horiz-adv-x="1654" d="M248 614q40 186 72 334q14 64 27 125t23.5 110t17.5 81t8 36q3 18 1 28l-2 10l73 36l-163 -760h-57zM307 0l1047 1380h102l-1046 -1380h-103zM993 2l4 19q5 30 23.5 53t44.5 44q42 32 91.5 59.5t100 53.5t99.5 54.5t90.5 64t73.5 80.5t49 104q14 47 8 86.5t-27 67.5 t-56 43.5t-79 15.5q-30 0 -63.5 -10.5t-66.5 -31t-61.5 -50t-50.5 -65.5q-9 5 -17.5 11t-23.5 12q30 43 67 71.5t76 47.5t78 27t75 8q57 0 102.5 -20t72.5 -55t33.5 -85t-14.5 -108q-30 -90 -88.5 -148.5t-138.5 -104.5q-51 -29 -106.5 -55t-103.5 -52.5t-83 -53t-46 -57.5 h328l143 19l-9 -45h-525z" />
<glyph unicode="&#xbe;" horiz-adv-x="1886" d="M94 756q11 5 26.5 13t24.5 14q20 -53 59.5 -89t92.5 -49q50 -13 103.5 -4.5t101.5 35.5t84 71.5t51 104.5q10 48 -1 87t-42 65t-80.5 38.5t-115.5 5.5l6 24q19 -1 44 -1t52.5 5.5t56 16t54.5 30.5q43 35 59 77.5t6 79.5t-45 61t-92 22q-65 -2 -121 -27.5t-114 -81.5 l-26 29q55 47 123.5 72.5t142.5 25.5q53 0 93 -10q62 -16 87.5 -58t16.5 -89q-5 -24 -17.5 -48t-35 -45.5t-56.5 -38.5t-82 -26q72 -19 111 -60t47 -92t-14.5 -104t-69.5 -95q-40 -35 -89 -58t-101.5 -32t-105 -5t-99 20t-82 44.5t-53.5 71.5zM555 0l1047 1380h102 l-1046 -1380h-103zM1114 122l584 642h57l-129 -613h9l121 12l-9 -43h-128l-25 -120h-57l25 120zM1178 151h391l119 562z" />
<glyph unicode="&#xbf;" horiz-adv-x="1067" d="M162 377q20 102 71.5 176t119 131t145 101t149.5 89q78 45 133.5 100.5t65.5 149.5h61q-10 -66 -52 -127t-105 -110q-80 -61 -154 -110.5t-135.5 -101.5t-107.5 -112.5t-70 -142.5q-18 -68 -12.5 -131.5t35.5 -115.5t82 -88t124 -44q125 -16 256 51.5t225 198.5l51 -35 q-74 -102 -171 -159.5t-195 -79t-189.5 -13.5t-152.5 37q-102 47 -149.5 138.5t-24.5 197.5zM844 1311q4 29 27.5 47t50.5 18q29 0 43 -18.5t10 -46.5q-6 -27 -28.5 -45.5t-51.5 -18.5q-27 0 -42 18.5t-9 45.5z" />
<glyph unicode="&#xc0;" d="M102 0l863 1376h127l278 -1376h-102q0 45 -6 111q-4 55 -14.5 136t-26.5 189h-719l-273 -436h-127zM524 473h690l-159 846zM852 1641l66 78l200 -164l-33 -41z" />
<glyph unicode="&#xc1;" d="M102 0l863 1376h127l278 -1376h-102q0 45 -6 111q-4 55 -14.5 136t-26.5 189h-719l-273 -436h-127zM524 473h690l-159 846zM834 1553l270 164l33 -78l-287 -127z" />
<glyph unicode="&#xc2;" d="M102 0l863 1376h127l278 -1376h-102q0 45 -6 111q-4 55 -14.5 136t-26.5 189h-719l-273 -436h-127zM524 473h690l-159 846zM811 1512l174 211h55l84 -211h-49l-76 151l-137 -151h-51z" />
<glyph unicode="&#xc3;" d="M102 0l863 1376h127l278 -1376h-102q0 45 -6 111q-4 55 -14.5 136t-26.5 189h-719l-273 -436h-127zM524 473h690l-159 846zM762 1567q6 10 21.5 27.5t33.5 29.5q37 25 66 30t53.5 -3t48 -25.5t49.5 -35.5q37 -29 78 -27t82 41l10 -6q-16 -18 -51 -49t-82 -35 q-37 0 -59.5 12t-42 27.5t-41 29t-53.5 13.5q-37 0 -62.5 -9.5t-42.5 -25.5z" />
<glyph unicode="&#xc4;" d="M102 0l863 1376h127l278 -1376h-102q0 45 -6 111q-4 55 -14.5 136t-26.5 189h-719l-273 -436h-127zM524 473h690l-159 846zM828 1559q4 20 21.5 34.5t37.5 14.5t32.5 -14.5t8.5 -34.5q-4 -23 -23.5 -37t-39.5 -14t-30.5 14t-6.5 37zM1031 1559q4 20 21.5 34.5t37.5 14.5 t32.5 -14.5t8.5 -34.5q-4 -23 -23.5 -37t-40.5 -14q-20 0 -30.5 14t-5.5 37z" />
<glyph unicode="&#xc5;" d="M102 0l863 1376h127l278 -1376h-102q0 45 -6 111q-4 55 -14.5 136t-26.5 189h-719l-273 -436h-127zM524 473h690l-159 846zM876 1635q10 47 51 81.5t90 34.5t77 -34.5t18 -81.5q-10 -51 -53.5 -86t-92.5 -35t-74.5 35t-15.5 86zM921 1635q-8 -31 9.5 -52.5t45.5 -21.5 q31 0 55.5 21.5t33.5 52.5q6 29 -10.5 50t-47.5 21q-29 0 -54.5 -21.5t-31.5 -49.5z" />
<glyph unicode="&#xc6;" horiz-adv-x="1921" d="M98 0l987 1378h1029l-23 -100q-68 18 -133 33q-55 12 -116.5 22t-108.5 10h-439l-118 -561h565l-8 -37h-566l-151 -712h438q47 0 111.5 10t126.5 25q70 14 147 34l-20 -102h-926l92 436h-450l-310 -436h-127zM559 473h434l185 868z" />
<glyph unicode="&#xc7;" horiz-adv-x="1425" d="M231 498q-8 168 50.5 314t161 259t236.5 188.5t276.5 101t279.5 -3t248 -122.5l-43 -86q-68 100 -165 150.5t-204.5 50.5t-217.5 -46.5t-204 -136.5q-102 -90 -168.5 -202.5t-97.5 -229.5t-24.5 -229.5t49.5 -200.5q43 -90 101 -146.5t124.5 -85t137.5 -34.5t136.5 4 t122.5 30.5t98 45.5q61 35 111.5 84t85.5 92q12 -16 24.5 -30.5t24.5 -26.5q-152 -125 -301 -181.5t-287 -58.5l-41 -41q35 -2 55.5 -27.5t12.5 -60.5t-40 -61.5t-66 -26.5h-66l10 47l64 -16q14 -4 27.5 3t21.5 19t13 25.5t5 23.5t-5 20.5t-17 15.5t-28.5 4t-37.5 -11 l-20 22l71 64q-106 6 -197 45t-160 103.5t-109.5 153.5t-47.5 198z" />
<glyph unicode="&#xc8;" horiz-adv-x="1130" d="M102 0l293 1378h928l-23 -100q-68 18 -133 33q-55 12 -116.5 22t-108.5 10h-438l-119 -561h565l-8 -37h-565l-152 -712h439q47 0 111.5 10t125.5 25q70 14 148 34l-21 -102h-926zM682 1641l66 78l200 -164l-33 -41z" />
<glyph unicode="&#xc9;" horiz-adv-x="1130" d="M102 0l293 1378h928l-23 -100q-68 18 -133 33q-55 12 -116.5 22t-108.5 10h-438l-119 -561h565l-8 -37h-565l-152 -712h439q47 0 111.5 10t125.5 25q70 14 148 34l-21 -102h-926zM664 1553l270 164l33 -78l-287 -127z" />
<glyph unicode="&#xca;" horiz-adv-x="1130" d="M102 0l293 1378h928l-23 -100q-68 18 -133 33q-55 12 -116.5 22t-108.5 10h-438l-119 -561h565l-8 -37h-565l-152 -712h439q47 0 111.5 10t125.5 25q70 14 148 34l-21 -102h-926zM641 1512l174 211h55l84 -211h-49l-76 151l-137 -151h-51z" />
<glyph unicode="&#xcb;" horiz-adv-x="1130" d="M102 0l293 1378h928l-23 -100q-68 18 -133 33q-55 12 -116.5 22t-108.5 10h-438l-119 -561h565l-8 -37h-565l-152 -712h439q47 0 111.5 10t125.5 25q70 14 148 34l-21 -102h-926zM658 1559q4 20 21.5 34.5t37.5 14.5t32.5 -14.5t8.5 -34.5q-4 -23 -23.5 -37t-39.5 -14 t-30.5 14t-6.5 37zM861 1559q4 20 21.5 34.5t37.5 14.5t32.5 -14.5t8.5 -34.5q-4 -23 -23.5 -37t-40.5 -14q-20 0 -30.5 14t-5.5 37z" />
<glyph unicode="&#xcc;" horiz-adv-x="321" d="M102 0l293 1378h117l-293 -1378h-117zM279 1641l66 78l200 -164l-33 -41z" />
<glyph unicode="&#xcd;" horiz-adv-x="321" d="M102 0l293 1378h117l-293 -1378h-117zM260 1553l270 164l33 -78l-287 -127z" />
<glyph unicode="&#xce;" horiz-adv-x="321" d="M102 0l293 1378h117l-293 -1378h-117zM238 1512l174 211h55l84 -211h-49l-76 151l-137 -151h-51z" />
<glyph unicode="&#xcf;" horiz-adv-x="321" d="M102 0l293 1378h117l-293 -1378h-117zM252 1559q4 20 21.5 34.5t37.5 14.5t32.5 -14.5t8.5 -34.5q-4 -23 -23.5 -37t-39.5 -14t-30.5 14t-6.5 37zM455 1559q4 20 21.5 34.5t37.5 14.5t32.5 -14.5t8.5 -34.5q-4 -23 -23.5 -37t-40.5 -14q-20 0 -30.5 14t-5.5 37z" />
<glyph unicode="&#xd0;" horiz-adv-x="1314" d="M102 2l138 649h-123l16 80h123l139 649q131 0 234.5 1t181.5 -1q117 -2 201 -23.5t140 -51t90 -61t52 -54.5q76 -102 86.5 -240.5t-24.5 -281.5q-39 -158 -107.5 -275t-167.5 -200q-27 -23 -73.5 -55t-116.5 -61.5t-162 -51t-211 -23.5h-106.5h-113.5h-107.5h-88.5z M229 37h271q174 0 302 54t215 145.5t140 209t82 246.5q27 127 24 245t-52.5 209t-154 145.5t-278.5 54.5h-270l-131 -615h119l-17 -80h-119z" />
<glyph unicode="&#xd1;" horiz-adv-x="1230" d="M102 0l293 1378h45l688 -1155l170 801l58 354h65l-293 -1378h-28l-699 1180l-163 -766l-70 -414h-66zM643 1567q6 10 21.5 27.5t33.5 29.5q37 25 66 30t53.5 -3t48 -25.5t49.5 -35.5q37 -29 78 -27t82 41l10 -6q-16 -18 -51 -49t-82 -35q-37 0 -59.5 12t-42 27.5t-41 29 t-53.5 13.5q-37 0 -62.5 -9.5t-42.5 -25.5z" />
<glyph unicode="&#xd2;" horiz-adv-x="1583" d="M244.5 420q-27.5 125 3.5 268t110.5 268t193.5 218.5t251 147.5t280 54q141 0 255 -54t187.5 -147.5t102.5 -218.5t-2 -268t-111.5 -268t-193.5 -218t-250 -147.5t-278 -54.5q-143 0 -258 54.5t-189 147.5t-101.5 218zM362.5 721q-22.5 -127 4.5 -252q25 -127 92 -220 t161.5 -145.5t208 -59.5t232.5 40q119 45 213 132t154.5 199.5t83 239.5t-4.5 252t-94 218.5t-161.5 145.5t-208 59t-230.5 -38q-119 -45 -213 -132t-154.5 -199.5t-83 -239.5zM909 1641l66 78l200 -164l-33 -41z" />
<glyph unicode="&#xd3;" horiz-adv-x="1583" d="M244.5 420q-27.5 125 3.5 268t110.5 268t193.5 218.5t251 147.5t280 54q141 0 255 -54t187.5 -147.5t102.5 -218.5t-2 -268t-111.5 -268t-193.5 -218t-250 -147.5t-278 -54.5q-143 0 -258 54.5t-189 147.5t-101.5 218zM362.5 721q-22.5 -127 4.5 -252q25 -127 92 -220 t161.5 -145.5t208 -59.5t232.5 40q119 45 213 132t154.5 199.5t83 239.5t-4.5 252t-94 218.5t-161.5 145.5t-208 59t-230.5 -38q-119 -45 -213 -132t-154.5 -199.5t-83 -239.5zM891 1553l270 164l33 -78l-287 -127z" />
<glyph unicode="&#xd4;" horiz-adv-x="1583" d="M244.5 420q-27.5 125 3.5 268t110.5 268t193.5 218.5t251 147.5t280 54q141 0 255 -54t187.5 -147.5t102.5 -218.5t-2 -268t-111.5 -268t-193.5 -218t-250 -147.5t-278 -54.5q-143 0 -258 54.5t-189 147.5t-101.5 218zM362.5 721q-22.5 -127 4.5 -252q25 -127 92 -220 t161.5 -145.5t208 -59.5t232.5 40q119 45 213 132t154.5 199.5t83 239.5t-4.5 252t-94 218.5t-161.5 145.5t-208 59t-230.5 -38q-119 -45 -213 -132t-154.5 -199.5t-83 -239.5zM869 1512l174 211h55l84 -211h-49l-76 151l-137 -151h-51z" />
<glyph unicode="&#xd5;" horiz-adv-x="1583" d="M244.5 420q-27.5 125 3.5 268t110.5 268t193.5 218.5t251 147.5t280 54q141 0 255 -54t187.5 -147.5t102.5 -218.5t-2 -268t-111.5 -268t-193.5 -218t-250 -147.5t-278 -54.5q-143 0 -258 54.5t-189 147.5t-101.5 218zM362.5 721q-22.5 -127 4.5 -252q25 -127 92 -220 t161.5 -145.5t208 -59.5t232.5 40q119 45 213 132t154.5 199.5t83 239.5t-4.5 252t-94 218.5t-161.5 145.5t-208 59t-230.5 -38q-119 -45 -213 -132t-154.5 -199.5t-83 -239.5zM819 1567q6 10 21.5 27.5t33.5 29.5q37 25 66 30t53.5 -3t48 -25.5t49.5 -35.5q37 -29 78 -27 t82 41l10 -6q-16 -18 -51 -49t-82 -35q-37 0 -59.5 12t-42 27.5t-41 29t-53.5 13.5q-37 0 -62.5 -9.5t-42.5 -25.5z" />
<glyph unicode="&#xd6;" horiz-adv-x="1583" d="M244.5 420q-27.5 125 3.5 268t110.5 268t193.5 218.5t251 147.5t280 54q141 0 255 -54t187.5 -147.5t102.5 -218.5t-2 -268t-111.5 -268t-193.5 -218t-250 -147.5t-278 -54.5q-143 0 -258 54.5t-189 147.5t-101.5 218zM362.5 721q-22.5 -127 4.5 -252q25 -127 92 -220 t161.5 -145.5t208 -59.5t232.5 40q119 45 213 132t154.5 199.5t83 239.5t-4.5 252t-94 218.5t-161.5 145.5t-208 59t-230.5 -38q-119 -45 -213 -132t-154.5 -199.5t-83 -239.5zM883 1559q4 20 21.5 34.5t37.5 14.5t32.5 -14.5t8.5 -34.5q-4 -23 -23.5 -37t-39.5 -14 t-30.5 14t-6.5 37zM1086 1559q4 20 21.5 34.5t37.5 14.5t32.5 -14.5t8.5 -34.5q-4 -23 -23.5 -37t-40.5 -14q-20 0 -30.5 14t-5.5 37z" />
<glyph unicode="&#xd7;" horiz-adv-x="731" d="M139 408l299 245l-192 246l69 55l191 -243l297 243l43 -55l-295 -244l192 -245l-67 -58l-195 246l-299 -246z" />
<glyph unicode="&#xd8;" horiz-adv-x="1583" d="M244.5 420q-27.5 125 3.5 268t110.5 268t193.5 218.5t251 147.5t280 54q141 0 255 -54t187.5 -147.5t102.5 -218.5t-2 -268t-111.5 -268t-193.5 -218t-250 -147.5t-278 -54.5q-143 0 -258 54.5t-189 147.5t-101.5 218zM362 0l1047 1380h102l-1046 -1380h-103zM362.5 721 q-22.5 -127 4.5 -252q25 -127 92 -220t161.5 -145.5t208 -59.5t232.5 40q119 45 213 132t154.5 199.5t83 239.5t-4.5 252t-94 218.5t-161.5 145.5t-208 59t-230.5 -38q-119 -45 -213 -132t-154.5 -199.5t-83 -239.5z" />
<glyph unicode="&#xd9;" horiz-adv-x="1261" d="M213 524l182 854h117l-184 -866q-23 -104 -13.5 -192.5t49 -151t108.5 -97t165 -34.5q104 0 191 36t154 99.5t112 150.5t67 189l182 866h115q-49 -233 -84 -394t-58.5 -269.5t-39.5 -173t-29.5 -105.5t-27 -68.5t-31.5 -60.5q-63 -115 -169 -187.5t-225.5 -101 t-238.5 -12t-206 78.5t-129 171.5t-7 267.5zM748 1641l66 78l200 -164l-33 -41z" />
<glyph unicode="&#xda;" horiz-adv-x="1261" d="M213 524l182 854h117l-184 -866q-23 -104 -13.5 -192.5t49 -151t108.5 -97t165 -34.5q104 0 191 36t154 99.5t112 150.5t67 189l182 866h115q-49 -233 -84 -394t-58.5 -269.5t-39.5 -173t-29.5 -105.5t-27 -68.5t-31.5 -60.5q-63 -115 -169 -187.5t-225.5 -101 t-238.5 -12t-206 78.5t-129 171.5t-7 267.5zM729 1553l270 164l33 -78l-287 -127z" />
<glyph unicode="&#xdb;" horiz-adv-x="1261" d="M213 524l182 854h117l-184 -866q-23 -104 -13.5 -192.5t49 -151t108.5 -97t165 -34.5q104 0 191 36t154 99.5t112 150.5t67 189l182 866h115q-49 -233 -84 -394t-58.5 -269.5t-39.5 -173t-29.5 -105.5t-27 -68.5t-31.5 -60.5q-63 -115 -169 -187.5t-225.5 -101 t-238.5 -12t-206 78.5t-129 171.5t-7 267.5zM707 1512l174 211h55l84 -211h-49l-76 151l-137 -151h-51z" />
<glyph unicode="&#xdc;" horiz-adv-x="1261" d="M213 524l182 854h117l-184 -866q-23 -104 -13.5 -192.5t49 -151t108.5 -97t165 -34.5q104 0 191 36t154 99.5t112 150.5t67 189l182 866h115q-49 -233 -84 -394t-58.5 -269.5t-39.5 -173t-29.5 -105.5t-27 -68.5t-31.5 -60.5q-63 -115 -169 -187.5t-225.5 -101 t-238.5 -12t-206 78.5t-129 171.5t-7 267.5zM723 1559q4 20 21.5 34.5t37.5 14.5t32.5 -14.5t8.5 -34.5q-4 -23 -23.5 -37t-39.5 -14t-30.5 14t-6.5 37zM926 1559q4 20 21.5 34.5t37.5 14.5t32.5 -14.5t8.5 -34.5q-4 -23 -23.5 -37t-40.5 -14q-20 0 -30.5 14t-5.5 37z" />
<glyph unicode="&#xdd;" horiz-adv-x="1466" d="M389 1378h125l367 -868l395 479q76 94 128 167t87 122q39 57 63 100h103l-764 -921l-96 -457h-117l94 449zM832 1553l270 164l33 -78l-287 -127z" />
<glyph unicode="&#xde;" horiz-adv-x="1058" d="M-6 -424l381 1802h102l-119 -557q72 59 161 92t179 37q100 4 180 -29.5t131.5 -96t70.5 -147.5t1 -183t-71.5 -185.5t-130 -153t-170 -105.5t-189.5 -44q-98 -4 -177 32t-130 99l-119 -561h-100zM233 238q14 -39 42 -74t66 -61.5t84 -43t95 -16.5q78 0 149.5 35t132 96.5 t103.5 144t62 181.5q20 100 5.5 178t-54 130t-101 77.5t-137.5 23.5q-84 -4 -176 -49t-164 -121z" />
<glyph unicode="&#xdf;" horiz-adv-x="1083" d="M45 -252l268 1256q16 76 54.5 142t93.5 117.5t126.5 81t155.5 33.5q80 2 152 -14t123 -54t73.5 -98.5t4.5 -144.5q-16 -82 -72.5 -150.5t-138.5 -115.5q61 -16 107 -52t73 -89.5t33 -119t-13 -139.5q-25 -100 -79 -178t-125.5 -129t-155.5 -75.5t-172 -18.5 q-174 10 -262 117l59 51q12 -20 34 -44t49.5 -44.5t61 -34.5t70.5 -16q76 -2 141.5 24.5t119 75.5t91 115.5t56.5 144.5q18 72 8 143.5t-44 128t-89 91t-129 34.5l-135 -2l6 39q55 2 87 2h50t29.5 1t23.5 3q45 8 79 31t58.5 55.5t40 71.5t23.5 80q14 63 8 109.5t-26 78.5 q-47 72 -128 87.5t-164 -15.5t-150.5 -100.5t-88.5 -165.5l-280 -1313h-107z" />
<glyph unicode="&#xe0;" horiz-adv-x="1024" d="M162 395q14 84 62 159t117 131t153 91t174 37t166.5 -33t121.5 -96q6 27 12.5 52.5t10.5 54.5q10 55 -1 87.5t-38 48t-65.5 14.5t-81.5 -9l28 57q47 0 99.5 -14t83.5 -39q92 -72 57 -236q-29 -141 -60.5 -274t-54.5 -225q-14 -66 -8 -114t10 -60q-16 -6 -32.5 -12.5 t-36.5 -14.5q-10 16 -22.5 53t-10.5 78q-70 -59 -154 -93t-176 -38q-90 -2 -161.5 27.5t-120 83t-69 127t-3.5 157.5zM274 246.5q11 -70.5 42.5 -119.5t84.5 -74.5t125 -19.5q45 4 93.5 19.5t91.5 40t80.5 55t66.5 65.5q12 78 34.5 179.5t51.5 230.5q-37 72 -111.5 112.5 t-156.5 36.5q-70 -2 -134.5 -27.5t-117.5 -73.5t-92 -116t-53 -154q-16 -84 -5 -154.5zM629 1231l66 78l200 -164l-33 -41z" />
<glyph unicode="&#xe1;" horiz-adv-x="1024" d="M162 395q14 84 62 159t117 131t153 91t174 37t166.5 -33t121.5 -96q6 27 12.5 52.5t10.5 54.5q10 55 -1 87.5t-38 48t-65.5 14.5t-81.5 -9l28 57q47 0 99.5 -14t83.5 -39q92 -72 57 -236q-29 -141 -60.5 -274t-54.5 -225q-14 -66 -8 -114t10 -60q-16 -6 -32.5 -12.5 t-36.5 -14.5q-10 16 -22.5 53t-10.5 78q-70 -59 -154 -93t-176 -38q-90 -2 -161.5 27.5t-120 83t-69 127t-3.5 157.5zM274 246.5q11 -70.5 42.5 -119.5t84.5 -74.5t125 -19.5q45 4 93.5 19.5t91.5 40t80.5 55t66.5 65.5q12 78 34.5 179.5t51.5 230.5q-37 72 -111.5 112.5 t-156.5 36.5q-70 -2 -134.5 -27.5t-117.5 -73.5t-92 -116t-53 -154q-16 -84 -5 -154.5zM611 1143l270 164l33 -78l-287 -127z" />
<glyph unicode="&#xe2;" horiz-adv-x="1024" d="M162 395q14 84 62 159t117 131t153 91t174 37t166.5 -33t121.5 -96q6 27 12.5 52.5t10.5 54.5q10 55 -1 87.5t-38 48t-65.5 14.5t-81.5 -9l28 57q47 0 99.5 -14t83.5 -39q92 -72 57 -236q-29 -141 -60.5 -274t-54.5 -225q-14 -66 -8 -114t10 -60q-16 -6 -32.5 -12.5 t-36.5 -14.5q-10 16 -22.5 53t-10.5 78q-70 -59 -154 -93t-176 -38q-90 -2 -161.5 27.5t-120 83t-69 127t-3.5 157.5zM274 246.5q11 -70.5 42.5 -119.5t84.5 -74.5t125 -19.5q45 4 93.5 19.5t91.5 40t80.5 55t66.5 65.5q12 78 34.5 179.5t51.5 230.5q-37 72 -111.5 112.5 t-156.5 36.5q-70 -2 -134.5 -27.5t-117.5 -73.5t-92 -116t-53 -154q-16 -84 -5 -154.5zM588 1102l174 211h55l84 -211h-49l-76 151l-137 -151h-51z" />
<glyph unicode="&#xe3;" horiz-adv-x="1024" d="M162 395q14 84 62 159t117 131t153 91t174 37t166.5 -33t121.5 -96q6 27 12.5 52.5t10.5 54.5q10 55 -1 87.5t-38 48t-65.5 14.5t-81.5 -9l28 57q47 0 99.5 -14t83.5 -39q92 -72 57 -236q-29 -141 -60.5 -274t-54.5 -225q-14 -66 -8 -114t10 -60q-16 -6 -32.5 -12.5 t-36.5 -14.5q-10 16 -22.5 53t-10.5 78q-70 -59 -154 -93t-176 -38q-90 -2 -161.5 27.5t-120 83t-69 127t-3.5 157.5zM274 246.5q11 -70.5 42.5 -119.5t84.5 -74.5t125 -19.5q45 4 93.5 19.5t91.5 40t80.5 55t66.5 65.5q12 78 34.5 179.5t51.5 230.5q-37 72 -111.5 112.5 t-156.5 36.5q-70 -2 -134.5 -27.5t-117.5 -73.5t-92 -116t-53 -154q-16 -84 -5 -154.5zM539 1157q6 10 21.5 27.5t33.5 29.5q37 25 66 30t53.5 -3t48 -25.5t49.5 -35.5q37 -29 78 -27t82 41l10 -6q-16 -18 -51 -49t-82 -35q-37 0 -59.5 12t-42 27.5t-41 29t-53.5 13.5 q-37 0 -62.5 -9.5t-42.5 -25.5z" />
<glyph unicode="&#xe4;" horiz-adv-x="1024" d="M162 395q14 84 62 159t117 131t153 91t174 37t166.5 -33t121.5 -96q6 27 12.5 52.5t10.5 54.5q10 55 -1 87.5t-38 48t-65.5 14.5t-81.5 -9l28 57q47 0 99.5 -14t83.5 -39q92 -72 57 -236q-29 -141 -60.5 -274t-54.5 -225q-14 -66 -8 -114t10 -60q-16 -6 -32.5 -12.5 t-36.5 -14.5q-10 16 -22.5 53t-10.5 78q-70 -59 -154 -93t-176 -38q-90 -2 -161.5 27.5t-120 83t-69 127t-3.5 157.5zM274 246.5q11 -70.5 42.5 -119.5t84.5 -74.5t125 -19.5q45 4 93.5 19.5t91.5 40t80.5 55t66.5 65.5q12 78 34.5 179.5t51.5 230.5q-37 72 -111.5 112.5 t-156.5 36.5q-70 -2 -134.5 -27.5t-117.5 -73.5t-92 -116t-53 -154q-16 -84 -5 -154.5zM604 1149q4 20 21.5 34.5t37.5 14.5t32.5 -14.5t8.5 -34.5q-4 -23 -23.5 -37t-39.5 -14t-30.5 14t-6.5 37zM807 1149q4 20 21.5 34.5t37.5 14.5t32.5 -14.5t8.5 -34.5q-4 -23 -23.5 -37 t-40.5 -14q-20 0 -30.5 14t-5.5 37z" />
<glyph unicode="&#xe5;" horiz-adv-x="1024" d="M162 395q14 84 62 159t117 131t153 91t174 37t166.5 -33t121.5 -96q6 27 12.5 52.5t10.5 54.5q10 55 -1 87.5t-38 48t-65.5 14.5t-81.5 -9l28 57q47 0 99.5 -14t83.5 -39q92 -72 57 -236q-29 -141 -60.5 -274t-54.5 -225q-14 -66 -8 -114t10 -60q-16 -6 -32.5 -12.5 t-36.5 -14.5q-10 16 -22.5 53t-10.5 78q-70 -59 -154 -93t-176 -38q-90 -2 -161.5 27.5t-120 83t-69 127t-3.5 157.5zM274 246.5q11 -70.5 42.5 -119.5t84.5 -74.5t125 -19.5q45 4 93.5 19.5t91.5 40t80.5 55t66.5 65.5q12 78 34.5 179.5t51.5 230.5q-37 72 -111.5 112.5 t-156.5 36.5q-70 -2 -134.5 -27.5t-117.5 -73.5t-92 -116t-53 -154q-16 -84 -5 -154.5zM653 1225q10 47 51 81.5t90 34.5t77 -34.5t18 -81.5q-10 -51 -53.5 -86t-92.5 -35t-74.5 35t-15.5 86zM698 1225q-8 -31 9.5 -52.5t45.5 -21.5q31 0 55.5 21.5t33.5 52.5q6 29 -10.5 50 t-47.5 21q-29 0 -54.5 -21.5t-31.5 -49.5z" />
<glyph unicode="&#xe6;" horiz-adv-x="1861" d="M228 393q14 84 62 159t117 131t153 91t174 37t166.5 -33t121.5 -96q6 27 12.5 52.5t10.5 54.5q10 55 -1 87.5t-38 48t-65.5 14.5t-81.5 -9l28 57q47 0 99.5 -14t83.5 -39q92 -72 57 -236q-29 -141 -60.5 -274t-54.5 -225q-14 -66 -8 -114t10 -60q-16 -6 -32.5 -12.5 t-36.5 -14.5q-10 16 -22.5 53t-10.5 78q-70 -59 -154 -93t-176 -38q-90 -2 -161.5 27.5t-120 83t-69 127t-3.5 157.5zM340 244.5q11 -70.5 42.5 -119.5t84.5 -74.5t125 -19.5q45 4 93.5 19.5t91.5 40t80.5 55t66.5 65.5q12 78 34.5 179.5t51.5 230.5q-37 72 -111.5 112.5 t-156.5 36.5q-70 -2 -134.5 -27.5t-117.5 -73.5t-92 -116t-53 -154q-16 -84 -5 -154.5zM971 346q-8 139 51.5 255t155.5 196t213 117.5t224.5 23.5t190 -87t109.5 -216l-819 -334q29 -137 110.5 -199.5t181 -62.5t197 57.5t156.5 159.5q16 -10 30.5 -21.5t26.5 -19.5 q-76 -86 -165 -136t-179 -67.5t-175 -4.5t-151.5 57.5t-108.5 115t-48 166.5zM1086 358.5q0 -8.5 2 -18.5l735 305q-25 119 -91.5 181.5t-151.5 75.5t-175 -19.5t-163.5 -101t-119 -172t-36.5 -232.5v-18.5z" />
<glyph unicode="&#xe7;" horiz-adv-x="1030" d="M172 348q-8 119 38 223.5t125 184.5t181 129t207.5 59t203 -24.5t169.5 -122.5l-45 -78q-33 86 -100.5 132t-150.5 56.5t-171 -17.5t-163 -87.5t-125 -152.5t-56 -216q-6 -119 26.5 -200.5t89 -129t130 -59.5t148.5 7.5t144.5 70.5t116.5 133q16 -10 30.5 -21.5 t26.5 -19.5q-61 -68 -142 -121t-173 -78q-35 -10 -66.5 -13t-62.5 -3l-33 -33q35 -2 55.5 -27.5t12.5 -60.5t-40 -61.5t-67 -26.5h-65l10 47l63 -16q14 -4 27.5 3t22 19.5t13.5 25.5t5 24q0 10 -5 20t-17.5 15t-29 4t-36.5 -11l-20 23l61 57q-141 14 -235.5 106.5 t-102.5 239.5z" />
<glyph unicode="&#xe8;" horiz-adv-x="1060" d="M170 346q-8 139 51.5 255t155.5 196t213 117.5t224.5 23.5t190 -87t109.5 -216l-819 -334q29 -137 110.5 -199.5t181 -62.5t197 57.5t156.5 159.5q16 -10 30.5 -21.5t26.5 -19.5q-76 -86 -165 -136t-179 -67.5t-175 -4.5t-151.5 57.5t-108.5 115t-48 166.5zM285 358.5 q0 -8.5 2 -18.5l735 305q-25 119 -91.5 181.5t-151.5 75.5t-175 -19.5t-163.5 -101t-119 -172t-36.5 -232.5v-18.5zM647 1231l66 78l200 -164l-33 -41z" />
<glyph unicode="&#xe9;" horiz-adv-x="1060" d="M170 346q-8 139 51.5 255t155.5 196t213 117.5t224.5 23.5t190 -87t109.5 -216l-819 -334q29 -137 110.5 -199.5t181 -62.5t197 57.5t156.5 159.5q16 -10 30.5 -21.5t26.5 -19.5q-76 -86 -165 -136t-179 -67.5t-175 -4.5t-151.5 57.5t-108.5 115t-48 166.5zM285 358.5 q0 -8.5 2 -18.5l735 305q-25 119 -91.5 181.5t-151.5 75.5t-175 -19.5t-163.5 -101t-119 -172t-36.5 -232.5v-18.5zM629 1143l270 164l33 -78l-287 -127z" />
<glyph unicode="&#xea;" horiz-adv-x="1060" d="M170 346q-8 139 51.5 255t155.5 196t213 117.5t224.5 23.5t190 -87t109.5 -216l-819 -334q29 -137 110.5 -199.5t181 -62.5t197 57.5t156.5 159.5q16 -10 30.5 -21.5t26.5 -19.5q-76 -86 -165 -136t-179 -67.5t-175 -4.5t-151.5 57.5t-108.5 115t-48 166.5zM285 358.5 q0 -8.5 2 -18.5l735 305q-25 119 -91.5 181.5t-151.5 75.5t-175 -19.5t-163.5 -101t-119 -172t-36.5 -232.5v-18.5zM606 1102l174 211h55l84 -211h-49l-76 151l-137 -151h-51z" />
<glyph unicode="&#xeb;" horiz-adv-x="1060" d="M170 346q-8 139 51.5 255t155.5 196t213 117.5t224.5 23.5t190 -87t109.5 -216l-819 -334q29 -137 110.5 -199.5t181 -62.5t197 57.5t156.5 159.5q16 -10 30.5 -21.5t26.5 -19.5q-76 -86 -165 -136t-179 -67.5t-175 -4.5t-151.5 57.5t-108.5 115t-48 166.5zM285 358.5 q0 -8.5 2 -18.5l735 305q-25 119 -91.5 181.5t-151.5 75.5t-175 -19.5t-163.5 -101t-119 -172t-36.5 -232.5v-18.5zM623 1149q4 20 21.5 34.5t37.5 14.5t32.5 -14.5t8.5 -34.5q-4 -23 -23.5 -37t-39.5 -14t-30.5 14t-6.5 37zM826 1149q4 20 21.5 34.5t37.5 14.5t32.5 -14.5 t8.5 -34.5q-4 -23 -23.5 -37t-40.5 -14q-20 0 -30.5 14t-5.5 37z" />
<glyph unicode="&#xec;" horiz-adv-x="282" d="M90 0l201 950h102l-200 -950h-103zM260 1231l66 78l200 -164l-33 -41z" />
<glyph unicode="&#xed;" horiz-adv-x="282" d="M90 0l201 950h102l-200 -950h-103zM242 1143l270 164l33 -78l-287 -127z" />
<glyph unicode="&#xee;" horiz-adv-x="282" d="M90 0l201 950h102l-200 -950h-103zM219 1102l174 211h55l84 -211h-49l-76 151l-137 -151h-51z" />
<glyph unicode="&#xef;" horiz-adv-x="282" d="M90 0l201 950h102l-200 -950h-103zM234 1149q4 20 21.5 34.5t37.5 14.5t32.5 -14.5t8.5 -34.5q-4 -23 -23.5 -37t-39.5 -14t-30.5 14t-6.5 37zM437 1149q4 20 21.5 34.5t37.5 14.5t32.5 -14.5t8.5 -34.5q-4 -23 -23.5 -37t-40.5 -14q-20 0 -30.5 14t-5.5 37z" />
<glyph unicode="&#xf0;" horiz-adv-x="1118" d="M182 393q-2 100 34 195.5t99.5 175.5t149.5 136t184 79q82 18 153.5 8t130 -37.5t98.5 -70.5t56 -93q2 68 -8 136q-10 57 -34.5 122.5t-75.5 122.5l-174 -141l-41 51l170 140q-35 33 -69 55t-73 30.5t-85 2t-103 -26.5l-12 70q117 23 218 2t183 -86l180 149l39 -51 l-172 -141q78 -78 115 -195t41 -244q0 -145 -45 -285.5t-127 -251t-195.5 -178t-251.5 -67.5q-82 0 -151.5 28.5t-121.5 81t-82 124t-30 159.5zM305 408q2 -86 25.5 -160t68.5 -125t109.5 -72.5t148.5 -3.5q86 18 155 71.5t117 127t75.5 160t33.5 169.5q6 80 -14 149 t-59 119t-96.5 78.5t-125.5 28.5q-100 0 -182 -48t-138 -126t-87 -175t-31 -193z" />
<glyph unicode="&#xf1;" horiz-adv-x="997" d="M82 0l197 930h102l-35 -160q74 72 177 121t212 49q76 0 139.5 -21.5t106.5 -66.5t58.5 -115.5t-5.5 -169.5l-119 -567h-104l121 569q18 82 8 143.5t-42 103.5t-80 63.5t-105 21.5q-51 0 -107.5 -21.5t-110 -57.5t-99.5 -84t-79 -103l-133 -635h-102zM526 1157 q6 10 21.5 27.5t33.5 29.5q37 25 66 30t53.5 -3t48 -25.5t49.5 -35.5q37 -29 78 -27t82 41l10 -6q-16 -18 -51 -49t-82 -35q-37 0 -59.5 12t-42 27.5t-41 29t-53.5 13.5q-37 0 -62.5 -9.5t-42.5 -25.5z" />
<glyph unicode="&#xf2;" horiz-adv-x="1105" d="M174 307q-14 92 11.5 185.5t81 176.5t137 146.5t180.5 97.5q100 33 192 29t167 -43t124 -106.5t63 -159.5t-10 -185.5t-79.5 -175.5t-137.5 -146.5t-182 -96.5q-98 -35 -190.5 -30t-167 43t-125 105.5t-64.5 159.5zM287 346q14 -88 54 -154.5t97.5 -105.5t128 -48.5 t146.5 15.5q76 27 138 81t104 128t60.5 160t4.5 174t-55 154.5t-100.5 104.5t-132.5 47t-148 -17q-76 -27 -137.5 -81t-101.5 -126t-56.5 -158t-1.5 -174zM670 1231l66 78l200 -164l-33 -41z" />
<glyph unicode="&#xf3;" horiz-adv-x="1105" d="M174 307q-14 92 11.5 185.5t81 176.5t137 146.5t180.5 97.5q100 33 192 29t167 -43t124 -106.5t63 -159.5t-10 -185.5t-79.5 -175.5t-137.5 -146.5t-182 -96.5q-98 -35 -190.5 -30t-167 43t-125 105.5t-64.5 159.5zM287 346q14 -88 54 -154.5t97.5 -105.5t128 -48.5 t146.5 15.5q76 27 138 81t104 128t60.5 160t4.5 174t-55 154.5t-100.5 104.5t-132.5 47t-148 -17q-76 -27 -137.5 -81t-101.5 -126t-56.5 -158t-1.5 -174zM652 1143l270 164l33 -78l-287 -127z" />
<glyph unicode="&#xf4;" horiz-adv-x="1105" d="M174 307q-14 92 11.5 185.5t81 176.5t137 146.5t180.5 97.5q100 33 192 29t167 -43t124 -106.5t63 -159.5t-10 -185.5t-79.5 -175.5t-137.5 -146.5t-182 -96.5q-98 -35 -190.5 -30t-167 43t-125 105.5t-64.5 159.5zM287 346q14 -88 54 -154.5t97.5 -105.5t128 -48.5 t146.5 15.5q76 27 138 81t104 128t60.5 160t4.5 174t-55 154.5t-100.5 104.5t-132.5 47t-148 -17q-76 -27 -137.5 -81t-101.5 -126t-56.5 -158t-1.5 -174zM629 1102l174 211h55l84 -211h-49l-76 151l-137 -151h-51z" />
<glyph unicode="&#xf5;" horiz-adv-x="1105" d="M174 307q-14 92 11.5 185.5t81 176.5t137 146.5t180.5 97.5q100 33 192 29t167 -43t124 -106.5t63 -159.5t-10 -185.5t-79.5 -175.5t-137.5 -146.5t-182 -96.5q-98 -35 -190.5 -30t-167 43t-125 105.5t-64.5 159.5zM287 346q14 -88 54 -154.5t97.5 -105.5t128 -48.5 t146.5 15.5q76 27 138 81t104 128t60.5 160t4.5 174t-55 154.5t-100.5 104.5t-132.5 47t-148 -17q-76 -27 -137.5 -81t-101.5 -126t-56.5 -158t-1.5 -174zM580 1157q6 10 21.5 27.5t33.5 29.5q37 25 66 30t53.5 -3t48 -25.5t49.5 -35.5q37 -29 78 -27t82 41l10 -6 q-16 -18 -51 -49t-82 -35q-37 0 -59.5 12t-42 27.5t-41 29t-53.5 13.5q-37 0 -62.5 -9.5t-42.5 -25.5z" />
<glyph unicode="&#xf6;" horiz-adv-x="1105" d="M174 307q-14 92 11.5 185.5t81 176.5t137 146.5t180.5 97.5q100 33 192 29t167 -43t124 -106.5t63 -159.5t-10 -185.5t-79.5 -175.5t-137.5 -146.5t-182 -96.5q-98 -35 -190.5 -30t-167 43t-125 105.5t-64.5 159.5zM287 346q14 -88 54 -154.5t97.5 -105.5t128 -48.5 t146.5 15.5q76 27 138 81t104 128t60.5 160t4.5 174t-55 154.5t-100.5 104.5t-132.5 47t-148 -17q-76 -27 -137.5 -81t-101.5 -126t-56.5 -158t-1.5 -174zM645 1149q4 20 21.5 34.5t37.5 14.5t32.5 -14.5t8.5 -34.5q-4 -23 -23.5 -37t-39.5 -14t-30.5 14t-6.5 37zM848 1149 q4 20 21.5 34.5t37.5 14.5t32.5 -14.5t8.5 -34.5q-4 -23 -23.5 -37t-40.5 -14q-20 0 -30.5 14t-5.5 37z" />
<glyph unicode="&#xf7;" horiz-adv-x="1021" d="M256 614l18 80h772l-18 -80h-772zM465 357q6 27 28.5 45t51.5 18q27 0 42 -18.5t9 -44.5q-6 -29 -28.5 -47.5t-49.5 -18.5q-29 0 -44 18.5t-9 47.5zM590 938q4 27 26.5 45.5t50.5 18.5q27 0 42.5 -18.5t11.5 -45.5q-6 -29 -29.5 -47t-50.5 -18q-29 0 -43.5 18t-7.5 47z " />
<glyph unicode="&#xf8;" horiz-adv-x="1105" d="M125 2l1027 1024h100l-1026 -1024h-101zM174 307q-14 92 11.5 185.5t81 176.5t137 146.5t180.5 97.5q100 33 192 29t167 -43t124 -106.5t63 -159.5t-10 -185.5t-79.5 -175.5t-137.5 -146.5t-182 -96.5q-98 -35 -190.5 -30t-167 43t-125 105.5t-64.5 159.5zM287 346 q14 -88 54 -154.5t97.5 -105.5t128 -48.5t146.5 15.5q76 27 138 81t104 128t60.5 160t4.5 174t-55 154.5t-100.5 104.5t-132.5 47t-148 -17q-76 -27 -137.5 -81t-101.5 -126t-56.5 -158t-1.5 -174z" />
<glyph unicode="&#xf9;" horiz-adv-x="997" d="M155.5 205.5q-16.5 70.5 4.5 169.5l123 575h104l-123 -577q-18 -82 -8 -143.5t42 -103.5t80 -63.5t105 -21.5q51 0 107.5 20.5t110 56.5t99.5 84t77 103l137 645h102l-198 -938h-103l33 158q-74 -72 -176.5 -121t-210.5 -49q-76 0 -139.5 21.5t-106.5 67.5t-59.5 116.5z M616 1231l66 78l200 -164l-33 -41z" />
<glyph unicode="&#xfa;" horiz-adv-x="997" d="M155.5 205.5q-16.5 70.5 4.5 169.5l123 575h104l-123 -577q-18 -82 -8 -143.5t42 -103.5t80 -63.5t105 -21.5q51 0 107.5 20.5t110 56.5t99.5 84t77 103l137 645h102l-198 -938h-103l33 158q-74 -72 -176.5 -121t-210.5 -49q-76 0 -139.5 21.5t-106.5 67.5t-59.5 116.5z M598 1143l270 164l33 -78l-287 -127z" />
<glyph unicode="&#xfb;" horiz-adv-x="997" d="M155.5 205.5q-16.5 70.5 4.5 169.5l123 575h104l-123 -577q-18 -82 -8 -143.5t42 -103.5t80 -63.5t105 -21.5q51 0 107.5 20.5t110 56.5t99.5 84t77 103l137 645h102l-198 -938h-103l33 158q-74 -72 -176.5 -121t-210.5 -49q-76 0 -139.5 21.5t-106.5 67.5t-59.5 116.5z M576 1102l174 211h55l84 -211h-49l-76 151l-137 -151h-51z" />
<glyph unicode="&#xfc;" horiz-adv-x="997" d="M155.5 205.5q-16.5 70.5 4.5 169.5l123 575h104l-123 -577q-18 -82 -8 -143.5t42 -103.5t80 -63.5t105 -21.5q51 0 107.5 20.5t110 56.5t99.5 84t77 103l137 645h102l-198 -938h-103l33 158q-74 -72 -176.5 -121t-210.5 -49q-76 0 -139.5 21.5t-106.5 67.5t-59.5 116.5z M590 1149q4 20 21.5 34.5t37.5 14.5t32.5 -14.5t8.5 -34.5q-4 -23 -23.5 -37t-39.5 -14t-30.5 14t-6.5 37zM793 1149q4 20 21.5 34.5t37.5 14.5t32.5 -14.5t8.5 -34.5q-4 -23 -23.5 -37t-40.5 -14q-20 0 -30.5 14t-5.5 37z" />
<glyph unicode="&#xfd;" horiz-adv-x="1071" d="M-82 -279l70 66q20 -51 51 -87t68.5 -49t85 -1t102.5 59t105.5 112.5t123.5 176.5l-243 948h104l215 -833q96 145 167 250.5t121 182.5t83 131t56.5 98t39.5 84t35 87h90q-186 -287 -321.5 -497.5t-233.5 -359t-167 -243t-125 -146.5t-105.5 -71.5t-108.5 -19.5 q-72 0 -128 34.5t-85 77.5zM635 1143l270 164l33 -78l-287 -127z" />
<glyph unicode="&#xfe;" horiz-adv-x="1056" d="M-6 -424l381 1802h102l-119 -557q72 59 161 92t179 37q100 4 180 -29.5t131.5 -96t70.5 -147.5t1 -183t-71.5 -185.5t-130 -153t-170 -105.5t-189.5 -44q-98 -4 -177 32t-130 99l-119 -561h-100zM233 238q14 -39 42 -74t66 -61.5t84 -43t95 -16.5q78 0 149.5 35t132 96.5 t103.5 144t62 181.5q20 100 5.5 178t-54 130t-101 77.5t-137.5 23.5q-84 -4 -176 -49t-164 -121z" />
<glyph unicode="&#xff;" horiz-adv-x="1071" d="M-82 -279l70 66q20 -51 51 -87t68.5 -49t85 -1t102.5 59t105.5 112.5t123.5 176.5l-243 948h104l215 -833q96 145 167 250.5t121 182.5t83 131t56.5 98t39.5 84t35 87h90q-186 -287 -321.5 -497.5t-233.5 -359t-167 -243t-125 -146.5t-105.5 -71.5t-108.5 -19.5 q-72 0 -128 34.5t-85 77.5zM627 1149q4 20 21.5 34.5t37.5 14.5t32.5 -14.5t8.5 -34.5q-4 -23 -23.5 -37t-39.5 -14t-30.5 14t-6.5 37zM830 1149q4 20 21.5 34.5t37.5 14.5t32.5 -14.5t8.5 -34.5q-4 -23 -23.5 -37t-40.5 -14q-20 0 -30.5 14t-5.5 37z" />
<glyph unicode="&#x152;" horiz-adv-x="2404" d="M244.5 420q-27.5 125 3.5 268t110.5 268t193.5 218.5t251 147.5t280 54q141 0 255 -54t187.5 -147.5t102.5 -218.5t-2 -268t-111.5 -268t-193.5 -218t-250 -147.5t-278 -54.5q-143 0 -258 54.5t-189 147.5t-101.5 218zM362.5 721q-22.5 -127 4.5 -252q25 -127 92 -220 t161.5 -145.5t208 -59.5t232.5 40q119 45 213 132t154.5 199.5t83 239.5t-4.5 252t-94 218.5t-161.5 145.5t-208 59t-230.5 -38q-119 -45 -213 -132t-154.5 -199.5t-83 -239.5zM1380 0l293 1378h928l-23 -100q-68 18 -133 33q-55 12 -116.5 22t-108.5 10h-438l-119 -561h565 l-8 -37h-565l-152 -712h439q47 0 111.5 10t125.5 25q70 14 148 34l-21 -102h-926z" />
<glyph unicode="&#x153;" horiz-adv-x="1908" d="M174 309q-14 92 11.5 185.5t81 176.5t137 146.5t180.5 97.5q100 33 192 29t167 -43t124 -106.5t63 -159.5t-10 -185.5t-79.5 -175.5t-137.5 -146.5t-182 -96.5q-98 -35 -190.5 -30t-167 43t-125 105.5t-64.5 159.5zM287 348q14 -88 54 -154.5t97.5 -105.5t128 -48.5 t146.5 15.5q76 27 138 81t104 128t60.5 160t4.5 174t-55 154.5t-100.5 104.5t-132.5 47t-148 -17q-76 -27 -137.5 -81t-101.5 -126t-56.5 -158t-1.5 -174zM1018 346q-8 139 51.5 255t155.5 196t213 117.5t224.5 23.5t190 -87t109.5 -216l-819 -334q29 -137 110.5 -199.5 t181 -62.5t197 57.5t156.5 159.5q16 -10 30.5 -21.5t26.5 -19.5q-76 -86 -165 -136t-179 -67.5t-175 -4.5t-151.5 57.5t-108.5 115t-48 166.5zM1133 358.5q0 -8.5 2 -18.5l735 305q-25 119 -91.5 181.5t-151.5 75.5t-175 -19.5t-163.5 -101t-119 -172t-36.5 -232.5v-18.5z " />
<glyph unicode="&#x178;" horiz-adv-x="1466" d="M389 1378h125l367 -868l395 479q76 94 128 167t87 122q39 57 63 100h103l-764 -921l-96 -457h-117l94 449zM826 1559q4 20 21.5 34.5t37.5 14.5t32.5 -14.5t8.5 -34.5q-4 -23 -23.5 -37t-39.5 -14t-30.5 14t-6.5 37zM1029 1559q4 20 21.5 34.5t37.5 14.5t32.5 -14.5 t8.5 -34.5q-4 -23 -23.5 -37t-40.5 -14q-20 0 -30.5 14t-5.5 37z" />
<glyph unicode="&#x2c6;" horiz-adv-x="337" d="M248 1102l174 211h55l84 -211h-49l-76 151l-137 -151h-51z" />
<glyph unicode="&#x2dc;" horiz-adv-x="456" d="M256 1157q6 10 21.5 27.5t33.5 29.5q37 25 66 30t53.5 -3t48 -25.5t49.5 -35.5q37 -29 78 -27t82 41l10 -6q-16 -18 -51 -49t-82 -35q-37 0 -59.5 12t-42 27.5t-41 29t-53.5 13.5q-37 0 -62.5 -9.5t-42.5 -25.5z" />
<glyph unicode="&#x2000;" horiz-adv-x="875" />
<glyph unicode="&#x2001;" horiz-adv-x="1751" />
<glyph unicode="&#x2002;" horiz-adv-x="875" />
<glyph unicode="&#x2003;" horiz-adv-x="1751" />
<glyph unicode="&#x2004;" horiz-adv-x="583" />
<glyph unicode="&#x2005;" horiz-adv-x="437" />
<glyph unicode="&#x2006;" horiz-adv-x="291" />
<glyph unicode="&#x2007;" horiz-adv-x="291" />
<glyph unicode="&#x2008;" horiz-adv-x="218" />
<glyph unicode="&#x2009;" horiz-adv-x="350" />
<glyph unicode="&#x200a;" horiz-adv-x="97" />
<glyph unicode="&#x2010;" horiz-adv-x="933" d="M209 614l18 80h772l-18 -80h-772z" />
<glyph unicode="&#x2011;" horiz-adv-x="933" d="M209 614l18 80h772l-18 -80h-772z" />
<glyph unicode="&#x2012;" horiz-adv-x="933" d="M209 614l18 80h772l-18 -80h-772z" />
<glyph unicode="&#x2013;" horiz-adv-x="780" d="M211 614l18 80h621l-19 -80h-620z" />
<glyph unicode="&#x2014;" horiz-adv-x="931" d="M209 614l18 80h772l-18 -80h-772z" />
<glyph unicode="&#x2018;" horiz-adv-x="212" d="M309 1171l80 283h57l-49 -283h-88z" />
<glyph unicode="&#x2019;" horiz-adv-x="215" d="M322 1171l49 283h88l-80 -283h-57z" />
<glyph unicode="&#x201a;" horiz-adv-x="204" d="M43 -137l37 223h80l-60 -223h-57z" />
<glyph unicode="&#x201c;" horiz-adv-x="354" d="M309 1171l80 283h57l-49 -283h-88zM451 1171l79 283h58l-49 -283h-88z" />
<glyph unicode="&#x201d;" horiz-adv-x="354" d="M319 1171l50 283h88l-80 -283h-58zM461 1171l49 283h88l-80 -283h-57z" />
<glyph unicode="&#x201e;" horiz-adv-x="331" d="M45 -137l37 223h80l-60 -223h-57zM172 -137l37 223h80l-60 -223h-57z" />
<glyph unicode="&#x2022;" horiz-adv-x="260" d="M137 356q6 27 29.5 46.5t50.5 19.5q29 0 44 -19.5t9 -46.5q-4 -29 -28.5 -48t-53.5 -19q-27 0 -41 19.5t-10 47.5z" />
<glyph unicode="&#x2026;" horiz-adv-x="708" d="M80 66q6 27 28.5 45t51.5 18q27 0 42 -18.5t9 -44.5q-6 -29 -28.5 -47.5t-49.5 -18.5q-29 0 -44 18.5t-9 47.5zM303 66q6 27 28.5 45t51.5 18q27 0 42 -18.5t9 -44.5q-6 -29 -28.5 -47.5t-49.5 -18.5q-29 0 -44 18.5t-9 47.5zM526 66q6 27 29 45t51 18q27 0 42.5 -18.5 t8.5 -44.5q-6 -29 -28 -47.5t-49 -18.5q-29 0 -44.5 18.5t-9.5 47.5z" />
<glyph unicode="&#x202f;" horiz-adv-x="350" />
<glyph unicode="&#x2039;" horiz-adv-x="645" d="M209 598l20 104l535 275l-19 -82l-471 -246l369 -239l-18 -86z" />
<glyph unicode="&#x203a;" horiz-adv-x="604" d="M133 324l19 86l471 239l-369 246l18 82l416 -275l-20 -104z" />
<glyph unicode="&#x205f;" horiz-adv-x="437" />
<glyph unicode="&#x20ac;" horiz-adv-x="1341" d="M182 475l47 74h177q4 47 10 92t20 94h-141l47 74h115q37 98 99 197.5t146 180.5t187.5 132t224.5 55q133 4 240.5 -47t150.5 -162l-63 -32q-10 29 -31.5 66.5t-59.5 71.5t-97.5 56.5t-145.5 20.5t-168 -47.5t-154.5 -119t-131 -171t-97.5 -201.5h469l-45 -74h-444 q-10 -47 -19.5 -91t-11.5 -95h407l-47 -74h-358q0 -90 21.5 -171t62.5 -141.5t100 -97t137 -36.5q68 0 131.5 18.5t120 48t106.5 68.5t91 78l41 -35q-104 -94 -230 -151.5t-266 -55.5q-104 0 -179 40t-126 106.5t-77.5 151.5t-32.5 177h-226z" />
<glyph unicode="&#x2122;" horiz-adv-x="921" d="M344 1335l8 39h373l-8 -39q-14 4 -27 11q-10 4 -23.5 7t-23.5 3h-86l-86 -408h-45l86 408h-86q-10 0 -24.5 -3t-26.5 -7zM662 948q8 31 16 64q6 29 14 62.5t17 64.5q6 31 14 70.5t18 76.5q8 43 21 88h14l117 -287l211 287h35l-78 -426h-45l74 375l-213 -295l-113 272 q-6 -41 -17.5 -86t-17.5 -75q-6 -27 -12 -59.5t-12 -61.5q-8 -35 -13 -70h-30z" />
<glyph unicode="&#x25fc;" horiz-adv-x="952" d="M0 0v952h952v-952h-952z" />
<glyph unicode="&#xfb01;" horiz-adv-x="1128" d="M193 0q45 219 76.5 367.5t52 244t32 147.5t17.5 79.5t9 41t7 29.5h-115l9 41h116q23 90 44 146.5t44 91.5q57 94 141.5 140t170.5 50t163.5 -29.5t124.5 -101.5q-10 -10 -20 -18t-19.5 -16.5t-17.5 -16.5q-29 59 -89 100t-136 39q-74 0 -124 -33.5t-85 -87t-57.5 -123 t-40.5 -141.5h325l-14 -65q-90 10 -131 15t-63.5 7t-46 2h-81.5q-4 -16 -7 -29.5t-9 -42t-17.5 -80.5t-32 -147.5t-52 -244t-76.5 -365.5h-98zM944 0l201 950h102l-201 -950h-102zM1188 1219q6 27 28.5 45t51.5 18q27 0 42 -18.5t9 -44.5q-6 -29 -29.5 -47.5t-50.5 -18.5 q-29 0 -43.5 18.5t-7.5 47.5z" />
<glyph unicode="&#xfb02;" horiz-adv-x="1128" d="M193 0q45 219 76.5 367.5t52 244t32 147.5t17.5 79.5t9 41t7 29.5h-115l9 41h116q23 90 44 146.5t44 91.5q57 94 141.5 140t170.5 50t163.5 -29.5t124.5 -101.5q-10 -10 -20 -18t-19.5 -16.5t-17.5 -16.5q-29 59 -89 100t-136 39q-74 0 -124 -33.5t-85 -87t-57.5 -123 t-40.5 -141.5h325l-14 -65q-90 10 -131 15t-63.5 7t-46 2h-81.5q-4 -16 -7 -29.5t-9 -42t-17.5 -80.5t-32 -147.5t-52 -244t-76.5 -365.5h-98zM944 0l291 1374h102l-291 -1374h-102z" />
</font>
</defs>
</svg>
