<svg xmlns="http://www.w3.org/2000/svg" width="18.854" height="18.854" viewBox="0 0 18.854 18.854">
  <g id="Group_1353" data-name="Group 1353" transform="translate(-1077.038 -9162.328)">
    <path id="Path_587" data-name="Path 587" d="M1466.314,343.953a1.105,1.105,0,1,0,1.1,1.105,1.105,1.105,0,0,0-1.1-1.105" transform="translate(-374.858 8821.742)"/>
    <path id="Path_588" data-name="Path 588" d="M1461.4,345.37a4.643,4.643,0,1,0,4.643,4.643,4.648,4.648,0,0,0-4.643-4.643m0,7.617a2.974,2.974,0,1,1,2.974-2.974,2.977,2.977,0,0,1-2.974,2.974" transform="translate(-374.858 8821.742)"/>
    <path id="Path_589" data-name="Path 589" d="M1465.086,359.44h-7.527a5.669,5.669,0,0,1-5.663-5.663v-7.528a5.67,5.67,0,0,1,5.663-5.663h7.527a5.67,5.67,0,0,1,5.664,5.663v7.528a5.67,5.67,0,0,1-5.664,5.663m-7.527-17.08a3.894,3.894,0,0,0-3.89,3.889v7.528a3.893,3.893,0,0,0,3.89,3.889h7.527a3.893,3.893,0,0,0,3.89-3.889v-7.528a3.893,3.893,0,0,0-3.89-3.889Z" transform="translate(-374.858 8821.742)"/>
  </g>
</svg>
