<svg xmlns="http://www.w3.org/2000/svg" width="19.138" height="19.23" viewBox="0 0 19.138 19.23">
  <g id="Group_1352" data-name="Group 1352" transform="translate(-975.071 -9162.498)">
    <path id="Path_593" data-name="Path 593" d="M1356.7,359.982v-12.8h3.838v1.623a4.415,4.415,0,0,1,1.425-1.286,4.841,4.841,0,0,1,3.021-.54,6.944,6.944,0,0,1,1.776.436,3.417,3.417,0,0,1,2,2.621,12.048,12.048,0,0,1,.284,2.33c.036,2.479.016,4.958.017,7.437,0,.055-.005.11-.008.18h-3.909v-.318c0-2.119,0-4.239-.008-6.358a7.468,7.468,0,0,0-.11-1.212,1.934,1.934,0,0,0-2.429-1.726,2.146,2.146,0,0,0-1.925,1.938,7.788,7.788,0,0,0-.121,1.381c-.013,1.987-.006,3.974-.006,5.961v.33Z" transform="translate(-374.858 8821.742)"/>
    <rect id="Rectangle_1137" data-name="Rectangle 1137" width="3.95" height="12.785" transform="translate(975.374 9168.938)"/>
    <path id="Path_594" data-name="Path 594" d="M1352.252,345.41a2.327,2.327,0,1,1,2.331-2.323,2.334,2.334,0,0,1-2.331,2.323" transform="translate(-374.858 8821.742)"/>
  </g>
</svg>
