<svg xmlns="http://www.w3.org/2000/svg" width="18.084" height="18.084" viewBox="0 0 18.084 18.084">
  <path id="pinterest" d="M18.084,17.042A9.043,9.043,0,0,1,6.366,25.679a10.164,10.164,0,0,0,1.123-2.37c.109-.423.561-2.151.561-2.151A2.422,2.422,0,0,0,10.121,22.2c2.727,0,4.692-2.508,4.692-5.626a5.307,5.307,0,0,0-5.575-5.221c-3.9,0-5.976,2.618-5.976,5.473a4.058,4.058,0,0,0,1.834,3.5c.171.08.263.044.3-.12.029-.124.182-.74.252-1.025a.271.271,0,0,0-.062-.259,3.561,3.561,0,0,1-.667-2.064,3.913,3.913,0,0,1,4.083-3.923,3.57,3.57,0,0,1,3.777,3.679c0,2.446-1.236,4.142-2.844,4.142A1.311,1.311,0,0,1,8.6,19.124a18.169,18.169,0,0,0,.747-3.012A1.135,1.135,0,0,0,8.2,14.84c-.908,0-1.637.937-1.637,2.195a3.258,3.258,0,0,0,.27,1.342s-.893,3.785-1.057,4.492a8.752,8.752,0,0,0-.033,2.6,9.043,9.043,0,1,1,12.338-8.422Z" transform="translate(0 -8)"/>
</svg>
